<?xml version="1.0" encoding="utf-8"?>
<!-- Generator: Adobe Illustrator 18.1.1, SVG Export Plug-In . SVG Version: 6.00 Build 0)  -->
<!DOCTYPE svg PUBLIC "-//W3C//DTD SVG 1.1//EN" "http://www.w3.org/Graphics/SVG/1.1/DTD/svg11.dtd">
<svg version="1.1" id="artwork" xmlns="http://www.w3.org/2000/svg" xmlns:xlink="http://www.w3.org/1999/xlink" x="0px" y="0px"
	 viewBox="0 0 135.5 104.5" enable-background="new 0 0 135.5 104.5" xml:space="preserve">
<g>
	<g>
		<g>
			<g>
				<path fill="#FFFFFF" d="M19.1,60.2H22c3.3,0,4.9,1.9,4.9,4.6V65c0,2.7-1.6,4.7-4.9,4.7h-2.8V60.2z M21.9,68.3
					c2.1,0,3.1-1.2,3.1-3.3v-0.1c0-2-0.9-3.2-3.1-3.2h-1v6.6H21.9z"/>
				<path fill="#FFFFFF" d="M28.4,60.7c0-0.5,0.4-0.9,0.9-0.9c0.5,0,0.9,0.4,0.9,0.9c0,0.5-0.4,0.9-0.9,0.9
					C28.9,61.6,28.4,61.2,28.4,60.7z M28.6,62.8h1.6v6.9h-1.6V62.8z"/>
				<path fill="#FFFFFF" d="M32.2,62.8h1.6v1.3c0.4-0.9,1.1-1.4,2.2-1.4v1.5c-1.4,0-2.2,0.5-2.2,1.9v3.6h-1.6V62.8z"/>
				<path fill="#FFFFFF" d="M37,66.3v-0.1c0-2.1,1.5-3.5,3.4-3.5c1.7,0,3.2,1,3.2,3.5v0.5h-5c0.1,1.3,0.7,2,1.9,2
					c1,0,1.5-0.4,1.6-1.1h1.5c-0.2,1.4-1.4,2.2-3.2,2.2C38.5,69.8,37,68.4,37,66.3z M42.1,65.5c-0.1-1.2-0.7-1.7-1.7-1.7
					c-1,0-1.6,0.6-1.8,1.7H42.1z"/>
				<path fill="#FFFFFF" d="M45.3,59.6h1.6v6.2l2.5-3h1.7l-2.7,3.2l2.9,3.7h-1.8l-2.6-3.4v3.4h-1.6V59.6z"/>
				<path fill="#FFFFFF" d="M53.1,67.7V64h-0.9v-1.2h0.9v-1.5h1.6v1.5h1.5V64h-1.5v3.6c0,0.6,0.3,0.9,0.8,0.9c0.3,0,0.6,0,0.8-0.1
					v1.3c-0.2,0.1-0.6,0.2-1.1,0.2C53.8,69.8,53.1,69,53.1,67.7z"/>
				<path fill="#FFFFFF" d="M57.2,66.3v-0.1c0-2.1,1.5-3.5,3.5-3.5c2,0,3.5,1.4,3.5,3.5v0.1c0,2.1-1.5,3.5-3.5,3.5
					C58.7,69.8,57.2,68.4,57.2,66.3z M62.7,66.2L62.7,66.2c0-1.5-0.7-2.4-1.9-2.4s-1.9,0.9-1.9,2.3v0.1c0,1.4,0.7,2.3,1.9,2.3
					C62,68.5,62.7,67.7,62.7,66.2z"/>
				<path fill="#FFFFFF" d="M65.9,62.8h1.6v1.3c0.4-0.9,1.1-1.4,2.2-1.4v1.5c-1.4,0-2.2,0.5-2.2,1.9v3.6h-1.6V62.8z"/>
				<path fill="#FFFFFF" d="M70.7,67.7c0-1.6,1.5-2.2,3.5-2.2h0.9v-0.4c0-0.9-0.3-1.4-1.2-1.4c-0.8,0-1.2,0.4-1.3,1.1H71
					c0.1-1.6,1.4-2.3,2.9-2.3c1.5,0,2.7,0.6,2.7,2.5v4.5h-1.6v-0.8c-0.4,0.6-1.1,1-2.1,1C71.8,69.8,70.7,69.2,70.7,67.7z M75.1,67.2
					v-0.7h-0.8c-1.2,0-2,0.3-2,1.1c0,0.6,0.3,1,1.1,1C74.4,68.6,75.1,68.1,75.1,67.2z"/>
				<path fill="#FFFFFF" d="M78.9,67.7V64h-0.9v-1.2h0.9v-1.5h1.6v1.5h1.5V64h-1.5v3.6c0,0.6,0.3,0.9,0.8,0.9c0.3,0,0.6,0,0.8-0.1
					v1.3c-0.2,0.1-0.6,0.2-1.1,0.2C79.6,69.8,78.9,69,78.9,67.7z"/>
				<path fill="#FFFFFF" d="M83,66.3v-0.1c0-2.1,1.5-3.5,3.4-3.5c1.7,0,3.2,1,3.2,3.5v0.5h-5c0.1,1.3,0.7,2,1.9,2
					c1,0,1.5-0.4,1.6-1.1h1.5c-0.2,1.4-1.4,2.2-3.2,2.2C84.5,69.8,83,68.4,83,66.3z M88.1,65.5c-0.1-1.2-0.7-1.7-1.7-1.7
					c-1,0-1.6,0.6-1.8,1.7H88.1z"/>
				<path fill="#FFFFFF" d="M91.5,67.7V64h-0.9v-1.2h0.9v-1.5h1.6v1.5h1.5V64h-1.5v3.6c0,0.6,0.3,0.9,0.8,0.9c0.3,0,0.6,0,0.8-0.1
					v1.3c-0.2,0.1-0.6,0.2-1.1,0.2C92.2,69.8,91.5,69,91.5,67.7z"/>
			</g>
			<g>
				<path fill="#FFFFFF" d="M100,64h-0.9v-1.2h0.9v-0.9c0-1.5,0.8-2.3,2.3-2.3c0.4,0,0.6,0,0.9,0.1v1.2c-0.2-0.1-0.4-0.1-0.7-0.1
					c-0.6,0-0.9,0.4-0.9,1v1h1.6V64h-1.6v5.7H100V64z"/>
				<path fill="#FFFFFF" d="M104,66.3v-0.1c0-2.1,1.5-3.5,3.5-3.5c2,0,3.5,1.4,3.5,3.5v0.1c0,2.1-1.5,3.5-3.5,3.5
					C105.5,69.8,104,68.4,104,66.3z M109.4,66.3L109.4,66.3c0-1.5-0.7-2.4-1.9-2.4c-1.2,0-1.9,0.9-1.9,2.3v0.1
					c0,1.4,0.7,2.3,1.9,2.3C108.7,68.6,109.4,67.7,109.4,66.3z"/>
				<path fill="#FFFFFF" d="M112.6,62.8h1.6v1.3c0.4-0.9,1.1-1.4,2.2-1.4v1.5c-1.4,0-2.2,0.5-2.2,1.9v3.6h-1.6V62.8z"/>
			</g>
		</g>
		<g>
			<path fill="#FFFFFF" d="M19.1,82v-0.1c0-2.1,1.5-3.5,3.4-3.5c1.7,0,3.2,1,3.2,3.5v0.5h-5c0.1,1.3,0.7,2,1.9,2
				c1,0,1.5-0.4,1.6-1.1h1.5c-0.2,1.4-1.4,2.2-3.2,2.2C20.6,85.5,19.1,84.2,19.1,82z M24.2,81.2c-0.1-1.2-0.7-1.7-1.7-1.7
				c-1,0-1.6,0.6-1.8,1.7H24.2z"/>
			<path fill="#FFFFFF" d="M27.4,81.1h3.2v1.3h-3.2V81.1z"/>
			<path fill="#FFFFFF" d="M32.4,75.3H34v4.3c0.3-0.7,1.1-1.2,2.2-1.2c1.4,0,2.4,0.8,2.4,2.7v4.3H37v-4.2c0-1-0.4-1.5-1.4-1.5
				c-0.9,0-1.6,0.6-1.6,1.6v4h-1.6V75.3z"/>
			<path fill="#FFFFFF" d="M40.1,82v-0.1c0-2.1,1.5-3.5,3.4-3.5c1.7,0,3.2,1,3.2,3.5v0.5h-5c0.1,1.3,0.7,2,1.9,2
				c1,0,1.5-0.4,1.6-1.1h1.5c-0.2,1.4-1.4,2.2-3.2,2.2C41.6,85.5,40.1,84.2,40.1,82z M45.2,81.2c-0.1-1.2-0.7-1.7-1.7-1.7
				c-1,0-1.6,0.6-1.8,1.7H45.2z"/>
			<path fill="#FFFFFF" d="M48.5,75.3h1.6v10h-1.6V75.3z"/>
			<path fill="#FFFFFF" d="M51.7,83.3h1.5c0.1,0.7,0.4,1.1,1.4,1.1c0.9,0,1.2-0.3,1.2-0.9c0-0.6-0.5-0.8-1.5-0.9
				c-1.8-0.3-2.5-0.8-2.5-2.1c0-1.4,1.3-2.1,2.6-2.1c1.4,0,2.5,0.5,2.7,2.1h-1.5c-0.1-0.6-0.5-0.9-1.2-0.9c-0.7,0-1.1,0.3-1.1,0.8
				c0,0.5,0.3,0.7,1.4,0.9c1.6,0.2,2.6,0.6,2.6,2.1c0,1.4-1,2.2-2.7,2.2C52.8,85.5,51.8,84.7,51.7,83.3z"/>
			<path fill="#FFFFFF" d="M58.5,82v-0.1c0-2.1,1.5-3.5,3.4-3.5c1.7,0,3.2,1,3.2,3.5v0.5h-5c0.1,1.3,0.7,2,1.9,2
				c1,0,1.5-0.4,1.6-1.1h1.5c-0.2,1.4-1.4,2.2-3.2,2.2C59.9,85.5,58.5,84.2,58.5,82z M63.6,81.2c-0.1-1.2-0.7-1.7-1.7-1.7
				c-1,0-1.6,0.6-1.8,1.7H63.6z"/>
		</g>
	</g>
	<g>
		<rect x="108.9" y="30.3" fill="#FFFFFF" width="7.5" height="7.5"/>
		<rect x="97.4" y="41.7" fill="#FFFFFF" width="7.5" height="7.5"/>
		<rect x="97.4" y="30.3" fill="#FFFFFF" width="7.5" height="7.5"/>
		<rect x="78.1" y="30.3" fill="#FFFFFF" width="7.5" height="7.5"/>
		<rect x="97.5" y="18.9" fill="#FFFFFF" width="7.5" height="7.5"/>
		<path fill="#FFFFFF" d="M112.4,41.4c-2.2,0-3.9,1.7-3.9,3.9s1.8,3.9,3.9,3.9s3.9-1.7,3.9-3.9S114.6,41.4,112.4,41.4z"/>
		<path fill="#FFFFFF" d="M54.5,41.4c-2.2,0-3.9,1.7-3.9,3.9s1.8,3.9,3.9,3.9s3.9-1.7,3.9-3.9S56.6,41.4,54.5,41.4z"/>
		<path fill="#FFFFFF" d="M112.5,18.9c-2.2,0-3.9,1.7-3.9,3.9s1.8,3.9,3.9,3.9s3.9-1.7,3.9-3.9S114.6,18.9,112.5,18.9z"/>
		<path fill="#FFFFFF" d="M22.9,18.9c-2.2,0-3.9,1.7-3.9,3.9s1.8,3.9,3.9,3.9s3.9-1.7,3.9-3.9S25.1,18.9,22.9,18.9z"/>
	</g>
</g>
</svg>
