<svg width="2913" height="2693" xmlns="http://www.w3.org/2000/svg" xmlns:xlink="http://www.w3.org/1999/xlink" xml:space="preserve" overflow="hidden"><defs><clipPath id="clip0"><rect x="5615" y="1129" width="2913" height="2693"/></clipPath></defs><g clip-path="url(#clip0)" transform="translate(-5615 -1129)"><path d="M5617.5 2475.5C5617.5 1733.23 6268.48 1131.5 7071.5 1131.5 7874.52 1131.5 8525.5 1733.23 8525.5 2475.5 8525.5 3217.77 7874.52 3819.5 7071.5 3819.5 6268.48 3819.5 5617.5 3217.77 5617.5 2475.5Z" stroke="#004BAA" stroke-width="4.58333" stroke-miterlimit="8" fill="#0169E8" fill-rule="evenodd"/><text fill="#FFFFFF" font-family="Calibri,Calibri_MSFontService,sans-serif" font-weight="400" font-size="165" transform="matrix(1 0 0 1 6474.25 2431)">Behandlingsrettet <tspan font-size="165" x="166.168" y="198">helseregister</tspan></text><path d="M5856.5 3218.5C5856.5 2982.67 6118.64 2791.5 6442 2791.5 6765.36 2791.5 7027.5 2982.67 7027.5 3218.5 7027.5 3454.33 6765.36 3645.5 6442 3645.5 6118.64 3645.5 5856.5 3454.33 5856.5 3218.5Z" stroke="#281C2C" stroke-width="4.58333" stroke-miterlimit="8" fill="#281C2C" fill-rule="evenodd"/><text fill="#FFFFFF" font-family="Calibri,Calibri_MSFontService,sans-serif" font-weight="400" font-size="165" transform="matrix(1 0 0 1 6235.68 3174)">Logisk <tspan font-size="165" x="-8.8916" y="198">modul</tspan></text><path d="M7166.5 3118C7166.5 2852.07 7470.72 2636.5 7846 2636.5 8221.28 2636.5 8525.5 2852.07 8525.5 3118 8525.5 3383.93 8221.28 3599.5 7846 3599.5 7470.72 3599.5 7166.5 3383.93 7166.5 3118Z" stroke="#281C2C" stroke-width="4.58333" stroke-miterlimit="8" fill="#281C2C" fill-rule="evenodd"/><text fill="#FFFFFF" font-family="Calibri,Calibri_MSFontService,sans-serif" font-weight="400" font-size="165" transform="matrix(1 0 0 1 7405.84 3173)">Logisk modul</text><path d="M5761.5 1883.5C5761.5 1647.67 6023.41 1456.5 6346.5 1456.5 6669.59 1456.5 6931.5 1647.67 6931.5 1883.5 6931.5 2119.33 6669.59 2310.5 6346.5 2310.5 6023.41 2310.5 5761.5 2119.33 5761.5 1883.5Z" stroke="#281C2C" stroke-width="4.58333" stroke-miterlimit="8" fill="#281C2C" fill-rule="evenodd"/><text fill="#FFFFFF" font-family="Calibri,Calibri_MSFontService,sans-serif" font-weight="400" font-size="165" transform="matrix(1 0 0 1 6140.11 1839)">Logisk <tspan font-size="165" x="-8.8916" y="198">modul</tspan></text><path d="M7216.5 1762.5C7216.5 1526.67 7478.41 1335.5 7801.5 1335.5 8124.59 1335.5 8386.5 1526.67 8386.5 1762.5 8386.5 1998.33 8124.59 2189.5 7801.5 2189.5 7478.41 2189.5 7216.5 1998.33 7216.5 1762.5Z" stroke="#281C2C" stroke-width="4.58333" stroke-miterlimit="8" fill="#281C2C" fill-rule="evenodd"/><text fill="#FFFFFF" font-family="Calibri,Calibri_MSFontService,sans-serif" font-weight="400" font-size="165" transform="matrix(1 0 0 1 7595.32 1718)">Logisk <tspan font-size="165" x="-8.8916" y="198">modul</tspan></text></g></svg>