<svg width="3164" height="4925" xmlns="http://www.w3.org/2000/svg" xmlns:xlink="http://www.w3.org/1999/xlink" xml:space="preserve" overflow="hidden"><defs><clipPath id="clip0"><rect x="5374" y="-3" width="3164" height="4925"/></clipPath></defs><g clip-path="url(#clip0)" transform="translate(-5374 3)"><path d="M0 0 1543.7 0 1659 350 1543.7 700 0 700Z" stroke="#281C2C" stroke-width="4.58333" stroke-miterlimit="8" fill="#281C2C" fill-rule="evenodd" fill-opacity="0.25098" transform="matrix(1 0 0 -1 6826.5 3175.5)"/><path d="M77.1457 0 116.942 0.999205C472.801 18.9085 788.698 187.204 1001.44 443.149L1072 536.827 741.702 656.598 482.836 919 458.884 887.199C373.285 784.218 248.625 714.43 107.423 700.192L82.3462 698.935 0 338.073 77.1457 0Z" stroke="#281C2C" stroke-width="4.58333" stroke-miterlimit="8" fill="#281C2C" fill-rule="evenodd" fill-opacity="0.701961" transform="matrix(1 0 0 -1 6765.5 4918.5)"/><path d="M956.589 0 879.666 337.469 962 698.679 946.154 699.475C805.154 713.708 680.671 783.474 595.193 886.422L570.684 919 238.42 780.003 0 513.5 53.4062 442.512C265.85 186.647 581.297 18.4048 936.649 0.501139L956.589 0Z" stroke="#281C2C" stroke-width="4.58333" stroke-miterlimit="8" fill="#281C2C" fill-rule="evenodd" fill-opacity="0.54902" transform="matrix(1 0 0 -1 5819.5 4917.5)"/><path d="M188.906 0 426.417 265.563 763 406.408 743.34 446.985C716.809 509.35 702.137 577.917 702.137 649.891 702.137 703.872 710.39 755.936 725.709 804.905L731.311 820.124 440.831 1029.74 84.6703 1095 74.4202 1069.15C26.2753 938.421 0 797.207 0 649.891 0 418.396 64.8834 201.968 177.556 17.6021L188.906 0Z" stroke="#281C2C" stroke-width="4.58333" stroke-miterlimit="8" fill="#281C2C" fill-rule="evenodd" fill-opacity="0.4" transform="matrix(1 0 0 -1 5592.5 4349.5)"/><path d="M589.671 0 615.763 45.034C710.301 217.737 764 415.65 764 626.01 764 773.262 737.687 914.415 689.473 1045.09L680.372 1068 399.476 877.042 23.3274 818.711 37.2516 780.957C52.5926 732.009 60.8569 679.968 60.8569 626.01 60.8569 554.067 46.1647 485.529 19.5956 423.191L0 382.823 259.853 119.541 589.671 0Z" stroke="#281C2C" stroke-width="4.58333" stroke-miterlimit="8" fill="#281C2C" fill-rule="evenodd" fill-opacity="0.85098" transform="matrix(1 0 0 -1 7283.5 4325.5)"/><path d="M13.0001 0 13.0001 697.763 6.36788 698 0 697.773 0 0.193852 6.36788 0.411396 13.0001 0Z" stroke="#DAE3F3" stroke-width="4.58333" stroke-miterlimit="8" fill="#DAE3F3" fill-rule="evenodd" transform="matrix(1 0 0 -1 6813.5 3178.5)"/><path d="M647.33 0 655.691 17.2358C739.036 169.591 896.635 276.076 1080.26 288.791L1111 289.852 1111 988 1026.73 984.96C578.067 952.476 196.308 680.625 10.3754 297.437L0 274.647 356.893 209.335 647.33 0Z" stroke="#281C2C" stroke-width="4.58333" stroke-miterlimit="8" fill="#281C2C" fill-rule="evenodd" fill-opacity="0.25098" transform="matrix(1 0 0 -1 5702.5 3468.5)"/><path d="M451.511 0 831.592 58.9957 1111 249.118 1099.23 274.971C913.491 657.869 532.124 929.512 83.9241 961.972L0 965 0 267.198 60.2266 263.424C213.339 244.091 345.844 159.183 428.31 37.9342L451.511 0Z" stroke="#281C2C" stroke-width="4.58333" stroke-miterlimit="8" fill="#281C2C" fill-rule="evenodd" transform="matrix(1 0 0 -1 6826.5 3445.5)"/><path d="M5376.5 2478.5 6848.2 2478.5 6963.5 2828.5 6848.2 3178.5 5376.5 3178.5Z" stroke="#281C2C" stroke-width="4.58333" stroke-miterlimit="8" fill="#281C2C" fill-rule="evenodd"/><text fill="#FFFFFF" font-family="Calibri,Calibri_MSFontService,sans-serif" font-weight="400" font-size="110" transform="matrix(1 0 0 1 5617 2799)">Behov for informasjon i <tspan font-size="110" x="205.402" y="132">tjenesteforløp</tspan></text><path d="M0 462C-5.92644e-14 206.844 208.411-5.88188e-14 465.5-1.17638e-13 722.588-2.35275e-13 931 206.844 931 462 931 717.155 722.588 924 465.5 924 208.411 924-2.96322e-13 717.155 0 462Z" stroke="#281C2C" stroke-width="4.58333" stroke-miterlimit="8" fill="#281C2C" fill-rule="evenodd" transform="matrix(1 0 0 -1 6355.5 4164.5)"/><text fill="#FFFFFF" font-family="Calibri,Calibri_MSFontService,sans-serif" font-weight="400" font-size="128" transform="matrix(1 0 0 1 6565.15 3709)">Utprøving <tspan font-size="128" x="138.348" y="154">DHO</tspan><tspan font-size="110" x="808.329" y="-34">Integrasjoner i </tspan><tspan font-size="110" x="1022.6" y="98">egen </tspan><tspan font-size="110" x="849.006" y="230">infrastruktur</tspan><tspan font-size="110" x="293.629" y="677">Bruk av eksterne </tspan><tspan font-size="110" x="360.088" y="809">informasjons</tspan><tspan font-size="110" x="941.598" y="809">-</tspan><tspan font-size="110" x="465.802" y="941">tjenester</tspan><tspan font-size="110" x="-385.273" y="690">Justere </tspan><tspan font-size="110" x="-543.398" y="822">tjenesteforløp</tspan><tspan font-size="110" x="-882.46" y="-26">Utprøve og </tspan><tspan font-size="110" x="-826.589" y="106">evaluere</tspan><tspan font-size="110" x="1282.13" y="-1013">Informasjon </tspan><tspan font-size="110" x="1284.42" y="-881">tilgjengelig i </tspan><tspan font-size="110" x="1234.01" y="-749">tjenesteforløp</tspan></text><path d="M6816.5 1743.5 8370.2 1743.5 8485.5 2093.5 8370.2 2443.5 6816.5 2443.5Z" stroke="#281C2C" stroke-width="4.58333" stroke-miterlimit="8" fill="#281C2C" fill-rule="evenodd" fill-opacity="0.25098"/><path d="M6833.07 0.499836 6872.57 1.49904C7225.77 19.4084 7539.31 187.704 7750.47 443.649L7820.5 537.327 7492.67 657.098 7235.73 919.5 7211.96 887.699C7127 784.718 7003.27 714.93 6863.12 700.693L6838.23 699.435 6756.5 338.573 6833.07 0.499836Z" stroke="#281C2C" stroke-width="4.58333" stroke-miterlimit="8" fill="#281C2C" fill-rule="evenodd" fill-opacity="0.701961"/><path d="M6767.12 0.499836 6690.68 338.336 6772.5 699.94 6756.75 700.736C6616.63 714.984 6492.93 784.827 6407.98 887.887L6383.62 920.5 6053.43 781.351 5816.5 514.559 5869.57 443.494C6080.69 187.35 6394.17 18.9247 6747.31 1.00152L6767.12 0.499836Z" stroke="#281C2C" stroke-width="4.58333" stroke-miterlimit="8" fill="#281C2C" fill-rule="evenodd" fill-opacity="0.54902"/><path d="M5778.42 569.5 6014.68 835.064 6349.5 975.908 6329.94 1016.49C6303.55 1078.85 6288.96 1147.42 6288.96 1219.39 6288.96 1273.37 6297.17 1325.44 6312.4 1374.4L6317.98 1389.62 6029.02 1599.24 5674.73 1664.5 5664.53 1638.65C5616.64 1507.92 5590.5 1366.71 5590.5 1219.39 5590.5 987.896 5655.04 771.468 5767.12 587.102L5778.42 569.5Z" stroke="#281C2C" stroke-width="4.58333" stroke-miterlimit="8" fill="#281C2C" fill-rule="evenodd" fill-opacity="0.4"/><path d="M7856.31 592.5 7882.23 637.576C7976.15 810.441 8029.5 1008.54 8029.5 1219.1 8029.5 1366.49 8003.36 1507.77 7955.46 1638.57L7946.42 1661.5 7667.36 1470.36 7293.67 1411.98 7307.51 1374.19C7322.75 1325.19 7330.96 1273.1 7330.96 1219.1 7330.96 1147.09 7316.36 1078.48 7289.97 1016.09L7270.5 975.681 7528.65 712.153 7856.31 592.5Z" stroke="#281C2C" stroke-width="4.58333" stroke-miterlimit="8" fill="#281C2C" fill-rule="evenodd" fill-opacity="0.85098"/><path d="M6816.5 1739.5 6816.5 2438.26 6809.87 2438.5 6803.5 2438.27 6803.5 1739.69 6809.87 1739.91 6816.5 1739.5Z" stroke="#DAE3F3" stroke-width="4.58333" stroke-miterlimit="8" fill="#DAE3F3" fill-rule="evenodd"/><path d="M6343.17 1450.5 6351.47 1467.74C6434.21 1620.09 6590.68 1726.58 6772.98 1739.29L6803.5 1740.35 6803.5 2438.5 6719.83 2435.46C6274.4 2402.98 5895.39 2131.13 5710.8 1747.94L5700.5 1725.15 6054.82 1659.83 6343.17 1450.5Z" stroke="#281C2C" stroke-width="4.58333" stroke-miterlimit="8" fill="#281C2C" fill-rule="evenodd" fill-opacity="0.25098"/><path d="M7265.17 1472.5 7642.85 1531.56 7920.5 1721.88 7908.81 1747.76C7724.23 2131.05 7345.27 2402.98 6899.9 2435.47L6816.5 2438.5 6816.5 1739.98 6876.35 1736.2C7028.49 1716.84 7160.17 1631.85 7242.11 1510.47L7265.17 1472.5Z" stroke="#281C2C" stroke-width="4.58333" stroke-miterlimit="8" fill="#281C2C" fill-rule="evenodd"/><path d="M5376.5 1739.5 6838.2 1739.5 6953.5 2089.5 6838.2 2439.5 5376.5 2439.5Z" stroke="#281C2C" stroke-width="4.58333" stroke-miterlimit="8" fill="#281C2C" fill-rule="evenodd"/><text fill="#FFFFFF" font-family="Calibri,Calibri_MSFontService,sans-serif" font-weight="400" font-size="110" transform="matrix(1 0 0 1 5930.52 1994)">Behov for <tspan font-size="110" x="-354.635" y="132">informasjonstjenester og </tspan><tspan font-size="110" x="-280.156" y="264">infrastrukturtjenester</tspan><tspan font-size="110" x="1409.47" y="-895">Samhandlings</tspan><tspan font-size="110" x="1530.92" y="-763">mønster</tspan><tspan font-size="110" x="1017.27" y="-1638">Informasjons</tspan><tspan font-size="110" x="1601.07" y="-1638">-</tspan><tspan font-size="110" x="900.115" y="-1506">tjenester i nasjonal </tspan><tspan font-size="110" x="1042.77" y="-1374">infrastruktur</tspan><tspan font-size="110" x="-198.59" y="-855">Juridiske </tspan><tspan font-size="110" x="-253.292" y="-723">avklaringer</tspan><tspan font-size="110" x="45.8125" y="-1550">Virksomhetenes  </tspan><tspan font-size="110" x="100.515" y="-1418">informasjons</tspan><tspan font-size="110" x="682.025" y="-1418">-</tspan><tspan font-size="110" x="206.229" y="-1286">tjenester</tspan><tspan font-size="110" x="1820.55" y="7">Arkitekturvalg,</tspan><tspan font-size="110" x="1829.14" y="139">fellestjenester </tspan><tspan font-size="110" x="2094.97" y="271">og</tspan><tspan font-size="110" x="1914.78" y="403">normering</tspan></text><path d="M6349.5 1215.5C6349.5 960.344 6556.34 753.5 6811.5 753.5 7066.66 753.5 7273.5 960.344 7273.5 1215.5 7273.5 1470.66 7066.66 1677.5 6811.5 1677.5 6556.34 1677.5 6349.5 1470.66 6349.5 1215.5Z" stroke="#281C2C" stroke-width="4.58333" stroke-miterlimit="8" fill="#281C2C" fill-rule="evenodd"/><text fill="#FFFFFF" font-family="Calibri,Calibri_MSFontService,sans-serif" font-weight="400" font-size="128" transform="matrix(1 0 0 1 6452.31 1168)">Målarkitektur <tspan font-size="128" x="81.9268" y="154">datadeling </tspan><tspan font-size="128" x="235.171" y="308">DHO</tspan></text></g></svg>