<svg width="6749" height="4073" xmlns="http://www.w3.org/2000/svg" xmlns:xlink="http://www.w3.org/1999/xlink" xml:space="preserve" overflow="hidden"><defs><clipPath id="clip0"><rect x="1515" y="244" width="6749" height="4073"/></clipPath><clipPath id="clip1"><rect x="2215" y="2827" width="258" height="235"/></clipPath><clipPath id="clip2"><rect x="2215" y="2827" width="258" height="235"/></clipPath><clipPath id="clip3"><rect x="2215" y="2827" width="258" height="235"/></clipPath><clipPath id="clip4"><rect x="5929" y="2827" width="259" height="235"/></clipPath><clipPath id="clip5"><rect x="5929" y="2827" width="259" height="235"/></clipPath><clipPath id="clip6"><rect x="5929" y="2827" width="259" height="235"/></clipPath><clipPath id="clip7"><rect x="2215" y="1850" width="258" height="235"/></clipPath><clipPath id="clip8"><rect x="2215" y="1850" width="258" height="235"/></clipPath><clipPath id="clip9"><rect x="2215" y="1850" width="258" height="235"/></clipPath><clipPath id="clip10"><rect x="5929" y="1850" width="259" height="235"/></clipPath><clipPath id="clip11"><rect x="5929" y="1850" width="259" height="235"/></clipPath><clipPath id="clip12"><rect x="5929" y="1850" width="259" height="235"/></clipPath><linearGradient x1="5570.5" y1="3590.5" x2="5570.5" y2="4044.5" gradientUnits="userSpaceOnUse" spreadMethod="reflect" id="fill13"><stop offset="0" stop-color="#7BF5BC"/><stop offset="0.22" stop-color="#0169E8"/><stop offset="0.78" stop-color="#0169E8"/><stop offset="1" stop-color="#7BF5BC"/></linearGradient><clipPath id="clip14"><rect x="5812" y="3688" width="364" height="331"/></clipPath><clipPath id="clip15"><rect x="5812" y="3688" width="364" height="331"/></clipPath><clipPath id="clip16"><rect x="5812" y="3688" width="364" height="331"/></clipPath><clipPath id="clip17"><rect x="5876" y="3744" width="170" height="155"/></clipPath><clipPath id="clip18"><rect x="5876" y="3744" width="170" height="155"/></clipPath><clipPath id="clip19"><rect x="5876" y="3744" width="170" height="155"/></clipPath><clipPath id="clip20"><rect x="4491" y="3659" width="274" height="274"/></clipPath><clipPath id="clip21"><rect x="4491" y="3659" width="274" height="274"/></clipPath><clipPath id="clip22"><rect x="4491" y="3659" width="274" height="274"/></clipPath></defs><g clip-path="url(#clip0)" transform="translate(-1515 -244)"><path d="M4731.5 2575.1C4731.5 2559.3 4744.3 2546.5 4760.1 2546.5L6380.9 2546.5C6396.7 2546.5 6409.5 2559.3 6409.5 2575.1L6409.5 3395.9C6409.5 3411.7 6396.7 3424.5 6380.9 3424.5L4760.1 3424.5C4744.3 3424.5 4731.5 3411.7 4731.5 3395.9Z" stroke="#0169E8" stroke-width="4.58333" stroke-miterlimit="8" fill="#00BBD4" fill-rule="evenodd" fill-opacity="0.501961"/><text fill="#281C2C" font-family="Arial,Arial_MSFontService,sans-serif" font-weight="700" font-size="128" transform="matrix(1 0 0 1 5221.75 3370)">Virksomhet</text><path d="M1553.64 3242C1542.79 3242 1534 3233.21 1534 3222.36L1534 2658.64C1534 2647.79 1542.79 2639 1553.64 2639L3621.36 2639C3632.21 2639 3641 2647.79 3641 2658.64L3641 3222.36C3641 3233.21 3632.21 3242 3621.36 3242Z" fill="#777777" fill-rule="evenodd"/><path d="M3707 1636.17C3707 1618.96 3720.96 1605 3738.17 1605L4632.83 1605C4650.04 1605 4664 1618.96 4664 1636.17L4664 3392.83C4664 3410.04 4650.04 3424 4632.83 3424L3738.17 3424C3720.96 3424 3707 3410.04 3707 3392.83Z" fill="#EEEEEE" fill-rule="evenodd"/><text fill="#281C2C" font-family="Arial,Arial_MSFontService,sans-serif" font-weight="700" font-size="128" transform="matrix(1 0 0 1 4004.01 1756)">Felles <tspan font-size="128" x="-132.344" y="154">semantikk</tspan><tspan font-size="110" x="811.853" y="-1362">Virksomheter med lite behov </tspan><tspan font-size="110" x="1324.18" y="-1230">for støtte</tspan></text><path d="M1963.5 2591.54C1963.5 2576.06 1976.06 2563.5 1991.54 2563.5L3613.46 2563.5C3628.94 2563.5 3641.5 2576.06 3641.5 2591.54L3641.5 3396.46C3641.5 3411.95 3628.94 3424.51 3613.46 3424.51L1991.54 3424.51C1976.06 3424.51 1963.5 3411.95 1963.5 3396.46Z" stroke="#0169E8" stroke-width="4.58333" stroke-miterlimit="8" fill="#00BBD4" fill-rule="evenodd" fill-opacity="0.501961"/><text fill="#281C2C" font-family="Arial,Arial_MSFontService,sans-serif" font-weight="700" font-size="128" transform="matrix(1 0 0 1 2453.44 3371)">Virksomhet<tspan font-size="83" x="1364.38" y="-528">Datadeling mellom </tspan><tspan font-size="83" x="1419.38" y="-429">helsepersonell i </tspan><tspan font-size="83" x="1440.01" y="-330">ulike løsninger</tspan></text><rect x="2141.5" y="2705.5" width="1348" height="477" stroke="#1A111D" stroke-width="4.58333" stroke-miterlimit="8" fill="#281C2C"/><text fill="#FFFFFF" font-family="Arial,Arial_MSFontService,sans-serif" font-weight="400" font-size="92" transform="matrix(1 0 0 1 2557.15 2923)">Datadelings<tspan font-size="92" x="484.688" y="0">-</tspan><tspan font-size="92" x="97.0982" y="110">tjeneste</tspan></text><rect x="4908.5" y="2705.5" width="1348" height="477" stroke="#004BAA" stroke-width="4.58333" stroke-miterlimit="8" fill="#0169E8"/><text fill="#FFFFFF" font-family="Arial,Arial_MSFontService,sans-serif" font-weight="400" font-size="92" transform="matrix(1 0 0 1 5324.1 2923)">Datadelings<tspan font-size="92" x="484.688" y="0">-</tspan><tspan font-size="92" x="97.0977" y="110">tjeneste</tspan><tspan fill="#281C2C" font-weight="700" font-size="110" x="-3312.73" y="-2539">Virksomheter med stort behov </tspan><tspan fill="#281C2C" font-weight="700" font-size="110" x="-2757.41" y="-2407">for støtte</tspan></text><path d="M91.6665-18.3333 128.333-18.3333 128.333 18.3334 91.6665 18.3334ZM165-18.3333 201.667-18.3333 201.667 18.3334 165 18.3334ZM238.333-18.3332 275-18.3332 275 18.3334 238.333 18.3334ZM311.667-18.3332 348.333-18.3332 348.333 18.3335 311.667 18.3335ZM385-18.3332 421.666-18.3332 421.666 18.3335 385 18.3335ZM458.333-18.3332 495-18.3331 495 18.3335 458.333 18.3335ZM531.667-18.3331 568.333-18.3331 568.333 18.3335 531.667 18.3335ZM605-18.3331 641.667-18.3331 641.667 18.3336 605 18.3336ZM678.333-18.3331 715-18.3331 715 18.3336 678.333 18.3336ZM751.667-18.333 788.333-18.333 788.333 18.3336 751.667 18.3336ZM825-18.333 861.667-18.333 861.667 18.3337 825 18.3336ZM110 55 0 0 110-55ZM846.964-54.9997 956.964 0.000360892 846.964 55.0003Z" fill="#281C2C" transform="matrix(-1 0 0 1 4664.46 2509.5)"/><g clip-path="url(#clip1)"><g clip-path="url(#clip2)"><g clip-path="url(#clip3)"><path d="M73.125 47.5313 36.5625 69.7125 117 118.463 153.563 96.2813Z" fill="#FFFFFF" transform="matrix(1.10256 0 0 1 2215 2827)"/><path d="M197.438 69.7125 117 20.9625 82.3875 41.925 162.825 90.675Z" fill="#FFFFFF" transform="matrix(1.10256 0 0 1 2215 2827)"/><path d="M36.5625 89.2125 36.5625 167.213 112.125 213.038 112.125 126.994 36.5625 81.1688Z" fill="#FFFFFF" transform="matrix(1.10256 0 0 1 2215 2827)"/><path d="M148.688 140.4 131.625 150.15 131.625 133.088 148.688 123.338 148.688 140.4ZM121.875 126.994 121.875 213.038 197.438 167.213 197.438 81.1688 121.875 126.994Z" fill="#FFFFFF" transform="matrix(1.10256 0 0 1 2215 2827)"/></g></g></g><g clip-path="url(#clip4)"><g clip-path="url(#clip5)"><g clip-path="url(#clip6)"><path d="M73.125 47.5313 36.5625 69.7125 117 118.463 153.563 96.2813Z" fill="#FFFFFF" transform="matrix(1.10256 0 0 1 5929 2827)"/><path d="M197.438 69.7125 117 20.9625 82.3875 41.925 162.825 90.675Z" fill="#FFFFFF" transform="matrix(1.10256 0 0 1 5929 2827)"/><path d="M36.5625 89.2125 36.5625 167.213 112.125 213.038 112.125 126.994 36.5625 81.1688Z" fill="#FFFFFF" transform="matrix(1.10256 0 0 1 5929 2827)"/><path d="M148.688 140.4 131.625 150.15 131.625 133.088 148.688 123.338 148.688 140.4ZM121.875 126.994 121.875 213.038 197.438 167.213 197.438 81.1688 121.875 126.994Z" fill="#FFFFFF" transform="matrix(1.10256 0 0 1 5929 2827)"/></g></g></g><path d="M1553.67 2266C1542.81 2266 1534 2257.19 1534 2246.33L1534 1681.67C1534 1670.81 1542.81 1662 1553.67 1662L3621.33 1662C3632.19 1662 3641 1670.81 3641 1681.67L3641 2246.33C3641 2257.19 3632.19 2266 3621.33 2266Z" fill="#777777" fill-rule="evenodd"/><path d="M1963.5 1634.19C1963.5 1618.35 1976.35 1605.5 1992.19 1605.5L3612.81 1605.5C3628.65 1605.5 3641.5 1618.35 3641.5 1634.19L3641.5 2457.81C3641.5 2473.65 3628.65 2486.5 3612.81 2486.5L1992.19 2486.5C1976.35 2486.5 1963.5 2473.65 1963.5 2457.81Z" stroke="#0169E8" stroke-width="4.58333" stroke-miterlimit="8" fill="#00BBD4" fill-rule="evenodd" fill-opacity="0.501961"/><text fill="#281C2C" font-family="Arial,Arial_MSFontService,sans-serif" font-weight="700" font-size="128" transform="matrix(1 0 0 1 2391.55 2432)">Fellesløsning</text><rect x="2141.5" y="1729.5" width="1348" height="477" stroke="#1A111D" stroke-width="4.58333" stroke-miterlimit="8" fill="#281C2C"/><text fill="#FFFFFF" font-family="Arial,Arial_MSFontService,sans-serif" font-weight="400" font-size="92" transform="matrix(1 0 0 1 2557.15 1947)">Datadelings<tspan font-size="92" x="484.688" y="0">-</tspan><tspan font-size="92" x="97.0982" y="110">tjeneste</tspan></text><g clip-path="url(#clip7)"><g clip-path="url(#clip8)"><g clip-path="url(#clip9)"><path d="M73.4374 47.7343 36.7187 70.0104 117.5 118.969 154.219 96.6926Z" fill="#FFFFFF" transform="matrix(1.09787 0 0 1 2215 1850)"/><path d="M198.281 70.0104 117.5 21.0521 82.7395 42.1041 163.521 91.0624Z" fill="#FFFFFF" transform="matrix(1.09787 0 0 1 2215 1850)"/><path d="M36.7187 89.5937 36.7187 167.927 112.604 213.948 112.604 127.536 36.7187 81.5155Z" fill="#FFFFFF" transform="matrix(1.09787 0 0 1 2215 1850)"/><path d="M149.323 141 132.187 150.792 132.187 133.656 149.323 123.864 149.323 141ZM122.396 127.536 122.396 213.948 198.281 167.927 198.281 81.5155 122.396 127.536Z" fill="#FFFFFF" transform="matrix(1.09787 0 0 1 2215 1850)"/></g></g></g><path d="M4731.5 1633.54C4731.5 1618.06 4744.06 1605.5 4759.54 1605.5L6381.46 1605.5C6396.94 1605.5 6409.5 1618.06 6409.5 1633.54L6409.5 2438.46C6409.5 2453.95 6396.94 2466.51 6381.46 2466.51L4759.54 2466.51C4744.06 2466.51 4731.5 2453.95 4731.5 2438.46Z" stroke="#0169E8" stroke-width="4.58333" stroke-miterlimit="8" fill="#00BBD4" fill-rule="evenodd" fill-opacity="0.501961"/><text fill="#281C2C" font-family="Arial,Arial_MSFontService,sans-serif" font-weight="700" font-size="128" transform="matrix(1 0 0 1 5159.86 2412)">Fellesløsning</text><rect x="4909.5" y="1729.5" width="1348" height="477" stroke="#1A111D" stroke-width="4.58333" stroke-miterlimit="8" fill="#0169E8"/><text fill="#FFFFFF" font-family="Arial,Arial_MSFontService,sans-serif" font-weight="400" font-size="92" transform="matrix(1 0 0 1 5325.46 1947)">Datadelings<tspan font-size="92" x="484.688" y="0">-</tspan><tspan font-size="92" x="97.0982" y="110">tjeneste</tspan></text><g clip-path="url(#clip10)"><g clip-path="url(#clip11)"><g clip-path="url(#clip12)"><path d="M73.4374 47.7343 36.7187 70.0104 117.5 118.969 154.219 96.6926Z" fill="#FFFFFF" transform="matrix(1.09787 0 0 1 5929 1850)"/><path d="M198.281 70.0104 117.5 21.0521 82.7395 42.1041 163.521 91.0624Z" fill="#FFFFFF" transform="matrix(1.09787 0 0 1 5929 1850)"/><path d="M36.7187 89.5937 36.7187 167.927 112.604 213.948 112.604 127.536 36.7187 81.5155Z" fill="#FFFFFF" transform="matrix(1.09787 0 0 1 5929 1850)"/><path d="M149.323 141 132.187 150.792 132.187 133.656 149.323 123.864 149.323 141ZM122.396 127.536 122.396 213.948 198.281 167.927 198.281 81.5155 122.396 127.536Z" fill="#FFFFFF" transform="matrix(1.09787 0 0 1 5929 1850)"/></g></g></g><text fill="#281C2C" font-family="Arial,Arial_MSFontService,sans-serif" font-weight="700" font-size="110" transform="matrix(1 0 0 1 6624.54 1993)">Virksomheter i samarbeid om <tspan font-size="110" x="433.56" y="132">fellesløsning</tspan><tspan font-size="110" x="58.251" y="910">Virksomheter som realiserer </tspan><tspan font-size="110" x="91.9155" y="1042">datadeling fra selvstendige </tspan><tspan font-size="110" x="553.412" y="1174">løsninger</tspan></text><path d="M1546.18 3242C1539.45 3242 1534 3236.55 1534 3229.82L1534 1674.18C1534 1667.45 1539.45 1662 1546.18 1662L1895.82 1662C1902.55 1662 1908 1667.45 1908 1674.18L1908 3229.82C1908 3236.55 1902.55 3242 1895.82 3242Z" fill="#777777" fill-rule="evenodd"/><text fill="#FFFFFF" font-family="Arial,Arial_MSFontService,sans-serif" font-weight="700" font-size="128" transform="matrix(-1.83697e-16 -1 1 -1.83697e-16 1678.67 2802)">Leverandør</text><path d="M3106.33 1668.5C3099.25 1668.5 3093.5 1662.75 3093.5 1655.67L3093.5 782.332C3093.5 775.245 3099.25 769.5 3106.33 769.5L3474.67 769.5C3481.75 769.5 3487.5 775.245 3487.5 782.332L3487.5 1655.67C3487.5 1662.75 3481.75 1668.5 3474.67 1668.5Z" stroke="#0169E8" stroke-width="4.58333" stroke-miterlimit="8" fill="#00BBD4" fill-rule="evenodd" fill-opacity="0.501961"/><text fill="#281C2C" font-family="Arial,Arial_MSFontService,sans-serif" font-weight="700" font-size="128" transform="matrix(-1.83697e-16 -1 1 -1.83697e-16 3338.1 1567)">Virksomhet</text><path d="M2630.33 1668.5C2623.25 1668.5 2617.5 1662.75 2617.5 1655.67L2617.5 782.332C2617.5 775.245 2623.25 769.5 2630.33 769.5L2998.67 769.5C3005.75 769.5 3011.5 775.245 3011.5 782.332L3011.5 1655.67C3011.5 1662.75 3005.75 1668.5 2998.67 1668.5Z" stroke="#0169E8" stroke-width="4.58333" stroke-miterlimit="8" fill="#00BBD4" fill-rule="evenodd" fill-opacity="0.501961"/><text fill="#281C2C" font-family="Arial,Arial_MSFontService,sans-serif" font-weight="700" font-size="128" transform="matrix(-1.83697e-16 -1 1 -1.83697e-16 2861.97 1567)">Virksomhet</text><path d="M2152.37 1668.5C2145.26 1668.5 2139.5 1662.74 2139.5 1655.63L2139.5 782.366C2139.5 775.26 2145.26 769.5 2152.37 769.5L2521.63 769.5C2528.74 769.5 2534.5 775.26 2534.5 782.366L2534.5 1655.63C2534.5 1662.74 2528.74 1668.5 2521.63 1668.5Z" stroke="#0169E8" stroke-width="4.58333" stroke-miterlimit="8" fill="#00BBD4" fill-rule="evenodd" fill-opacity="0.501961"/><text fill="#281C2C" font-family="Arial,Arial_MSFontService,sans-serif" font-weight="700" font-size="128" transform="matrix(-1.83697e-16 -1 1 -1.83697e-16 2384.54 1567)">Virksomhet</text><path d="M5874.37 1668.5C5867.26 1668.5 5861.5 1662.74 5861.5 1655.63L5861.5 782.366C5861.5 775.26 5867.26 769.5 5874.37 769.5L6243.63 769.5C6250.74 769.5 6256.5 775.26 6256.5 782.366L6256.5 1655.63C6256.5 1662.74 6250.74 1668.5 6243.63 1668.5Z" stroke="#0169E8" stroke-width="4.58333" stroke-miterlimit="8" fill="#00BBD4" fill-rule="evenodd" fill-opacity="0.501961"/><text fill="#281C2C" font-family="Arial,Arial_MSFontService,sans-serif" font-weight="700" font-size="128" transform="matrix(-1.83697e-16 -1 1 -1.83697e-16 6106.41 1567)">Virksomhet</text><path d="M5398.37 1668.5C5391.26 1668.5 5385.5 1662.74 5385.5 1655.63L5385.5 782.366C5385.5 775.26 5391.26 769.5 5398.37 769.5L5767.63 769.5C5774.74 769.5 5780.5 775.26 5780.5 782.366L5780.5 1655.63C5780.5 1662.74 5774.74 1668.5 5767.63 1668.5Z" stroke="#0169E8" stroke-width="4.58333" stroke-miterlimit="8" fill="#00BBD4" fill-rule="evenodd" fill-opacity="0.501961"/><text fill="#281C2C" font-family="Arial,Arial_MSFontService,sans-serif" font-weight="700" font-size="128" transform="matrix(-1.83697e-16 -1 1 -1.83697e-16 5630.28 1567)">Virksomhet</text><path d="M4921.33 1668.5C4914.25 1668.5 4908.5 1662.75 4908.5 1655.67L4908.5 782.332C4908.5 775.245 4914.25 769.5 4921.33 769.5L5289.67 769.5C5296.75 769.5 5302.5 775.245 5302.5 782.332L5302.5 1655.67C5302.5 1662.75 5296.75 1668.5 5289.67 1668.5Z" stroke="#0169E8" stroke-width="4.58333" stroke-miterlimit="8" fill="#00BBD4" fill-rule="evenodd" fill-opacity="0.501961"/><text fill="#281C2C" font-family="Arial,Arial_MSFontService,sans-serif" font-weight="700" font-size="128" transform="matrix(-1.83697e-16 -1 1 -1.83697e-16 5152.86 1567)">Virksomhet</text><path d="M1963 3528.72C1963 3515.07 1974.07 3504 1987.72 3504L6384.28 3504C6397.93 3504 6409 3515.07 6409 3528.72L6409 4238.28C6409 4251.93 6397.93 4263 6384.28 4263L1987.72 4263C1974.07 4263 1963 4251.93 1963 4238.28Z" fill="#7BF5BC" fill-rule="evenodd"/><text fill="#281C2C" font-family="Arial,Arial_MSFontService,sans-serif" font-weight="700" font-size="128" transform="matrix(1 0 0 1 3735.89 4210)">Fellestjenester</text><rect x="4936.5" y="3590.5" width="1268" height="454" stroke="#004BAA" stroke-width="4.58333" stroke-miterlimit="8" stroke-dasharray="18.3333 13.75" fill="url(#fill13)"/><text fill="#FFFFFF" font-family="Arial,Arial_MSFontService,sans-serif" font-weight="400" font-size="147" transform="matrix(1 0 0 1 5008.18 3784)">Pasient info. <tspan font-size="147" x="0" y="176">lokalisator</tspan></text><g clip-path="url(#clip14)"><g clip-path="url(#clip15)"><g clip-path="url(#clip16)"><path d="M293.906 259.875 250.938 216.906C245.094 211.062 237.188 209 229.625 210.375L214.5 195.25C227.906 178.062 235.812 156.062 235.812 132.688 235.812 75.9688 189.406 29.5625 132.688 29.5625 75.9688 29.5625 29.5625 75.9688 29.5625 132.688 29.5625 189.406 75.9688 235.812 132.688 235.812 156.062 235.812 177.719 227.906 195.25 214.5L210.375 229.625C209 237.188 211.062 245.094 216.906 250.938L259.875 293.906C264.688 298.719 270.875 301.125 277.062 301.125 283.25 301.125 289.438 298.719 294.25 293.906 303.188 284.281 303.188 269.156 293.906 259.875ZM132.344 214.844C86.9688 214.844 49.8438 177.719 49.8438 132.344 49.8438 86.9688 86.9688 49.8438 132.344 49.8438 177.719 49.8438 214.844 86.9688 214.844 132.344 214.844 177.719 177.719 214.844 132.344 214.844Z" fill="#FFFFFF" transform="matrix(1.1 0 0 1 5812 3688)"/></g></g></g><g clip-path="url(#clip17)"><g clip-path="url(#clip18)"><g clip-path="url(#clip19)"><path d="M139.84 58.1462 141.167 48.5212 108.907 48.5212 113.604 14.4375 103.889 14.4375 99.192 48.5212 62.386 48.5212 67.083 14.4375 57.3682 14.4375 52.6712 48.5212 20.8542 48.5212 19.5275 58.1462 51.3446 58.1462 46.1503 95.8441 14.3332 95.8441 13.0066 105.469 44.8236 105.469 40.125 139.562 49.8415 139.562 54.5417 105.469 91.3445 105.469 86.6459 139.562 96.3623 139.562 101.062 105.469 133.322 105.469 134.649 95.8441 102.386 95.8441 107.582 58.1462ZM92.6775 95.8441 55.8651 95.8441 61.061 58.1462 97.8654 58.1462Z" fill="#FFFFFF" transform="matrix(1.10389 0 0 1 5876 3744)"/></g></g></g><rect x="3551.5" y="3590.5" width="1267" height="454" stroke="#004BAA" stroke-width="4.58333" stroke-miterlimit="8" fill="#0169E8"/><text fill="#FFFFFF" font-family="Arial,Arial_MSFontService,sans-serif" font-weight="400" font-size="165" transform="matrix(1 0 0 1 3622.85 3878)">Tillitsanker</text><g clip-path="url(#clip20)"><g clip-path="url(#clip21)"><g clip-path="url(#clip22)"><path d="M4627.5 3699.81C4633.76 3699.81 4638.88 3704.93 4638.88 3711.19 4638.88 3717.44 4633.76 3722.56 4627.5 3722.56 4621.24 3722.56 4616.12 3717.44 4616.12 3711.19 4616.12 3704.93 4621.24 3699.81 4627.5 3699.81ZM4722.77 3792.52C4722.48 3790.53 4721.06 3788.82 4719.35 3787.97 4717.65 3787.12 4715.37 3787.4 4713.67 3788.82L4681.53 3813.56C4679.83 3814.7 4678.97 3816.69 4679.26 3818.97 4679.54 3820.96 4680.96 3822.66 4682.67 3823.52L4694.9 3828.63C4688.36 3856.79 4664.75 3877.83 4636.03 3881.24L4636.03 3765.22 4707.12 3765.22 4707.12 3748.16 4636.03 3748.16 4636.03 3738.2C4649.4 3733.94 4657.64 3720.57 4655.65 3706.64 4653.38 3692.99 4641.43 3682.75 4627.5 3682.75 4613.57 3682.75 4601.62 3692.99 4599.35 3706.92 4597.36 3720.86 4605.6 3734.22 4618.97 3738.49L4618.97 3748.16 4547.88 3748.16 4547.88 3765.22 4618.97 3765.22 4618.97 3881.24C4590.25 3877.55 4566.64 3856.5 4560.1 3828.35L4572.33 3823.23C4574.04 3822.38 4575.46 3820.67 4575.74 3818.68 4576.03 3816.69 4575.17 3814.7 4573.47 3813.56L4541.33 3788.82C4539.63 3787.68 4537.64 3787.4 4535.65 3787.97 4533.66 3788.82 4532.52 3790.53 4532.23 3792.52L4527.12 3832.9C4526.83 3834.89 4527.68 3836.88 4529.39 3838.02 4531.1 3839.16 4533.09 3839.44 4535.08 3838.87L4544.18 3835.18C4551.86 3863.61 4573.75 3886.36 4601.91 3895.18L4624.66 3907.41C4626.36 3908.26 4628.35 3908.26 4630.06 3907.41L4653.09 3894.89C4681.25 3886.08 4702.86 3863.33 4710.54 3834.89L4719.64 3838.87C4721.63 3839.72 4723.62 3839.44 4725.33 3838.02 4727.03 3836.88 4727.88 3834.89 4727.6 3832.9L4722.77 3792.52Z" fill="#FFFFFF"/></g></g></g><rect x="2168.5" y="3590.5" width="1268" height="454" stroke="#004BAA" stroke-width="4.58333" stroke-miterlimit="8" fill="#0169E8"/><text fill="#FFFFFF" font-family="Arial,Arial_MSFontService,sans-serif" font-weight="400" font-size="165" transform="matrix(1 0 0 1 2239.87 3779)">API<tspan font-size="165" x="0" y="198">katalog</tspan></text><path d="M3360.31 3924.84 3313.12 3881.96C3306.7 3876.12 3298.02 3874.07 3289.71 3875.44L3273.1 3860.34C3287.83 3843.19 3296.51 3821.24 3296.51 3797.91 3296.51 3741.31 3245.54 3695 3183.25 3695 3120.96 3695 3070 3741.31 3070 3797.91 3070 3854.51 3120.96 3900.82 3183.25 3900.82 3208.92 3900.82 3232.71 3892.93 3251.96 3879.55L3268.57 3894.65C3267.06 3902.19 3269.33 3910.08 3275.74 3915.92L3322.93 3958.8C3328.22 3963.6 3335.01 3966 3341.81 3966 3348.6 3966 3355.4 3963.6 3360.69 3958.8 3370.5 3949.19 3370.5 3934.1 3360.31 3924.84ZM3182.88 3879.9C3133.04 3879.9 3092.27 3842.85 3092.27 3797.57 3092.27 3752.29 3133.04 3715.24 3182.88 3715.24 3232.71 3715.24 3273.48 3752.29 3273.48 3797.57 3273.48 3842.85 3232.71 3879.9 3182.88 3879.9Z" fill="#FFFFFF" fill-rule="evenodd"/><path d="M3252.82 3771.72C3249.52 3764.46 3240.4 3761.1 3232.44 3764.11 3225.84 3766.58 3221.96 3772.96 3222.93 3779.15L3197.9 3788.71C3195.18 3784.46 3190.33 3781.27 3184.89 3780.39L3184.89 3755.79C3191.49 3754.19 3196.54 3748.71 3196.54 3742.16 3196.54 3734.37 3189.55 3728 3181.01 3728L3181.01 3728C3172.47 3728 3165.49 3734.37 3165.49 3742.16 3165.49 3748.71 3170.53 3754.19 3177.13 3755.79L3177.13 3780.21C3171.5 3781.1 3166.85 3784.28 3164.13 3788.53L3139.09 3778.97C3140.06 3772.78 3136.38 3766.41 3129.58 3763.93 3121.63 3760.92 3112.51 3764.28 3109.21 3771.54 3105.91 3778.8 3109.59 3787.12 3117.55 3790.12 3124.15 3792.6 3131.72 3790.66 3135.79 3785.52L3161.41 3795.08C3161.22 3795.79 3161.22 3796.67 3161.22 3797.38 3161.22 3801.27 3162.58 3804.99 3165.1 3808L3144.92 3826.58C3138.9 3823.4 3131.14 3824.11 3126.09 3828.71 3120.07 3834.19 3120.07 3843.22 3126.09 3848.71 3132.11 3854.2 3142 3854.2 3148.02 3848.71 3153.07 3844.11 3153.84 3837.03 3150.35 3831.54L3170.92 3812.78C3173.83 3814.37 3177.13 3815.26 3180.62 3815.26 3180.82 3815.26 3180.82 3815.26 3181.01 3815.26 3181.21 3815.26 3181.21 3815.26 3181.4 3815.26 3184.89 3815.26 3188.19 3814.37 3191.1 3812.78L3211.68 3831.54C3208.18 3837.03 3208.96 3844.11 3214.01 3848.89 3220.02 3854.37 3229.92 3854.37 3235.94 3848.89 3241.95 3843.4 3241.95 3834.37 3235.94 3828.89 3230.89 3824.28 3223.13 3823.58 3217.11 3826.76L3196.93 3808.18C3199.45 3805.17 3200.81 3801.63 3200.81 3797.56 3200.81 3796.85 3200.81 3795.96 3200.61 3795.26L3226.23 3785.7C3230.31 3790.66 3237.88 3792.78 3244.47 3790.3 3252.24 3787.12 3256.12 3778.97 3252.82 3771.72Z" fill="#FFFFFF" fill-rule="evenodd"/><path d="M2945.33 2061 3677 2061C3596.18 2061 3530.67 2103.31 3530.67 2155.5 3530.67 2207.69 3596.18 2250 3677 2250L2945.33 2250C2864.52 2250 2799 2207.69 2799 2155.5 2799 2103.31 2864.52 2061 2945.33 2061Z" fill="#EEEEEE" fill-rule="evenodd"/><text fill="#281C2C" font-family="Arial,Arial_MSFontService,sans-serif" font-weight="400" font-size="83" transform="matrix(1 0 0 1 3100.21 2137)">Kopi av <tspan font-size="83" x="-20.625" y="99">målinger</tspan></text><path d="M2949.5 3036 3682 3036C3601.09 3036 3535.5 3078.31 3535.5 3130.5 3535.5 3182.69 3601.09 3225 3682 3225L2949.5 3225C2868.59 3225 2803 3182.69 2803 3130.5 2803 3078.31 2868.59 3036 2949.5 3036Z" fill="#EEEEEE" fill-rule="evenodd"/><text fill="#281C2C" font-family="Arial,Arial_MSFontService,sans-serif" font-weight="400" font-size="83" transform="matrix(1 0 0 1 3104.9 3111)">Kopi av <tspan font-size="83" x="-20.625" y="99">målinger</tspan></text><path d="M1963 847.505C1963 689.273 2091.27 561 2249.51 561L3395.49 561C3553.73 561 3682 689.273 3682 847.505L3682 2217.49C3682 2375.73 3553.73 2504 3395.49 2504L2249.51 2504C2091.27 2504 1963 2375.73 1963 2217.49Z" stroke="#FF6B6B" stroke-width="27.5" stroke-miterlimit="8" stroke-dasharray="82.5 27.5" stroke-opacity="0.960784" fill="none" fill-rule="evenodd"/><text fill="#FF0000" font-family="Arial,Arial_MSFontService,sans-serif" font-weight="400" font-size="110" transform="matrix(1 0 0 1 2552.73 752)">§<tspan font-size="110" x="61.302" y="0">9 </tspan><tspan font-size="110" x="152.969" y="0">avtale 1</tspan></text><path d="M4687 847.505C4687 689.273 4815.27 561 4973.51 561L6119.49 561C6277.73 561 6406 689.273 6406 847.505L6406 2217.49C6406 2375.73 6277.73 2504 6119.49 2504L4973.51 2504C4815.27 2504 4687 2375.73 4687 2217.49Z" stroke="#FF6B6B" stroke-width="27.5" stroke-miterlimit="8" stroke-dasharray="82.5 27.5" stroke-opacity="0.960784" fill="none" fill-rule="evenodd"/><text fill="#FF0000" font-family="Arial,Arial_MSFontService,sans-serif" font-weight="400" font-size="110" transform="matrix(1 0 0 1 5276.92 752)">§<tspan font-size="110" x="61.3023" y="0">9 </tspan><tspan font-size="110" x="152.969" y="0">avtale 1</tspan></text></g></svg>