<svg width="4287" height="3549" xmlns="http://www.w3.org/2000/svg" xmlns:xlink="http://www.w3.org/1999/xlink" xml:space="preserve" overflow="hidden"><defs><clipPath id="clip0"><rect x="692" y="954" width="4287" height="3549"/></clipPath><clipPath id="clip1"><rect x="3073" y="3949" width="331" height="330"/></clipPath><clipPath id="clip2"><rect x="3073" y="3949" width="331" height="330"/></clipPath><clipPath id="clip3"><rect x="3073" y="3949" width="331" height="330"/></clipPath><clipPath id="clip4"><rect x="3021" y="1086" width="364" height="364"/></clipPath><clipPath id="clip5"><rect x="3021" y="1086" width="364" height="364"/></clipPath><clipPath id="clip6"><rect x="3021" y="1086" width="364" height="364"/></clipPath><clipPath id="clip7"><rect x="3011" y="2469" width="364" height="364"/></clipPath><clipPath id="clip8"><rect x="3011" y="2469" width="364" height="364"/></clipPath><clipPath id="clip9"><rect x="3011" y="2469" width="364" height="364"/></clipPath><clipPath id="clip10"><rect x="1677" y="1795" width="331" height="331"/></clipPath><clipPath id="clip11"><rect x="1677" y="1795" width="331" height="331"/></clipPath><clipPath id="clip12"><rect x="1677" y="1795" width="331" height="331"/></clipPath><clipPath id="clip13"><rect x="3029" y="1795" width="331" height="331"/></clipPath><clipPath id="clip14"><rect x="3029" y="1795" width="331" height="331"/></clipPath><clipPath id="clip15"><rect x="3029" y="1795" width="331" height="331"/></clipPath><clipPath id="clip16"><rect x="1677" y="2473" width="331" height="331"/></clipPath><clipPath id="clip17"><rect x="1677" y="2473" width="331" height="331"/></clipPath><clipPath id="clip18"><rect x="1677" y="2473" width="331" height="331"/></clipPath><clipPath id="clip19"><rect x="1650" y="3174" width="330" height="331"/></clipPath><clipPath id="clip20"><rect x="1650" y="3174" width="330" height="331"/></clipPath><clipPath id="clip21"><rect x="1650" y="3174" width="330" height="331"/></clipPath><clipPath id="clip22"><rect x="3102" y="3184" width="330" height="331"/></clipPath><clipPath id="clip23"><rect x="3102" y="3184" width="330" height="331"/></clipPath><clipPath id="clip24"><rect x="3102" y="3184" width="330" height="331"/></clipPath><clipPath id="clip25"><rect x="4458" y="3174" width="331" height="331"/></clipPath><clipPath id="clip26"><rect x="4458" y="3174" width="331" height="331"/></clipPath><clipPath id="clip27"><rect x="4458" y="3174" width="331" height="331"/></clipPath><clipPath id="clip28"><rect x="1648" y="1093" width="331" height="331"/></clipPath><clipPath id="clip29"><rect x="1648" y="1093" width="331" height="331"/></clipPath><clipPath id="clip30"><rect x="1648" y="1093" width="331" height="331"/></clipPath><clipPath id="clip31"><rect x="4483" y="1075" width="331" height="331"/></clipPath><clipPath id="clip32"><rect x="4483" y="1075" width="331" height="331"/></clipPath><clipPath id="clip33"><rect x="4483" y="1075" width="331" height="331"/></clipPath><clipPath id="clip34"><rect x="4457" y="2487" width="331" height="331"/></clipPath><clipPath id="clip35"><rect x="4457" y="2487" width="331" height="331"/></clipPath><clipPath id="clip36"><rect x="4457" y="2487" width="331" height="331"/></clipPath><clipPath id="clip37"><rect x="4458" y="3936" width="331" height="331"/></clipPath><clipPath id="clip38"><rect x="4458" y="3936" width="331" height="331"/></clipPath><clipPath id="clip39"><rect x="4458" y="3936" width="331" height="331"/></clipPath><clipPath id="clip40"><rect x="4540" y="1754" width="173" height="173"/></clipPath><clipPath id="clip41"><rect x="4540" y="1754" width="173" height="173"/></clipPath><clipPath id="clip42"><rect x="4540" y="1754" width="173" height="173"/></clipPath><clipPath id="clip43"><rect x="4423" y="1641" width="399" height="399"/></clipPath><clipPath id="clip44"><rect x="4423" y="1641" width="399" height="399"/></clipPath><clipPath id="clip45"><rect x="4423" y="1641" width="399" height="399"/></clipPath></defs><g clip-path="url(#clip0)" transform="translate(-692 -954)"><rect x="727" y="3726" width="4252" height="777" fill="#7BF5BC"/><text fill="#281C2C" font-family="Arial,Arial_MSFontService,sans-serif" font-weight="400" font-size="165" transform="matrix(1 0 0 1 791.703 3951)">Løses av andre</text><rect x="2140.5" y="3812.5" width="1325" height="604" stroke="#004BAA" stroke-width="4.58333" stroke-miterlimit="8" fill="#281C2C"/><text fill="#FFFFFF" font-family="Arial,Arial_MSFontService,sans-serif" font-weight="400" font-size="165" transform="matrix(1 0 0 1 2212.06 4175)">Legemiddel</text><g clip-path="url(#clip1)"><g clip-path="url(#clip2)"><g clip-path="url(#clip3)"><path d="M3293 4182.75 3293 4155.25 3176.13 4155.25C3172.34 4155.25 3169.25 4152.16 3169.25 4148.38L3169.25 4079.62C3169.25 4075.84 3172.34 4072.75 3176.13 4072.75L3293 4072.75 3293 4045.25C3293 4037.69 3286.81 4031.5 3279.25 4031.5L3267.22 4031.5C3266.19 4031.5 3265.5 4030.81 3265.5 4029.78L3265.5 4019.47C3265.5 4018.44 3266.19 4017.75 3267.22 4017.75L3275.81 4017.75C3277.88 4017.75 3279.25 4016.38 3279.25 4014.31L3279.25 3990.25C3279.25 3982.69 3273.06 3976.5 3265.5 3976.5L3169.25 3976.5C3161.69 3976.5 3155.5 3982.69 3155.5 3990.25L3155.5 4014.31C3155.5 4016.38 3156.88 4017.75 3158.94 4017.75L3167.53 4017.75C3168.56 4017.75 3169.25 4018.44 3169.25 4019.47L3169.25 4029.78C3169.25 4030.81 3168.56 4031.5 3167.53 4031.5L3155.5 4031.5C3147.94 4031.5 3141.75 4037.69 3141.75 4045.25L3141.75 4210.25C3141.75 4217.81 3147.94 4224 3155.5 4224L3203.63 4224C3203.63 4201.31 3222.19 4182.75 3244.88 4182.75L3293 4182.75Z" fill="#FFFFFF"/><path d="M3183 4089.94 3183 4138.06C3183 4140.12 3184.38 4141.5 3186.44 4141.5L3293 4141.5 3293 4086.5 3186.44 4086.5C3184.38 4086.5 3183 4087.88 3183 4089.94Z" fill="#FFFFFF"/><path d="M3275.81 4237.75 3244.88 4237.75C3237.31 4237.75 3231.13 4231.56 3231.13 4224 3231.13 4216.44 3237.31 4210.25 3244.88 4210.25L3275.81 4210.25 3275.81 4237.75ZM3306.75 4196.5 3244.88 4196.5C3229.75 4196.5 3217.38 4208.88 3217.38 4224 3217.38 4239.12 3229.75 4251.5 3244.88 4251.5L3306.75 4251.5C3321.88 4251.5 3334.25 4239.12 3334.25 4224 3334.25 4208.88 3321.88 4196.5 3306.75 4196.5Z" fill="#FFFFFF"/></g></g></g><rect x="2142.5" y="956.5" width="1325" height="604" stroke="#004BAA" stroke-width="4.58333" stroke-miterlimit="8" fill="#281C2C"/><text fill="#FFFFFF" font-family="Arial,Arial_MSFontService,sans-serif" font-weight="400" font-size="165" transform="matrix(1 0 0 1 2214.34 1319)">Dialog</text><g clip-path="url(#clip4)"><g clip-path="url(#clip5)"><g clip-path="url(#clip6)"><path d="M3180.81 1189.09 3241.31 1189.09 3241.31 1177.75C3241.31 1169.43 3234.51 1162.62 3226.19 1162.62L3067.38 1162.62C3059.06 1162.62 3052.25 1169.43 3052.25 1177.75L3052.25 1279.84C3052.25 1288.16 3059.06 1294.97 3067.38 1294.97L3090.06 1294.97 3090.06 1332.78 3127.88 1294.97 3150.56 1294.97 3150.56 1219.34C3150.56 1202.71 3164.18 1189.09 3180.81 1189.09Z" fill="#FFFFFF"/><path d="M3339.62 1204.22 3180.81 1204.22C3172.49 1204.22 3165.69 1211.02 3165.69 1219.34L3165.69 1321.44C3165.69 1329.76 3172.49 1336.56 3180.81 1336.56L3279.12 1336.56 3316.94 1374.37 3316.94 1336.56 3339.62 1336.56C3347.94 1336.56 3354.75 1329.76 3354.75 1321.44L3354.75 1219.34C3354.75 1211.02 3347.94 1204.22 3339.62 1204.22Z" fill="#FFFFFF"/></g></g></g><rect x="2142.5" y="2350.5" width="1325" height="604" stroke="#004BAA" stroke-width="4.58333" stroke-miterlimit="8" fill="#00BBD4"/><text fill="#FFFFFF" font-family="Arial,Arial_MSFontService,sans-serif" font-weight="400" font-size="165" transform="matrix(1 0 0 1 2214.34 2713)">Vurdering</text><g clip-path="url(#clip7)"><g clip-path="url(#clip8)"><g clip-path="url(#clip9)"><path d="M3040.1 2712 3078.19 2685.63 3116.29 2712 3103.11 2668.05 3135.86 2639.57 3168.61 2668.05 3155.43 2712 3193.52 2685.63 3231.62 2712 3218.43 2668.05 3251.19 2639.57 3283.94 2668.05 3270.75 2712 3308.85 2685.63 3346.95 2712 3333.76 2668.05 3367.46 2638.74 3323.5 2638.74 3308.85 2594.78 3294.2 2638.74 3208.18 2638.74 3193.52 2594.78 3178.87 2638.74 3092.85 2638.74 3078.19 2594.78 3063.54 2638.74 3019.59 2638.74 3053.28 2668.05ZM3294.2 2646.3 3299.65 2646.3 3301.37 2641.13 3308.85 2618.7 3316.33 2641.13 3318.05 2646.3 3347.24 2646.3 3328.8 2662.34 3325.11 2665.54 3326.52 2670.22 3333.5 2693.49 3313.15 2679.41 3308.85 2676.43 3304.54 2679.41 3284.2 2693.49 3291.18 2670.22 3292.59 2665.54 3288.9 2662.34 3270.46 2646.3Z" fill="#FFFFFF"/></g></g></g><rect x="727.5" y="1658.5" width="1324" height="604" stroke="#004BAA" stroke-width="4.58333" stroke-miterlimit="8" fill="#00BBD4"/><text fill="#FFFFFF" font-family="Arial,Arial_MSFontService,sans-serif" font-weight="400" font-size="165" transform="matrix(1 0 0 1 798.701 1922)">Skjema<tspan font-size="165" x="550" y="0">-</tspan><tspan font-size="165" x="0" y="198">besvarelser</tspan></text><g clip-path="url(#clip10)"><g clip-path="url(#clip11)"><g clip-path="url(#clip12)"><path d="M1833.06 1984.75 1838.56 2001.59 1835.47 2004.69 1818.63 1999.19C1818.63 1999.19 1818.63 1999.19 1818.28 1998.84 1814.5 1995.06 1814.5 1988.88 1818.63 1985.09 1822.75 1981.31 1828.94 1980.97 1833.06 1984.75ZM1717.56 1909.13 1814.5 2006.06 1852.31 2018.44 1839.94 1980.97 1743 1883.69 1717.56 1909.13Z" fill="#FFFFFF"/><path d="M1695.91 1877.16C1693.16 1880.25 1693.5 1885.06 1696.59 1887.81L1710.34 1901.56 1735.44 1876.47 1721.69 1862.72C1721.69 1862.72 1721.69 1862.72 1721.69 1862.72 1718.59 1859.63 1713.44 1859.63 1710.69 1862.72L1696.59 1876.81C1696.25 1876.81 1696.25 1877.16 1695.91 1877.16Z" fill="#FFFFFF"/><path d="M1917.63 2004.69 1858.5 2004.69 1863.31 2018.44 1917.63 2018.44Z" fill="#FFFFFF"/><path d="M1917.63 1922.19 1795.94 1922.19 1809.69 1935.94 1917.63 1935.94Z" fill="#FFFFFF"/><path d="M1745.75 1951.75 1745.75 2083.75C1745.75 2091.31 1751.94 2097.5 1759.5 2097.5L1945.13 2097.5C1952.69 2097.5 1958.88 2091.31 1958.88 2083.75L1958.88 1856.88C1958.88 1849.31 1952.69 1843.13 1945.13 1843.13L1886.69 1843.13 1886.69 1836.25C1886.69 1828.69 1880.5 1822.5 1872.94 1822.5L1831.69 1822.5C1824.13 1822.5 1817.94 1828.69 1817.94 1836.25L1817.94 1843.13 1759.5 1843.13C1751.94 1843.13 1745.75 1849.31 1745.75 1856.88L1745.75 1872 1749.53 1875.78 1750.22 1876.47 1750.22 1876.47 1766.38 1892.63 1766.38 1863.75 1804.19 1863.75 1804.19 1884.38 1900.44 1884.38 1900.44 1863.75 1938.25 1863.75 1938.25 2076.88 1766.38 2076.88 1766.38 1972.38 1745.75 1951.75ZM1862.63 1846.56C1862.63 1852.41 1858.16 1856.88 1852.31 1856.88 1846.47 1856.88 1842 1852.41 1842 1846.56 1842 1840.72 1846.47 1836.25 1852.31 1836.25 1855.06 1836.25 1857.81 1837.28 1859.53 1839.34 1861.59 1841.06 1862.63 1843.81 1862.63 1846.56Z" fill="#FFFFFF"/><path d="M1917.63 1963.44 1837.19 1963.44 1850.94 1977.19 1917.63 1977.19Z" fill="#FFFFFF"/></g></g></g><rect x="2142.5" y="1658.5" width="1325" height="604" stroke="#004BAA" stroke-width="4.58333" stroke-miterlimit="8" fill="#00BBD4"/><text fill="#FFFFFF" font-family="Arial,Arial_MSFontService,sans-serif" font-weight="400" font-size="165" transform="matrix(1 0 0 1 2214.34 2021)">Notat</text><g clip-path="url(#clip13)"><g clip-path="url(#clip14)"><g clip-path="url(#clip15)"><path d="M3108.06 1843.13 3279.94 1843.13 3279.94 2076.88 3108.06 2076.88 3108.06 1843.13ZM3087.44 2097.5 3300.56 2097.5 3300.56 1822.5 3087.44 1822.5 3087.44 2097.5Z" fill="#FFFFFF"/><path d="M3132.13 1863.75 3159.63 1863.75 3159.63 1891.25 3132.13 1891.25Z" fill="#FFFFFF"/><path d="M3187.13 1870.63 3255.88 1870.63 3255.88 1884.38 3187.13 1884.38Z" fill="#FFFFFF"/><path d="M3132.13 1918.75 3159.63 1918.75 3159.63 1946.25 3132.13 1946.25Z" fill="#FFFFFF"/><path d="M3187.13 1925.63 3255.88 1925.63 3255.88 1939.38 3187.13 1939.38Z" fill="#FFFFFF"/><path d="M3132.13 1973.75 3159.63 1973.75 3159.63 2001.25 3132.13 2001.25Z" fill="#FFFFFF"/><path d="M3187.13 1980.63 3255.88 1980.63 3255.88 1994.38 3187.13 1994.38Z" fill="#FFFFFF"/><path d="M3132.13 2028.75 3159.63 2028.75 3159.63 2056.25 3132.13 2056.25Z" fill="#FFFFFF"/><path d="M3187.13 2035.63 3255.88 2035.63 3255.88 2049.38 3187.13 2049.38Z" fill="#FFFFFF"/></g></g></g><rect x="727.5" y="2350.5" width="1324" height="604" stroke="#004BAA" stroke-width="4.58333" stroke-miterlimit="8" fill="#00BBD4"/><text fill="#FFFFFF" font-family="Arial,Arial_MSFontService,sans-serif" font-weight="400" font-size="165" transform="matrix(1 0 0 1 798.701 2713)">Varsel</text><g clip-path="url(#clip16)"><g clip-path="url(#clip17)"><g clip-path="url(#clip18)"><path d="M1988.44 2749 1854.03 2515.25C1848.88 2505.97 1835.47 2505.97 1830.31 2515.25L1695.56 2749C1690.41 2758.28 1696.94 2769.62 1707.59 2769.62L1842 2769.62 1976.41 2769.62C1987.06 2769.62 1993.59 2758.28 1988.44 2749ZM1831.69 2570.25 1852.31 2570.25 1852.31 2690.56 1831.69 2690.56 1831.69 2570.25ZM1842 2738.69C1832.38 2738.69 1824.81 2731.12 1824.81 2721.5 1824.81 2711.88 1832.38 2704.31 1842 2704.31 1851.63 2704.31 1859.19 2711.88 1859.19 2721.5 1859.19 2731.12 1851.63 2738.69 1842 2738.69Z" fill="#FFFFFF"/></g></g></g><rect x="727.5" y="3038.5" width="1324" height="604" stroke="#004BAA" stroke-width="4.58333" stroke-miterlimit="8" fill="#027993"/><text fill="#FFFFFF" font-family="Arial,Arial_MSFontService,sans-serif" font-weight="400" font-size="165" transform="matrix(1 0 0 1 798.701 3401)">Tjenester</text><g clip-path="url(#clip19)"><g clip-path="url(#clip20)"><g clip-path="url(#clip21)"><path d="M1758.97 3241C1756.91 3245.12 1755.19 3249.59 1753.81 3254.41 1743.5 3291.19 1757.25 3332.09 1764.47 3348.94 1754.5 3352.72 1744.88 3357.19 1735.59 3362.69L1736.62 3382.62C1743.16 3387.44 1747.28 3395.34 1747.28 3403.59L1747.28 3411.5 1790.59 3411.5 1791.28 3417.69 1793.69 3445.19 1793.69 3445.53 1793.69 3445.87C1793.69 3450 1791.97 3453.78 1789.22 3456.53 1786.12 3459.62 1782.34 3462.03 1777.88 3463.75L1777.88 3476.12C1785.78 3476.81 1794.03 3477.16 1802.28 3477.5L1830.47 3477.5C1869.31 3476.47 1905.75 3470.97 1919.16 3460.66L1921.91 3458.59 1921.56 3398.44C1921.22 3388.47 1916.41 3379.19 1908.84 3372.66 1898.53 3364.06 1884.78 3356.5 1865.88 3349.28 1873.09 3332.78 1887.53 3293.94 1879.28 3258.19 1878.25 3252 1875.84 3245.81 1873.09 3240.31L1873.09 3240.31 1873.09 3240.31C1866.56 3228.28 1856.59 3218.66 1844.22 3212.47 1842.5 3211.78 1840.78 3211.78 1839.06 3212.81L1835.62 3215.22 1831.84 3210.06C1830.81 3208.34 1828.75 3207.31 1827.03 3206.97 1823.59 3206.28 1819.81 3205.94 1816.03 3205.94 1792.31 3205.94 1770.31 3219 1759.31 3240.31L1758.97 3241ZM1773.75 3288.44 1773.75 3281.56C1784.41 3280.19 1813.28 3275.03 1822.91 3257.5L1824.28 3257.5C1836.31 3264.03 1846.97 3272.62 1856.25 3282.59L1856.25 3288.44C1856.25 3311.12 1837.69 3329.69 1815 3329.69 1792.31 3329.69 1773.75 3311.12 1773.75 3288.44L1773.75 3288.44ZM1795.41 3391.22 1765.16 3366.12 1773.75 3361.31 1805.03 3378.16 1795.41 3391.22ZM1788.19 3353.41C1791.97 3350.31 1794.38 3345.16 1794.38 3340.34L1794.38 3339.66C1807.44 3345.16 1822.56 3345.16 1835.62 3339.66L1835.62 3340C1835.62 3345.16 1838.03 3349.97 1841.81 3353.06L1815 3367.84 1788.19 3353.41ZM1834.59 3391.22 1825.31 3377.81 1856.59 3360.97 1865.19 3365.78 1834.59 3391.22ZM1876.19 3459.97 1895.09 3379.19C1896.81 3380.56 1898.53 3381.59 1899.91 3382.97 1904.72 3386.75 1907.47 3392.25 1907.81 3398.44L1907.81 3451.37C1901.28 3455.16 1889.94 3457.91 1876.19 3459.97Z" fill="#EEEEEE"/><path d="M1849.38 3484.37 1782.69 3484.37C1782.69 3484.37 1782.69 3484.03 1782.69 3483.69 1782.69 3482.66 1781.31 3481.62 1778.56 3480.94 1777.53 3480.59 1776.16 3480.59 1775.12 3480.59L1773.75 3480.59C1771.69 3479.91 1770.66 3479.22 1770.66 3478.53L1770.66 3458.59C1775.81 3457.91 1780.28 3455.5 1784.06 3452.06 1785.78 3450.69 1786.47 3448.62 1786.47 3446.56L1784.06 3419.06 1751.06 3419.06 1749 3446.56C1749 3448.62 1749.69 3450.69 1751.41 3452.06 1755.19 3455.84 1760 3458.25 1765.16 3458.59L1765.16 3478.53C1765.16 3479.22 1764.12 3480.25 1762.06 3480.59 1760.34 3480.59 1758.62 3480.94 1756.91 3481.28 1754.5 3481.97 1753.12 3483 1752.78 3484.03 1752.78 3484.37 1752.78 3484.37 1752.78 3484.72L1736.97 3484.72C1738.69 3483.69 1739.38 3482.66 1739.38 3481.62L1739.38 3403.59C1739.38 3396.37 1735.59 3389.84 1729.06 3386.41L1727.34 3353.41 1730.09 3353.41 1730.09 3351.69C1730.09 3348.94 1728.38 3346.53 1725.62 3345.5 1725.28 3345.16 1724.94 3345.16 1724.25 3345.16L1712.91 3345.16C1712.56 3345.16 1712.22 3345.16 1711.53 3345.5 1708.78 3346.19 1707.06 3348.94 1707.06 3351.69L1707.06 3353.41 1709.81 3353.41 1708.44 3386.41C1701.91 3389.84 1698.12 3396.37 1698.12 3403.59L1698.12 3481.28C1698.12 3482.31 1699.16 3483.34 1700.53 3484.37L1680.94 3484.37C1677.16 3484.37 1674.06 3487.47 1674.06 3491.25 1674.06 3495.03 1677.16 3498.12 1680.94 3498.12L1849.38 3498.12C1853.16 3498.12 1856.25 3495.03 1856.25 3491.25 1856.25 3487.47 1853.16 3484.37 1849.38 3484.37ZM1755.53 3433.5 1756.22 3423.19 1780.28 3423.19 1780.97 3433.5 1755.53 3433.5Z" fill="#EEEEEE"/></g></g></g><rect x="2142.5" y="3038.5" width="1325" height="604" stroke="#004BAA" stroke-width="4.58333" stroke-miterlimit="8" fill="#027993"/><text fill="#FFFFFF" font-family="Arial,Arial_MSFontService,sans-serif" font-weight="400" font-size="165" transform="matrix(1 0 0 1 2214.34 3401)">Hjelpemidler</text><g clip-path="url(#clip22)"><g clip-path="url(#clip23)"><g clip-path="url(#clip24)"><path d="M3278.34 3251.72C3278.34 3251.72 3258.75 3270.28 3257.72 3272.69 3255.31 3277.84 3257.72 3284.03 3262.88 3286.44 3268.03 3288.84 3274.22 3286.44 3276.62 3281.28 3277.31 3278.53 3278.34 3251.72 3278.34 3251.72Z" fill="#EEEEEE"/><path d="M3267 3221.81C3236.75 3221.81 3212 3246.56 3212 3276.81 3212 3307.06 3236.75 3331.81 3267 3331.81 3297.25 3331.81 3322 3307.06 3322 3276.81 3322 3246.56 3297.25 3221.81 3267 3221.81ZM3267 3235.56C3289.69 3235.56 3308.25 3254.13 3308.25 3276.81 3308.25 3299.5 3289.69 3318.06 3267 3318.06 3244.31 3318.06 3225.75 3299.5 3225.75 3276.81 3225.75 3254.13 3244.31 3235.56 3267 3235.56" fill="#EEEEEE"/><path d="M3260.47 3345.22C3237.09 3342.81 3216.81 3329.06 3206.16 3308.09 3195.5 3287.47 3196.19 3262.72 3207.88 3242.44L3163.88 3242.44C3156.31 3242.44 3150.12 3248.63 3150.12 3256.19L3150.12 3462.44C3150.12 3470 3156.31 3476.19 3163.88 3476.19L3260.12 3476.19 3260.12 3347.28C3260.12 3346.59 3260.12 3345.91 3260.47 3345.22L3260.47 3345.22Z" fill="#EEEEEE"/><path d="M3370.12 3242.44 3326.47 3242.44C3338.16 3262.72 3338.84 3287.47 3328.19 3308.09 3317.53 3328.72 3296.91 3342.81 3273.88 3345.22 3273.88 3345.91 3274.22 3346.59 3274.22 3347.28L3274.22 3476.19 3370.47 3476.19C3378.03 3476.19 3384.22 3470 3384.22 3462.44L3384.22 3256.19C3383.88 3248.63 3377.69 3242.44 3370.12 3242.44Z" fill="#EEEEEE"/></g></g></g><rect x="3558.5" y="3038.5" width="1325" height="604" stroke="#004BAA" stroke-width="4.58333" stroke-miterlimit="8" fill="#027993"/><text fill="#FFFFFF" font-family="Arial,Arial_MSFontService,sans-serif" font-weight="400" font-size="165" transform="matrix(1 0 0 1 3629.98 3401)">Logistikk</text><g clip-path="url(#clip25)"><g clip-path="url(#clip26)"><g clip-path="url(#clip27)"><path d="M4750.19 3303.56C4744.34 3289.47 4728.19 3282.94 4714.09 3288.78 4702.41 3293.59 4695.53 3305.97 4697.25 3318L4652.91 3336.56C4648.09 3328.31 4639.5 3322.12 4629.88 3320.41L4629.88 3272.62C4641.56 3269.53 4650.5 3258.87 4650.5 3246.16 4650.5 3231.03 4638.12 3218.66 4623 3218.66L4623 3218.66C4607.88 3218.66 4595.5 3231.03 4595.5 3246.16 4595.5 3258.87 4604.44 3269.53 4616.12 3272.62L4616.12 3320.06C4606.16 3321.78 4597.91 3327.97 4593.09 3336.22L4548.75 3317.66C4550.47 3305.62 4543.94 3293.25 4531.91 3288.44 4517.81 3282.59 4501.66 3289.12 4495.81 3303.22 4489.97 3317.31 4496.5 3333.47 4510.59 3339.31 4522.28 3344.12 4535.69 3340.34 4542.91 3330.37L4588.28 3348.94C4587.94 3350.31 4587.94 3352.03 4587.94 3353.41 4587.94 3360.97 4590.34 3368.19 4594.81 3374.03L4559.06 3410.12C4548.41 3403.94 4534.66 3405.31 4525.72 3414.25 4515.06 3424.91 4515.06 3442.44 4525.72 3453.09 4536.38 3463.75 4553.91 3463.75 4564.56 3453.09 4573.5 3444.16 4574.88 3430.41 4568.69 3419.75L4605.12 3383.31C4610.28 3386.41 4616.12 3388.12 4622.31 3388.12 4622.66 3388.12 4622.66 3388.12 4623 3388.12 4623.34 3388.12 4623.34 3388.12 4623.69 3388.12 4629.88 3388.12 4635.72 3386.41 4640.88 3383.31L4677.31 3419.75C4671.12 3430.41 4672.5 3444.16 4681.44 3453.44 4692.09 3464.09 4709.62 3464.09 4720.28 3453.44 4730.94 3442.78 4730.94 3425.25 4720.28 3414.59 4711.34 3405.66 4697.59 3404.28 4686.94 3410.47L4651.19 3374.37C4655.66 3368.53 4658.06 3361.66 4658.06 3353.75 4658.06 3352.37 4658.06 3350.66 4657.72 3349.28L4703.09 3330.72C4710.31 3340.34 4723.72 3344.47 4735.41 3339.66 4749.16 3333.47 4756.03 3317.66 4750.19 3303.56Z" fill="#EEEEEE"/></g></g></g><rect x="727.5" y="956.5" width="1324" height="604" stroke="#004BAA" stroke-width="4.58333" stroke-miterlimit="8" fill="#281C2C"/><text fill="#FFFFFF" font-family="Arial,Arial_MSFontService,sans-serif" font-weight="400" font-size="165" transform="matrix(1 0 0 1 798.701 1319)">Målinger</text><g clip-path="url(#clip28)"><g clip-path="url(#clip29)"><g clip-path="url(#clip30)"><path d="M1924 1161.75C1924.01 1148.46 1913.25 1137.68 1899.96 1137.67 1886.67 1137.66 1875.89 1148.42 1875.88 1161.71 1875.87 1169.85 1879.98 1177.45 1886.81 1181.89L1869 1233.94 1869 1233.94C1864.09 1233.93 1859.29 1235.43 1855.25 1238.23L1819.36 1211.32C1823.96 1198.85 1817.59 1185.01 1805.12 1180.41 1792.65 1175.81 1778.82 1182.19 1774.22 1194.65 1770.37 1205.06 1774.14 1216.74 1783.34 1222.94L1760.41 1295.81 1759 1295.81C1745.71 1295.78 1734.91 1306.53 1734.88 1319.82 1734.85 1333.11 1745.6 1343.91 1758.89 1343.94 1772.17 1343.97 1782.97 1333.22 1783.01 1319.93 1783.02 1312.32 1779.44 1305.14 1773.33 1300.59L1796.47 1227.06 1796.81 1227.06C1801.96 1227.05 1806.98 1225.39 1811.11 1222.32L1846.69 1248.96C1845.55 1251.84 1844.95 1254.9 1844.94 1258 1844.93 1271.29 1855.7 1282.07 1868.99 1282.07 1882.28 1282.08 1893.06 1271.31 1893.06 1258.02 1893.07 1249.91 1888.98 1242.34 1882.2 1237.89L1899.94 1185.81C1913.23 1185.81 1924 1175.04 1924 1161.75Z" fill="#FFFFFF"/><path d="M1717.75 1137.69 1697.12 1137.69 1697.12 1378.31 1934.31 1378.31 1934.31 1357.69 1717.75 1357.69 1717.75 1137.69Z" fill="#FFFFFF"/></g></g></g><rect x="3558.5" y="956.5" width="1325" height="604" stroke="#004BAA" stroke-width="4.58333" stroke-miterlimit="8" fill="#00BBD4"/><text fill="#FFFFFF" font-family="Arial,Arial_MSFontService,sans-serif" font-weight="400" font-size="165" transform="matrix(1 0 0 1 3629.98 1220)">Basisinfo <tspan font-size="165" x="0" y="198">pasient</tspan></text><g clip-path="url(#clip31)"><g clip-path="url(#clip32)"><g clip-path="url(#clip33)"><path d="M4655.88 1179.12 4642.12 1179.12C4634.56 1179.12 4628.38 1172.94 4628.38 1165.37L4628.38 1137.87C4628.38 1130.31 4634.56 1124.12 4642.12 1124.12L4655.88 1124.12C4663.44 1124.12 4669.62 1130.31 4669.62 1137.87L4669.62 1165.37C4669.62 1172.94 4663.44 1179.12 4655.88 1179.12Z" fill="#FFFFFF"/><path d="M4759 1247.87 4676.5 1247.87 4676.5 1234.12 4759 1234.12 4759 1247.87ZM4759 1289.12 4676.5 1289.12 4676.5 1275.37 4759 1275.37 4759 1289.12ZM4759 1330.37 4676.5 1330.37 4676.5 1316.62 4759 1316.62 4759 1330.37ZM4649 1330.37 4539 1330.37 4539 1302.87C4539 1298.75 4541.06 1294.62 4544.5 1291.87 4552.06 1286.37 4561.69 1281.56 4571.31 1278.81 4578.88 1276.75 4586.44 1275.37 4594 1275.37 4602.25 1275.37 4609.81 1276.75 4616.69 1278.81 4626.31 1281.56 4635.94 1285.69 4643.5 1291.87 4646.94 1294.62 4649 1298.75 4649 1302.87L4649 1330.37ZM4594 1213.5C4609.12 1213.5 4621.5 1225.87 4621.5 1241 4621.5 1256.12 4609.12 1268.5 4594 1268.5 4578.88 1268.5 4566.5 1256.12 4566.5 1241 4566.5 1225.87 4578.88 1213.5 4594 1213.5ZM4772.75 1165.37 4683.38 1165.37C4683.38 1180.5 4671 1192.87 4655.88 1192.87L4642.12 1192.87C4627 1192.87 4614.62 1180.5 4614.62 1165.37L4525.25 1165.37C4517.69 1165.37 4511.5 1171.56 4511.5 1179.12L4511.5 1344.12C4511.5 1351.69 4517.69 1357.87 4525.25 1357.87L4772.75 1357.87C4780.31 1357.87 4786.5 1351.69 4786.5 1344.12L4786.5 1179.12C4786.5 1171.56 4780.31 1165.37 4772.75 1165.37Z" fill="#FFFFFF"/></g></g></g><rect x="3558.5" y="2350.5" width="1325" height="604" stroke="#004BAA" stroke-width="4.58333" stroke-miterlimit="8" fill="#00BBD4"/><text fill="#FFFFFF" font-family="Arial,Arial_MSFontService,sans-serif" font-weight="400" font-size="165" transform="matrix(1 0 0 1 3629.98 2713)">Hendelse</text><g clip-path="url(#clip34)"><g clip-path="url(#clip35)"><g clip-path="url(#clip36)"><path d="M4768.27 2762 4633.93 2528.25C4630.15 2521.66 4621.75 2519.38 4615.16 2523.16 4613.04 2524.38 4611.29 2526.13 4610.07 2528.25L4475.73 2762C4471.94 2768.58 4474.19 2776.99 4480.77 2780.78 4482.85 2781.99 4485.22 2782.62 4487.63 2782.62L4756.37 2782.62C4763.97 2782.62 4770.12 2776.45 4770.11 2768.86 4770.11 2766.45 4769.47 2764.09 4768.27 2762ZM4658.68 2738.52 4647.54 2738.52 4657.13 2724.19 4635.75 2730.13 4640.67 2702.63 4625.58 2730.13 4621.11 2686.79 4613.78 2728.04 4605.74 2714.56 4606.46 2731.44 4586.66 2720.75 4596.36 2738.42 4580.75 2738.42 4550.12 2714.08 4577.9 2717.28 4553.25 2677.57 4595.08 2703.15 4587.62 2654.23 4608.25 2697.03 4621.42 2610.3 4629.46 2688.23 4668.99 2644.78 4647.78 2700.43 4686.18 2689.57 4664.38 2722.23 4691.44 2725.67Z" fill="#FFFFFF"/></g></g></g><rect x="3558.5" y="3810.5" width="1325" height="604" stroke="#004BAA" stroke-width="4.58333" stroke-miterlimit="8" fill="#281C2C"/><text fill="#FFFFFF" font-family="Arial,Arial_MSFontService,sans-serif" font-weight="400" font-size="165" transform="matrix(1 0 0 1 3629.98 4173)">Plan</text><g clip-path="url(#clip37)"><g clip-path="url(#clip38)"><g clip-path="url(#clip39)"><path d="M4526.75 3985.12 4506.12 3985.12 4506.12 4218.88 4739.88 4218.88 4739.88 4198.25 4526.75 4198.25 4526.75 3985.12Z" fill="#FFFFFF"/><path d="M4702.06 4157 4733 4157 4733 4177.62 4702.06 4177.62Z" fill="#FFFFFF"/><path d="M4674.56 4122.62 4708.94 4122.62 4708.94 4143.25 4674.56 4143.25Z" fill="#FFFFFF"/><path d="M4623 4088.25 4691.75 4088.25 4691.75 4108.88 4623 4108.88Z" fill="#FFFFFF"/><path d="M4585.19 4053.88 4702.06 4053.88 4702.06 4074.5 4585.19 4074.5Z" fill="#FFFFFF"/><path d="M4547.38 4019.5 4616.12 4019.5 4616.12 4040.12 4547.38 4040.12Z" fill="#FFFFFF"/></g></g></g><rect x="3558.5" y="1658.5" width="1325" height="604" stroke="#004BAA" stroke-width="4.58333" stroke-miterlimit="8" fill="#00BBD4"/><text fill="#FFFFFF" font-family="Arial,Arial_MSFontService,sans-serif" font-weight="400" font-size="165" transform="matrix(1 0 0 1 3629.98 1922)">Klinisk<tspan font-size="165" x="0" y="198">oppsummering</tspan></text><g clip-path="url(#clip40)"><g clip-path="url(#clip41)"><g clip-path="url(#clip42)"><path d="M85.5001 28.5C53.9719 28.5 28.5 53.9719 28.5 85.5001 28.5 117.028 53.9719 142.5 85.5001 142.5 117.028 142.5 142.5 117.028 142.5 85.5001 142.5 53.9719 117.028 28.5 85.5001 28.5ZM85.5001 153.188C48.0938 153.188 17.8125 122.906 17.8125 85.5001 17.8125 48.0938 48.0938 17.8125 85.5001 17.8125 122.906 17.8125 153.188 48.0938 153.188 85.5001 153.188 122.906 122.906 153.188 85.5001 153.188Z" fill="#FFFFFF" transform="matrix(1 0 0 1.00585 4541 1754)"/><path d="M121.125 71.2501 99.7501 71.2501 99.7501 49.8751C99.7501 45.9563 96.5439 42.75 92.6251 42.75L78.3751 42.75C74.4563 42.75 71.2501 45.9563 71.2501 49.8751L71.2501 71.2501 49.8751 71.2501C45.9563 71.2501 42.75 74.4563 42.75 78.3751L42.75 92.6251C42.75 96.5439 45.9563 99.7501 49.8751 99.7501L71.2501 99.7501 71.2501 121.125C71.2501 125.044 74.4563 128.25 78.3751 128.25L92.6251 128.25C96.5439 128.25 99.7501 125.044 99.7501 121.125L99.7501 99.7501 121.125 99.7501C125.044 99.7501 128.25 96.5439 128.25 92.6251L128.25 78.3751C128.25 74.4563 125.044 71.2501 121.125 71.2501Z" fill="#FFFFFF" transform="matrix(1 0 0 1.00585 4541 1754)"/></g></g></g><g clip-path="url(#clip43)"><g clip-path="url(#clip44)"><g clip-path="url(#clip45)"><path d="M4610.47 1942.86C4558.47 1934.29 4520.36 1889.26 4520.51 1836.56 4520.59 1830.03 4521.25 1823.52 4522.5 1817.12L4522.83 1817.12 4530.42 1830.26C4532.71 1834.23 4537.78 1835.59 4541.76 1833.3 4545.73 1831.01 4547.09 1825.94 4544.8 1821.97L4527.18 1791.49C4526.09 1789.6 4524.28 1788.21 4522.17 1787.64 4520.04 1787.07 4517.77 1787.37 4515.87 1788.47L4485.19 1806.17C4481.13 1808.29 4479.56 1813.3 4481.68 1817.36 4483.81 1821.42 4488.82 1822.99 4492.87 1820.86 4493.08 1820.76 4493.28 1820.64 4493.48 1820.51L4506.17 1813.18C4504.69 1820.88 4503.94 1828.71 4503.93 1836.56 4503.74 1897.32 4547.63 1949.25 4607.57 1959.19L4608.98 1959.19C4613.56 1959.56 4617.57 1956.14 4617.94 1951.56 4618.3 1946.99 4614.89 1942.98 4610.31 1942.61Z" fill="#FFFFFF"/><path d="M4752.68 1836.56C4752.69 1821.74 4750.07 1807.05 4744.92 1793.15 4743.32 1788.86 4738.54 1786.68 4734.25 1788.28 4729.96 1789.88 4727.77 1794.66 4729.38 1798.96 4750.14 1854.75 4721.74 1916.81 4665.94 1937.57 4665.54 1937.72 4665.14 1937.86 4664.74 1938.01L4664.74 1938.01 4672.29 1924.82C4674.58 1920.84 4673.21 1915.75 4669.22 1913.46 4665.24 1911.17 4660.15 1912.55 4657.86 1916.53L4640.45 1947.09C4638.17 1951.06 4639.54 1956.13 4643.52 1958.4 4643.52 1958.41 4643.52 1958.41 4643.52 1958.41L4674.07 1975.86C4678.06 1978.15 4683.14 1976.78 4685.43 1972.79 4687.72 1968.81 4686.35 1963.72 4682.36 1961.43L4669.43 1954.09C4719.45 1936.74 4752.91 1889.51 4752.68 1836.56Z" fill="#FFFFFF"/><path d="M4682.2 1753.52C4677.62 1753.52 4673.91 1757.23 4673.91 1761.81 4673.91 1766.39 4677.62 1770.1 4682.2 1770.1L4716.28 1770.1C4716.59 1770.12 4716.91 1770.12 4717.23 1770.1 4718.83 1770.1 4720.38 1769.63 4721.71 1768.73L4722.29 1768.36 4722.54 1768.15 4722.54 1768.15 4723.08 1767.74C4724.7 1766.19 4725.63 1764.05 4725.65 1761.81L4725.65 1726.65C4725.65 1722.07 4721.93 1718.36 4717.35 1718.36 4712.77 1718.36 4709.06 1722.07 4709.06 1726.65L4709.06 1741.79 4709.06 1741.79C4656.78 1697.23 4578.28 1703.5 4533.73 1755.78 4533.54 1756.01 4533.35 1756.24 4533.15 1756.46 4530.2 1759.96 4530.65 1765.2 4534.15 1768.15 4537.65 1771.11 4542.89 1770.66 4545.84 1767.16 4583.92 1721.81 4651.44 1715.66 4697.08 1753.39Z" fill="#FFFFFF"/></g></g></g></g></svg>