<svg width="3669" height="2006" xmlns="http://www.w3.org/2000/svg" xmlns:xlink="http://www.w3.org/1999/xlink" xml:space="preserve" overflow="hidden"><defs><filter id="fx0" x="-10%" y="-10%" width="120%" height="120%" filterUnits="userSpaceOnUse" primitiveUnits="userSpaceOnUse"><feComponentTransfer color-interpolation-filters="sRGB"><feFuncR type="discrete" tableValues="0 0"/><feFuncG type="discrete" tableValues="0 0"/><feFuncB type="discrete" tableValues="0 0"/><feFuncA type="linear" slope="0.4" intercept="0"/></feComponentTransfer><feGaussianBlur stdDeviation="6.11111 6.11111"/></filter><filter id="fx1" x="-10%" y="-10%" width="120%" height="120%" filterUnits="userSpaceOnUse" primitiveUnits="userSpaceOnUse"><feComponentTransfer color-interpolation-filters="sRGB"><feFuncR type="discrete" tableValues="0 0"/><feFuncG type="discrete" tableValues="0 0"/><feFuncB type="discrete" tableValues="0 0"/><feFuncA type="linear" slope="0.4" intercept="0"/></feComponentTransfer><feGaussianBlur stdDeviation="6.11111 6.11111"/></filter><filter id="fx2" x="-10%" y="-10%" width="120%" height="120%" filterUnits="userSpaceOnUse" primitiveUnits="userSpaceOnUse"><feComponentTransfer color-interpolation-filters="sRGB"><feFuncR type="discrete" tableValues="0 0"/><feFuncG type="discrete" tableValues="0 0"/><feFuncB type="discrete" tableValues="0 0"/><feFuncA type="linear" slope="0.4" intercept="0"/></feComponentTransfer><feGaussianBlur stdDeviation="6.11111 6.11111"/></filter><filter id="fx3" x="-10%" y="-10%" width="120%" height="120%" filterUnits="userSpaceOnUse" primitiveUnits="userSpaceOnUse"><feComponentTransfer color-interpolation-filters="sRGB"><feFuncR type="discrete" tableValues="0 0"/><feFuncG type="discrete" tableValues="0 0"/><feFuncB type="discrete" tableValues="0 0"/><feFuncA type="linear" slope="0.4" intercept="0"/></feComponentTransfer><feGaussianBlur stdDeviation="6.11111 6.11111"/></filter><filter id="fx4" x="-10%" y="-10%" width="120%" height="120%" filterUnits="userSpaceOnUse" primitiveUnits="userSpaceOnUse"><feComponentTransfer color-interpolation-filters="sRGB"><feFuncR type="discrete" tableValues="0 0"/><feFuncG type="discrete" tableValues="0 0"/><feFuncB type="discrete" tableValues="0 0"/><feFuncA type="linear" slope="0.4" intercept="0"/></feComponentTransfer><feGaussianBlur stdDeviation="6.11111 6.11111"/></filter><filter id="fx5" x="-10%" y="-10%" width="120%" height="120%" filterUnits="userSpaceOnUse" primitiveUnits="userSpaceOnUse"><feComponentTransfer color-interpolation-filters="sRGB"><feFuncR type="discrete" tableValues="0 0"/><feFuncG type="discrete" tableValues="0 0"/><feFuncB type="discrete" tableValues="0 0"/><feFuncA type="linear" slope="0.4" intercept="0"/></feComponentTransfer><feGaussianBlur stdDeviation="6.11111 6.11111"/></filter><filter id="fx6" x="-10%" y="-10%" width="120%" height="120%" filterUnits="userSpaceOnUse" primitiveUnits="userSpaceOnUse"><feComponentTransfer color-interpolation-filters="sRGB"><feFuncR type="discrete" tableValues="0 0"/><feFuncG type="discrete" tableValues="0 0"/><feFuncB type="discrete" tableValues="0 0"/><feFuncA type="linear" slope="0.4" intercept="0"/></feComponentTransfer><feGaussianBlur stdDeviation="6.11111 6.11111"/></filter><filter id="fx7" x="-10%" y="-10%" width="120%" height="120%" filterUnits="userSpaceOnUse" primitiveUnits="userSpaceOnUse"><feComponentTransfer color-interpolation-filters="sRGB"><feFuncR type="discrete" tableValues="0 0"/><feFuncG type="discrete" tableValues="0 0"/><feFuncB type="discrete" tableValues="0 0"/><feFuncA type="linear" slope="0.4" intercept="0"/></feComponentTransfer><feGaussianBlur stdDeviation="6.11111 6.11111"/></filter><clipPath id="clip8"><rect x="4865" y="1048" width="3669" height="2006"/></clipPath><clipPath id="clip9"><rect x="4983" y="2293" width="280" height="235"/></clipPath><clipPath id="clip10"><rect x="4983" y="2293" width="280" height="235"/></clipPath><clipPath id="clip11"><rect x="4983" y="2293" width="280" height="235"/></clipPath><clipPath id="clip12"><rect x="8151" y="2306" width="280" height="235"/></clipPath><clipPath id="clip13"><rect x="8151" y="2306" width="280" height="235"/></clipPath><clipPath id="clip14"><rect x="8151" y="2306" width="280" height="235"/></clipPath><clipPath id="clip15"><path d="M5122.5 1282.5 5122.5 1530.5 5997.5 1530.5 5997.5 1282.5ZM4865 1048 8534 1048 8534 3054 4865 3054Z" fill-rule="evenodd" clip-rule="evenodd"/></clipPath><clipPath id="clip16"><rect x="-3" y="-3" width="926" height="300"/></clipPath><clipPath id="clip17"><rect x="0" y="0" width="920" height="293"/></clipPath><clipPath id="clip18"><rect x="70" y="59" width="230" height="124"/></clipPath><clipPath id="clip19"><rect x="0" y="0" width="373" height="271"/></clipPath><clipPath id="clip20"><rect x="5750" y="1313" width="183" height="187"/></clipPath><clipPath id="clip21"><rect x="5750" y="1313" width="183" height="187"/></clipPath><clipPath id="clip22"><rect x="5750" y="1313" width="183" height="187"/></clipPath><clipPath id="clip23"><path d="M5122.5 1561.5 5122.5 1809.5 5991.5 1809.5 5991.5 1561.5ZM4865 1048 8534 1048 8534 3054 4865 3054Z" fill-rule="evenodd" clip-rule="evenodd"/></clipPath><clipPath id="clip24"><rect x="-3" y="-3" width="919" height="300"/></clipPath><clipPath id="clip25"><rect x="0" y="0" width="914" height="293"/></clipPath><clipPath id="clip26"><rect x="66" y="56" width="386" height="282"/></clipPath><clipPath id="clip27"><rect x="0" y="0" width="520" height="403"/></clipPath><clipPath id="clip28"><rect x="5751" y="1591" width="187" height="187"/></clipPath><clipPath id="clip29"><rect x="5751" y="1591" width="187" height="187"/></clipPath><clipPath id="clip30"><rect x="5751" y="1591" width="187" height="187"/></clipPath><clipPath id="clip31"><path d="M7411.5 1282.5 7411.5 1530.5 8286.5 1530.5 8286.5 1282.5ZM4865 1048 8534 1048 8534 3054 4865 3054Z" fill-rule="evenodd" clip-rule="evenodd"/></clipPath><clipPath id="clip32"><rect x="-3" y="-3" width="926" height="300"/></clipPath><clipPath id="clip33"><rect x="0" y="0" width="920" height="293"/></clipPath><clipPath id="clip34"><rect x="70" y="59" width="234" height="124"/></clipPath><clipPath id="clip35"><rect x="0" y="0" width="374" height="271"/></clipPath><clipPath id="clip36"><rect x="8039" y="1313" width="183" height="187"/></clipPath><clipPath id="clip37"><rect x="8039" y="1313" width="183" height="187"/></clipPath><clipPath id="clip38"><rect x="8039" y="1313" width="183" height="187"/></clipPath><clipPath id="clip39"><path d="M7411.5 1561.5 7411.5 1809.5 8279.5 1809.5 8279.5 1561.5ZM4865 1048 8534 1048 8534 3054 4865 3054Z" fill-rule="evenodd" clip-rule="evenodd"/></clipPath><clipPath id="clip40"><rect x="-3" y="-3" width="919" height="300"/></clipPath><clipPath id="clip41"><rect x="0" y="0" width="913" height="293"/></clipPath><clipPath id="clip42"><rect x="66" y="56" width="382" height="282"/></clipPath><clipPath id="clip43"><rect x="0" y="0" width="520" height="403"/></clipPath><clipPath id="clip44"><rect x="8039" y="1591" width="188" height="187"/></clipPath><clipPath id="clip45"><rect x="8039" y="1591" width="188" height="187"/></clipPath><clipPath id="clip46"><rect x="8039" y="1591" width="188" height="187"/></clipPath><clipPath id="clip47"><rect x="4994" y="2305" width="280" height="236"/></clipPath><clipPath id="clip48"><rect x="4994" y="2305" width="280" height="236"/></clipPath><clipPath id="clip49"><rect x="4994" y="2305" width="280" height="236"/></clipPath></defs><g clip-path="url(#clip8)" transform="translate(-4865 -1048)"><path d="M7188.5 1104.24C7188.5 1080.08 7208.08 1060.5 7232.24 1060.5L8487.76 1060.5C8511.92 1060.5 8531.5 1080.08 8531.5 1104.24L8531.5 2695.76C8531.5 2719.92 8511.92 2739.5 8487.76 2739.5L7232.24 2739.5C7208.08 2739.5 7188.5 2719.92 7188.5 2695.76Z" stroke="#00BBD4" stroke-width="4.58333" stroke-miterlimit="8" fill="#00BBD4" fill-rule="evenodd" fill-opacity="0.4"/><text fill="#281C2C" font-family="Arial,Arial_MSFontService,sans-serif" font-weight="700" font-size="110" transform="matrix(1 0 0 1 7472.52 1196)">Virksomhet(er)</text><path d="M4867.5 1104.24C4867.5 1080.08 4887.08 1060.5 4911.24 1060.5L6166.76 1060.5C6190.92 1060.5 6210.5 1080.08 6210.5 1104.24L6210.5 2695.76C6210.5 2719.92 6190.92 2739.5 6166.76 2739.5L4911.24 2739.5C4887.08 2739.5 4867.5 2719.92 4867.5 2695.76Z" stroke="#00BBD4" stroke-width="4.58333" stroke-miterlimit="8" fill="#00BBD4" fill-rule="evenodd" fill-opacity="0.4"/><text fill="#281C2C" font-family="Arial,Arial_MSFontService,sans-serif" font-weight="700" font-size="110" transform="matrix(1 0 0 1 5151.6 1196)">Virksomhet(er)</text><path d="M4867 2783.12C4867 2778.08 4871.08 2774 4876.12 2774L8521.88 2774C8526.92 2774 8531 2778.08 8531 2783.12L8531 3044.88C8531 3049.92 8526.92 3054 8521.88 3054L4876.12 3054C4871.08 3054 4867 3049.92 4867 3044.88Z" fill="#7BF5BC" fill-rule="evenodd"/><text fill="#281C2C" font-family="Arial,Arial_MSFontService,sans-serif" font-weight="700" font-size="110" transform="matrix(1 0 0 1 6314.21 2955)">Fellestjenester</text><g clip-path="url(#clip9)"><g clip-path="url(#clip10)"><g clip-path="url(#clip11)"><path d="M73.125 47.5313 36.5625 69.7125 117 118.463 153.563 96.2813Z" fill="#FFFFFF" transform="matrix(1.19231 0 0 1 4983 2294)"/><path d="M197.438 69.7125 117 20.9625 82.3875 41.925 162.825 90.675Z" fill="#FFFFFF" transform="matrix(1.19231 0 0 1 4983 2294)"/><path d="M36.5625 89.2125 36.5625 167.213 112.125 213.038 112.125 126.994 36.5625 81.1688Z" fill="#FFFFFF" transform="matrix(1.19231 0 0 1 4983 2294)"/><path d="M148.688 140.4 131.625 150.15 131.625 133.088 148.688 123.338 148.688 140.4ZM121.875 126.994 121.875 213.038 197.438 167.213 197.438 81.1688 121.875 126.994Z" fill="#FFFFFF" transform="matrix(1.19231 0 0 1 4983 2294)"/></g></g></g><rect x="7291.5" y="2214.5" width="1163" height="446" stroke="#1A111D" stroke-width="4.58333" stroke-miterlimit="8" fill="#0169E8"/><text fill="#FFFFFF" font-family="Arial,Arial_MSFontService,sans-serif" font-weight="400" font-size="110" transform="matrix(1 0 0 1 7562.73 2412)">Datadelings<tspan font-size="110" x="582.083" y="0">-</tspan><tspan font-size="110" x="116.577" y="132">tjeneste</tspan></text><g clip-path="url(#clip12)"><g clip-path="url(#clip13)"><g clip-path="url(#clip14)"><path d="M73.125 47.5313 36.5625 69.7125 117 118.463 153.563 96.2813Z" fill="#FFFFFF" transform="matrix(1.19231 0 0 1 8151 2307)"/><path d="M197.438 69.7125 117 20.9625 82.3875 41.925 162.825 90.675Z" fill="#FFFFFF" transform="matrix(1.19231 0 0 1 8151 2307)"/><path d="M36.5625 89.2125 36.5625 167.213 112.125 213.038 112.125 126.994 36.5625 81.1688Z" fill="#FFFFFF" transform="matrix(1.19231 0 0 1 8151 2307)"/><path d="M148.688 140.4 131.625 150.15 131.625 133.088 148.688 123.338 148.688 140.4ZM121.875 126.994 121.875 213.038 197.438 167.213 197.438 81.1688 121.875 126.994Z" fill="#FFFFFF" transform="matrix(1.19231 0 0 1 8151 2307)"/></g></g></g><path d="M6242 1590.8C6242 1574.34 6255.34 1561 6271.8 1561L7127.2 1561C7143.66 1561 7157 1574.34 7157 1590.8L7157 2709.2C7157 2725.66 7143.66 2739 7127.2 2739L6271.8 2739C6255.34 2739 6242 2725.66 6242 2709.2Z" fill="#EEEEEE" fill-rule="evenodd"/><text fill="#281C2C" font-family="Arial,Arial_MSFontService,sans-serif" font-weight="700" font-size="110" transform="matrix(1 0 0 1 6394.04 1693)">Semantiske <tspan font-size="110" x="-94.5313" y="132">spesifikasjoner</tspan><tspan font-size="83" x="-60.729" y="302">Datadeling mellom </tspan><tspan font-size="83" x="-5.729" y="401">helsepersonell i </tspan><tspan font-size="83" x="14.896" y="500">ulike løsninger</tspan></text><path d="M91.6661-18.3333 128.333-18.3333 128.333 18.3334 91.6661 18.3334ZM164.999-18.3333 201.666-18.3333 201.666 18.3334 164.999 18.3334ZM238.333-18.3332 274.999-18.3332 274.999 18.3334 238.333 18.3334ZM311.666-18.3332 348.333-18.3332 348.333 18.3335 311.666 18.3335ZM384.999-18.3332 421.666-18.3332 421.666 18.3335 384.999 18.3335ZM458.333-18.3332 494.999-18.3331 494.999 18.3335 458.333 18.3335ZM531.666-18.3331 568.333-18.3331 568.333 18.3336 531.666 18.3335ZM604.999-18.3331 641.666-18.3331 641.666 18.3336 604.999 18.3336ZM678.333-18.3331 714.999-18.333 714.999 18.3336 678.333 18.3336ZM751.666-18.333 788.333-18.333 788.333 18.3336 751.666 18.3336ZM110 55 0 0 110-55ZM795.091-54.9997 905.091 0.000360892 795.091 55.0003Z" fill="#281C2C" transform="matrix(-1 0 0 1 7147.59 2425.5)"/><path d="M5266.83 1839 5991 1839C5911.01 1839 5846.17 1888.7 5846.17 1950 5846.17 2011.3 5911.01 2061 5991 2061L5266.83 2061C5186.84 2061 5122 2011.3 5122 1950 5122 1888.7 5186.84 1839 5266.83 1839Z" fill="#281C2C" fill-rule="evenodd"/><text fill="#FFFFFF" font-family="Arial,Arial_MSFontService,sans-serif" font-weight="400" font-size="92" transform="matrix(1 0 0 1 5440.33 1929)">Helse<tspan font-size="92" x="234.896" y="0">-</tspan><tspan font-size="92" x="-127.486" y="110">opplysninger</tspan></text><g clip-path="url(#clip15)"><g clip-path="url(#clip16)" filter="url(#fx0)" transform="translate(5110 1270)"><g clip-path="url(#clip17)"><rect x="22.2227" y="22.2228" width="875" height="248" stroke="#004BAA" stroke-width="5" stroke-miterlimit="8" fill="#0169E8"/></g></g><g clip-path="url(#clip18)" filter="url(#fx1)" transform="translate(5383 1297)"><g clip-path="url(#clip19)"><path d="M8.70117 0 8.70117-78.7402 65.6348-78.7402 65.6348-69.4482 19.1211-69.4482 19.1211-45.332 62.6807-45.332 62.6807-36.0937 19.1211-36.0937 19.1211-9.29199 67.4609-9.29199 67.4609 0ZM81.8197 0 81.8197-78.7402 111.522-78.7402C116.75-78.7402 120.742-78.4896 123.499-77.9883 127.367-77.3437 130.607-76.1173 133.221-74.3091 135.835-72.5008 137.939-69.9674 139.532-66.709 141.125-63.4505 141.922-59.8698 141.922-55.9668 141.922-49.2708 139.792-43.6043 135.531-38.9673 131.27-34.3302 123.571-32.0117 112.435-32.0117L92.2396-32.0117 92.2396 0ZM92.2396-41.3037 112.596-41.3037C119.328-41.3037 124.108-42.557 126.937-45.0635 129.766-47.57 131.18-51.097 131.18-55.6445 131.18-58.9388 130.347-61.7586 128.682-64.104 127.017-66.4494 124.824-67.998 122.103-68.75 120.348-69.2155 117.108-69.4482 112.381-69.4482L92.2396-69.4482ZM149.836-22.3437 159.235-23.6328C159.486-17.6172 160.614-13.4993 162.619-11.2793 164.624-9.05924 167.399-7.94922 170.944-7.94922 173.558-7.94922 175.814-8.54899 177.712-9.74853 179.609-10.9481 180.916-12.5773 181.632-14.6362 182.349-16.6951 182.707-19.9805 182.707-24.4922L182.707-78.7402 193.127-78.7402 193.127-25.083C193.127-18.4945 192.33-13.3919 190.736-9.77539 189.143-6.15885 186.619-3.40169 183.163-1.50391 179.708 0.39388 175.653 1.34277 170.998 1.34277 164.087 1.34277 158.796-0.644531 155.126-4.61914 151.456-8.59375 149.692-14.502 149.836-22.3437Z" fill="#FFFFFF" transform="matrix(1 0 0 1 85.5942 160)"/></g></g></g><rect x="5122.5" y="1282.5" width="875" height="248" stroke="#004BAA" stroke-width="4.58333" stroke-miterlimit="8" fill="#0169E8"/><text fill="#FFFFFF" font-family="Arial,Arial_MSFontService,sans-serif" font-weight="400" font-size="110" transform="matrix(1 0 0 1 5458.87 1447)">EPJ</text><g clip-path="url(#clip20)"><g clip-path="url(#clip21)"><g clip-path="url(#clip22)"><path d="M111.805 70.3261C103.887 70.3261 97.6647 63.9157 97.6647 56.1855 97.6647 48.4553 104.075 42.0448 111.805 42.0448 119.724 42.0448 125.946 48.4553 125.946 56.1855 125.946 63.9157 119.536 70.3261 111.805 70.3261ZM143.669 47.324C142.915 44.6844 141.972 42.2334 140.652 39.9709L143.669 31.1094 136.881 24.3219 128.02 27.3386C125.757 26.0188 123.306 25.0761 120.667 24.3219L116.519 16.0261 107.092 16.0261 102.944 24.3219C100.304 25.0761 97.8532 26.0188 95.5907 27.3386L86.7292 24.3219 79.9417 31.1094 82.9584 39.9709C81.6386 42.2334 80.6959 44.6844 79.9417 47.324L71.6459 51.4719 71.6459 60.899 79.9417 65.0469C80.6959 67.6865 81.6386 70.1376 82.9584 72.4001L79.9417 81.2615 86.5407 87.8605 95.4022 84.8438C97.6647 86.1636 100.116 87.1063 102.755 87.8605L106.903 96.1563 116.33 96.1563 120.478 87.8605C123.118 87.1063 125.569 86.1636 127.831 84.8438L136.693 87.8605 143.48 81.2615 140.464 72.4001C141.783 70.1376 142.915 67.498 143.669 65.0469L151.965 60.899 151.965 51.4719 143.669 47.324Z" fill="#FFFFFF" transform="matrix(1 0 0 1.02762 5751 1313)"/><path d="M69.1949 138.955C61.2761 138.955 55.0542 132.545 55.0542 124.815 55.0542 116.896 61.4646 110.674 69.1949 110.674 77.1136 110.674 83.3355 117.084 83.3355 124.815 83.3355 132.545 77.1136 138.955 69.1949 138.955L69.1949 138.955ZM98.0418 108.6 101.058 99.7386 94.2709 92.9511 85.4095 95.9678C83.1469 94.648 80.5074 93.7053 78.0563 92.9511L73.9084 84.6553 64.4813 84.6553 60.3334 92.9511C57.6938 93.7053 55.2428 94.648 52.9803 95.9678L44.1188 92.9511 37.5198 99.5501 40.348 108.412C39.0282 110.674 38.0855 113.314 37.3313 115.765L29.0354 119.913 29.0354 129.34 37.3313 133.488C38.0855 136.127 39.0282 138.578 40.348 140.841L37.5198 149.702 44.1188 156.301 52.9803 153.473C55.2428 154.793 57.6938 155.736 60.3334 156.49L64.4813 164.786 73.9084 164.786 78.0563 156.49C80.6959 155.736 83.1469 154.793 85.4095 153.473L94.2709 156.49 100.87 149.702 98.0418 141.029C99.3615 138.767 100.304 136.316 101.058 133.676L109.354 129.528 109.354 120.101 101.058 115.953C100.304 113.314 99.3615 110.863 98.0418 108.6Z" fill="#FFFFFF" transform="matrix(1 0 0 1.02762 5751 1313)"/></g></g></g><g clip-path="url(#clip23)"><g clip-path="url(#clip24)" filter="url(#fx2)" transform="translate(5110 1549)"><g clip-path="url(#clip25)"><rect x="22.2227" y="22.2229" width="869" height="248" stroke="#004BAA" stroke-width="5" stroke-miterlimit="8" fill="#0169E8"/></g></g><g clip-path="url(#clip26)" filter="url(#fx3)" transform="translate(5306 1510)"><g clip-path="url(#clip27)"><path d="M8.48633 0 8.48633-78.7402 35.6103-78.7402C41.7334-78.7402 46.4062-78.3642 49.6289-77.6123 54.1406-76.5739 57.9899-74.694 61.1768-71.9726 65.3304-68.4635 68.4367-63.9787 70.4956-58.5181 72.5545-53.0574 73.584-46.818 73.584-39.7998 73.584-33.82 72.8857-28.5205 71.4893-23.9014 70.0928-19.2822 68.3024-15.4598 66.1182-12.4341 63.9339-9.40837 61.5438-7.02718 58.9478-5.29053 56.3517-3.55387 53.2186-2.23796 49.5483-1.34277 45.8781-0.447591 41.6618 0 36.8994 0ZM18.9062-9.29199 35.7178-9.29199C40.9098-9.29199 44.9829-9.77539 47.937-10.7422 50.8911-11.709 53.2454-13.0697 55-14.8242 57.4707-17.2949 59.3953-20.616 60.7739-24.7876 62.1525-28.9591 62.8418-34.0169 62.8418-39.9609 62.8418-48.1966 61.4901-54.5255 58.7866-58.9478 56.0832-63.3699 52.7978-66.333 48.9307-67.8369 46.1377-68.9111 41.6439-69.4482 35.4492-69.4482L18.9062-69.4482ZM88.444 0 88.444-78.7402 98.8639-78.7402 98.8639-46.4062 139.792-46.4062 139.792-78.7402 150.212-78.7402 150.212 0 139.792 0 139.792-37.1143 98.8639-37.1143 98.8639 0ZM164.588-38.3496C164.588-51.4193 168.097-61.6512 175.116-69.0454 182.134-76.4396 191.193-80.1367 202.293-80.1367 209.562-80.1367 216.115-78.4001 221.951-74.9268 227.788-71.4534 232.237-66.6105 235.299-60.3979 238.36-54.1854 239.891-47.1403 239.891-39.2627 239.891-31.2777 238.28-24.1341 235.057-17.832 231.834-11.5299 227.269-6.75863 221.361-3.51807 215.452-0.277507 209.079 1.34277 202.24 1.34277 194.827 1.34277 188.203-0.447591 182.367-4.02832 176.53-7.60905 172.108-12.4967 169.1-18.6914 166.092-24.8861 164.588-31.4388 164.588-38.3496ZM175.33-38.1885C175.33-28.6995 177.882-21.2248 182.984-15.7642 188.087-10.3035 194.487-7.57324 202.186-7.57324 210.028-7.57324 216.482-10.3304 221.549-15.8447 226.615-21.359 229.149-29.1829 229.149-39.3164 229.149-45.7259 228.066-51.3208 225.899-56.1011 223.733-60.8813 220.564-64.5874 216.392-67.2192 212.221-69.8511 207.539-71.167 202.347-71.167 194.971-71.167 188.624-68.6336 183.306-63.5669 177.989-58.5002 175.33-50.0407 175.33-38.1885Z" fill="#FFFFFF" transform="matrix(1 0 0 1 137.838 160)"/><path d="M3.38379-17.0264 12.9443-18.5303C13.4814-14.6989 14.9764-11.7627 17.4292-9.72168 19.882-7.68066 23.3105-6.66016 27.7148-6.66016 32.1549-6.66016 35.4492-7.56429 37.5977-9.37256 39.7461-11.1808 40.8203-13.3024 40.8203-15.7373 40.8203-17.9215 39.8714-19.6403 37.9736-20.8936 36.6488-21.7529 33.3545-22.8451 28.0908-24.1699 21.001-25.9603 16.0864-27.5089 13.3472-28.8159 10.6079-30.1229 8.53109-31.9311 7.1167-34.2407 5.70231-36.5503 4.99512-39.1016 4.99512-41.8945 4.99512-44.4368 5.57699-46.7912 6.74072-48.9575 7.90446-51.1239 9.48893-52.9232 11.4941-54.3555 12.998-55.4655 15.048-56.4054 17.644-57.1753 20.2401-57.9451 23.0241-58.3301 25.9961-58.3301 30.472-58.3301 34.4019-57.6855 37.7856-56.3965 41.1694-55.1074 43.667-53.3618 45.2783-51.1597 46.8896-48.9575 47.9997-46.0124 48.6084-42.3242L39.1553-41.0352C38.7256-43.9714 37.4813-46.263 35.4224-47.9102 33.3634-49.5573 30.4541-50.3809 26.6943-50.3809 22.2542-50.3809 19.0853-49.6468 17.1875-48.1787 15.2897-46.7106 14.3408-44.9919 14.3408-43.0225 14.3408-41.7692 14.7347-40.6413 15.5225-39.6387 16.3102-38.6003 17.5456-37.7409 19.2285-37.0605 20.1953-36.7025 23.042-35.8789 27.7686-34.5898 34.6077-32.7637 39.3791-31.2687 42.0825-30.105 44.786-28.9412 46.9075-27.2493 48.4473-25.0293 49.987-22.8092 50.7568-20.0521 50.7568-16.7578 50.7568-13.5352 49.8169-10.5005 47.937-7.65381 46.0571-4.80713 43.3447-2.60498 39.7998-1.04736 36.2549 0.510254 32.2445 1.28906 27.7686 1.28906 20.3564 1.28906 14.7078-0.250651 10.8228-3.33008 6.93766-6.4095 4.45801-10.9749 3.38379-17.0264ZM61.8213 21.9678 60.7471 12.8906C62.8597 13.4635 64.7038 13.75 66.2793 13.75 68.4277 13.75 70.1465 13.3919 71.4355 12.6758 72.7246 11.9596 73.7809 10.957 74.6045 9.66797 75.2132 8.70117 76.1979 6.30208 77.5586 2.4707 77.7376 1.93359 78.0241 1.14583 78.418 0.107422L56.7725-57.041 67.1924-57.041 79.0625-24.0088C80.6022-19.8193 81.9808-15.415 83.1982-10.7959 84.3083-15.236 85.6331-19.5687 87.1728-23.7939L99.3652-57.041 109.033-57.041 87.334 0.966797C85.0065 7.23307 83.1982 11.5478 81.9092 13.9111 80.1904 17.098 78.221 19.4344 76.001 20.9204 73.7809 22.4064 71.1312 23.1494 68.0518 23.1494 66.1898 23.1494 64.1129 22.7555 61.8213 21.9678ZM113.384-17.0264 122.944-18.5303C123.481-14.6989 124.976-11.7627 127.429-9.72168 129.882-7.68066 133.311-6.66016 137.715-6.66016 142.155-6.66016 145.449-7.56429 147.598-9.37256 149.746-11.1808 150.82-13.3024 150.82-15.7373 150.82-17.9215 149.871-19.6403 147.974-20.8936 146.649-21.7529 143.354-22.8451 138.091-24.1699 131.001-25.9603 126.086-27.5089 123.347-28.8159 120.608-30.1229 118.531-31.9311 117.117-34.2407 115.702-36.5503 114.995-39.1016 114.995-41.8945 114.995-44.4368 115.577-46.7912 116.741-48.9575 117.904-51.1239 119.489-52.9232 121.494-54.3555 122.998-55.4655 125.048-56.4054 127.644-57.1753 130.24-57.9451 133.024-58.3301 135.996-58.3301 140.472-58.3301 144.402-57.6855 147.786-56.3965 151.169-55.1074 153.667-53.3618 155.278-51.1597 156.89-48.9575 158-46.0124 158.608-42.3242L149.155-41.0352C148.726-43.9714 147.481-46.263 145.422-47.9102 143.363-49.5573 140.454-50.3809 136.694-50.3809 132.254-50.3809 129.085-49.6468 127.187-48.1787 125.29-46.7106 124.341-44.9919 124.341-43.0225 124.341-41.7692 124.735-40.6413 125.522-39.6387 126.31-38.6003 127.546-37.7409 129.229-37.0605 130.195-36.7025 133.042-35.8789 137.769-34.5898 144.608-32.7637 149.379-31.2687 152.083-30.105 154.786-28.9412 156.908-27.2493 158.447-25.0293 159.987-22.8092 160.757-20.0521 160.757-16.7578 160.757-13.5352 159.817-10.5005 157.937-7.65381 156.057-4.80713 153.345-2.60498 149.8-1.04736 146.255 0.510254 142.244 1.28906 137.769 1.28906 130.356 1.28906 124.708-0.250651 120.823-3.33008 116.938-6.4095 114.458-10.9749 113.384-17.0264ZM193.359-8.64746 194.756-0.107422C192.034 0.465495 189.6 0.751953 187.451 0.751953 183.942 0.751953 181.221 0.19694 179.287-0.913086 177.353-2.02311 175.993-3.48226 175.205-5.29053 174.417-7.09879 174.023-10.9033 174.023-16.7041L174.023-49.5215 166.934-49.5215 166.934-57.041 174.023-57.041 174.023-71.167 183.638-76.9678 183.638-57.041 193.359-57.041 193.359-49.5215 183.638-49.5215 183.638-16.167C183.638-13.4098 183.808-11.6374 184.148-10.8496 184.488-10.0618 185.043-9.43522 185.813-8.96973 186.583-8.50423 187.684-8.27148 189.116-8.27148 190.19-8.27148 191.605-8.39681 193.359-8.64746ZM241.663-18.3691 251.654-17.1338C250.078-11.2972 247.16-6.76758 242.899-3.54492 238.638-0.322266 233.195 1.28906 226.571 1.28906 218.228 1.28906 211.612-1.28011 206.724-6.41846 201.837-11.5568 199.393-18.763 199.393-28.0371 199.393-37.6335 201.864-45.0814 206.805-50.3809 211.746-55.6803 218.156-58.3301 226.034-58.3301 233.66-58.3301 239.891-55.734 244.725-50.542 249.559-45.3499 251.976-38.0452 251.976-28.6279 251.976-28.055 251.958-27.1956 251.922-26.0498L209.383-26.0498C209.741-19.7835 211.514-14.9853 214.701-11.6553 217.887-8.32519 221.862-6.66016 226.624-6.66016 230.169-6.66016 233.195-7.59115 235.701-9.45312 238.208-11.3151 240.195-14.2871 241.663-18.3691ZM209.92-33.999 241.771-33.999C241.341-38.7972 240.124-42.3958 238.118-44.7949 235.039-48.5189 231.047-50.3809 226.141-50.3809 221.701-50.3809 217.968-48.8949 214.942-45.9228 211.916-42.9508 210.242-38.9762 209.92-33.999ZM263.918 0 263.918-57.041 272.565-57.041 272.565-49.0381C274.355-51.831 276.737-54.078 279.709-55.7788 282.681-57.4797 286.064-58.3301 289.86-58.3301 294.085-58.3301 297.55-57.4528 300.253-55.6982 302.957-53.9437 304.863-51.4909 305.973-48.3398 310.485-55 316.357-58.3301 323.59-58.3301 329.248-58.3301 333.599-56.7635 336.642-53.6304 339.686-50.4972 341.208-45.6722 341.208-39.1553L341.208 0 331.593 0 331.593-35.9326C331.593-39.7998 331.28-42.5838 330.653-44.2847 330.027-45.9855 328.89-47.3551 327.243-48.3936 325.596-49.432 323.662-49.9512 321.442-49.9512 317.432-49.9512 314.102-48.6173 311.452-45.9497 308.802-43.2821 307.477-39.012 307.477-33.1396L307.477 0 297.809 0 297.809-37.0605C297.809-41.3574 297.021-44.5801 295.446-46.7285 293.87-48.8769 291.292-49.9512 287.712-49.9512 284.99-49.9512 282.475-49.235 280.165-47.8027 277.856-46.3704 276.182-44.2757 275.143-41.5186 274.105-38.7614 273.586-34.7868 273.586-29.5947L273.586 0Z" fill="#FFFFFF" transform="matrix(1 0 0 1 86.001 292)"/></g></g></g><rect x="5122.5" y="1561.5" width="869" height="248" stroke="#004BAA" stroke-width="4.58333" stroke-miterlimit="8" fill="#0169E8"/><text fill="#FFFFFF" font-family="Arial,Arial_MSFontService,sans-serif" font-weight="400" font-size="110" transform="matrix(1 0 0 1 5434.12 1660)">DHO <tspan font-size="110" x="-51.8379" y="132">system</tspan></text><g clip-path="url(#clip28)"><g clip-path="url(#clip29)"><g clip-path="url(#clip30)"><path d="M5866.89 1664.27C5858.76 1664.27 5852.36 1657.68 5852.36 1649.74 5852.36 1641.79 5858.95 1635.21 5866.89 1635.21 5875.03 1635.21 5881.42 1641.79 5881.42 1649.74 5881.42 1657.68 5874.84 1664.27 5866.89 1664.27ZM5899.64 1640.63C5898.86 1637.92 5897.89 1635.4 5896.54 1633.07L5899.64 1623.97 5892.66 1616.99 5883.56 1620.09C5881.23 1618.74 5878.71 1617.77 5876 1616.99L5871.74 1608.47 5862.05 1608.47 5857.79 1616.99C5855.08 1617.77 5852.56 1618.74 5850.23 1620.09L5841.12 1616.99 5834.15 1623.97 5837.25 1633.07C5835.89 1635.4 5834.92 1637.92 5834.15 1640.63L5825.62 1644.89 5825.62 1654.58 5834.15 1658.84C5834.92 1661.56 5835.89 1664.07 5837.25 1666.4L5834.15 1675.51 5840.93 1682.29 5850.04 1679.19C5852.36 1680.54 5854.88 1681.51 5857.59 1682.29L5861.86 1690.81 5871.54 1690.81 5875.81 1682.29C5878.52 1681.51 5881.04 1680.54 5883.36 1679.19L5892.47 1682.29 5899.44 1675.51 5896.34 1666.4C5897.7 1664.07 5898.86 1661.36 5899.64 1658.84L5908.16 1654.58 5908.16 1644.89 5899.64 1640.63Z" fill="#FFFFFF"/><path d="M5823.11 1734.79C5814.97 1734.79 5808.58 1728.21 5808.58 1720.26 5808.58 1712.12 5815.16 1705.73 5823.11 1705.73 5831.24 1705.73 5837.64 1712.32 5837.64 1720.26 5837.64 1728.21 5831.24 1734.79 5823.11 1734.79L5823.11 1734.79ZM5852.75 1703.6 5855.85 1694.49 5848.88 1687.52 5839.77 1690.62C5837.44 1689.26 5834.73 1688.29 5832.21 1687.52L5827.95 1678.99 5818.26 1678.99 5814 1687.52C5811.29 1688.29 5808.77 1689.26 5806.44 1690.62L5797.34 1687.52 5790.56 1694.3 5793.46 1703.41C5792.11 1705.73 5791.14 1708.44 5790.36 1710.96L5781.84 1715.22 5781.84 1724.91 5790.36 1729.17C5791.14 1731.89 5792.11 1734.41 5793.46 1736.73L5790.56 1745.84 5797.34 1752.62 5806.44 1749.71C5808.77 1751.07 5811.29 1752.04 5814 1752.81L5818.26 1761.34 5827.95 1761.34 5832.21 1752.81C5834.92 1752.04 5837.44 1751.07 5839.77 1749.71L5848.88 1752.81 5855.66 1745.84 5852.75 1736.92C5854.11 1734.6 5855.08 1732.08 5855.85 1729.37L5864.38 1725.11 5864.38 1715.42 5855.85 1711.16C5855.08 1708.44 5854.11 1705.92 5852.75 1703.6Z" fill="#FFFFFF"/></g></g></g><path d="M5569.75 2060.91 5570.31 2143.4 5542.81 2143.59 5542.25 2061.09ZM5597.74 2132.44 5557.05 2215.22 5515.24 2133Z" fill="#777777"/><path d="M7555.67 1839 8279 1839C8199.1 1839 8134.33 1888.7 8134.33 1950 8134.33 2011.3 8199.1 2061 8279 2061L7555.67 2061C7475.77 2061 7411 2011.3 7411 1950 7411 1888.7 7475.77 1839 7555.67 1839Z" fill="#281C2C" fill-rule="evenodd"/><text fill="#FFFFFF" font-family="Arial,Arial_MSFontService,sans-serif" font-weight="400" font-size="92" transform="matrix(1 0 0 1 7729.02 1929)">Helse<tspan font-size="92" x="234.896" y="0">-</tspan><tspan font-size="92" x="-127.485" y="110">opplysninger</tspan></text><g clip-path="url(#clip31)"><g clip-path="url(#clip32)" filter="url(#fx4)" transform="translate(7399 1270)"><g clip-path="url(#clip33)"><rect x="22.2227" y="22.2228" width="875" height="248" stroke="#004BAA" stroke-width="5" stroke-miterlimit="8" fill="#0169E8"/></g></g><g clip-path="url(#clip34)" filter="url(#fx5)" transform="translate(7671 1297)"><g clip-path="url(#clip35)"><path d="M8.70117 0 8.70117-78.7402 65.6348-78.7402 65.6348-69.4482 19.1211-69.4482 19.1211-45.332 62.6807-45.332 62.6807-36.0937 19.1211-36.0937 19.1211-9.29199 67.4609-9.29199 67.4609 0ZM81.8197 0 81.8197-78.7402 111.522-78.7402C116.75-78.7402 120.742-78.4896 123.499-77.9883 127.367-77.3437 130.607-76.1173 133.221-74.3091 135.835-72.5008 137.939-69.9674 139.532-66.709 141.125-63.4505 141.922-59.8698 141.922-55.9668 141.922-49.2708 139.792-43.6043 135.531-38.9673 131.27-34.3302 123.571-32.0117 112.435-32.0117L92.2396-32.0117 92.2396 0ZM92.2396-41.3037 112.596-41.3037C119.328-41.3037 124.108-42.557 126.937-45.0635 129.766-47.57 131.18-51.097 131.18-55.6445 131.18-58.9388 130.347-61.7586 128.682-64.104 127.017-66.4494 124.824-67.998 122.103-68.75 120.348-69.2155 117.108-69.4482 112.381-69.4482L92.2396-69.4482ZM149.836-22.3437 159.235-23.6328C159.486-17.6172 160.614-13.4993 162.619-11.2793 164.624-9.05924 167.399-7.94922 170.944-7.94922 173.558-7.94922 175.814-8.54899 177.712-9.74853 179.609-10.9481 180.916-12.5773 181.632-14.6362 182.349-16.6951 182.707-19.9805 182.707-24.4922L182.707-78.7402 193.127-78.7402 193.127-25.083C193.127-18.4945 192.33-13.3919 190.736-9.77539 189.143-6.15885 186.619-3.40169 183.163-1.50391 179.708 0.39388 175.653 1.34277 170.998 1.34277 164.087 1.34277 158.796-0.644531 155.126-4.61914 151.456-8.59375 149.692-14.502 149.836-22.3437Z" fill="#FFFFFF" transform="matrix(1 0 0 1 86.2915 160)"/></g></g></g><rect x="7411.5" y="1282.5" width="875" height="248" stroke="#004BAA" stroke-width="4.58333" stroke-miterlimit="8" fill="#0169E8"/><text fill="#FFFFFF" font-family="Arial,Arial_MSFontService,sans-serif" font-weight="400" font-size="110" transform="matrix(1 0 0 1 7747.57 1447)">EPJ</text><g clip-path="url(#clip36)"><g clip-path="url(#clip37)"><g clip-path="url(#clip38)"><path d="M111.805 70.3261C103.887 70.3261 97.6647 63.9157 97.6647 56.1855 97.6647 48.4553 104.075 42.0448 111.805 42.0448 119.724 42.0448 125.946 48.4553 125.946 56.1855 125.946 63.9157 119.536 70.3261 111.805 70.3261ZM143.669 47.324C142.915 44.6844 141.972 42.2334 140.652 39.9709L143.669 31.1094 136.881 24.3219 128.02 27.3386C125.757 26.0188 123.306 25.0761 120.667 24.3219L116.519 16.0261 107.092 16.0261 102.944 24.3219C100.304 25.0761 97.8532 26.0188 95.5907 27.3386L86.7292 24.3219 79.9417 31.1094 82.9584 39.9709C81.6386 42.2334 80.6959 44.6844 79.9417 47.324L71.6459 51.4719 71.6459 60.899 79.9417 65.0469C80.6959 67.6865 81.6386 70.1376 82.9584 72.4001L79.9417 81.2615 86.5407 87.8605 95.4022 84.8438C97.6647 86.1636 100.116 87.1063 102.755 87.8605L106.903 96.1563 116.33 96.1563 120.478 87.8605C123.118 87.1063 125.569 86.1636 127.831 84.8438L136.693 87.8605 143.48 81.2615 140.464 72.4001C141.783 70.1376 142.915 67.498 143.669 65.0469L151.965 60.899 151.965 51.4719 143.669 47.324Z" fill="#FFFFFF" transform="matrix(1 0 0 1.02762 8040 1313)"/><path d="M69.1949 138.955C61.2761 138.955 55.0542 132.545 55.0542 124.815 55.0542 116.896 61.4646 110.674 69.1949 110.674 77.1136 110.674 83.3355 117.084 83.3355 124.815 83.3355 132.545 77.1136 138.955 69.1949 138.955L69.1949 138.955ZM98.0418 108.6 101.058 99.7386 94.2709 92.9511 85.4095 95.9678C83.1469 94.648 80.5074 93.7053 78.0563 92.9511L73.9084 84.6553 64.4813 84.6553 60.3334 92.9511C57.6938 93.7053 55.2428 94.648 52.9803 95.9678L44.1188 92.9511 37.5198 99.5501 40.348 108.412C39.0282 110.674 38.0855 113.314 37.3313 115.765L29.0354 119.913 29.0354 129.34 37.3313 133.488C38.0855 136.127 39.0282 138.578 40.348 140.841L37.5198 149.702 44.1188 156.301 52.9803 153.473C55.2428 154.793 57.6938 155.736 60.3334 156.49L64.4813 164.786 73.9084 164.786 78.0563 156.49C80.6959 155.736 83.1469 154.793 85.4095 153.473L94.2709 156.49 100.87 149.702 98.0418 141.029C99.3615 138.767 100.304 136.316 101.058 133.676L109.354 129.528 109.354 120.101 101.058 115.953C100.304 113.314 99.3615 110.863 98.0418 108.6Z" fill="#FFFFFF" transform="matrix(1 0 0 1.02762 8040 1313)"/></g></g></g><g clip-path="url(#clip39)"><g clip-path="url(#clip40)" filter="url(#fx6)" transform="translate(7399 1549)"><g clip-path="url(#clip41)"><rect x="22.2227" y="22.2229" width="868" height="248" stroke="#004BAA" stroke-width="5" stroke-miterlimit="8" fill="#0169E8"/></g></g><g clip-path="url(#clip42)" filter="url(#fx7)" transform="translate(7595 1510)"><g clip-path="url(#clip43)"><path d="M8.48633 0 8.48633-78.7402 35.6103-78.7402C41.7334-78.7402 46.4062-78.3642 49.6289-77.6123 54.1406-76.5739 57.9899-74.694 61.1768-71.9726 65.3304-68.4635 68.4367-63.9787 70.4956-58.5181 72.5545-53.0574 73.584-46.818 73.584-39.7998 73.584-33.82 72.8857-28.5205 71.4893-23.9014 70.0928-19.2822 68.3024-15.4598 66.1182-12.4341 63.9339-9.40837 61.5438-7.02718 58.9478-5.29053 56.3517-3.55387 53.2186-2.23796 49.5483-1.34277 45.8781-0.447591 41.6618 0 36.8994 0ZM18.9062-9.29199 35.7178-9.29199C40.9098-9.29199 44.9829-9.77539 47.937-10.7422 50.8911-11.709 53.2454-13.0697 55-14.8242 57.4707-17.2949 59.3953-20.616 60.7739-24.7876 62.1525-28.9591 62.8418-34.0169 62.8418-39.9609 62.8418-48.1966 61.4901-54.5255 58.7866-58.9478 56.0832-63.3699 52.7978-66.333 48.9307-67.8369 46.1377-68.9111 41.6439-69.4482 35.4492-69.4482L18.9062-69.4482ZM88.444 0 88.444-78.7402 98.8639-78.7402 98.8639-46.4062 139.792-46.4062 139.792-78.7402 150.212-78.7402 150.212 0 139.792 0 139.792-37.1143 98.8639-37.1143 98.8639 0ZM164.588-38.3496C164.588-51.4193 168.097-61.6512 175.116-69.0454 182.134-76.4396 191.193-80.1367 202.293-80.1367 209.562-80.1367 216.115-78.4001 221.951-74.9268 227.788-71.4534 232.237-66.6105 235.299-60.3979 238.36-54.1854 239.891-47.1403 239.891-39.2627 239.891-31.2777 238.28-24.1341 235.057-17.832 231.834-11.5299 227.269-6.75863 221.361-3.51807 215.452-0.277507 209.079 1.34277 202.24 1.34277 194.827 1.34277 188.203-0.447591 182.367-4.02832 176.53-7.60905 172.108-12.4967 169.1-18.6914 166.092-24.8861 164.588-31.4388 164.588-38.3496ZM175.33-38.1885C175.33-28.6995 177.882-21.2248 182.984-15.7642 188.087-10.3035 194.487-7.57324 202.186-7.57324 210.028-7.57324 216.482-10.3304 221.549-15.8447 226.615-21.359 229.149-29.1829 229.149-39.3164 229.149-45.7259 228.066-51.3208 225.899-56.1011 223.733-60.8813 220.564-64.5874 216.392-67.2192 212.221-69.8511 207.539-71.167 202.347-71.167 194.971-71.167 188.624-68.6336 183.306-63.5669 177.989-58.5002 175.33-50.0407 175.33-38.1885Z" fill="#FFFFFF" transform="matrix(1 0 0 1 137.535 160)"/><path d="M3.38379-17.0264 12.9443-18.5303C13.4814-14.6989 14.9764-11.7627 17.4292-9.72168 19.882-7.68066 23.3105-6.66016 27.7148-6.66016 32.1549-6.66016 35.4492-7.56429 37.5977-9.37256 39.7461-11.1808 40.8203-13.3024 40.8203-15.7373 40.8203-17.9215 39.8714-19.6403 37.9736-20.8936 36.6488-21.7529 33.3545-22.8451 28.0908-24.1699 21.001-25.9603 16.0864-27.5089 13.3472-28.8159 10.6079-30.1229 8.53109-31.9311 7.1167-34.2407 5.70231-36.5503 4.99512-39.1016 4.99512-41.8945 4.99512-44.4368 5.57699-46.7912 6.74072-48.9575 7.90446-51.1239 9.48893-52.9232 11.4941-54.3555 12.998-55.4655 15.048-56.4054 17.644-57.1753 20.2401-57.9451 23.0241-58.3301 25.9961-58.3301 30.472-58.3301 34.4019-57.6855 37.7856-56.3965 41.1694-55.1074 43.667-53.3618 45.2783-51.1597 46.8896-48.9575 47.9997-46.0124 48.6084-42.3242L39.1553-41.0352C38.7256-43.9714 37.4813-46.263 35.4224-47.9102 33.3634-49.5573 30.4541-50.3809 26.6943-50.3809 22.2542-50.3809 19.0853-49.6468 17.1875-48.1787 15.2897-46.7106 14.3408-44.9919 14.3408-43.0225 14.3408-41.7692 14.7347-40.6413 15.5225-39.6387 16.3102-38.6003 17.5456-37.7409 19.2285-37.0605 20.1953-36.7025 23.042-35.8789 27.7686-34.5898 34.6077-32.7637 39.3791-31.2687 42.0825-30.105 44.786-28.9412 46.9075-27.2493 48.4473-25.0293 49.987-22.8092 50.7568-20.0521 50.7568-16.7578 50.7568-13.5352 49.8169-10.5005 47.937-7.65381 46.0571-4.80713 43.3447-2.60498 39.7998-1.04736 36.2549 0.510254 32.2445 1.28906 27.7686 1.28906 20.3564 1.28906 14.7078-0.250651 10.8228-3.33008 6.93766-6.4095 4.45801-10.9749 3.38379-17.0264ZM61.8213 21.9678 60.7471 12.8906C62.8597 13.4635 64.7038 13.75 66.2793 13.75 68.4277 13.75 70.1465 13.3919 71.4355 12.6758 72.7246 11.9596 73.7809 10.957 74.6045 9.66797 75.2132 8.70117 76.1979 6.30208 77.5586 2.4707 77.7376 1.93359 78.0241 1.14583 78.418 0.107422L56.7725-57.041 67.1924-57.041 79.0625-24.0088C80.6022-19.8193 81.9808-15.415 83.1982-10.7959 84.3083-15.236 85.6331-19.5687 87.1728-23.7939L99.3652-57.041 109.033-57.041 87.334 0.966797C85.0065 7.23307 83.1982 11.5478 81.9092 13.9111 80.1904 17.098 78.221 19.4344 76.001 20.9204 73.7809 22.4064 71.1312 23.1494 68.0518 23.1494 66.1898 23.1494 64.1129 22.7555 61.8213 21.9678ZM113.384-17.0264 122.944-18.5303C123.481-14.6989 124.976-11.7627 127.429-9.72168 129.882-7.68066 133.311-6.66016 137.715-6.66016 142.155-6.66016 145.449-7.56429 147.598-9.37256 149.746-11.1808 150.82-13.3024 150.82-15.7373 150.82-17.9215 149.871-19.6403 147.974-20.8936 146.649-21.7529 143.354-22.8451 138.091-24.1699 131.001-25.9603 126.086-27.5089 123.347-28.8159 120.608-30.1229 118.531-31.9311 117.117-34.2407 115.702-36.5503 114.995-39.1016 114.995-41.8945 114.995-44.4368 115.577-46.7912 116.741-48.9575 117.904-51.1239 119.489-52.9232 121.494-54.3555 122.998-55.4655 125.048-56.4054 127.644-57.1753 130.24-57.9451 133.024-58.3301 135.996-58.3301 140.472-58.3301 144.402-57.6855 147.786-56.3965 151.169-55.1074 153.667-53.3618 155.278-51.1597 156.89-48.9575 158-46.0124 158.608-42.3242L149.155-41.0352C148.726-43.9714 147.481-46.263 145.422-47.9102 143.363-49.5573 140.454-50.3809 136.694-50.3809 132.254-50.3809 129.085-49.6468 127.187-48.1787 125.29-46.7106 124.341-44.9919 124.341-43.0225 124.341-41.7692 124.735-40.6413 125.522-39.6387 126.31-38.6003 127.546-37.7409 129.229-37.0605 130.195-36.7025 133.042-35.8789 137.769-34.5898 144.608-32.7637 149.379-31.2687 152.083-30.105 154.786-28.9412 156.908-27.2493 158.447-25.0293 159.987-22.8092 160.757-20.0521 160.757-16.7578 160.757-13.5352 159.817-10.5005 157.937-7.65381 156.057-4.80713 153.345-2.60498 149.8-1.04736 146.255 0.510254 142.244 1.28906 137.769 1.28906 130.356 1.28906 124.708-0.250651 120.823-3.33008 116.938-6.4095 114.458-10.9749 113.384-17.0264ZM193.359-8.64746 194.756-0.107422C192.034 0.465495 189.6 0.751953 187.451 0.751953 183.942 0.751953 181.221 0.19694 179.287-0.913086 177.353-2.02311 175.993-3.48226 175.205-5.29053 174.417-7.09879 174.023-10.9033 174.023-16.7041L174.023-49.5215 166.934-49.5215 166.934-57.041 174.023-57.041 174.023-71.167 183.638-76.9678 183.638-57.041 193.359-57.041 193.359-49.5215 183.638-49.5215 183.638-16.167C183.638-13.4098 183.808-11.6374 184.148-10.8496 184.488-10.0618 185.043-9.43522 185.813-8.96973 186.583-8.50423 187.684-8.27148 189.116-8.27148 190.19-8.27148 191.605-8.39681 193.359-8.64746ZM241.663-18.3691 251.654-17.1338C250.078-11.2972 247.16-6.76758 242.899-3.54492 238.638-0.322266 233.195 1.28906 226.571 1.28906 218.228 1.28906 211.612-1.28011 206.724-6.41846 201.837-11.5568 199.393-18.763 199.393-28.0371 199.393-37.6335 201.864-45.0814 206.805-50.3809 211.746-55.6803 218.156-58.3301 226.034-58.3301 233.66-58.3301 239.891-55.734 244.725-50.542 249.559-45.3499 251.976-38.0452 251.976-28.6279 251.976-28.055 251.958-27.1956 251.922-26.0498L209.383-26.0498C209.741-19.7835 211.514-14.9853 214.701-11.6553 217.887-8.32519 221.862-6.66016 226.624-6.66016 230.169-6.66016 233.195-7.59115 235.701-9.45312 238.208-11.3151 240.195-14.2871 241.663-18.3691ZM209.92-33.999 241.771-33.999C241.341-38.7972 240.124-42.3958 238.118-44.7949 235.039-48.5189 231.047-50.3809 226.141-50.3809 221.701-50.3809 217.968-48.8949 214.942-45.9228 211.916-42.9508 210.242-38.9762 209.92-33.999ZM263.918 0 263.918-57.041 272.565-57.041 272.565-49.0381C274.355-51.831 276.737-54.078 279.709-55.7788 282.681-57.4797 286.064-58.3301 289.86-58.3301 294.085-58.3301 297.55-57.4528 300.253-55.6982 302.957-53.9437 304.863-51.4909 305.973-48.3398 310.485-55 316.357-58.3301 323.59-58.3301 329.248-58.3301 333.599-56.7635 336.642-53.6304 339.686-50.4972 341.208-45.6722 341.208-39.1553L341.208 0 331.593 0 331.593-35.9326C331.593-39.7998 331.28-42.5838 330.653-44.2847 330.027-45.9855 328.89-47.3551 327.243-48.3936 325.596-49.432 323.662-49.9512 321.442-49.9512 317.432-49.9512 314.102-48.6173 311.452-45.9497 308.802-43.2821 307.477-39.012 307.477-33.1396L307.477 0 297.809 0 297.809-37.0605C297.809-41.3574 297.021-44.5801 295.446-46.7285 293.87-48.8769 291.292-49.9512 287.712-49.9512 284.99-49.9512 282.475-49.235 280.165-47.8027 277.856-46.3704 276.182-44.2757 275.143-41.5186 274.105-38.7614 273.586-34.7868 273.586-29.5947L273.586 0Z" fill="#FFFFFF" transform="matrix(1 0 0 1 85.6978 292)"/></g></g></g><rect x="7411.5" y="1561.5" width="868" height="248" stroke="#004BAA" stroke-width="4.58333" stroke-miterlimit="8" fill="#0169E8"/><text fill="#FFFFFF" font-family="Arial,Arial_MSFontService,sans-serif" font-weight="400" font-size="110" transform="matrix(1 0 0 1 7722.81 1660)">DHO <tspan font-size="110" x="-51.8374" y="132">system</tspan></text><g clip-path="url(#clip44)"><g clip-path="url(#clip45)"><g clip-path="url(#clip46)"><path d="M114.894 72.2687C106.756 72.2687 100.362 65.6812 100.362 57.7375 100.362 49.7937 106.95 43.2062 114.894 43.2062 123.031 43.2062 129.425 49.7937 129.425 57.7375 129.425 65.6812 122.837 72.2687 114.894 72.2687ZM147.637 48.6312C146.862 45.9187 145.894 43.4 144.537 41.075L147.637 31.9687 140.662 24.9937 131.556 28.0937C129.231 26.7375 126.712 25.7687 124 24.9937L119.737 16.4687 110.05 16.4687 105.787 24.9937C103.075 25.7687 100.556 26.7375 98.2312 28.0937L89.125 24.9937 82.15 31.9687 85.25 41.075C83.8937 43.4 82.925 45.9187 82.15 48.6312L73.625 52.8937 73.625 62.5812 82.15 66.8437C82.925 69.5562 83.8937 72.075 85.25 74.4L82.15 83.5062 88.9312 90.2875 98.0375 87.1875C100.362 88.5437 102.881 89.5125 105.594 90.2875L109.856 98.8125 119.544 98.8125 123.806 90.2875C126.519 89.5125 129.037 88.5437 131.362 87.1875L140.469 90.2875 147.444 83.5062 144.344 74.4C145.7 72.075 146.862 69.3625 147.637 66.8437L156.162 62.5812 156.162 52.8937 147.637 48.6312Z" fill="#FFFFFF" transform="matrix(1.00538 0 0 1 8040 1592)"/><path d="M71.1062 142.794C62.9687 142.794 56.575 136.206 56.575 128.262 56.575 120.125 63.1625 113.731 71.1062 113.731 79.2437 113.731 85.6375 120.319 85.6375 128.262 85.6375 136.206 79.2437 142.794 71.1062 142.794L71.1062 142.794ZM100.75 111.6 103.85 102.494 96.875 95.5187 87.7687 98.6187C85.4437 97.2625 82.7312 96.2937 80.2125 95.5187L75.95 86.9937 66.2625 86.9937 62 95.5187C59.2875 96.2937 56.7687 97.2625 54.4437 98.6187L45.3375 95.5187 38.5562 102.3 41.4625 111.406C40.1062 113.731 39.1375 116.444 38.3625 118.962L29.8375 123.225 29.8375 132.912 38.3625 137.175C39.1375 139.887 40.1062 142.406 41.4625 144.731L38.5562 153.837 45.3375 160.619 54.4437 157.712C56.7687 159.069 59.2875 160.037 62 160.812L66.2625 169.337 75.95 169.337 80.2125 160.812C82.925 160.037 85.4437 159.069 87.7687 157.712L96.875 160.812 103.656 153.837 100.75 144.925C102.106 142.6 103.075 140.081 103.85 137.369L112.375 133.106 112.375 123.419 103.85 119.156C103.075 116.444 102.106 113.925 100.75 111.6Z" fill="#FFFFFF" transform="matrix(1.00538 0 0 1 8040 1592)"/></g></g></g><path d="M7858.75 2060.91 7859.31 2143.4 7831.81 2143.59 7831.25 2061.09ZM7886.74 2132.44 7846.05 2215.22 7804.24 2133Z" fill="#777777"/><path d="M6242.5 1076.78C6242.5 1068.34 6249.34 1061.5 6257.77 1061.5L7142.23 1061.5C7150.66 1061.5 7157.5 1068.34 7157.5 1076.78L7157.5 1515.22C7157.5 1523.66 7150.66 1530.5 7142.23 1530.5L6257.77 1530.5C6249.34 1530.5 6242.5 1523.66 6242.5 1515.22Z" stroke="#0169E8" stroke-width="4.58333" stroke-miterlimit="8" stroke-dasharray="18.3333 13.75" fill="#00BBD4" fill-rule="evenodd"/><text fill="#FFFFFF" font-family="Arial,Arial_MSFontService,sans-serif" font-weight="700" font-size="110" transform="matrix(1 0 0 1 6500.33 1189)">Avtaler/ <tspan font-size="110" x="-203.431" y="132">tillitssamarbeid</tspan></text><rect x="4975.5" y="2209.5" width="1163" height="446" stroke="#1A111D" stroke-width="4.58333" stroke-miterlimit="8" fill="#0169E8"/><text fill="#FFFFFF" font-family="Arial,Arial_MSFontService,sans-serif" font-weight="400" font-size="110" transform="matrix(1 0 0 1 5247.07 2407)">Datadelings<tspan font-size="110" x="582.084" y="0">-</tspan><tspan font-size="110" x="116.577" y="132">tjeneste</tspan></text><g clip-path="url(#clip47)"><g clip-path="url(#clip48)"><g clip-path="url(#clip49)"><path d="M73.4375 47.7344 36.7188 70.0105 117.5 118.969 154.219 96.6928Z" fill="#FFFFFF" transform="matrix(1.18723 0 0 1 4994 2306)"/><path d="M198.281 70.0105 117.5 21.0521 82.7396 42.1042 163.521 91.0625Z" fill="#FFFFFF" transform="matrix(1.18723 0 0 1 4994 2306)"/><path d="M36.7188 89.5938 36.7188 167.927 112.604 213.948 112.604 127.537 36.7188 81.5157Z" fill="#FFFFFF" transform="matrix(1.18723 0 0 1 4994 2306)"/><path d="M149.323 141 132.188 150.792 132.188 133.656 149.323 123.865 149.323 141ZM122.396 127.537 122.396 213.948 198.281 167.927 198.281 81.5157 122.396 127.537Z" fill="#FFFFFF" transform="matrix(1.18723 0 0 1 4994 2306)"/></g></g></g></g></svg>