<svg width="3669" height="2428" xmlns="http://www.w3.org/2000/svg" xmlns:xlink="http://www.w3.org/1999/xlink" xml:space="preserve" overflow="hidden"><defs><filter id="fx0" x="-10%" y="-10%" width="120%" height="120%" filterUnits="userSpaceOnUse" primitiveUnits="userSpaceOnUse"><feComponentTransfer color-interpolation-filters="sRGB"><feFuncR type="discrete" tableValues="0 0"/><feFuncG type="discrete" tableValues="0 0"/><feFuncB type="discrete" tableValues="0 0"/><feFuncA type="linear" slope="0.4" intercept="0"/></feComponentTransfer><feGaussianBlur stdDeviation="6.11111 6.11111"/></filter><filter id="fx1" x="-10%" y="-10%" width="120%" height="120%" filterUnits="userSpaceOnUse" primitiveUnits="userSpaceOnUse"><feComponentTransfer color-interpolation-filters="sRGB"><feFuncR type="discrete" tableValues="0 0"/><feFuncG type="discrete" tableValues="0 0"/><feFuncB type="discrete" tableValues="0 0"/><feFuncA type="linear" slope="0.4" intercept="0"/></feComponentTransfer><feGaussianBlur stdDeviation="6.11111 6.11111"/></filter><filter id="fx2" x="-10%" y="-10%" width="120%" height="120%" filterUnits="userSpaceOnUse" primitiveUnits="userSpaceOnUse"><feComponentTransfer color-interpolation-filters="sRGB"><feFuncR type="discrete" tableValues="0 0"/><feFuncG type="discrete" tableValues="0 0"/><feFuncB type="discrete" tableValues="0 0"/><feFuncA type="linear" slope="0.4" intercept="0"/></feComponentTransfer><feGaussianBlur stdDeviation="6.11111 6.11111"/></filter><filter id="fx3" x="-10%" y="-10%" width="120%" height="120%" filterUnits="userSpaceOnUse" primitiveUnits="userSpaceOnUse"><feComponentTransfer color-interpolation-filters="sRGB"><feFuncR type="discrete" tableValues="0 0"/><feFuncG type="discrete" tableValues="0 0"/><feFuncB type="discrete" tableValues="0 0"/><feFuncA type="linear" slope="0.4" intercept="0"/></feComponentTransfer><feGaussianBlur stdDeviation="6.11111 6.11111"/></filter><filter id="fx4" x="-10%" y="-10%" width="120%" height="120%" filterUnits="userSpaceOnUse" primitiveUnits="userSpaceOnUse"><feComponentTransfer color-interpolation-filters="sRGB"><feFuncR type="discrete" tableValues="0 0"/><feFuncG type="discrete" tableValues="0 0"/><feFuncB type="discrete" tableValues="0 0"/><feFuncA type="linear" slope="0.4" intercept="0"/></feComponentTransfer><feGaussianBlur stdDeviation="6.11111 6.11111"/></filter><filter id="fx5" x="-10%" y="-10%" width="120%" height="120%" filterUnits="userSpaceOnUse" primitiveUnits="userSpaceOnUse"><feComponentTransfer color-interpolation-filters="sRGB"><feFuncR type="discrete" tableValues="0 0"/><feFuncG type="discrete" tableValues="0 0"/><feFuncB type="discrete" tableValues="0 0"/><feFuncA type="linear" slope="0.4" intercept="0"/></feComponentTransfer><feGaussianBlur stdDeviation="6.11111 6.11111"/></filter><filter id="fx6" x="-10%" y="-10%" width="120%" height="120%" filterUnits="userSpaceOnUse" primitiveUnits="userSpaceOnUse"><feComponentTransfer color-interpolation-filters="sRGB"><feFuncR type="discrete" tableValues="0 0"/><feFuncG type="discrete" tableValues="0 0"/><feFuncB type="discrete" tableValues="0 0"/><feFuncA type="linear" slope="0.4" intercept="0"/></feComponentTransfer><feGaussianBlur stdDeviation="6.11111 6.11111"/></filter><filter id="fx7" x="-10%" y="-10%" width="120%" height="120%" filterUnits="userSpaceOnUse" primitiveUnits="userSpaceOnUse"><feComponentTransfer color-interpolation-filters="sRGB"><feFuncR type="discrete" tableValues="0 0"/><feFuncG type="discrete" tableValues="0 0"/><feFuncB type="discrete" tableValues="0 0"/><feFuncA type="linear" slope="0.4" intercept="0"/></feComponentTransfer><feGaussianBlur stdDeviation="6.11111 6.11111"/></filter><clipPath id="clip8"><rect x="4803" y="1587" width="3669" height="2428"/></clipPath><clipPath id="clip9"><rect x="4920" y="2832" width="279" height="235"/></clipPath><clipPath id="clip10"><rect x="4920" y="2832" width="279" height="235"/></clipPath><clipPath id="clip11"><rect x="4920" y="2832" width="279" height="235"/></clipPath><clipPath id="clip12"><rect x="8070" y="2844" width="281" height="235"/></clipPath><clipPath id="clip13"><rect x="8070" y="2844" width="281" height="235"/></clipPath><clipPath id="clip14"><rect x="8070" y="2844" width="281" height="235"/></clipPath><clipPath id="clip15"><path d="M5060.5 1820.5 5060.5 2068.5 5935.5 2068.5 5935.5 1820.5ZM4803 1587 8472 1587 8472 4015 4803 4015Z" fill-rule="evenodd" clip-rule="evenodd"/></clipPath><clipPath id="clip16"><rect x="-3" y="-3" width="926" height="300"/></clipPath><clipPath id="clip17"><rect x="0" y="0" width="920" height="293"/></clipPath><clipPath id="clip18"><rect x="70" y="59" width="234" height="124"/></clipPath><clipPath id="clip19"><rect x="0" y="0" width="374" height="271"/></clipPath><clipPath id="clip20"><rect x="5689" y="1851" width="180" height="187"/></clipPath><clipPath id="clip21"><rect x="5689" y="1851" width="180" height="187"/></clipPath><clipPath id="clip22"><rect x="5689" y="1851" width="180" height="187"/></clipPath><clipPath id="clip23"><path d="M5060.5 2100.5 5060.5 2348.5 5928.5 2348.5 5928.5 2100.5ZM4803 1587 8472 1587 8472 4015 4803 4015Z" fill-rule="evenodd" clip-rule="evenodd"/></clipPath><clipPath id="clip24"><rect x="-3" y="-3" width="919" height="300"/></clipPath><clipPath id="clip25"><rect x="0" y="0" width="913" height="293"/></clipPath><clipPath id="clip26"><rect x="66" y="56" width="386" height="282"/></clipPath><clipPath id="clip27"><rect x="0" y="0" width="521" height="403"/></clipPath><clipPath id="clip28"><rect x="5689" y="2129" width="187" height="187"/></clipPath><clipPath id="clip29"><rect x="5689" y="2129" width="187" height="187"/></clipPath><clipPath id="clip30"><rect x="5689" y="2129" width="187" height="187"/></clipPath><clipPath id="clip31"><path d="M7348.5 1820.5 7348.5 2068.5 8223.5 2068.5 8223.5 1820.5ZM4803 1587 8472 1587 8472 4015 4803 4015Z" fill-rule="evenodd" clip-rule="evenodd"/></clipPath><clipPath id="clip32"><rect x="-3" y="-3" width="926" height="300"/></clipPath><clipPath id="clip33"><rect x="0" y="0" width="920" height="293"/></clipPath><clipPath id="clip34"><rect x="70" y="59" width="230" height="124"/></clipPath><clipPath id="clip35"><rect x="0" y="0" width="373" height="271"/></clipPath><clipPath id="clip36"><rect x="7978" y="1851" width="180" height="187"/></clipPath><clipPath id="clip37"><rect x="7978" y="1851" width="180" height="187"/></clipPath><clipPath id="clip38"><rect x="7978" y="1851" width="180" height="187"/></clipPath><clipPath id="clip39"><path d="M7348.5 2100.5 7348.5 2348.5 8217.5 2348.5 8217.5 2100.5ZM4803 1587 8472 1587 8472 4015 4803 4015Z" fill-rule="evenodd" clip-rule="evenodd"/></clipPath><clipPath id="clip40"><rect x="-3" y="-3" width="919" height="300"/></clipPath><clipPath id="clip41"><rect x="0" y="0" width="914" height="293"/></clipPath><clipPath id="clip42"><rect x="66" y="56" width="386" height="282"/></clipPath><clipPath id="clip43"><rect x="0" y="0" width="521" height="403"/></clipPath><clipPath id="clip44"><rect x="7978" y="2129" width="187" height="187"/></clipPath><clipPath id="clip45"><rect x="7978" y="2129" width="187" height="187"/></clipPath><clipPath id="clip46"><rect x="7978" y="2129" width="187" height="187"/></clipPath></defs><g clip-path="url(#clip8)" transform="translate(-4803 -1587)"><path d="M4840.5 3773.12C4840.5 3768.91 4843.91 3765.5 4848.12 3765.5L8439.88 3765.5C8444.09 3765.5 8447.5 3768.91 8447.5 3773.12L8447.5 3991.88C8447.5 3996.09 8444.09 3999.5 8439.88 3999.5L4848.12 3999.5C4843.91 3999.5 4840.5 3996.09 4840.5 3991.88Z" stroke="#7BF5BC" stroke-width="4.58333" stroke-miterlimit="8" fill="#7BF5BC" fill-rule="evenodd"/><text fill="#281C2C" font-family="Arial,Arial_MSFontService,sans-serif" font-weight="700" font-size="110" transform="matrix(1 0 0 1 6258.73 3923)">Fellestjenester</text><path d="M4840 2720.04C4840 2701.24 4855.24 2686 4874.04 2686L8401.96 2686C8420.76 2686 8436 2701.24 8436 2720.04L8436 3696.96C8436 3715.76 8420.76 3731 8401.96 3731L4874.04 3731C4855.24 3731 4840 3715.76 4840 3696.96Z" fill="#777777" fill-rule="evenodd"/><text fill="#FFFFFF" font-family="Arial,Arial_MSFontService,sans-serif" font-weight="700" font-size="110" transform="matrix(1 0 0 1 6011.75 3547)">Datadelingstjenester fra<tspan font-size="110" x="345.469" y="132">leverandør</tspan></text><rect x="4879.5" y="2754.5" width="1232" height="627" stroke="#1A111D" stroke-width="4.58333" stroke-miterlimit="8" fill="#281C2C"/><text fill="#FFFFFF" font-family="Arial,Arial_MSFontService,sans-serif" font-weight="400" font-size="110" transform="matrix(1 0 0 1 5185.62 2878)">Datadelings<tspan font-size="110" x="582.083" y="0">-</tspan><tspan font-size="110" x="116.577" y="132">tjeneste</tspan></text><g clip-path="url(#clip9)"><g clip-path="url(#clip10)"><g clip-path="url(#clip11)"><path d="M73.4374 47.7343 36.7187 70.0104 117.5 118.969 154.219 96.6926Z" fill="#FFFFFF" transform="matrix(1.18723 0 0 1 4920 2832)"/><path d="M198.281 70.0104 117.5 21.0521 82.7395 42.1041 163.521 91.0624Z" fill="#FFFFFF" transform="matrix(1.18723 0 0 1 4920 2832)"/><path d="M36.7187 89.5937 36.7187 167.927 112.604 213.948 112.604 127.536 36.7187 81.5155Z" fill="#FFFFFF" transform="matrix(1.18723 0 0 1 4920 2832)"/><path d="M149.323 141 132.187 150.792 132.187 133.656 149.323 123.864 149.323 141ZM122.396 127.536 122.396 213.948 198.281 167.927 198.281 81.5155 122.396 127.536Z" fill="#FFFFFF" transform="matrix(1.18723 0 0 1 4920 2832)"/></g></g></g><rect x="7169.5" y="2752.5" width="1222" height="628" stroke="#1A111D" stroke-width="4.58333" stroke-miterlimit="8" fill="#281C2C"/><text fill="#FFFFFF" font-family="Arial,Arial_MSFontService,sans-serif" font-weight="400" font-size="110" transform="matrix(1 0 0 1 7470.56 2876)">Datadelings<tspan font-size="110" x="582.083" y="0">-</tspan><tspan font-size="110" x="116.577" y="132">tjeneste</tspan></text><g clip-path="url(#clip12)"><g clip-path="url(#clip13)"><g clip-path="url(#clip14)"><path d="M73.125 47.5313 36.5625 69.7125 117 118.463 153.563 96.2813Z" fill="#FFFFFF" transform="matrix(1.19231 0 0 1 8071 2845)"/><path d="M197.438 69.7125 117 20.9625 82.3875 41.925 162.825 90.675Z" fill="#FFFFFF" transform="matrix(1.19231 0 0 1 8071 2845)"/><path d="M36.5625 89.2125 36.5625 167.213 112.125 213.038 112.125 126.994 36.5625 81.1688Z" fill="#FFFFFF" transform="matrix(1.19231 0 0 1 8071 2845)"/><path d="M148.688 140.4 131.625 150.15 131.625 133.088 148.688 123.338 148.688 140.4ZM121.875 126.994 121.875 213.038 197.438 167.213 197.438 81.1688 121.875 126.994Z" fill="#FFFFFF" transform="matrix(1.19231 0 0 1 8071 2845)"/></g></g></g><path d="M7129.5 1642.14C7129.5 1618.04 7149.04 1598.5 7173.14 1598.5L8425.86 1598.5C8449.96 1598.5 8469.5 1618.04 8469.5 1642.14L8469.5 3026.86C8469.5 3050.96 8449.96 3070.5 8425.86 3070.5L7173.14 3070.5C7149.04 3070.5 7129.5 3050.96 7129.5 3026.86Z" stroke="#00BBD4" stroke-width="4.58333" stroke-miterlimit="8" fill="#00BBD4" fill-rule="evenodd" fill-opacity="0.4"/><text fill="#281C2C" font-family="Arial,Arial_MSFontService,sans-serif" font-weight="700" font-size="110" transform="matrix(1 0 0 1 7411.54 1735)">Virksomhet(er)</text><path d="M4805.5 1642.24C4805.5 1618.08 4825.08 1598.5 4849.24 1598.5L6104.76 1598.5C6128.92 1598.5 6148.5 1618.08 6148.5 1642.24L6148.5 3026.76C6148.5 3050.92 6128.92 3070.5 6104.76 3070.5L4849.24 3070.5C4825.08 3070.5 4805.5 3050.92 4805.5 3026.76Z" stroke="#00BBD4" stroke-width="4.58333" stroke-miterlimit="8" fill="#00BBD4" fill-rule="evenodd" fill-opacity="0.4"/><text fill="#281C2C" font-family="Arial,Arial_MSFontService,sans-serif" font-weight="700" font-size="110" transform="matrix(1 0 0 1 5089.09 1735)">Virksomhet(er)</text><path d="M6180 2129.8C6180 2113.34 6193.34 2100 6209.8 2100L7065.2 2100C7081.66 2100 7095 2113.34 7095 2129.8L7095 3126.2C7095 3142.66 7081.66 3156 7065.2 3156L6209.8 3156C6193.34 3156 6180 3142.66 6180 3126.2Z" fill="#EEEEEE" fill-rule="evenodd"/><text fill="#281C2C" font-family="Arial,Arial_MSFontService,sans-serif" font-weight="700" font-size="110" transform="matrix(1 0 0 1 6331.53 2232)">Semantiske <tspan font-size="110" x="-94.5313" y="132">spesifikasjoner</tspan><tspan font-size="83" x="-60.729" y="302">Datadeling mellom </tspan><tspan font-size="83" x="-5.729" y="401">helsepersonell i </tspan><tspan font-size="83" x="14.896" y="500">ulike løsninger</tspan></text><path d="M91.6661-18.3333 128.333-18.3333 128.333 18.3334 91.6661 18.3334ZM164.999-18.3333 201.666-18.3333 201.666 18.3334 164.999 18.3334ZM238.333-18.3332 274.999-18.3332 274.999 18.3334 238.333 18.3334ZM311.666-18.3332 348.333-18.3332 348.333 18.3335 311.666 18.3335ZM384.999-18.3332 421.666-18.3332 421.666 18.3335 384.999 18.3335ZM458.333-18.3332 494.999-18.3331 494.999 18.3335 458.333 18.3335ZM531.666-18.3331 568.333-18.3331 568.333 18.3336 531.666 18.3335ZM604.999-18.3331 641.666-18.3331 641.666 18.3336 604.999 18.3336ZM678.333-18.3331 714.999-18.333 714.999 18.3336 678.333 18.3336ZM751.666-18.333 788.333-18.333 788.333 18.3336 751.666 18.3336ZM110 55 0 0 110-55ZM795.091-54.9997 905.091 0.000360892 795.091 55.0003Z" fill="#281C2C" transform="matrix(-1 0 0 1 7085.59 2910.5)"/><path d="M5161 3106 6001 3106C5908.22 3106 5833 3155.92 5833 3217.5 5833 3279.08 5908.22 3329 6001 3329L5161 3329C5068.22 3329 4993 3279.08 4993 3217.5 4993 3155.92 5068.22 3106 5161 3106Z" fill="#EEEEEE" fill-rule="evenodd"/><text fill="#281C2C" font-family="Arial,Arial_MSFontService,sans-serif" font-weight="400" font-size="83" transform="matrix(1 0 0 1 5359.7 3198)">Kopi av <tspan font-size="83" x="-194.792" y="99">helseopplysninger</tspan></text><path d="M7439.33 3106 8291 3106C8196.93 3106 8120.67 3155.92 8120.67 3217.5 8120.67 3279.08 8196.93 3329 8291 3329L7439.33 3329C7345.26 3329 7269 3279.08 7269 3217.5 7269 3155.92 7345.26 3106 7439.33 3106Z" fill="#EEEEEE" fill-rule="evenodd"/><text fill="#281C2C" font-family="Arial,Arial_MSFontService,sans-serif" font-weight="400" font-size="83" transform="matrix(1 0 0 1 7642.44 3198)">Kopi av <tspan font-size="83" x="-194.792" y="99">helseopplysninger</tspan></text><path d="M5204.67 2377 5928 2377C5848.1 2377 5783.33 2426.92 5783.33 2488.5 5783.33 2550.08 5848.1 2600 5928 2600L5204.67 2600C5124.77 2600 5060 2550.08 5060 2488.5 5060 2426.92 5124.77 2377 5204.67 2377Z" fill="#0169E8" fill-rule="evenodd"/><text fill="#FFFFFF" font-family="Arial,Arial_MSFontService,sans-serif" font-weight="400" font-size="92" transform="matrix(1 0 0 1 5377.82 2468)">Helse<tspan font-size="92" x="234.896" y="0">-</tspan><tspan font-size="92" x="-127.486" y="110">opplysninger</tspan></text><g clip-path="url(#clip15)"><g clip-path="url(#clip16)" filter="url(#fx0)" transform="translate(5048 1808)"><g clip-path="url(#clip17)"><rect x="22.2227" y="22.2228" width="875" height="248" stroke="#004BAA" stroke-width="5" stroke-miterlimit="8" fill="#0169E8"/></g></g><g clip-path="url(#clip18)" filter="url(#fx1)" transform="translate(5320 1835)"><g clip-path="url(#clip19)"><path d="M8.70117 0 8.70117-78.7402 65.6348-78.7402 65.6348-69.4482 19.1211-69.4482 19.1211-45.332 62.6807-45.332 62.6807-36.0937 19.1211-36.0937 19.1211-9.29199 67.4609-9.29199 67.4609 0ZM81.8197 0 81.8197-78.7402 111.522-78.7402C116.75-78.7402 120.742-78.4896 123.499-77.9883 127.367-77.3437 130.607-76.1173 133.221-74.3091 135.835-72.5008 137.939-69.9674 139.532-66.709 141.125-63.4505 141.922-59.8698 141.922-55.9668 141.922-49.2708 139.792-43.6043 135.531-38.9673 131.27-34.3302 123.571-32.0117 112.435-32.0117L92.2396-32.0117 92.2396 0ZM92.2396-41.3037 112.596-41.3037C119.328-41.3037 124.108-42.557 126.937-45.0635 129.766-47.57 131.18-51.097 131.18-55.6445 131.18-58.9388 130.347-61.7586 128.682-64.104 127.017-66.4494 124.824-67.998 122.103-68.75 120.348-69.2155 117.108-69.4482 112.381-69.4482L92.2396-69.4482ZM149.836-22.3437 159.235-23.6328C159.486-17.6172 160.614-13.4993 162.619-11.2793 164.624-9.05924 167.399-7.94922 170.944-7.94922 173.558-7.94922 175.814-8.54899 177.712-9.74853 179.609-10.9481 180.916-12.5773 181.632-14.6362 182.349-16.6951 182.707-19.9805 182.707-24.4922L182.707-78.7402 193.127-78.7402 193.127-25.083C193.127-18.4945 192.33-13.3919 190.736-9.77539 189.143-6.15885 186.619-3.40169 183.163-1.50391 179.708 0.39388 175.653 1.34277 170.998 1.34277 164.087 1.34277 158.796-0.644531 155.126-4.61914 151.456-8.59375 149.692-14.502 149.836-22.3437Z" fill="#FFFFFF" transform="matrix(1 0 0 1 86.0898 160)"/></g></g></g><rect x="5060.5" y="1820.5" width="875" height="248" stroke="#004BAA" stroke-width="4.58333" stroke-miterlimit="8" fill="#0169E8"/><text fill="#FFFFFF" font-family="Arial,Arial_MSFontService,sans-serif" font-weight="400" font-size="110" transform="matrix(1 0 0 1 5396.37 1985)">EPJ</text><g clip-path="url(#clip20)"><g clip-path="url(#clip21)"><g clip-path="url(#clip22)"><path d="M111.187 69.9374C103.312 69.9374 97.1249 63.5624 97.1249 55.8749 97.1249 48.1874 103.5 41.8124 111.187 41.8124 119.062 41.8124 125.25 48.1874 125.25 55.8749 125.25 63.5624 118.875 69.9374 111.187 69.9374ZM142.875 47.0624C142.125 44.4374 141.187 41.9999 139.875 39.75L142.875 30.9375 136.125 24.1875 127.312 27.1875C125.062 25.875 122.625 24.9375 120 24.1875L115.875 15.9375 106.5 15.9375 102.375 24.1875C99.7499 24.9375 97.3124 25.875 95.0624 27.1875L86.2499 24.1875 79.4999 30.9375 82.4999 39.75C81.1874 41.9999 80.2499 44.4374 79.4999 47.0624L71.2499 51.1874 71.2499 60.5624 79.4999 64.6874C80.2499 67.3124 81.1874 69.7499 82.4999 71.9999L79.4999 80.8124 86.0624 87.3749 94.8749 84.3749C97.1249 85.6874 99.5624 86.6249 102.187 87.3749L106.312 95.6249 115.687 95.6249 119.812 87.3749C122.437 86.6249 124.875 85.6874 127.125 84.3749L135.937 87.3749 142.687 80.8124 139.687 71.9999C141 69.7499 142.125 67.1249 142.875 64.6874L151.125 60.5624 151.125 51.1874 142.875 47.0624Z" fill="#FFFFFF" transform="matrix(1 0 0 1.03333 5689 1851)"/><path d="M68.8124 138.187C60.9374 138.187 54.7499 131.812 54.7499 124.125 54.7499 116.25 61.1249 110.062 68.8124 110.062 76.6874 110.062 82.8749 116.437 82.8749 124.125 82.8749 131.812 76.6874 138.187 68.8124 138.187L68.8124 138.187ZM97.4999 108 100.5 99.1874 93.7499 92.4374 84.9374 95.4374C82.6874 94.1249 80.0624 93.1874 77.6249 92.4374L73.4999 84.1874 64.1249 84.1874 59.9999 92.4374C57.3749 93.1874 54.9374 94.1249 52.6874 95.4374L43.8749 92.4374 37.3125 98.9999 40.1249 107.812C38.8125 110.062 37.875 112.687 37.125 115.125L28.875 119.25 28.875 128.625 37.125 132.75C37.875 135.375 38.8125 137.812 40.1249 140.062L37.3125 148.875 43.8749 155.437 52.6874 152.625C54.9374 153.937 57.3749 154.875 59.9999 155.625L64.1249 163.875 73.4999 163.875 77.6249 155.625C80.2499 154.875 82.6874 153.937 84.9374 152.625L93.7499 155.625 100.312 148.875 97.4999 140.25C98.8124 138 99.7499 135.562 100.5 132.937L108.75 128.812 108.75 119.437 100.5 115.312C99.7499 112.687 98.8124 110.25 97.4999 108Z" fill="#FFFFFF" transform="matrix(1 0 0 1.03333 5689 1851)"/></g></g></g><g clip-path="url(#clip23)"><g clip-path="url(#clip24)" filter="url(#fx2)" transform="translate(5048 2088)"><g clip-path="url(#clip25)"><rect x="22.2227" y="22.2229" width="868" height="248" stroke="#004BAA" stroke-width="5" stroke-miterlimit="8" fill="#0169E8"/></g></g><g clip-path="url(#clip26)" filter="url(#fx3)" transform="translate(5243 2048)"><g clip-path="url(#clip27)"><path d="M8.48633 0 8.48633-78.7402 35.6103-78.7402C41.7334-78.7402 46.4062-78.3642 49.6289-77.6123 54.1406-76.5739 57.9899-74.694 61.1768-71.9726 65.3304-68.4635 68.4367-63.9787 70.4956-58.5181 72.5545-53.0574 73.584-46.818 73.584-39.7998 73.584-33.82 72.8857-28.5205 71.4893-23.9014 70.0928-19.2822 68.3024-15.4598 66.1182-12.4341 63.9339-9.40837 61.5438-7.02718 58.9478-5.29053 56.3517-3.55387 53.2186-2.23796 49.5483-1.34277 45.8781-0.447591 41.6618 0 36.8994 0ZM18.9062-9.29199 35.7178-9.29199C40.9098-9.29199 44.9829-9.77539 47.937-10.7422 50.8911-11.709 53.2454-13.0697 55-14.8242 57.4707-17.2949 59.3953-20.616 60.7739-24.7876 62.1525-28.9591 62.8418-34.0169 62.8418-39.9609 62.8418-48.1966 61.4901-54.5255 58.7866-58.9478 56.0832-63.3699 52.7978-66.333 48.9307-67.8369 46.1377-68.9111 41.6439-69.4482 35.4492-69.4482L18.9062-69.4482ZM88.444 0 88.444-78.7402 98.8639-78.7402 98.8639-46.4062 139.792-46.4062 139.792-78.7402 150.212-78.7402 150.212 0 139.792 0 139.792-37.1143 98.8639-37.1143 98.8639 0ZM164.588-38.3496C164.588-51.4193 168.097-61.6512 175.116-69.0454 182.134-76.4396 191.193-80.1367 202.293-80.1367 209.562-80.1367 216.115-78.4001 221.951-74.9268 227.788-71.4534 232.237-66.6105 235.299-60.3979 238.36-54.1854 239.891-47.1403 239.891-39.2627 239.891-31.2777 238.28-24.1341 235.057-17.832 231.834-11.5299 227.269-6.75863 221.361-3.51807 215.452-0.277507 209.079 1.34277 202.24 1.34277 194.827 1.34277 188.203-0.447591 182.367-4.02832 176.53-7.60905 172.108-12.4967 169.1-18.6914 166.092-24.8861 164.588-31.4388 164.588-38.3496ZM175.33-38.1885C175.33-28.6995 177.882-21.2248 182.984-15.7642 188.087-10.3035 194.487-7.57324 202.186-7.57324 210.028-7.57324 216.482-10.3304 221.549-15.8447 226.615-21.359 229.149-29.1829 229.149-39.3164 229.149-45.7259 228.066-51.3208 225.899-56.1011 223.733-60.8813 220.564-64.5874 216.392-67.2192 212.221-69.8511 207.539-71.167 202.347-71.167 194.971-71.167 188.624-68.6336 183.306-63.5669 177.989-58.5002 175.33-50.0407 175.33-38.1885Z" fill="#FFFFFF" transform="matrix(1 0 0 1 138.334 160)"/><path d="M3.38379-17.0264 12.9443-18.5303C13.4814-14.6989 14.9764-11.7627 17.4292-9.72168 19.882-7.68066 23.3105-6.66016 27.7148-6.66016 32.1549-6.66016 35.4492-7.56429 37.5977-9.37256 39.7461-11.1808 40.8203-13.3024 40.8203-15.7373 40.8203-17.9215 39.8714-19.6403 37.9736-20.8936 36.6488-21.7529 33.3545-22.8451 28.0908-24.1699 21.001-25.9603 16.0864-27.5089 13.3472-28.8159 10.6079-30.1229 8.53109-31.9311 7.1167-34.2407 5.70231-36.5503 4.99512-39.1016 4.99512-41.8945 4.99512-44.4368 5.57699-46.7912 6.74072-48.9575 7.90446-51.1239 9.48893-52.9232 11.4941-54.3555 12.998-55.4655 15.048-56.4054 17.644-57.1753 20.2401-57.9451 23.0241-58.3301 25.9961-58.3301 30.472-58.3301 34.4019-57.6855 37.7856-56.3965 41.1694-55.1074 43.667-53.3618 45.2783-51.1597 46.8896-48.9575 47.9997-46.0124 48.6084-42.3242L39.1553-41.0352C38.7256-43.9714 37.4813-46.263 35.4224-47.9102 33.3634-49.5573 30.4541-50.3809 26.6943-50.3809 22.2542-50.3809 19.0853-49.6468 17.1875-48.1787 15.2897-46.7106 14.3408-44.9919 14.3408-43.0225 14.3408-41.7692 14.7347-40.6413 15.5225-39.6387 16.3102-38.6003 17.5456-37.7409 19.2285-37.0605 20.1953-36.7025 23.042-35.8789 27.7686-34.5898 34.6077-32.7637 39.3791-31.2687 42.0825-30.105 44.786-28.9412 46.9075-27.2493 48.4473-25.0293 49.987-22.8092 50.7568-20.0521 50.7568-16.7578 50.7568-13.5352 49.8169-10.5005 47.937-7.65381 46.0571-4.80713 43.3447-2.60498 39.7998-1.04736 36.2549 0.510254 32.2445 1.28906 27.7686 1.28906 20.3564 1.28906 14.7078-0.250651 10.8228-3.33008 6.93766-6.4095 4.45801-10.9749 3.38379-17.0264ZM61.8213 21.9678 60.7471 12.8906C62.8597 13.4635 64.7038 13.75 66.2793 13.75 68.4277 13.75 70.1465 13.3919 71.4355 12.6758 72.7246 11.9596 73.7809 10.957 74.6045 9.66797 75.2132 8.70117 76.1979 6.30208 77.5586 2.4707 77.7376 1.93359 78.0241 1.14583 78.418 0.107422L56.7725-57.041 67.1924-57.041 79.0625-24.0088C80.6022-19.8193 81.9808-15.415 83.1982-10.7959 84.3083-15.236 85.6331-19.5687 87.1728-23.7939L99.3652-57.041 109.033-57.041 87.334 0.966797C85.0065 7.23307 83.1982 11.5478 81.9092 13.9111 80.1904 17.098 78.221 19.4344 76.001 20.9204 73.7809 22.4064 71.1312 23.1494 68.0518 23.1494 66.1898 23.1494 64.1129 22.7555 61.8213 21.9678ZM113.384-17.0264 122.944-18.5303C123.481-14.6989 124.976-11.7627 127.429-9.72168 129.882-7.68066 133.311-6.66016 137.715-6.66016 142.155-6.66016 145.449-7.56429 147.598-9.37256 149.746-11.1808 150.82-13.3024 150.82-15.7373 150.82-17.9215 149.871-19.6403 147.974-20.8936 146.649-21.7529 143.354-22.8451 138.091-24.1699 131.001-25.9603 126.086-27.5089 123.347-28.8159 120.608-30.1229 118.531-31.9311 117.117-34.2407 115.702-36.5503 114.995-39.1016 114.995-41.8945 114.995-44.4368 115.577-46.7912 116.741-48.9575 117.904-51.1239 119.489-52.9232 121.494-54.3555 122.998-55.4655 125.048-56.4054 127.644-57.1753 130.24-57.9451 133.024-58.3301 135.996-58.3301 140.472-58.3301 144.402-57.6855 147.786-56.3965 151.169-55.1074 153.667-53.3618 155.278-51.1597 156.89-48.9575 158-46.0124 158.608-42.3242L149.155-41.0352C148.726-43.9714 147.481-46.263 145.422-47.9102 143.363-49.5573 140.454-50.3809 136.694-50.3809 132.254-50.3809 129.085-49.6468 127.187-48.1787 125.29-46.7106 124.341-44.9919 124.341-43.0225 124.341-41.7692 124.735-40.6413 125.522-39.6387 126.31-38.6003 127.546-37.7409 129.229-37.0605 130.195-36.7025 133.042-35.8789 137.769-34.5898 144.608-32.7637 149.379-31.2687 152.083-30.105 154.786-28.9412 156.908-27.2493 158.447-25.0293 159.987-22.8092 160.757-20.0521 160.757-16.7578 160.757-13.5352 159.817-10.5005 157.937-7.65381 156.057-4.80713 153.345-2.60498 149.8-1.04736 146.255 0.510254 142.244 1.28906 137.769 1.28906 130.356 1.28906 124.708-0.250651 120.823-3.33008 116.938-6.4095 114.458-10.9749 113.384-17.0264ZM193.359-8.64746 194.756-0.107422C192.034 0.465495 189.6 0.751953 187.451 0.751953 183.942 0.751953 181.221 0.19694 179.287-0.913086 177.353-2.02311 175.993-3.48226 175.205-5.29053 174.417-7.09879 174.023-10.9033 174.023-16.7041L174.023-49.5215 166.934-49.5215 166.934-57.041 174.023-57.041 174.023-71.167 183.638-76.9678 183.638-57.041 193.359-57.041 193.359-49.5215 183.638-49.5215 183.638-16.167C183.638-13.4098 183.808-11.6374 184.148-10.8496 184.488-10.0618 185.043-9.43522 185.813-8.96973 186.583-8.50423 187.684-8.27148 189.116-8.27148 190.19-8.27148 191.605-8.39681 193.359-8.64746ZM241.663-18.3691 251.654-17.1338C250.078-11.2972 247.16-6.76758 242.899-3.54492 238.638-0.322266 233.195 1.28906 226.571 1.28906 218.228 1.28906 211.612-1.28011 206.724-6.41846 201.837-11.5568 199.393-18.763 199.393-28.0371 199.393-37.6335 201.864-45.0814 206.805-50.3809 211.746-55.6803 218.156-58.3301 226.034-58.3301 233.66-58.3301 239.891-55.734 244.725-50.542 249.559-45.3499 251.976-38.0452 251.976-28.6279 251.976-28.055 251.958-27.1956 251.922-26.0498L209.383-26.0498C209.741-19.7835 211.514-14.9853 214.701-11.6553 217.887-8.32519 221.862-6.66016 226.624-6.66016 230.169-6.66016 233.195-7.59115 235.701-9.45312 238.208-11.3151 240.195-14.2871 241.663-18.3691ZM209.92-33.999 241.771-33.999C241.341-38.7972 240.124-42.3958 238.118-44.7949 235.039-48.5189 231.047-50.3809 226.141-50.3809 221.701-50.3809 217.968-48.8949 214.942-45.9228 211.916-42.9508 210.242-38.9762 209.92-33.999ZM263.918 0 263.918-57.041 272.565-57.041 272.565-49.0381C274.355-51.831 276.737-54.078 279.709-55.7788 282.681-57.4797 286.064-58.3301 289.86-58.3301 294.085-58.3301 297.55-57.4528 300.253-55.6982 302.957-53.9437 304.863-51.4909 305.973-48.3398 310.485-55 316.357-58.3301 323.59-58.3301 329.248-58.3301 333.599-56.7635 336.642-53.6304 339.686-50.4972 341.208-45.6722 341.208-39.1553L341.208 0 331.593 0 331.593-35.9326C331.593-39.7998 331.28-42.5838 330.653-44.2847 330.027-45.9855 328.89-47.3551 327.243-48.3936 325.596-49.432 323.662-49.9512 321.442-49.9512 317.432-49.9512 314.102-48.6173 311.452-45.9497 308.802-43.2821 307.477-39.012 307.477-33.1396L307.477 0 297.809 0 297.809-37.0605C297.809-41.3574 297.021-44.5801 295.446-46.7285 293.87-48.8769 291.292-49.9512 287.712-49.9512 284.99-49.9512 282.475-49.235 280.165-47.8027 277.856-46.3704 276.182-44.2757 275.143-41.5186 274.105-38.7614 273.586-34.7868 273.586-29.5947L273.586 0Z" fill="#FFFFFF" transform="matrix(1 0 0 1 86.4966 292)"/></g></g></g><rect x="5060.5" y="2100.5" width="868" height="248" stroke="#004BAA" stroke-width="4.58333" stroke-miterlimit="8" fill="#0169E8"/><text fill="#FFFFFF" font-family="Arial,Arial_MSFontService,sans-serif" font-weight="400" font-size="110" transform="matrix(1 0 0 1 5371.61 2199)">DHO <tspan font-size="110" x="-51.8379" y="132">system</tspan></text><g clip-path="url(#clip28)"><g clip-path="url(#clip29)"><g clip-path="url(#clip30)"><path d="M5803.89 2202.27C5795.76 2202.27 5789.36 2195.68 5789.36 2187.74 5789.36 2179.79 5795.95 2173.21 5803.89 2173.21 5812.03 2173.21 5818.42 2179.79 5818.42 2187.74 5818.42 2195.68 5811.84 2202.27 5803.89 2202.27ZM5836.64 2178.63C5835.86 2175.92 5834.89 2173.4 5833.54 2171.07L5836.64 2161.97 5829.66 2154.99 5820.56 2158.09C5818.23 2156.74 5815.71 2155.77 5813 2154.99L5808.74 2146.47 5799.05 2146.47 5794.79 2154.99C5792.08 2155.77 5789.56 2156.74 5787.23 2158.09L5778.12 2154.99 5771.15 2161.97 5774.25 2171.07C5772.89 2173.4 5771.92 2175.92 5771.15 2178.63L5762.62 2182.89 5762.62 2192.58 5771.15 2196.84C5771.92 2199.56 5772.89 2202.07 5774.25 2204.4L5771.15 2213.51 5777.93 2220.29 5787.04 2217.19C5789.36 2218.54 5791.88 2219.51 5794.59 2220.29L5798.86 2228.81 5808.54 2228.81 5812.81 2220.29C5815.52 2219.51 5818.04 2218.54 5820.36 2217.19L5829.47 2220.29 5836.44 2213.51 5833.34 2204.4C5834.7 2202.07 5835.86 2199.36 5836.64 2196.84L5845.16 2192.58 5845.16 2182.89 5836.64 2178.63Z" fill="#FFFFFF"/><path d="M5760.11 2272.79C5751.97 2272.79 5745.58 2266.21 5745.58 2258.26 5745.58 2250.12 5752.16 2243.73 5760.11 2243.73 5768.24 2243.73 5774.64 2250.32 5774.64 2258.26 5774.64 2266.21 5768.24 2272.79 5760.11 2272.79L5760.11 2272.79ZM5789.75 2241.6 5792.85 2232.49 5785.88 2225.52 5776.77 2228.62C5774.44 2227.26 5771.73 2226.29 5769.21 2225.52L5764.95 2216.99 5755.26 2216.99 5751 2225.52C5748.29 2226.29 5745.77 2227.26 5743.44 2228.62L5734.34 2225.52 5727.56 2232.3 5730.46 2241.41C5729.11 2243.73 5728.14 2246.44 5727.36 2248.96L5718.84 2253.22 5718.84 2262.91 5727.36 2267.17C5728.14 2269.89 5729.11 2272.41 5730.46 2274.73L5727.56 2283.84 5734.34 2290.62 5743.44 2287.71C5745.77 2289.07 5748.29 2290.04 5751 2290.81L5755.26 2299.34 5764.95 2299.34 5769.21 2290.81C5771.92 2290.04 5774.44 2289.07 5776.77 2287.71L5785.88 2290.81 5792.66 2283.84 5789.75 2274.92C5791.11 2272.6 5792.08 2270.08 5792.85 2267.37L5801.38 2263.11 5801.38 2253.42 5792.85 2249.16C5792.08 2246.44 5791.11 2243.92 5789.75 2241.6Z" fill="#FFFFFF"/></g></g></g><path d="M5507.75 2599.91 5508.31 2682.4 5480.81 2682.59 5480.25 2600.09ZM5535.74 2671.44 5495.05 2754.22 5453.24 2672Z" fill="#777777"/><path d="M7492.83 2377 8217 2377C8137.01 2377 8072.17 2426.92 8072.17 2488.5 8072.17 2550.08 8137.01 2600 8217 2600L7492.83 2600C7412.84 2600 7348 2550.08 7348 2488.5 7348 2426.92 7412.84 2377 7492.83 2377Z" fill="#0169E8" fill-rule="evenodd"/><text fill="#FFFFFF" font-family="Arial,Arial_MSFontService,sans-serif" font-weight="400" font-size="92" transform="matrix(1 0 0 1 7666.52 2468)">Helse<tspan font-size="92" x="234.896" y="0">-</tspan><tspan font-size="92" x="-127.485" y="110">opplysninger</tspan></text><g clip-path="url(#clip31)"><g clip-path="url(#clip32)" filter="url(#fx4)" transform="translate(7336 1808)"><g clip-path="url(#clip33)"><rect x="22.2227" y="22.2228" width="875" height="248" stroke="#004BAA" stroke-width="5" stroke-miterlimit="8" fill="#0169E8"/></g></g><g clip-path="url(#clip34)" filter="url(#fx5)" transform="translate(7609 1835)"><g clip-path="url(#clip35)"><path d="M8.70117 0 8.70117-78.7402 65.6348-78.7402 65.6348-69.4482 19.1211-69.4482 19.1211-45.332 62.6807-45.332 62.6807-36.0937 19.1211-36.0937 19.1211-9.29199 67.4609-9.29199 67.4609 0ZM81.8197 0 81.8197-78.7402 111.522-78.7402C116.75-78.7402 120.742-78.4896 123.499-77.9883 127.367-77.3437 130.607-76.1173 133.221-74.3091 135.835-72.5008 137.939-69.9674 139.532-66.709 141.125-63.4505 141.922-59.8698 141.922-55.9668 141.922-49.2708 139.792-43.6043 135.531-38.9673 131.27-34.3302 123.571-32.0117 112.435-32.0117L92.2396-32.0117 92.2396 0ZM92.2396-41.3037 112.596-41.3037C119.328-41.3037 124.108-42.557 126.937-45.0635 129.766-47.57 131.18-51.097 131.18-55.6445 131.18-58.9388 130.347-61.7586 128.682-64.104 127.017-66.4494 124.824-67.998 122.103-68.75 120.348-69.2155 117.108-69.4482 112.381-69.4482L92.2396-69.4482ZM149.836-22.3437 159.235-23.6328C159.486-17.6172 160.614-13.4993 162.619-11.2793 164.624-9.05924 167.399-7.94922 170.944-7.94922 173.558-7.94922 175.814-8.54899 177.712-9.74853 179.609-10.9481 180.916-12.5773 181.632-14.6362 182.349-16.6951 182.707-19.9805 182.707-24.4922L182.707-78.7402 193.127-78.7402 193.127-25.083C193.127-18.4945 192.33-13.3919 190.736-9.77539 189.143-6.15885 186.619-3.40169 183.163-1.50391 179.708 0.39388 175.653 1.34277 170.998 1.34277 164.087 1.34277 158.796-0.644531 155.126-4.61914 151.456-8.59375 149.692-14.502 149.836-22.3437Z" fill="#FFFFFF" transform="matrix(1 0 0 1 85.7871 160)"/></g></g></g><rect x="7348.5" y="1820.5" width="875" height="248" stroke="#004BAA" stroke-width="4.58333" stroke-miterlimit="8" fill="#0169E8"/><text fill="#FFFFFF" font-family="Arial,Arial_MSFontService,sans-serif" font-weight="400" font-size="110" transform="matrix(1 0 0 1 7685.06 1985)">EPJ</text><g clip-path="url(#clip36)"><g clip-path="url(#clip37)"><g clip-path="url(#clip38)"><path d="M111.187 69.9374C103.312 69.9374 97.1249 63.5624 97.1249 55.8749 97.1249 48.1874 103.5 41.8124 111.187 41.8124 119.062 41.8124 125.25 48.1874 125.25 55.8749 125.25 63.5624 118.875 69.9374 111.187 69.9374ZM142.875 47.0624C142.125 44.4374 141.187 41.9999 139.875 39.75L142.875 30.9375 136.125 24.1875 127.312 27.1875C125.062 25.875 122.625 24.9375 120 24.1875L115.875 15.9375 106.5 15.9375 102.375 24.1875C99.7499 24.9375 97.3124 25.875 95.0624 27.1875L86.2499 24.1875 79.4999 30.9375 82.4999 39.75C81.1874 41.9999 80.2499 44.4374 79.4999 47.0624L71.2499 51.1874 71.2499 60.5624 79.4999 64.6874C80.2499 67.3124 81.1874 69.7499 82.4999 71.9999L79.4999 80.8124 86.0624 87.3749 94.8749 84.3749C97.1249 85.6874 99.5624 86.6249 102.187 87.3749L106.312 95.6249 115.687 95.6249 119.812 87.3749C122.437 86.6249 124.875 85.6874 127.125 84.3749L135.937 87.3749 142.687 80.8124 139.687 71.9999C141 69.7499 142.125 67.1249 142.875 64.6874L151.125 60.5624 151.125 51.1874 142.875 47.0624Z" fill="#FFFFFF" transform="matrix(1 0 0 1.03333 7978 1851)"/><path d="M68.8124 138.187C60.9374 138.187 54.7499 131.812 54.7499 124.125 54.7499 116.25 61.1249 110.062 68.8124 110.062 76.6874 110.062 82.8749 116.437 82.8749 124.125 82.8749 131.812 76.6874 138.187 68.8124 138.187L68.8124 138.187ZM97.4999 108 100.5 99.1874 93.7499 92.4374 84.9374 95.4374C82.6874 94.1249 80.0624 93.1874 77.6249 92.4374L73.4999 84.1874 64.1249 84.1874 59.9999 92.4374C57.3749 93.1874 54.9374 94.1249 52.6874 95.4374L43.8749 92.4374 37.3125 98.9999 40.1249 107.812C38.8125 110.062 37.875 112.687 37.125 115.125L28.875 119.25 28.875 128.625 37.125 132.75C37.875 135.375 38.8125 137.812 40.1249 140.062L37.3125 148.875 43.8749 155.437 52.6874 152.625C54.9374 153.937 57.3749 154.875 59.9999 155.625L64.1249 163.875 73.4999 163.875 77.6249 155.625C80.2499 154.875 82.6874 153.937 84.9374 152.625L93.7499 155.625 100.312 148.875 97.4999 140.25C98.8124 138 99.7499 135.562 100.5 132.937L108.75 128.812 108.75 119.437 100.5 115.312C99.7499 112.687 98.8124 110.25 97.4999 108Z" fill="#FFFFFF" transform="matrix(1 0 0 1.03333 7978 1851)"/></g></g></g><g clip-path="url(#clip39)"><g clip-path="url(#clip40)" filter="url(#fx6)" transform="translate(7336 2088)"><g clip-path="url(#clip41)"><rect x="22.2227" y="22.2229" width="869" height="248" stroke="#004BAA" stroke-width="5" stroke-miterlimit="8" fill="#0169E8"/></g></g><g clip-path="url(#clip42)" filter="url(#fx7)" transform="translate(7532 2048)"><g clip-path="url(#clip43)"><path d="M8.48633 0 8.48633-78.7402 35.6103-78.7402C41.7334-78.7402 46.4062-78.3642 49.6289-77.6123 54.1406-76.5739 57.9899-74.694 61.1768-71.9726 65.3304-68.4635 68.4367-63.9787 70.4956-58.5181 72.5545-53.0574 73.584-46.818 73.584-39.7998 73.584-33.82 72.8857-28.5205 71.4893-23.9014 70.0928-19.2822 68.3024-15.4598 66.1182-12.4341 63.9339-9.40837 61.5438-7.02718 58.9478-5.29053 56.3517-3.55387 53.2186-2.23796 49.5483-1.34277 45.8781-0.447591 41.6618 0 36.8994 0ZM18.9062-9.29199 35.7178-9.29199C40.9098-9.29199 44.9829-9.77539 47.937-10.7422 50.8911-11.709 53.2454-13.0697 55-14.8242 57.4707-17.2949 59.3953-20.616 60.7739-24.7876 62.1525-28.9591 62.8418-34.0169 62.8418-39.9609 62.8418-48.1966 61.4901-54.5255 58.7866-58.9478 56.0832-63.3699 52.7978-66.333 48.9307-67.8369 46.1377-68.9111 41.6439-69.4482 35.4492-69.4482L18.9062-69.4482ZM88.444 0 88.444-78.7402 98.8639-78.7402 98.8639-46.4062 139.792-46.4062 139.792-78.7402 150.212-78.7402 150.212 0 139.792 0 139.792-37.1143 98.8639-37.1143 98.8639 0ZM164.588-38.3496C164.588-51.4193 168.097-61.6512 175.116-69.0454 182.134-76.4396 191.193-80.1367 202.293-80.1367 209.562-80.1367 216.115-78.4001 221.951-74.9268 227.788-71.4534 232.237-66.6105 235.299-60.3979 238.36-54.1854 239.891-47.1403 239.891-39.2627 239.891-31.2777 238.28-24.1341 235.057-17.832 231.834-11.5299 227.269-6.75863 221.361-3.51807 215.452-0.277507 209.079 1.34277 202.24 1.34277 194.827 1.34277 188.203-0.447591 182.367-4.02832 176.53-7.60905 172.108-12.4967 169.1-18.6914 166.092-24.8861 164.588-31.4388 164.588-38.3496ZM175.33-38.1885C175.33-28.6995 177.882-21.2248 182.984-15.7642 188.087-10.3035 194.487-7.57324 202.186-7.57324 210.028-7.57324 216.482-10.3304 221.549-15.8447 226.615-21.359 229.149-29.1829 229.149-39.3164 229.149-45.7259 228.066-51.3208 225.899-56.1011 223.733-60.8813 220.564-64.5874 216.392-67.2192 212.221-69.8511 207.539-71.167 202.347-71.167 194.971-71.167 188.624-68.6336 183.306-63.5669 177.989-58.5002 175.33-50.0407 175.33-38.1885Z" fill="#FFFFFF" transform="matrix(1 0 0 1 138.031 160)"/><path d="M3.38379-17.0264 12.9443-18.5303C13.4814-14.6989 14.9764-11.7627 17.4292-9.72168 19.882-7.68066 23.3105-6.66016 27.7148-6.66016 32.1549-6.66016 35.4492-7.56429 37.5977-9.37256 39.7461-11.1808 40.8203-13.3024 40.8203-15.7373 40.8203-17.9215 39.8714-19.6403 37.9736-20.8936 36.6488-21.7529 33.3545-22.8451 28.0908-24.1699 21.001-25.9603 16.0864-27.5089 13.3472-28.8159 10.6079-30.1229 8.53109-31.9311 7.1167-34.2407 5.70231-36.5503 4.99512-39.1016 4.99512-41.8945 4.99512-44.4368 5.57699-46.7912 6.74072-48.9575 7.90446-51.1239 9.48893-52.9232 11.4941-54.3555 12.998-55.4655 15.048-56.4054 17.644-57.1753 20.2401-57.9451 23.0241-58.3301 25.9961-58.3301 30.472-58.3301 34.4019-57.6855 37.7856-56.3965 41.1694-55.1074 43.667-53.3618 45.2783-51.1597 46.8896-48.9575 47.9997-46.0124 48.6084-42.3242L39.1553-41.0352C38.7256-43.9714 37.4813-46.263 35.4224-47.9102 33.3634-49.5573 30.4541-50.3809 26.6943-50.3809 22.2542-50.3809 19.0853-49.6468 17.1875-48.1787 15.2897-46.7106 14.3408-44.9919 14.3408-43.0225 14.3408-41.7692 14.7347-40.6413 15.5225-39.6387 16.3102-38.6003 17.5456-37.7409 19.2285-37.0605 20.1953-36.7025 23.042-35.8789 27.7686-34.5898 34.6077-32.7637 39.3791-31.2687 42.0825-30.105 44.786-28.9412 46.9075-27.2493 48.4473-25.0293 49.987-22.8092 50.7568-20.0521 50.7568-16.7578 50.7568-13.5352 49.8169-10.5005 47.937-7.65381 46.0571-4.80713 43.3447-2.60498 39.7998-1.04736 36.2549 0.510254 32.2445 1.28906 27.7686 1.28906 20.3564 1.28906 14.7078-0.250651 10.8228-3.33008 6.93766-6.4095 4.45801-10.9749 3.38379-17.0264ZM61.8213 21.9678 60.7471 12.8906C62.8597 13.4635 64.7038 13.75 66.2793 13.75 68.4277 13.75 70.1465 13.3919 71.4355 12.6758 72.7246 11.9596 73.7809 10.957 74.6045 9.66797 75.2132 8.70117 76.1979 6.30208 77.5586 2.4707 77.7376 1.93359 78.0241 1.14583 78.418 0.107422L56.7725-57.041 67.1924-57.041 79.0625-24.0088C80.6022-19.8193 81.9808-15.415 83.1982-10.7959 84.3083-15.236 85.6331-19.5687 87.1728-23.7939L99.3652-57.041 109.033-57.041 87.334 0.966797C85.0065 7.23307 83.1982 11.5478 81.9092 13.9111 80.1904 17.098 78.221 19.4344 76.001 20.9204 73.7809 22.4064 71.1312 23.1494 68.0518 23.1494 66.1898 23.1494 64.1129 22.7555 61.8213 21.9678ZM113.384-17.0264 122.944-18.5303C123.481-14.6989 124.976-11.7627 127.429-9.72168 129.882-7.68066 133.311-6.66016 137.715-6.66016 142.155-6.66016 145.449-7.56429 147.598-9.37256 149.746-11.1808 150.82-13.3024 150.82-15.7373 150.82-17.9215 149.871-19.6403 147.974-20.8936 146.649-21.7529 143.354-22.8451 138.091-24.1699 131.001-25.9603 126.086-27.5089 123.347-28.8159 120.608-30.1229 118.531-31.9311 117.117-34.2407 115.702-36.5503 114.995-39.1016 114.995-41.8945 114.995-44.4368 115.577-46.7912 116.741-48.9575 117.904-51.1239 119.489-52.9232 121.494-54.3555 122.998-55.4655 125.048-56.4054 127.644-57.1753 130.24-57.9451 133.024-58.3301 135.996-58.3301 140.472-58.3301 144.402-57.6855 147.786-56.3965 151.169-55.1074 153.667-53.3618 155.278-51.1597 156.89-48.9575 158-46.0124 158.608-42.3242L149.155-41.0352C148.726-43.9714 147.481-46.263 145.422-47.9102 143.363-49.5573 140.454-50.3809 136.694-50.3809 132.254-50.3809 129.085-49.6468 127.187-48.1787 125.29-46.7106 124.341-44.9919 124.341-43.0225 124.341-41.7692 124.735-40.6413 125.522-39.6387 126.31-38.6003 127.546-37.7409 129.229-37.0605 130.195-36.7025 133.042-35.8789 137.769-34.5898 144.608-32.7637 149.379-31.2687 152.083-30.105 154.786-28.9412 156.908-27.2493 158.447-25.0293 159.987-22.8092 160.757-20.0521 160.757-16.7578 160.757-13.5352 159.817-10.5005 157.937-7.65381 156.057-4.80713 153.345-2.60498 149.8-1.04736 146.255 0.510254 142.244 1.28906 137.769 1.28906 130.356 1.28906 124.708-0.250651 120.823-3.33008 116.938-6.4095 114.458-10.9749 113.384-17.0264ZM193.359-8.64746 194.756-0.107422C192.034 0.465495 189.6 0.751953 187.451 0.751953 183.942 0.751953 181.221 0.19694 179.287-0.913086 177.353-2.02311 175.993-3.48226 175.205-5.29053 174.417-7.09879 174.023-10.9033 174.023-16.7041L174.023-49.5215 166.934-49.5215 166.934-57.041 174.023-57.041 174.023-71.167 183.638-76.9678 183.638-57.041 193.359-57.041 193.359-49.5215 183.638-49.5215 183.638-16.167C183.638-13.4098 183.808-11.6374 184.148-10.8496 184.488-10.0618 185.043-9.43522 185.813-8.96973 186.583-8.50423 187.684-8.27148 189.116-8.27148 190.19-8.27148 191.605-8.39681 193.359-8.64746ZM241.663-18.3691 251.654-17.1338C250.078-11.2972 247.16-6.76758 242.899-3.54492 238.638-0.322266 233.195 1.28906 226.571 1.28906 218.228 1.28906 211.612-1.28011 206.724-6.41846 201.837-11.5568 199.393-18.763 199.393-28.0371 199.393-37.6335 201.864-45.0814 206.805-50.3809 211.746-55.6803 218.156-58.3301 226.034-58.3301 233.66-58.3301 239.891-55.734 244.725-50.542 249.559-45.3499 251.976-38.0452 251.976-28.6279 251.976-28.055 251.958-27.1956 251.922-26.0498L209.383-26.0498C209.741-19.7835 211.514-14.9853 214.701-11.6553 217.887-8.32519 221.862-6.66016 226.624-6.66016 230.169-6.66016 233.195-7.59115 235.701-9.45312 238.208-11.3151 240.195-14.2871 241.663-18.3691ZM209.92-33.999 241.771-33.999C241.341-38.7972 240.124-42.3958 238.118-44.7949 235.039-48.5189 231.047-50.3809 226.141-50.3809 221.701-50.3809 217.968-48.8949 214.942-45.9228 211.916-42.9508 210.242-38.9762 209.92-33.999ZM263.918 0 263.918-57.041 272.565-57.041 272.565-49.0381C274.355-51.831 276.737-54.078 279.709-55.7788 282.681-57.4797 286.064-58.3301 289.86-58.3301 294.085-58.3301 297.55-57.4528 300.253-55.6982 302.957-53.9437 304.863-51.4909 305.973-48.3398 310.485-55 316.357-58.3301 323.59-58.3301 329.248-58.3301 333.599-56.7635 336.642-53.6304 339.686-50.4972 341.208-45.6722 341.208-39.1553L341.208 0 331.593 0 331.593-35.9326C331.593-39.7998 331.28-42.5838 330.653-44.2847 330.027-45.9855 328.89-47.3551 327.243-48.3936 325.596-49.432 323.662-49.9512 321.442-49.9512 317.432-49.9512 314.102-48.6173 311.452-45.9497 308.802-43.2821 307.477-39.012 307.477-33.1396L307.477 0 297.809 0 297.809-37.0605C297.809-41.3574 297.021-44.5801 295.446-46.7285 293.87-48.8769 291.292-49.9512 287.712-49.9512 284.99-49.9512 282.475-49.235 280.165-47.8027 277.856-46.3704 276.182-44.2757 275.143-41.5186 274.105-38.7614 273.586-34.7868 273.586-29.5947L273.586 0Z" fill="#FFFFFF" transform="matrix(1 0 0 1 86.1934 292)"/></g></g></g><rect x="7348.5" y="2100.5" width="869" height="248" stroke="#004BAA" stroke-width="4.58333" stroke-miterlimit="8" fill="#0169E8"/><text fill="#FFFFFF" font-family="Arial,Arial_MSFontService,sans-serif" font-weight="400" font-size="110" transform="matrix(1 0 0 1 7660.31 2199)">DHO <tspan font-size="110" x="-51.8374" y="132">system</tspan></text><g clip-path="url(#clip44)"><g clip-path="url(#clip45)"><g clip-path="url(#clip46)"><path d="M8092.89 2202.27C8084.76 2202.27 8078.36 2195.68 8078.36 2187.74 8078.36 2179.79 8084.95 2173.21 8092.89 2173.21 8101.03 2173.21 8107.42 2179.79 8107.42 2187.74 8107.42 2195.68 8100.84 2202.27 8092.89 2202.27ZM8125.64 2178.63C8124.86 2175.92 8123.89 2173.4 8122.54 2171.07L8125.64 2161.97 8118.66 2154.99 8109.56 2158.09C8107.23 2156.74 8104.71 2155.77 8102 2154.99L8097.74 2146.47 8088.05 2146.47 8083.79 2154.99C8081.08 2155.77 8078.56 2156.74 8076.23 2158.09L8067.12 2154.99 8060.15 2161.97 8063.25 2171.07C8061.89 2173.4 8060.92 2175.92 8060.15 2178.63L8051.62 2182.89 8051.62 2192.58 8060.15 2196.84C8060.92 2199.56 8061.89 2202.07 8063.25 2204.4L8060.15 2213.51 8066.93 2220.29 8076.04 2217.19C8078.36 2218.54 8080.88 2219.51 8083.59 2220.29L8087.86 2228.81 8097.54 2228.81 8101.81 2220.29C8104.52 2219.51 8107.04 2218.54 8109.36 2217.19L8118.47 2220.29 8125.44 2213.51 8122.34 2204.4C8123.7 2202.07 8124.86 2199.36 8125.64 2196.84L8134.16 2192.58 8134.16 2182.89 8125.64 2178.63Z" fill="#FFFFFF"/><path d="M8049.11 2272.79C8040.97 2272.79 8034.58 2266.21 8034.58 2258.26 8034.58 2250.12 8041.16 2243.73 8049.11 2243.73 8057.24 2243.73 8063.64 2250.32 8063.64 2258.26 8063.64 2266.21 8057.24 2272.79 8049.11 2272.79L8049.11 2272.79ZM8078.75 2241.6 8081.85 2232.49 8074.88 2225.52 8065.77 2228.62C8063.44 2227.26 8060.73 2226.29 8058.21 2225.52L8053.95 2216.99 8044.26 2216.99 8040 2225.52C8037.29 2226.29 8034.77 2227.26 8032.44 2228.62L8023.34 2225.52 8016.56 2232.3 8019.46 2241.41C8018.11 2243.73 8017.14 2246.44 8016.36 2248.96L8007.84 2253.22 8007.84 2262.91 8016.36 2267.17C8017.14 2269.89 8018.11 2272.41 8019.46 2274.73L8016.56 2283.84 8023.34 2290.62 8032.44 2287.71C8034.77 2289.07 8037.29 2290.04 8040 2290.81L8044.26 2299.34 8053.95 2299.34 8058.21 2290.81C8060.92 2290.04 8063.44 2289.07 8065.77 2287.71L8074.88 2290.81 8081.66 2283.84 8078.75 2274.92C8080.11 2272.6 8081.08 2270.08 8081.85 2267.37L8090.38 2263.11 8090.38 2253.42 8081.85 2249.16C8081.08 2246.44 8080.11 2243.92 8078.75 2241.6Z" fill="#FFFFFF"/></g></g></g><path d="M7796.75 2599.91 7797.31 2682.4 7769.81 2682.59 7769.25 2600.09ZM7824.74 2671.44 7784.05 2754.22 7742.24 2672Z" fill="#777777"/><path d="M6180.5 1614.78C6180.5 1606.34 6187.34 1599.5 6195.77 1599.5L7080.22 1599.5C7088.66 1599.5 7095.5 1606.34 7095.5 1614.78L7095.5 2053.22C7095.5 2061.66 7088.66 2068.5 7080.22 2068.5L6195.77 2068.5C6187.34 2068.5 6180.5 2061.66 6180.5 2053.22Z" stroke="#0169E8" stroke-width="4.58333" stroke-miterlimit="8" stroke-dasharray="18.3333 13.75" fill="#00BBD4" fill-rule="evenodd"/><text fill="#281C2C" font-family="Arial,Arial_MSFontService,sans-serif" font-weight="700" font-size="110" transform="matrix(1 0 0 1 6437.83 1727)">Avtaler/ <tspan font-size="110" x="-203.431" y="132">tillitssamarbeid</tspan></text></g></svg>