<svg width="5241" height="3258" xmlns="http://www.w3.org/2000/svg" xmlns:xlink="http://www.w3.org/1999/xlink" xml:space="preserve" overflow="hidden"><defs><filter id="fx0" x="-10%" y="-10%" width="120%" height="120%" filterUnits="userSpaceOnUse" primitiveUnits="userSpaceOnUse"><feComponentTransfer color-interpolation-filters="sRGB"><feFuncR type="discrete" tableValues="0 0"/><feFuncG type="discrete" tableValues="0 0"/><feFuncB type="discrete" tableValues="0 0"/><feFuncA type="linear" slope="0.4" intercept="0"/></feComponentTransfer><feGaussianBlur stdDeviation="6.11111 6.11111"/></filter><filter id="fx1" x="-10%" y="-10%" width="120%" height="120%" filterUnits="userSpaceOnUse" primitiveUnits="userSpaceOnUse"><feComponentTransfer color-interpolation-filters="sRGB"><feFuncR type="discrete" tableValues="0 0"/><feFuncG type="discrete" tableValues="0 0"/><feFuncB type="discrete" tableValues="0 0"/><feFuncA type="linear" slope="0.4" intercept="0"/></feComponentTransfer><feGaussianBlur stdDeviation="6.11111 6.11111"/></filter><filter id="fx2" x="-10%" y="-10%" width="120%" height="120%" filterUnits="userSpaceOnUse" primitiveUnits="userSpaceOnUse"><feComponentTransfer color-interpolation-filters="sRGB"><feFuncR type="discrete" tableValues="0 0"/><feFuncG type="discrete" tableValues="0 0"/><feFuncB type="discrete" tableValues="0 0"/><feFuncA type="linear" slope="0.4" intercept="0"/></feComponentTransfer><feGaussianBlur stdDeviation="6.11111 6.11111"/></filter><filter id="fx3" x="-10%" y="-10%" width="120%" height="120%" filterUnits="userSpaceOnUse" primitiveUnits="userSpaceOnUse"><feComponentTransfer color-interpolation-filters="sRGB"><feFuncR type="discrete" tableValues="0 0"/><feFuncG type="discrete" tableValues="0 0"/><feFuncB type="discrete" tableValues="0 0"/><feFuncA type="linear" slope="0.4" intercept="0"/></feComponentTransfer><feGaussianBlur stdDeviation="6.11111 6.11111"/></filter><filter id="fx4" x="-10%" y="-10%" width="120%" height="120%" filterUnits="userSpaceOnUse" primitiveUnits="userSpaceOnUse"><feComponentTransfer color-interpolation-filters="sRGB"><feFuncR type="discrete" tableValues="0 0"/><feFuncG type="discrete" tableValues="0 0"/><feFuncB type="discrete" tableValues="0 0"/><feFuncA type="linear" slope="0.4" intercept="0"/></feComponentTransfer><feGaussianBlur stdDeviation="6.11111 6.11111"/></filter><filter id="fx5" x="-10%" y="-10%" width="120%" height="120%" filterUnits="userSpaceOnUse" primitiveUnits="userSpaceOnUse"><feComponentTransfer color-interpolation-filters="sRGB"><feFuncR type="discrete" tableValues="0 0"/><feFuncG type="discrete" tableValues="0 0"/><feFuncB type="discrete" tableValues="0 0"/><feFuncA type="linear" slope="0.4" intercept="0"/></feComponentTransfer><feGaussianBlur stdDeviation="6.11111 6.11111"/></filter><filter id="fx6" x="-10%" y="-10%" width="120%" height="120%" filterUnits="userSpaceOnUse" primitiveUnits="userSpaceOnUse"><feComponentTransfer color-interpolation-filters="sRGB"><feFuncR type="discrete" tableValues="0 0"/><feFuncG type="discrete" tableValues="0 0"/><feFuncB type="discrete" tableValues="0 0"/><feFuncA type="linear" slope="0.4" intercept="0"/></feComponentTransfer><feGaussianBlur stdDeviation="6.11111 6.11111"/></filter><filter id="fx7" x="-10%" y="-10%" width="120%" height="120%" filterUnits="userSpaceOnUse" primitiveUnits="userSpaceOnUse"><feComponentTransfer color-interpolation-filters="sRGB"><feFuncR type="discrete" tableValues="0 0"/><feFuncG type="discrete" tableValues="0 0"/><feFuncB type="discrete" tableValues="0 0"/><feFuncA type="linear" slope="0.4" intercept="0"/></feComponentTransfer><feGaussianBlur stdDeviation="6.11111 6.11111"/></filter><clipPath id="clip8"><rect x="1113" y="1201" width="5241" height="3258"/></clipPath><clipPath id="clip9"><rect x="4407" y="2354" width="204" height="212"/></clipPath><clipPath id="clip10"><rect x="4407" y="2354" width="204" height="212"/></clipPath><clipPath id="clip11"><rect x="4407" y="2354" width="204" height="212"/></clipPath><clipPath id="clip12"><rect x="4422" y="2349" width="202" height="211"/></clipPath><clipPath id="clip13"><rect x="4422" y="2349" width="202" height="211"/></clipPath><clipPath id="clip14"><rect x="4422" y="2349" width="202" height="211"/></clipPath><clipPath id="clip15"><rect x="2172" y="3291" width="188" height="187"/></clipPath><clipPath id="clip16"><rect x="2172" y="3291" width="188" height="187"/></clipPath><clipPath id="clip17"><rect x="2172" y="3291" width="188" height="187"/></clipPath><clipPath id="clip18"><rect x="2266" y="4074" width="187" height="187"/></clipPath><clipPath id="clip19"><rect x="2266" y="4074" width="187" height="187"/></clipPath><clipPath id="clip20"><rect x="2266" y="4074" width="187" height="187"/></clipPath><clipPath id="clip21"><rect x="2227" y="3346" width="188" height="187"/></clipPath><clipPath id="clip22"><rect x="2227" y="3346" width="188" height="187"/></clipPath><clipPath id="clip23"><rect x="2227" y="3346" width="188" height="187"/></clipPath><clipPath id="clip24"><path d="M1225.5 3170.5 1225.5 3589.5 2571.5 3589.5 2571.5 3170.5ZM1113 1201 6354 1201 6354 4459 1113 4459Z" fill-rule="evenodd" clip-rule="evenodd"/></clipPath><clipPath id="clip25"><rect x="-3" y="-3" width="1397" height="468"/></clipPath><clipPath id="clip26"><rect x="0" y="0" width="1391" height="464"/></clipPath><clipPath id="clip27"><rect x="70" y="56" width="660" height="151"/></clipPath><clipPath id="clip28"><rect x="0" y="0" width="802" height="271"/></clipPath><clipPath id="clip29"><path d="M1292.5 2436.5 1292.5 2913.5 2641.5 2913.5 2641.5 2436.5ZM1113 1201 6354 1201 6354 4459 1113 4459Z" fill-rule="evenodd" clip-rule="evenodd"/></clipPath><clipPath id="clip30"><rect x="-3" y="-3" width="1401" height="527"/></clipPath><clipPath id="clip31"><rect x="0" y="0" width="1394" height="522"/></clipPath><clipPath id="clip32"><rect x="70" y="59" width="234" height="124"/></clipPath><clipPath id="clip33"><rect x="0" y="0" width="374" height="271"/></clipPath><clipPath id="clip34"><rect x="1400" y="2568" width="180" height="188"/></clipPath><clipPath id="clip35"><rect x="1400" y="2568" width="180" height="188"/></clipPath><clipPath id="clip36"><rect x="1400" y="2568" width="180" height="188"/></clipPath><clipPath id="clip37"><path d="M1279.5 3219.5 1279.5 3638.5 2628.5 3638.5 2628.5 3219.5ZM1113 1201 6354 1201 6354 4459 1113 4459Z" fill-rule="evenodd" clip-rule="evenodd"/></clipPath><clipPath id="clip38"><rect x="-3" y="-3" width="1401" height="468"/></clipPath><clipPath id="clip39"><rect x="0" y="0" width="1394" height="464"/></clipPath><clipPath id="clip40"><rect x="66" y="56" width="386" height="282"/></clipPath><clipPath id="clip41"><rect x="0" y="0" width="520" height="403"/></clipPath><clipPath id="clip42"><rect x="1392" y="3331" width="188" height="187"/></clipPath><clipPath id="clip43"><rect x="1392" y="3331" width="188" height="187"/></clipPath><clipPath id="clip44"><rect x="1392" y="3331" width="188" height="187"/></clipPath><clipPath id="clip45"><rect x="3370" y="1795" width="258" height="235"/></clipPath><clipPath id="clip46"><rect x="3370" y="1795" width="258" height="235"/></clipPath><clipPath id="clip47"><rect x="3370" y="1795" width="258" height="235"/></clipPath><clipPath id="clip48"><rect x="5919" y="1791" width="258" height="236"/></clipPath><clipPath id="clip49"><rect x="5919" y="1791" width="258" height="236"/></clipPath><clipPath id="clip50"><rect x="5919" y="1791" width="258" height="236"/></clipPath><clipPath id="clip51"><path d="M4864.5 2225.5 4864.5 2703.5 6210.5 2703.5 6210.5 2225.5ZM1113 1201 6354 1201 6354 4459 1113 4459Z" fill-rule="evenodd" clip-rule="evenodd"/></clipPath><clipPath id="clip52"><rect x="-3" y="-3" width="1397" height="530"/></clipPath><clipPath id="clip53"><rect x="0" y="0" width="1391" height="523"/></clipPath><clipPath id="clip54"><rect x="70" y="59" width="234" height="124"/></clipPath><clipPath id="clip55"><rect x="0" y="0" width="374" height="271"/></clipPath><clipPath id="clip56"><rect x="5956" y="2366" width="181" height="186"/></clipPath><clipPath id="clip57"><rect x="5956" y="2366" width="181" height="186"/></clipPath><clipPath id="clip58"><rect x="5956" y="2366" width="181" height="186"/></clipPath></defs><g clip-path="url(#clip8)" transform="translate(-1113 -1201)"><rect x="3821" y="2295" width="807" height="351" stroke="#004BAA" stroke-width="10.3125" stroke-miterlimit="8" stroke-dasharray="30.9375 10.3125" fill="#91C2FF"/><text fill="#FFFFFF" font-family="Arial,Arial_MSFontService,sans-serif" font-weight="400" font-size="110" transform="matrix(1 0 0 1 3892.88 2511)">Avtaler</text><g clip-path="url(#clip9)"><g clip-path="url(#clip10)"><g clip-path="url(#clip11)"><path d="M101 29.4584C105.629 29.4584 109.417 33.2459 109.417 37.875 109.417 42.5042 105.629 46.2917 101 46.2917 96.3709 46.2917 92.5834 42.5042 92.5834 37.875 92.5834 33.2459 96.3709 29.4584 101 29.4584ZM171.49 98.0542C171.279 96.5813 170.227 95.3188 168.965 94.6876 167.702 94.0563 166.019 94.2667 164.756 95.3188L140.979 113.625C139.717 114.467 139.085 115.94 139.296 117.623 139.506 119.096 140.558 120.358 141.821 120.99L150.869 124.777C146.029 145.608 128.565 161.179 107.313 163.704L107.313 77.8542 159.917 77.8542 159.917 65.2292 107.313 65.2292 107.313 57.8646C117.202 54.7084 123.304 44.8188 121.831 34.5084 120.148 24.4083 111.31 16.8333 101 16.8333 90.6896 16.8333 81.8521 24.4083 80.1688 34.7188 78.6959 45.0292 84.798 54.9188 94.6876 58.075L94.6876 65.2292 42.0834 65.2292 42.0834 77.8542 94.6876 77.8542 94.6876 163.704C73.4355 160.969 55.9709 145.398 51.1313 124.567L60.1792 120.779C61.4417 120.148 62.4938 118.885 62.7042 117.413 62.9146 115.94 62.2834 114.467 61.0209 113.625L37.2438 95.3188C35.9813 94.4771 34.5084 94.2667 33.0354 94.6876 31.5625 95.3188 30.7209 96.5813 30.5104 98.0542L26.7229 127.933C26.5125 129.406 27.1438 130.879 28.4063 131.721 29.6688 132.563 31.1417 132.773 32.6146 132.352L39.3479 129.617C45.0292 150.658 61.2313 167.492 82.0625 174.015L98.8959 183.063C100.158 183.694 101.631 183.694 102.894 183.063L119.938 173.804C140.769 167.281 156.761 150.448 162.442 129.406L169.175 132.352C170.648 132.983 172.121 132.773 173.383 131.721 174.646 130.879 175.277 129.406 175.067 127.933L171.49 98.0542Z" fill="#FFFFFF" transform="matrix(1 0 0 1.04455 4408 2354)"/></g></g></g><path d="M3766 2252.8C3766 2236.34 3779.34 2223 3795.8 2223L4651.2 2223C4667.66 2223 4681 2236.34 4681 2252.8L4681 4387.2C4681 4403.66 4667.66 4417 4651.2 4417L3795.8 4417C3779.34 4417 3766 4403.66 3766 4387.2Z" fill="#7BF5BC" fill-rule="evenodd"/><text fill="#281C2C" font-family="Arial,Arial_MSFontService,sans-serif" font-weight="700" font-size="110" transform="matrix(1 0 0 1 3838.44 4367)">Fellestjenester</text><rect x="3821.5" y="2295.5" width="807" height="351" stroke="#004BAA" stroke-width="4.58333" stroke-miterlimit="8" fill="#0169E8"/><text fill="#FFFFFF" font-family="Arial,Arial_MSFontService,sans-serif" font-weight="400" font-size="110" transform="matrix(1 0 0 1 3892.88 2445)">Tillitsanker <tspan font-size="110" x="0" y="132">(pilot)</tspan></text><g clip-path="url(#clip12)"><g clip-path="url(#clip13)"><g clip-path="url(#clip14)"><path d="M100.5 29.3125C105.106 29.3125 108.875 33.0813 108.875 37.6875 108.875 42.2938 105.106 46.0625 100.5 46.0625 95.8938 46.0625 92.125 42.2938 92.125 37.6875 92.125 33.0813 95.8938 29.3125 100.5 29.3125ZM170.641 97.5688C170.431 96.1032 169.384 94.8469 168.128 94.2188 166.872 93.5907 165.197 93.8 163.941 94.8469L140.281 113.063C139.025 113.9 138.397 115.366 138.606 117.041 138.816 118.506 139.863 119.763 141.119 120.391L150.122 124.159C145.306 144.888 127.928 160.381 106.781 162.894L106.781 77.4688 159.125 77.4688 159.125 64.9063 106.781 64.9063 106.781 57.5782C116.622 54.4375 122.694 44.5969 121.228 34.3375 119.553 24.2875 110.759 16.75 100.5 16.75 90.2407 16.75 81.4469 24.2875 79.7719 34.5469 78.3063 44.8063 84.3782 54.6469 94.2188 57.7875L94.2188 64.9063 41.875 64.9063 41.875 77.4688 94.2188 77.4688 94.2188 162.894C73.0719 160.172 55.6938 144.678 50.8781 123.95L59.8813 120.181C61.1375 119.553 62.1844 118.297 62.3938 116.831 62.6032 115.366 61.975 113.9 60.7188 113.063L37.0594 94.8469C35.8031 94.0094 34.3375 93.8 32.8719 94.2188 31.4063 94.8469 30.5688 96.1032 30.3594 97.5688L26.5906 127.3C26.3813 128.766 27.0094 130.231 28.2656 131.069 29.5219 131.906 30.9875 132.116 32.4531 131.697L39.1531 128.975C44.8063 149.913 60.9282 166.663 81.6563 173.153L98.4063 182.156C99.6625 182.784 101.128 182.784 102.384 182.156L119.344 172.944C140.072 166.453 155.984 149.703 161.638 128.766L168.338 131.697C169.803 132.325 171.269 132.116 172.525 131.069 173.781 130.231 174.409 128.766 174.2 127.3L170.641 97.5688Z" fill="#FFFFFF" transform="matrix(1 0 0 1.04478 4422 2350)"/></g></g></g><path d="M3762 1239.8C3762 1223.34 3775.34 1210 3791.8 1210L4647.2 1210C4663.66 1210 4677 1223.34 4677 1239.8L4677 2173.2C4677 2189.66 4663.66 2203 4647.2 2203L3791.8 2203C3775.34 2203 3762 2189.66 3762 2173.2Z" fill="#EEEEEE" fill-rule="evenodd"/><text fill="#281C2C" font-family="Arial,Arial_MSFontService,sans-serif" font-weight="700" font-size="110" transform="matrix(1 0 0 1 3797.86 1342)">VkpObservation</text><path d="M2072.5 1648.74C2072.5 1638.67 2080.67 1630.5 2090.74 1630.5L3704.26 1630.5C3714.33 1630.5 3722.5 1638.67 3722.5 1648.74L3722.5 2172.26C3722.5 2182.33 3714.33 2190.5 3704.26 2190.5L2090.74 2190.5C2080.67 2190.5 2072.5 2182.33 2072.5 2172.26Z" stroke="#EEEEEE" stroke-width="4.58333" stroke-miterlimit="8" fill="#777777" fill-rule="evenodd"/><path d="M4724.5 1263.49C4724.5 1234.22 4748.22 1210.5 4777.49 1210.5L6298.51 1210.5C6327.78 1210.5 6351.5 1234.22 6351.5 1263.49L6351.5 4364.51C6351.5 4393.78 6327.78 4417.5 6298.51 4417.5L4777.49 4417.5C4748.22 4417.5 4724.5 4393.78 4724.5 4364.51Z" stroke="#0169E8" stroke-width="4.58333" stroke-miterlimit="8" fill="#00BBD4" fill-rule="evenodd" fill-opacity="0.501961"/><text fill="#281C2C" font-family="Arial,Arial_MSFontService,sans-serif" font-weight="700" font-size="110" transform="matrix(1 0 0 1 5211.06 1349)">Lovisenberg</text><path d="M2802 1669.96C2802 1653.42 2815.42 1640 2831.96 1640L3692.04 1640C3708.58 1640 3722 1653.42 3722 1669.96L3722 4009.04C3722 4025.58 3708.58 4039 3692.04 4039L2831.96 4039C2815.42 4039 2802 4025.58 2802 4009.04Z" fill="#777777" fill-rule="evenodd"/><text fill="#FFFFFF" font-family="Arial,Arial_MSFontService,sans-serif" font-weight="700" font-size="110" transform="matrix(1 0 0 1 2932.57 3614)">Datadelings-<tspan font-size="110" x="14.896" y="132">tjenester fra</tspan><tspan font-size="110" x="48.698" y="264">leverandør</tspan><tspan font-size="92" x="199.948" y="378">(NHN)</tspan></text><path d="M1115.5 1263.95C1115.5 1234.43 1139.43 1210.5 1168.95 1210.5L2703.05 1210.5C2732.57 1210.5 2756.5 1234.43 2756.5 1263.95L2756.5 4359.05C2756.5 4388.57 2732.57 4412.5 2703.05 4412.5L1168.95 4412.5C1139.43 4412.5 1115.5 4388.57 1115.5 4359.05Z" stroke="#0169E8" stroke-width="4.58333" stroke-miterlimit="8" fill="#00BBD4" fill-rule="evenodd" fill-opacity="0.501961"/><text fill="#281C2C" font-family="Arial,Arial_MSFontService,sans-serif" font-weight="700" font-size="110" transform="matrix(1 0 0 1 1813.71 1349)">Oslo<tspan font-size="83" x="2066.87" y="236">Datadeling mellom </tspan><tspan font-size="83" x="2121.87" y="335">helsepersonell i </tspan><tspan font-size="83" x="2142.49" y="434">ulike løsninger</tspan></text><g clip-path="url(#clip15)"><g clip-path="url(#clip16)"><g clip-path="url(#clip17)"><path d="M114.894 72.2687C106.756 72.2687 100.362 65.6812 100.362 57.7375 100.362 49.7937 106.95 43.2062 114.894 43.2062 123.031 43.2062 129.425 49.7937 129.425 57.7375 129.425 65.6812 122.837 72.2687 114.894 72.2687ZM147.637 48.6312C146.862 45.9187 145.894 43.4 144.537 41.075L147.637 31.9687 140.662 24.9937 131.556 28.0937C129.231 26.7375 126.712 25.7687 124 24.9937L119.737 16.4687 110.05 16.4687 105.787 24.9937C103.075 25.7687 100.556 26.7375 98.2312 28.0937L89.125 24.9937 82.15 31.9687 85.25 41.075C83.8937 43.4 82.925 45.9187 82.15 48.6312L73.625 52.8937 73.625 62.5812 82.15 66.8437C82.925 69.5562 83.8937 72.075 85.25 74.4L82.15 83.5062 88.9312 90.2875 98.0375 87.1875C100.362 88.5437 102.881 89.5125 105.594 90.2875L109.856 98.8125 119.544 98.8125 123.806 90.2875C126.519 89.5125 129.037 88.5437 131.362 87.1875L140.469 90.2875 147.444 83.5062 144.344 74.4C145.7 72.075 146.862 69.3625 147.637 66.8437L156.162 62.5812 156.162 52.8937 147.637 48.6312Z" fill="#FFFFFF" transform="matrix(1.00538 0 0 1 2173 3291)"/><path d="M71.1062 142.794C62.9687 142.794 56.575 136.206 56.575 128.262 56.575 120.125 63.1625 113.731 71.1062 113.731 79.2437 113.731 85.6375 120.319 85.6375 128.262 85.6375 136.206 79.2437 142.794 71.1062 142.794L71.1062 142.794ZM100.75 111.6 103.85 102.494 96.875 95.5187 87.7687 98.6187C85.4437 97.2625 82.7312 96.2937 80.2125 95.5187L75.95 86.9937 66.2625 86.9937 62 95.5187C59.2875 96.2937 56.7687 97.2625 54.4437 98.6187L45.3375 95.5187 38.5562 102.3 41.4625 111.406C40.1062 113.731 39.1375 116.444 38.3625 118.962L29.8375 123.225 29.8375 132.912 38.3625 137.175C39.1375 139.887 40.1062 142.406 41.4625 144.731L38.5562 153.837 45.3375 160.619 54.4437 157.712C56.7687 159.069 59.2875 160.037 62 160.812L66.2625 169.337 75.95 169.337 80.2125 160.812C82.925 160.037 85.4437 159.069 87.7687 157.712L96.875 160.812 103.656 153.837 100.75 144.925C102.106 142.6 103.075 140.081 103.85 137.369L112.375 133.106 112.375 123.419 103.85 119.156C103.075 116.444 102.106 113.925 100.75 111.6Z" fill="#FFFFFF" transform="matrix(1.00538 0 0 1 2173 3291)"/></g></g></g><rect x="1277.5" y="4058.5" width="1349" height="222" stroke="#1A111D" stroke-width="4.58333" stroke-miterlimit="8" fill="#281C2C"/><text fill="#FFFFFF" font-family="Arial,Arial_MSFontService,sans-serif" font-weight="400" font-size="73" transform="matrix(1 0 0 1 1782.41 4196)">Måleutstyr</text><g clip-path="url(#clip18)"><g clip-path="url(#clip19)"><g clip-path="url(#clip20)"><path d="M19.375 65.875 32.9375 65.875 32.9375 73.625 19.375 73.625Z" fill="#FFFFFF" transform="matrix(1.00538 0 0 1 2266 4074)"/><path d="M19.375 50.375 32.9375 50.375 32.9375 58.125 19.375 58.125Z" fill="#FFFFFF" transform="matrix(1.00538 0 0 1 2266 4074)"/><path d="M19.375 81.375 32.9375 81.375 32.9375 89.125 19.375 89.125Z" fill="#FFFFFF" transform="matrix(1.00538 0 0 1 2266 4074)"/><path d="M19.375 127.875 32.9375 127.875 32.9375 135.625 19.375 135.625Z" fill="#FFFFFF" transform="matrix(1.00538 0 0 1 2266 4074)"/><path d="M19.375 112.375 32.9375 112.375 32.9375 120.125 19.375 120.125Z" fill="#FFFFFF" transform="matrix(1.00538 0 0 1 2266 4074)"/><path d="M19.375 96.875 32.9375 96.875 32.9375 104.625 19.375 104.625Z" fill="#FFFFFF" transform="matrix(1.00538 0 0 1 2266 4074)"/><path d="M153.062 112.375 166.625 112.375 166.625 120.125 153.062 120.125Z" fill="#FFFFFF" transform="matrix(1.00538 0 0 1 2266 4074)"/><path d="M153.062 127.875 166.625 127.875 166.625 135.625 153.062 135.625Z" fill="#FFFFFF" transform="matrix(1.00538 0 0 1 2266 4074)"/><path d="M153.062 96.875 166.625 96.875 166.625 104.625 153.062 104.625Z" fill="#FFFFFF" transform="matrix(1.00538 0 0 1 2266 4074)"/><path d="M153.062 50.375 166.625 50.375 166.625 58.125 153.062 58.125Z" fill="#FFFFFF" transform="matrix(1.00538 0 0 1 2266 4074)"/><path d="M153.062 81.375 166.625 81.375 166.625 89.125 153.062 89.125Z" fill="#FFFFFF" transform="matrix(1.00538 0 0 1 2266 4074)"/><path d="M153.062 65.875 166.625 65.875 166.625 73.625 153.062 73.625Z" fill="#FFFFFF" transform="matrix(1.00538 0 0 1 2266 4074)"/><path d="M96.875 19.375 104.625 19.375 104.625 32.9375 96.875 32.9375Z" fill="#FFFFFF" transform="matrix(1.00538 0 0 1 2266 4074)"/><path d="M127.875 19.375 135.625 19.375 135.625 32.9375 127.875 32.9375Z" fill="#FFFFFF" transform="matrix(1.00538 0 0 1 2266 4074)"/><path d="M112.375 19.375 120.125 19.375 120.125 32.9375 112.375 32.9375Z" fill="#FFFFFF" transform="matrix(1.00538 0 0 1 2266 4074)"/><path d="M81.375 19.375 89.125 19.375 89.125 32.9375 81.375 32.9375Z" fill="#FFFFFF" transform="matrix(1.00538 0 0 1 2266 4074)"/><path d="M50.375 19.375 58.125 19.375 58.125 32.9375 50.375 32.9375Z" fill="#FFFFFF" transform="matrix(1.00538 0 0 1 2266 4074)"/><path d="M65.875 19.375 73.625 19.375 73.625 32.9375 65.875 32.9375Z" fill="#FFFFFF" transform="matrix(1.00538 0 0 1 2266 4074)"/><path d="M65.875 153.062 73.625 153.062 73.625 166.625 65.875 166.625Z" fill="#FFFFFF" transform="matrix(1.00538 0 0 1 2266 4074)"/><path d="M50.375 153.062 58.125 153.062 58.125 166.625 50.375 166.625Z" fill="#FFFFFF" transform="matrix(1.00538 0 0 1 2266 4074)"/><path d="M81.375 153.062 89.125 153.062 89.125 166.625 81.375 166.625Z" fill="#FFFFFF" transform="matrix(1.00538 0 0 1 2266 4074)"/><path d="M96.875 153.062 104.625 153.062 104.625 166.625 96.875 166.625Z" fill="#FFFFFF" transform="matrix(1.00538 0 0 1 2266 4074)"/><path d="M112.375 153.062 120.125 153.062 120.125 166.625 112.375 166.625Z" fill="#FFFFFF" transform="matrix(1.00538 0 0 1 2266 4074)"/><path d="M127.875 153.062 135.625 153.062 135.625 166.625 127.875 166.625Z" fill="#FFFFFF" transform="matrix(1.00538 0 0 1 2266 4074)"/><path d="M67.8125 67.8125 118.187 67.8125 118.187 118.187 67.8125 118.187Z" fill="#FFFFFF" transform="matrix(1.00538 0 0 1 2266 4074)"/><path d="M137.562 40.6875 48.4375 40.6875C44.1574 40.6875 40.6875 44.1574 40.6875 48.4375L40.6875 137.562C40.6875 141.843 44.1574 145.312 48.4375 145.312L137.562 145.312C141.843 145.312 145.312 141.843 145.312 137.562L145.312 48.4375C145.312 44.1574 141.843 40.6875 137.562 40.6875ZM125.937 125.937 60.0625 125.937 60.0625 60.0625 125.937 60.0625Z" fill="#FFFFFF" transform="matrix(1.00538 0 0 1 2266 4074)"/></g></g></g><rect x="2858.5" y="2498.5" width="806" height="351" stroke="#281C2C" stroke-width="4.58333" stroke-miterlimit="8" stroke-dasharray="36.6667 13.75" fill="#7BF5BC" fill-opacity="0.690196"/><text fill="#D9D9D9" font-family="Arial,Arial_MSFontService,sans-serif" font-weight="400" font-size="110" transform="matrix(1 0 0 1 3151.03 2714)">VKP</text><path d="M13.7492-0.146566 14.9217 109.847-12.5767 110.14-13.7492 0.146566ZM15.8011 192.342 16.6098 268.202-10.8886 268.495-11.6973 192.636ZM43.9617 254.159 3.59341 337.094-38.5336 255.039Z" fill="#3C3C3C" transform="matrix(1 0 0 -1 3261 2498.09)"/><path d="M0-13.75 110-13.75 110 13.75 0 13.75ZM192.5-13.75 302.5-13.75 302.5 13.75 192.5 13.75ZM385-13.75 495-13.75 495 13.75 385 13.75ZM577.5-13.75 646.844-13.75 646.844 54.406 619.344 54.406 619.344 0 633.094 13.75 577.5 13.75ZM646.844 136.906 646.844 246.906 619.344 246.906 619.344 136.906ZM646.844 329.406 646.844 439.406 619.344 439.406 619.344 329.406ZM674.344 497.476 633.094 579.976 591.844 497.476Z" fill="#3C3C3C" transform="matrix(1 0 0 -1 2628 3428.98)"/><g clip-path="url(#clip21)"><g clip-path="url(#clip22)"><g clip-path="url(#clip23)"><path d="M114.894 72.2687C106.756 72.2687 100.362 65.6812 100.362 57.7375 100.362 49.7937 106.95 43.2062 114.894 43.2062 123.031 43.2062 129.425 49.7937 129.425 57.7375 129.425 65.6812 122.837 72.2687 114.894 72.2687ZM147.637 48.6312C146.862 45.9187 145.894 43.4 144.537 41.075L147.637 31.9687 140.662 24.9937 131.556 28.0937C129.231 26.7375 126.712 25.7687 124 24.9937L119.737 16.4687 110.05 16.4687 105.787 24.9937C103.075 25.7687 100.556 26.7375 98.2312 28.0937L89.125 24.9937 82.15 31.9687 85.25 41.075C83.8937 43.4 82.925 45.9187 82.15 48.6312L73.625 52.8937 73.625 62.5812 82.15 66.8437C82.925 69.5562 83.8937 72.075 85.25 74.4L82.15 83.5062 88.9312 90.2875 98.0375 87.1875C100.362 88.5437 102.881 89.5125 105.594 90.2875L109.856 98.8125 119.544 98.8125 123.806 90.2875C126.519 89.5125 129.037 88.5437 131.362 87.1875L140.469 90.2875 147.444 83.5062 144.344 74.4C145.7 72.075 146.862 69.3625 147.637 66.8437L156.162 62.5812 156.162 52.8937 147.637 48.6312Z" fill="#FFFFFF" transform="matrix(1.00538 0 0 1 2228 3346)"/><path d="M71.1062 142.794C62.9687 142.794 56.575 136.206 56.575 128.262 56.575 120.125 63.1625 113.731 71.1062 113.731 79.2437 113.731 85.6375 120.319 85.6375 128.262 85.6375 136.206 79.2437 142.794 71.1062 142.794L71.1062 142.794ZM100.75 111.6 103.85 102.494 96.875 95.5187 87.7687 98.6187C85.4437 97.2625 82.7312 96.2937 80.2125 95.5187L75.95 86.9937 66.2625 86.9937 62 95.5187C59.2875 96.2937 56.7687 97.2625 54.4437 98.6187L45.3375 95.5187 38.5562 102.3 41.4625 111.406C40.1062 113.731 39.1375 116.444 38.3625 118.962L29.8375 123.225 29.8375 132.912 38.3625 137.175C39.1375 139.887 40.1062 142.406 41.4625 144.731L38.5562 153.837 45.3375 160.619 54.4437 157.712C56.7687 159.069 59.2875 160.037 62 160.812L66.2625 169.337 75.95 169.337 80.2125 160.812C82.925 160.037 85.4437 159.069 87.7687 157.712L96.875 160.812 103.656 153.837 100.75 144.925C102.106 142.6 103.075 140.081 103.85 137.369L112.375 133.106 112.375 123.419 103.85 119.156C103.075 116.444 102.106 113.925 100.75 111.6Z" fill="#FFFFFF" transform="matrix(1.00538 0 0 1 2228 3346)"/></g></g></g><path d="M18.7398 91.5843 20.1979 420.213-16.4684 420.376-17.9265 91.747ZM-54.5114 110.243 0 0 55.4875 109.755Z" fill="#281C2C" transform="matrix(-1 0 0 1 1954.36 3638.5)"/><g clip-path="url(#clip24)"><g clip-path="url(#clip25)" filter="url(#fx0)" transform="translate(1213 3158)"><g clip-path="url(#clip26)"><rect x="22.2227" y="22.2227" width="1346" height="419" stroke="#004BAA" stroke-width="5" stroke-miterlimit="8" fill="#0169E8"/></g></g><g clip-path="url(#clip27)" filter="url(#fx1)" transform="translate(1507 3270)"><g clip-path="url(#clip28)"><path d="M8.48633 0 8.48633-78.7402 35.6103-78.7402C41.7334-78.7402 46.4062-78.3642 49.6289-77.6123 54.1406-76.5739 57.9899-74.694 61.1768-71.9726 65.3304-68.4635 68.4367-63.9787 70.4956-58.5181 72.5545-53.0574 73.584-46.818 73.584-39.7998 73.584-33.82 72.8857-28.5205 71.4893-23.9014 70.0928-19.2822 68.3024-15.4598 66.1182-12.4341 63.9339-9.40837 61.5438-7.02718 58.9478-5.29053 56.3517-3.55387 53.2186-2.23796 49.5483-1.34277 45.8781-0.447591 41.6618 0 36.8994 0ZM18.9062-9.29199 35.7178-9.29199C40.9098-9.29199 44.9829-9.77539 47.937-10.7422 50.8911-11.709 53.2454-13.0697 55-14.8242 57.4707-17.2949 59.3953-20.616 60.7739-24.7876 62.1525-28.9591 62.8418-34.0169 62.8418-39.9609 62.8418-48.1966 61.4901-54.5255 58.7866-58.9478 56.0832-63.3699 52.7978-66.333 48.9307-67.8369 46.1377-68.9111 41.6439-69.4482 35.4492-69.4482L18.9062-69.4482ZM88.444 0 88.444-78.7402 98.8639-78.7402 98.8639-46.4062 139.792-46.4062 139.792-78.7402 150.212-78.7402 150.212 0 139.792 0 139.792-37.1143 98.8639-37.1143 98.8639 0ZM164.588-38.3496C164.588-51.4193 168.097-61.6512 175.116-69.0454 182.134-76.4396 191.193-80.1367 202.293-80.1367 209.562-80.1367 216.115-78.4001 221.951-74.9268 227.788-71.4534 232.237-66.6105 235.299-60.3979 238.36-54.1854 239.891-47.1403 239.891-39.2627 239.891-31.2777 238.28-24.1341 235.057-17.832 231.834-11.5299 227.269-6.75863 221.361-3.51807 215.452-0.277507 209.079 1.34277 202.24 1.34277 194.827 1.34277 188.203-0.447591 182.367-4.02832 176.53-7.60905 172.108-12.4967 169.1-18.6914 166.092-24.8861 164.588-31.4388 164.588-38.3496ZM175.33-38.1885C175.33-28.6995 177.882-21.2248 182.984-15.7642 188.087-10.3035 194.487-7.57324 202.186-7.57324 210.028-7.57324 216.482-10.3304 221.549-15.8447 226.615-21.359 229.149-29.1829 229.149-39.3164 229.149-45.7259 228.066-51.3208 225.899-56.1011 223.733-60.8813 220.564-64.5874 216.392-67.2192 212.221-69.8511 207.539-71.167 202.347-71.167 194.971-71.167 188.624-68.6336 183.306-63.5669 177.989-58.5002 175.33-50.0407 175.33-38.1885Z" fill="#FFFFFF" transform="matrix(1 0 0 1 85.9103 160)"/><path d="M3.49121-23.6328 3.49121-33.3545 33.1934-33.3545 33.1934-23.6328Z" fill="#FFFFFF" transform="matrix(1 0 0 1 330.546 160)"/><path d="M3.38379-17.0264 12.9443-18.5303C13.4814-14.6989 14.9764-11.7627 17.4292-9.72168 19.882-7.68066 23.3105-6.66016 27.7148-6.66016 32.1549-6.66016 35.4492-7.56429 37.5977-9.37256 39.7461-11.1808 40.8203-13.3024 40.8203-15.7373 40.8203-17.9215 39.8714-19.6403 37.9736-20.8936 36.6488-21.7529 33.3545-22.8451 28.0908-24.1699 21.001-25.9603 16.0864-27.5089 13.3472-28.8159 10.6079-30.1229 8.53109-31.9311 7.1167-34.2407 5.70231-36.5503 4.99512-39.1016 4.99512-41.8945 4.99512-44.4368 5.57699-46.7912 6.74072-48.9575 7.90446-51.1239 9.48893-52.9232 11.4941-54.3555 12.998-55.4655 15.048-56.4054 17.644-57.1753 20.2401-57.9451 23.0241-58.3301 25.9961-58.3301 30.472-58.3301 34.4019-57.6855 37.7856-56.3965 41.1694-55.1074 43.667-53.3618 45.2783-51.1597 46.8896-48.9575 47.9997-46.0124 48.6084-42.3242L39.1553-41.0352C38.7256-43.9714 37.4813-46.263 35.4224-47.9102 33.3634-49.5573 30.4541-50.3809 26.6943-50.3809 22.2542-50.3809 19.0853-49.6468 17.1875-48.1787 15.2897-46.7106 14.3408-44.9919 14.3408-43.0225 14.3408-41.7692 14.7347-40.6413 15.5225-39.6387 16.3102-38.6003 17.5456-37.7409 19.2285-37.0605 20.1953-36.7025 23.042-35.8789 27.7686-34.5898 34.6077-32.7637 39.3791-31.2687 42.0825-30.105 44.786-28.9412 46.9075-27.2493 48.4473-25.0293 49.987-22.8092 50.7568-20.0521 50.7568-16.7578 50.7568-13.5352 49.8169-10.5005 47.937-7.65381 46.0571-4.80713 43.3447-2.60498 39.7998-1.04736 36.2549 0.510254 32.2445 1.28906 27.7686 1.28906 20.3564 1.28906 14.7078-0.250651 10.8228-3.33008 6.93766-6.4095 4.45801-10.9749 3.38379-17.0264ZM61.8213 21.9678 60.7471 12.8906C62.8597 13.4635 64.7038 13.75 66.2793 13.75 68.4277 13.75 70.1465 13.3919 71.4355 12.6758 72.7246 11.9596 73.7809 10.957 74.6045 9.66797 75.2132 8.70117 76.1979 6.30208 77.5586 2.4707 77.7376 1.93359 78.0241 1.14583 78.418 0.107422L56.7725-57.041 67.1924-57.041 79.0625-24.0088C80.6022-19.8193 81.9808-15.415 83.1982-10.7959 84.3083-15.236 85.6331-19.5687 87.1728-23.7939L99.3652-57.041 109.033-57.041 87.334 0.966797C85.0065 7.23307 83.1982 11.5478 81.9092 13.9111 80.1904 17.098 78.221 19.4344 76.001 20.9204 73.7809 22.4064 71.1312 23.1494 68.0518 23.1494 66.1898 23.1494 64.1129 22.7555 61.8213 21.9678ZM113.384-17.0264 122.944-18.5303C123.481-14.6989 124.976-11.7627 127.429-9.72168 129.882-7.68066 133.311-6.66016 137.715-6.66016 142.155-6.66016 145.449-7.56429 147.598-9.37256 149.746-11.1808 150.82-13.3024 150.82-15.7373 150.82-17.9215 149.871-19.6403 147.974-20.8936 146.649-21.7529 143.354-22.8451 138.091-24.1699 131.001-25.9603 126.086-27.5089 123.347-28.8159 120.608-30.1229 118.531-31.9311 117.117-34.2407 115.702-36.5503 114.995-39.1016 114.995-41.8945 114.995-44.4368 115.577-46.7912 116.741-48.9575 117.904-51.1239 119.489-52.9232 121.494-54.3555 122.998-55.4655 125.048-56.4054 127.644-57.1753 130.24-57.9451 133.024-58.3301 135.996-58.3301 140.472-58.3301 144.402-57.6855 147.786-56.3965 151.169-55.1074 153.667-53.3618 155.278-51.1597 156.89-48.9575 158-46.0124 158.608-42.3242L149.155-41.0352C148.726-43.9714 147.481-46.263 145.422-47.9102 143.363-49.5573 140.454-50.3809 136.694-50.3809 132.254-50.3809 129.085-49.6468 127.187-48.1787 125.29-46.7106 124.341-44.9919 124.341-43.0225 124.341-41.7692 124.735-40.6413 125.522-39.6387 126.31-38.6003 127.546-37.7409 129.229-37.0605 130.195-36.7025 133.042-35.8789 137.769-34.5898 144.608-32.7637 149.379-31.2687 152.083-30.105 154.786-28.9412 156.908-27.2493 158.447-25.0293 159.987-22.8092 160.757-20.0521 160.757-16.7578 160.757-13.5352 159.817-10.5005 157.937-7.65381 156.057-4.80713 153.345-2.60498 149.8-1.04736 146.255 0.510254 142.244 1.28906 137.769 1.28906 130.356 1.28906 124.708-0.250651 120.823-3.33008 116.938-6.4095 114.458-10.9749 113.384-17.0264ZM193.359-8.64746 194.756-0.107422C192.034 0.465495 189.6 0.751953 187.451 0.751953 183.942 0.751953 181.221 0.19694 179.287-0.913086 177.353-2.02311 175.993-3.48226 175.205-5.29053 174.417-7.09879 174.023-10.9033 174.023-16.7041L174.023-49.5215 166.934-49.5215 166.934-57.041 174.023-57.041 174.023-71.167 183.638-76.9678 183.638-57.041 193.359-57.041 193.359-49.5215 183.638-49.5215 183.638-16.167C183.638-13.4098 183.808-11.6374 184.148-10.8496 184.488-10.0618 185.043-9.43522 185.813-8.96973 186.583-8.50423 187.684-8.27148 189.116-8.27148 190.19-8.27148 191.605-8.39681 193.359-8.64746ZM241.663-18.3691 251.654-17.1338C250.078-11.2972 247.16-6.76758 242.899-3.54492 238.638-0.322266 233.195 1.28906 226.571 1.28906 218.228 1.28906 211.612-1.28011 206.724-6.41846 201.837-11.5568 199.393-18.763 199.393-28.0371 199.393-37.6335 201.864-45.0814 206.805-50.3809 211.746-55.6803 218.156-58.3301 226.034-58.3301 233.66-58.3301 239.891-55.734 244.725-50.542 249.559-45.3499 251.976-38.0452 251.976-28.6279 251.976-28.055 251.958-27.1956 251.922-26.0498L209.383-26.0498C209.741-19.7835 211.514-14.9853 214.701-11.6553 217.887-8.32519 221.862-6.66016 226.624-6.66016 230.169-6.66016 233.195-7.59115 235.701-9.45312 238.208-11.3151 240.195-14.2871 241.663-18.3691ZM209.92-33.999 241.771-33.999C241.341-38.7972 240.124-42.3958 238.118-44.7949 235.039-48.5189 231.047-50.3809 226.141-50.3809 221.701-50.3809 217.968-48.8949 214.942-45.9228 211.916-42.9508 210.242-38.9762 209.92-33.999ZM263.918 0 263.918-57.041 272.565-57.041 272.565-49.0381C274.355-51.831 276.737-54.078 279.709-55.7788 282.681-57.4797 286.064-58.3301 289.86-58.3301 294.085-58.3301 297.55-57.4528 300.253-55.6982 302.957-53.9437 304.863-51.4909 305.973-48.3398 310.485-55 316.357-58.3301 323.59-58.3301 329.248-58.3301 333.599-56.7635 336.642-53.6304 339.686-50.4972 341.208-45.6722 341.208-39.1553L341.208 0 331.593 0 331.593-35.9326C331.593-39.7998 331.28-42.5838 330.653-44.2847 330.027-45.9855 328.89-47.3551 327.243-48.3936 325.596-49.432 323.662-49.9512 321.442-49.9512 317.432-49.9512 314.102-48.6173 311.452-45.9497 308.802-43.2821 307.477-39.012 307.477-33.1396L307.477 0 297.809 0 297.809-37.0605C297.809-41.3574 297.021-44.5801 295.446-46.7285 293.87-48.8769 291.292-49.9512 287.712-49.9512 284.99-49.9512 282.475-49.235 280.165-47.8027 277.856-46.3704 276.182-44.2757 275.143-41.5186 274.105-38.7614 273.586-34.7868 273.586-29.5947L273.586 0Z" fill="#FFFFFF" transform="matrix(1 0 0 1 367.212 160)"/></g></g></g><rect x="1225.5" y="3170.5" width="1346" height="419" stroke="#004BAA" stroke-width="4.58333" stroke-miterlimit="8" fill="#0169E8"/><text fill="#FFFFFF" font-family="Arial,Arial_MSFontService,sans-serif" font-weight="400" font-size="110" transform="matrix(1 0 0 1 1583.19 3420)">DHO<tspan font-size="110" x="244.636" y="0">-</tspan><tspan font-size="110" x="281.302" y="0">system</tspan></text><g clip-path="url(#clip29)"><g clip-path="url(#clip30)" filter="url(#fx2)" transform="translate(1280 2424)"><g clip-path="url(#clip31)"><rect x="22.2228" y="22.2227" width="1349" height="477" stroke="#004BAA" stroke-width="5" stroke-miterlimit="8" fill="#0169E8"/></g></g><g clip-path="url(#clip32)" filter="url(#fx3)" transform="translate(1789 2565)"><g clip-path="url(#clip33)"><path d="M8.70117 0 8.70117-78.7402 65.6348-78.7402 65.6348-69.4482 19.1211-69.4482 19.1211-45.332 62.6807-45.332 62.6807-36.0937 19.1211-36.0937 19.1211-9.29199 67.4609-9.29199 67.4609 0ZM81.8197 0 81.8197-78.7402 111.522-78.7402C116.75-78.7402 120.742-78.4896 123.499-77.9883 127.367-77.3437 130.607-76.1173 133.221-74.3091 135.835-72.5008 137.939-69.9674 139.532-66.709 141.125-63.4505 141.922-59.8698 141.922-55.9668 141.922-49.2708 139.792-43.6043 135.531-38.9673 131.27-34.3302 123.571-32.0117 112.435-32.0117L92.2396-32.0117 92.2396 0ZM92.2396-41.3037 112.596-41.3037C119.328-41.3037 124.108-42.557 126.937-45.0635 129.766-47.57 131.18-51.097 131.18-55.6445 131.18-58.9388 130.347-61.7586 128.682-64.104 127.017-66.4494 124.824-67.998 122.103-68.75 120.348-69.2155 117.108-69.4482 112.381-69.4482L92.2396-69.4482ZM149.836-22.3437 159.235-23.6328C159.486-17.6172 160.614-13.4993 162.619-11.2793 164.624-9.05924 167.399-7.94922 170.944-7.94922 173.558-7.94922 175.814-8.54899 177.712-9.74853 179.609-10.9481 180.916-12.5773 181.632-14.6362 182.349-16.6951 182.707-19.9805 182.707-24.4922L182.707-78.7402 193.127-78.7402 193.127-25.083C193.127-18.4945 192.33-13.3919 190.736-9.77539 189.143-6.15885 186.619-3.40169 183.163-1.50391 179.708 0.39388 175.653 1.34277 170.998 1.34277 164.087 1.34277 158.796-0.644531 155.126-4.61914 151.456-8.59375 149.692-14.502 149.836-22.3437Z" fill="#FFFFFF" transform="matrix(1 0 0 1 86.0494 160)"/></g></g></g><rect x="1292.5" y="2436.5" width="1349" height="477" stroke="#004BAA" stroke-width="4.58333" stroke-miterlimit="8" fill="#0169E8"/><text fill="#FFFFFF" font-family="Arial,Arial_MSFontService,sans-serif" font-weight="400" font-size="110" transform="matrix(1 0 0 1 1865.33 2716)">EPJ</text><g clip-path="url(#clip34)"><g clip-path="url(#clip35)"><g clip-path="url(#clip36)"><path d="M111.187 69.9374C103.312 69.9374 97.1249 63.5624 97.1249 55.8749 97.1249 48.1874 103.5 41.8124 111.187 41.8124 119.062 41.8124 125.25 48.1874 125.25 55.8749 125.25 63.5624 118.875 69.9374 111.187 69.9374ZM142.875 47.0624C142.125 44.4374 141.187 41.9999 139.875 39.75L142.875 30.9375 136.125 24.1875 127.312 27.1875C125.062 25.875 122.625 24.9375 120 24.1875L115.875 15.9375 106.5 15.9375 102.375 24.1875C99.7499 24.9375 97.3124 25.875 95.0624 27.1875L86.2499 24.1875 79.4999 30.9375 82.4999 39.75C81.1874 41.9999 80.2499 44.4374 79.4999 47.0624L71.2499 51.1874 71.2499 60.5624 79.4999 64.6874C80.2499 67.3124 81.1874 69.7499 82.4999 71.9999L79.4999 80.8124 86.0624 87.3749 94.8749 84.3749C97.1249 85.6874 99.5624 86.6249 102.187 87.3749L106.312 95.6249 115.687 95.6249 119.812 87.3749C122.437 86.6249 124.875 85.6874 127.125 84.3749L135.937 87.3749 142.687 80.8124 139.687 71.9999C141 69.7499 142.125 67.1249 142.875 64.6874L151.125 60.5624 151.125 51.1874 142.875 47.0624Z" fill="#FFFFFF" transform="matrix(1 0 0 1.03889 1400 2568)"/><path d="M68.8124 138.187C60.9374 138.187 54.7499 131.812 54.7499 124.125 54.7499 116.25 61.1249 110.062 68.8124 110.062 76.6874 110.062 82.8749 116.437 82.8749 124.125 82.8749 131.812 76.6874 138.187 68.8124 138.187L68.8124 138.187ZM97.4999 108 100.5 99.1874 93.7499 92.4374 84.9374 95.4374C82.6874 94.1249 80.0624 93.1874 77.6249 92.4374L73.4999 84.1874 64.1249 84.1874 59.9999 92.4374C57.3749 93.1874 54.9374 94.1249 52.6874 95.4374L43.8749 92.4374 37.3125 98.9999 40.1249 107.812C38.8125 110.062 37.875 112.687 37.125 115.125L28.875 119.25 28.875 128.625 37.125 132.75C37.875 135.375 38.8125 137.812 40.1249 140.062L37.3125 148.875 43.8749 155.437 52.6874 152.625C54.9374 153.937 57.3749 154.875 59.9999 155.625L64.1249 163.875 73.4999 163.875 77.6249 155.625C80.2499 154.875 82.6874 153.937 84.9374 152.625L93.7499 155.625 100.312 148.875 97.4999 140.25C98.8124 138 99.7499 135.562 100.5 132.937L108.75 128.812 108.75 119.437 100.5 115.312C99.7499 112.687 98.8124 110.25 97.4999 108Z" fill="#FFFFFF" transform="matrix(1 0 0 1.03889 1400 2568)"/></g></g></g><rect x="2134.5" y="2436.5" width="507" height="469" stroke="#0169E8" stroke-width="4.58333" stroke-miterlimit="8" fill="#0169E8"/><text fill="#FFFFFF" font-family="Arial,Arial_MSFontService,sans-serif" font-weight="400" font-size="83" transform="matrix(1 0 0 1 2229.74 2701)">Målinger</text><g clip-path="url(#clip37)"><g clip-path="url(#clip38)" filter="url(#fx4)" transform="translate(1267 3207)"><g clip-path="url(#clip39)"><rect x="22.2227" y="22.2229" width="1349" height="419" stroke="#004BAA" stroke-width="5" stroke-miterlimit="8" fill="#0169E8"/></g></g><g clip-path="url(#clip40)" filter="url(#fx5)" transform="translate(1703 3253)"><g clip-path="url(#clip41)"><path d="M8.48633 0 8.48633-78.7402 35.6103-78.7402C41.7334-78.7402 46.4062-78.3642 49.6289-77.6123 54.1406-76.5739 57.9899-74.694 61.1768-71.9726 65.3304-68.4635 68.4367-63.9787 70.4956-58.5181 72.5545-53.0574 73.584-46.818 73.584-39.7998 73.584-33.82 72.8857-28.5205 71.4893-23.9014 70.0928-19.2822 68.3024-15.4598 66.1182-12.4341 63.9339-9.40837 61.5438-7.02718 58.9478-5.29053 56.3517-3.55387 53.2186-2.23796 49.5483-1.34277 45.8781-0.447591 41.6618 0 36.8994 0ZM18.9062-9.29199 35.7178-9.29199C40.9098-9.29199 44.9829-9.77539 47.937-10.7422 50.8911-11.709 53.2454-13.0697 55-14.8242 57.4707-17.2949 59.3953-20.616 60.7739-24.7876 62.1525-28.9591 62.8418-34.0169 62.8418-39.9609 62.8418-48.1966 61.4901-54.5255 58.7866-58.9478 56.0832-63.3699 52.7978-66.333 48.9307-67.8369 46.1377-68.9111 41.6439-69.4482 35.4492-69.4482L18.9062-69.4482ZM88.444 0 88.444-78.7402 98.8639-78.7402 98.8639-46.4062 139.792-46.4062 139.792-78.7402 150.212-78.7402 150.212 0 139.792 0 139.792-37.1143 98.8639-37.1143 98.8639 0ZM164.588-38.3496C164.588-51.4193 168.097-61.6512 175.116-69.0454 182.134-76.4396 191.193-80.1367 202.293-80.1367 209.562-80.1367 216.115-78.4001 221.951-74.9268 227.788-71.4534 232.237-66.6105 235.299-60.3979 238.36-54.1854 239.891-47.1403 239.891-39.2627 239.891-31.2777 238.28-24.1341 235.057-17.832 231.834-11.5299 227.269-6.75863 221.361-3.51807 215.452-0.277507 209.079 1.34277 202.24 1.34277 194.827 1.34277 188.203-0.447591 182.367-4.02832 176.53-7.60905 172.108-12.4967 169.1-18.6914 166.092-24.8861 164.588-31.4388 164.588-38.3496ZM175.33-38.1885C175.33-28.6995 177.882-21.2248 182.984-15.7642 188.087-10.3035 194.487-7.57324 202.186-7.57324 210.028-7.57324 216.482-10.3304 221.549-15.8447 226.615-21.359 229.149-29.1829 229.149-39.3164 229.149-45.7259 228.066-51.3208 225.899-56.1011 223.733-60.8813 220.564-64.5874 216.392-67.2192 212.221-69.8511 207.539-71.167 202.347-71.167 194.971-71.167 188.624-68.6336 183.306-63.5669 177.989-58.5002 175.33-50.0407 175.33-38.1885Z" fill="#FFFFFF" transform="matrix(1 0 0 1 137.964 160)"/><path d="M3.38379-17.0264 12.9443-18.5303C13.4814-14.6989 14.9764-11.7627 17.4292-9.72168 19.882-7.68066 23.3105-6.66016 27.7148-6.66016 32.1549-6.66016 35.4492-7.56429 37.5977-9.37256 39.7461-11.1808 40.8203-13.3024 40.8203-15.7373 40.8203-17.9215 39.8714-19.6403 37.9736-20.8936 36.6488-21.7529 33.3545-22.8451 28.0908-24.1699 21.001-25.9603 16.0864-27.5089 13.3472-28.8159 10.6079-30.1229 8.53109-31.9311 7.1167-34.2407 5.70231-36.5503 4.99512-39.1016 4.99512-41.8945 4.99512-44.4368 5.57699-46.7912 6.74072-48.9575 7.90446-51.1239 9.48893-52.9232 11.4941-54.3555 12.998-55.4655 15.048-56.4054 17.644-57.1753 20.2401-57.9451 23.0241-58.3301 25.9961-58.3301 30.472-58.3301 34.4019-57.6855 37.7856-56.3965 41.1694-55.1074 43.667-53.3618 45.2783-51.1597 46.8896-48.9575 47.9997-46.0124 48.6084-42.3242L39.1553-41.0352C38.7256-43.9714 37.4813-46.263 35.4224-47.9102 33.3634-49.5573 30.4541-50.3809 26.6943-50.3809 22.2542-50.3809 19.0853-49.6468 17.1875-48.1787 15.2897-46.7106 14.3408-44.9919 14.3408-43.0225 14.3408-41.7692 14.7347-40.6413 15.5225-39.6387 16.3102-38.6003 17.5456-37.7409 19.2285-37.0605 20.1953-36.7025 23.042-35.8789 27.7686-34.5898 34.6077-32.7637 39.3791-31.2687 42.0825-30.105 44.786-28.9412 46.9075-27.2493 48.4473-25.0293 49.987-22.8092 50.7568-20.0521 50.7568-16.7578 50.7568-13.5352 49.8169-10.5005 47.937-7.65381 46.0571-4.80713 43.3447-2.60498 39.7998-1.04736 36.2549 0.510254 32.2445 1.28906 27.7686 1.28906 20.3564 1.28906 14.7078-0.250651 10.8228-3.33008 6.93766-6.4095 4.45801-10.9749 3.38379-17.0264ZM61.8213 21.9678 60.7471 12.8906C62.8597 13.4635 64.7038 13.75 66.2793 13.75 68.4277 13.75 70.1465 13.3919 71.4355 12.6758 72.7246 11.9596 73.7809 10.957 74.6045 9.66797 75.2132 8.70117 76.1979 6.30208 77.5586 2.4707 77.7376 1.93359 78.0241 1.14583 78.418 0.107422L56.7725-57.041 67.1924-57.041 79.0625-24.0088C80.6022-19.8193 81.9808-15.415 83.1982-10.7959 84.3083-15.236 85.6331-19.5687 87.1728-23.7939L99.3652-57.041 109.033-57.041 87.334 0.966797C85.0065 7.23307 83.1982 11.5478 81.9092 13.9111 80.1904 17.098 78.221 19.4344 76.001 20.9204 73.7809 22.4064 71.1312 23.1494 68.0518 23.1494 66.1898 23.1494 64.1129 22.7555 61.8213 21.9678ZM113.384-17.0264 122.944-18.5303C123.481-14.6989 124.976-11.7627 127.429-9.72168 129.882-7.68066 133.311-6.66016 137.715-6.66016 142.155-6.66016 145.449-7.56429 147.598-9.37256 149.746-11.1808 150.82-13.3024 150.82-15.7373 150.82-17.9215 149.871-19.6403 147.974-20.8936 146.649-21.7529 143.354-22.8451 138.091-24.1699 131.001-25.9603 126.086-27.5089 123.347-28.8159 120.608-30.1229 118.531-31.9311 117.117-34.2407 115.702-36.5503 114.995-39.1016 114.995-41.8945 114.995-44.4368 115.577-46.7912 116.741-48.9575 117.904-51.1239 119.489-52.9232 121.494-54.3555 122.998-55.4655 125.048-56.4054 127.644-57.1753 130.24-57.9451 133.024-58.3301 135.996-58.3301 140.472-58.3301 144.402-57.6855 147.786-56.3965 151.169-55.1074 153.667-53.3618 155.278-51.1597 156.89-48.9575 158-46.0124 158.608-42.3242L149.155-41.0352C148.726-43.9714 147.481-46.263 145.422-47.9102 143.363-49.5573 140.454-50.3809 136.694-50.3809 132.254-50.3809 129.085-49.6468 127.187-48.1787 125.29-46.7106 124.341-44.9919 124.341-43.0225 124.341-41.7692 124.735-40.6413 125.522-39.6387 126.31-38.6003 127.546-37.7409 129.229-37.0605 130.195-36.7025 133.042-35.8789 137.769-34.5898 144.608-32.7637 149.379-31.2687 152.083-30.105 154.786-28.9412 156.908-27.2493 158.447-25.0293 159.987-22.8092 160.757-20.0521 160.757-16.7578 160.757-13.5352 159.817-10.5005 157.937-7.65381 156.057-4.80713 153.345-2.60498 149.8-1.04736 146.255 0.510254 142.244 1.28906 137.769 1.28906 130.356 1.28906 124.708-0.250651 120.823-3.33008 116.938-6.4095 114.458-10.9749 113.384-17.0264ZM193.359-8.64746 194.756-0.107422C192.034 0.465495 189.6 0.751953 187.451 0.751953 183.942 0.751953 181.221 0.19694 179.287-0.913086 177.353-2.02311 175.993-3.48226 175.205-5.29053 174.417-7.09879 174.023-10.9033 174.023-16.7041L174.023-49.5215 166.934-49.5215 166.934-57.041 174.023-57.041 174.023-71.167 183.638-76.9678 183.638-57.041 193.359-57.041 193.359-49.5215 183.638-49.5215 183.638-16.167C183.638-13.4098 183.808-11.6374 184.148-10.8496 184.488-10.0618 185.043-9.43522 185.813-8.96973 186.583-8.50423 187.684-8.27148 189.116-8.27148 190.19-8.27148 191.605-8.39681 193.359-8.64746ZM241.663-18.3691 251.654-17.1338C250.078-11.2972 247.16-6.76758 242.899-3.54492 238.638-0.322266 233.195 1.28906 226.571 1.28906 218.228 1.28906 211.612-1.28011 206.724-6.41846 201.837-11.5568 199.393-18.763 199.393-28.0371 199.393-37.6335 201.864-45.0814 206.805-50.3809 211.746-55.6803 218.156-58.3301 226.034-58.3301 233.66-58.3301 239.891-55.734 244.725-50.542 249.559-45.3499 251.976-38.0452 251.976-28.6279 251.976-28.055 251.958-27.1956 251.922-26.0498L209.383-26.0498C209.741-19.7835 211.514-14.9853 214.701-11.6553 217.887-8.32519 221.862-6.66016 226.624-6.66016 230.169-6.66016 233.195-7.59115 235.701-9.45312 238.208-11.3151 240.195-14.2871 241.663-18.3691ZM209.92-33.999 241.771-33.999C241.341-38.7972 240.124-42.3958 238.118-44.7949 235.039-48.5189 231.047-50.3809 226.141-50.3809 221.701-50.3809 217.968-48.8949 214.942-45.9228 211.916-42.9508 210.242-38.9762 209.92-33.999ZM263.918 0 263.918-57.041 272.565-57.041 272.565-49.0381C274.355-51.831 276.737-54.078 279.709-55.7788 282.681-57.4797 286.064-58.3301 289.86-58.3301 294.085-58.3301 297.55-57.4528 300.253-55.6982 302.957-53.9437 304.863-51.4909 305.973-48.3398 310.485-55 316.357-58.3301 323.59-58.3301 329.248-58.3301 333.599-56.7635 336.642-53.6304 339.686-50.4972 341.208-45.6722 341.208-39.1553L341.208 0 331.593 0 331.593-35.9326C331.593-39.7998 331.28-42.5838 330.653-44.2847 330.027-45.9855 328.89-47.3551 327.243-48.3936 325.596-49.432 323.662-49.9512 321.442-49.9512 317.432-49.9512 314.102-48.6173 311.452-45.9497 308.802-43.2821 307.477-39.012 307.477-33.1396L307.477 0 297.809 0 297.809-37.0605C297.809-41.3574 297.021-44.5801 295.446-46.7285 293.87-48.8769 291.292-49.9512 287.712-49.9512 284.99-49.9512 282.475-49.235 280.165-47.8027 277.856-46.3704 276.182-44.2757 275.143-41.5186 274.105-38.7614 273.586-34.7868 273.586-29.5947L273.586 0Z" fill="#FFFFFF" transform="matrix(1 0 0 1 86.1267 292)"/></g></g></g><rect x="1279.5" y="3219.5" width="1349" height="419" stroke="#004BAA" stroke-width="4.58333" stroke-miterlimit="8" fill="#0169E8"/><text fill="#FFFFFF" font-family="Arial,Arial_MSFontService,sans-serif" font-weight="400" font-size="110" transform="matrix(1 0 0 1 1831.24 3403)">DHO <tspan font-size="110" x="-51.8374" y="132">system</tspan></text><rect x="2159.5" y="3221.5" width="465" height="415" stroke="#0169E8" stroke-width="4.58333" stroke-miterlimit="8" fill="#0169E8"/><text fill="#FFFFFF" font-family="Arial,Arial_MSFontService,sans-serif" font-weight="400" font-size="83" transform="matrix(1 0 0 1 2233.33 3459)">Målinger</text><g clip-path="url(#clip42)"><g clip-path="url(#clip43)"><g clip-path="url(#clip44)"><path d="M114.894 72.2687C106.756 72.2687 100.362 65.6812 100.362 57.7375 100.362 49.7937 106.95 43.2062 114.894 43.2062 123.031 43.2062 129.425 49.7937 129.425 57.7375 129.425 65.6812 122.837 72.2687 114.894 72.2687ZM147.637 48.6312C146.862 45.9187 145.894 43.4 144.537 41.075L147.637 31.9687 140.662 24.9937 131.556 28.0937C129.231 26.7375 126.712 25.7687 124 24.9937L119.737 16.4687 110.05 16.4687 105.787 24.9937C103.075 25.7687 100.556 26.7375 98.2312 28.0937L89.125 24.9937 82.15 31.9687 85.25 41.075C83.8937 43.4 82.925 45.9187 82.15 48.6312L73.625 52.8937 73.625 62.5812 82.15 66.8437C82.925 69.5562 83.8937 72.075 85.25 74.4L82.15 83.5062 88.9312 90.2875 98.0375 87.1875C100.362 88.5437 102.881 89.5125 105.594 90.2875L109.856 98.8125 119.544 98.8125 123.806 90.2875C126.519 89.5125 129.037 88.5437 131.362 87.1875L140.469 90.2875 147.444 83.5062 144.344 74.4C145.7 72.075 146.862 69.3625 147.637 66.8437L156.162 62.5812 156.162 52.8937 147.637 48.6312Z" fill="#FFFFFF" transform="matrix(1.00538 0 0 1 1393 3332)"/><path d="M71.1062 142.794C62.9687 142.794 56.575 136.206 56.575 128.262 56.575 120.125 63.1625 113.731 71.1062 113.731 79.2437 113.731 85.6375 120.319 85.6375 128.262 85.6375 136.206 79.2437 142.794 71.1062 142.794L71.1062 142.794ZM100.75 111.6 103.85 102.494 96.875 95.5187 87.7687 98.6187C85.4437 97.2625 82.7312 96.2937 80.2125 95.5187L75.95 86.9937 66.2625 86.9937 62 95.5187C59.2875 96.2937 56.7687 97.2625 54.4437 98.6187L45.3375 95.5187 38.5562 102.3 41.4625 111.406C40.1062 113.731 39.1375 116.444 38.3625 118.962L29.8375 123.225 29.8375 132.912 38.3625 137.175C39.1375 139.887 40.1062 142.406 41.4625 144.731L38.5562 153.837 45.3375 160.619 54.4437 157.712C56.7687 159.069 59.2875 160.037 62 160.812L66.2625 169.337 75.95 169.337 80.2125 160.812C82.925 160.037 85.4437 159.069 87.7687 157.712L96.875 160.812 103.656 153.837 100.75 144.925C102.106 142.6 103.075 140.081 103.85 137.369L112.375 133.106 112.375 123.419 103.85 119.156C103.075 116.444 102.106 113.925 100.75 111.6Z" fill="#FFFFFF" transform="matrix(1.00538 0 0 1 1393 3332)"/></g></g></g><rect x="2164.5" y="1673.5" width="1500" height="477" stroke="#1A111D" stroke-width="4.58333" stroke-miterlimit="8" fill="#281C2C"/><text fill="#FFFFFF" font-family="Arial,Arial_MSFontService,sans-serif" font-weight="400" font-size="110" transform="matrix(1 0 0 1 2605.09 1806)">Datadelings-<tspan font-size="110" x="116.577" y="132">tjeneste</tspan></text><g clip-path="url(#clip45)"><g clip-path="url(#clip46)"><g clip-path="url(#clip47)"><path d="M73.125 47.5313 36.5625 69.7125 117 118.463 153.563 96.2813Z" fill="#281C2C" transform="matrix(1.10256 0 0 1 3370 1795)"/><path d="M197.438 69.7125 117 20.9625 82.3875 41.925 162.825 90.675Z" fill="#281C2C" transform="matrix(1.10256 0 0 1 3370 1795)"/><path d="M36.5625 89.2125 36.5625 167.213 112.125 213.038 112.125 126.994 36.5625 81.1688Z" fill="#281C2C" transform="matrix(1.10256 0 0 1 3370 1795)"/><path d="M148.688 140.4 131.625 150.15 131.625 133.088 148.688 123.338 148.688 140.4ZM121.875 126.994 121.875 213.038 197.438 167.213 197.438 81.1688 121.875 126.994Z" fill="#281C2C" transform="matrix(1.10256 0 0 1 3370 1795)"/></g></g></g><rect x="4865.5" y="1673.5" width="1345" height="477" stroke="#004BAA" stroke-width="4.58333" stroke-miterlimit="8" fill="#0169E8"/><text fill="#FFFFFF" font-family="Arial,Arial_MSFontService,sans-serif" font-weight="400" font-size="110" transform="matrix(1 0 0 1 5228.28 1887)">Datadelings<tspan font-size="110" x="582.084" y="0">-</tspan><tspan font-size="110" x="116.577" y="132">tjeneste</tspan></text><g clip-path="url(#clip48)"><g clip-path="url(#clip49)"><g clip-path="url(#clip50)"><path d="M73.125 47.5313 36.5625 69.7125 117 118.463 153.563 96.2813Z" fill="#FFFFFF" transform="matrix(1.10256 0 0 1 5919 1792)"/><path d="M197.438 69.7125 117 20.9625 82.3875 41.925 162.825 90.675Z" fill="#FFFFFF" transform="matrix(1.10256 0 0 1 5919 1792)"/><path d="M36.5625 89.2125 36.5625 167.213 112.125 213.038 112.125 126.994 36.5625 81.1688Z" fill="#FFFFFF" transform="matrix(1.10256 0 0 1 5919 1792)"/><path d="M148.688 140.4 131.625 150.15 131.625 133.088 148.688 123.338 148.688 140.4ZM121.875 126.994 121.875 213.038 197.438 167.213 197.438 81.1688 121.875 126.994Z" fill="#FFFFFF" transform="matrix(1.10256 0 0 1 5919 1792)"/></g></g></g><g clip-path="url(#clip51)"><g clip-path="url(#clip52)" filter="url(#fx6)" transform="translate(4852 2213)"><g clip-path="url(#clip53)"><rect x="22.2227" y="22.2227" width="1346" height="478" stroke="#004BAA" stroke-width="5" stroke-miterlimit="8" fill="#0169E8"/></g></g><g clip-path="url(#clip54)" filter="url(#fx7)" transform="translate(5360 2355)"><g clip-path="url(#clip55)"><path d="M8.70117 0 8.70117-78.7402 65.6348-78.7402 65.6348-69.4482 19.1211-69.4482 19.1211-45.332 62.6807-45.332 62.6807-36.0937 19.1211-36.0937 19.1211-9.29199 67.4609-9.29199 67.4609 0ZM81.8197 0 81.8197-78.7402 111.522-78.7402C116.75-78.7402 120.742-78.4896 123.499-77.9883 127.367-77.3437 130.607-76.1173 133.221-74.3091 135.835-72.5008 137.939-69.9674 139.532-66.709 141.125-63.4505 141.922-59.8698 141.922-55.9668 141.922-49.2708 139.792-43.6043 135.531-38.9673 131.27-34.3302 123.571-32.0117 112.435-32.0117L92.2396-32.0117 92.2396 0ZM92.2396-41.3037 112.596-41.3037C119.328-41.3037 124.108-42.557 126.937-45.0635 129.766-47.57 131.18-51.097 131.18-55.6445 131.18-58.9388 130.347-61.7586 128.682-64.104 127.017-66.4494 124.824-67.998 122.103-68.75 120.348-69.2155 117.108-69.4482 112.381-69.4482L92.2396-69.4482ZM149.836-22.3437 159.235-23.6328C159.486-17.6172 160.614-13.4993 162.619-11.2793 164.624-9.05924 167.399-7.94922 170.944-7.94922 173.558-7.94922 175.814-8.54899 177.712-9.74853 179.609-10.9481 180.916-12.5773 181.632-14.6362 182.349-16.6951 182.707-19.9805 182.707-24.4922L182.707-78.7402 193.127-78.7402 193.127-25.083C193.127-18.4945 192.33-13.3919 190.736-9.77539 189.143-6.15885 186.619-3.40169 183.163-1.50391 179.708 0.39388 175.653 1.34277 170.998 1.34277 164.087 1.34277 158.796-0.644531 155.126-4.61914 151.456-8.59375 149.692-14.502 149.836-22.3437Z" fill="#FFFFFF" transform="matrix(1 0 0 1 85.8638 160)"/></g></g></g><rect x="4864.5" y="2225.5" width="1346" height="478" stroke="#004BAA" stroke-width="4.58333" stroke-miterlimit="8" fill="#0169E8"/><text fill="#FFFFFF" font-family="Arial,Arial_MSFontService,sans-serif" font-weight="400" font-size="110" transform="matrix(1 0 0 1 5436.14 2505)">EPJ</text><g clip-path="url(#clip56)"><g clip-path="url(#clip57)"><g clip-path="url(#clip58)"><path d="M111.188 69.9375C103.313 69.9375 97.1251 63.5625 97.1251 55.875 97.1251 48.1875 103.5 41.8125 111.188 41.8125 119.063 41.8125 125.25 48.1875 125.25 55.875 125.25 63.5625 118.875 69.9375 111.188 69.9375ZM142.875 47.0625C142.125 44.4375 141.188 42 139.875 39.75L142.875 30.9375 136.125 24.1875 127.313 27.1875C125.063 25.875 122.625 24.9375 120 24.1875L115.875 15.9375 106.5 15.9375 102.375 24.1875C99.7501 24.9375 97.3126 25.875 95.0626 27.1875L86.2501 24.1875 79.5001 30.9375 82.5001 39.75C81.1876 42 80.2501 44.4375 79.5001 47.0625L71.2501 51.1875 71.2501 60.5625 79.5001 64.6875C80.2501 67.3126 81.1876 69.7501 82.5001 72.0001L79.5001 80.8126 86.0626 87.3751 94.8751 84.3751C97.1251 85.6876 99.5626 86.6251 102.188 87.3751L106.313 95.6251 115.688 95.6251 119.813 87.3751C122.438 86.6251 124.875 85.6876 127.125 84.3751L135.938 87.3751 142.688 80.8126 139.688 72.0001C141 69.7501 142.125 67.125 142.875 64.6875L151.125 60.5625 151.125 51.1875 142.875 47.0625Z" fill="#FFFFFF" transform="matrix(1 0 0 1.03333 5957 2366)"/><path d="M68.8125 138.188C60.9375 138.188 54.75 131.813 54.75 124.125 54.75 116.25 61.125 110.063 68.8125 110.063 76.6876 110.063 82.8751 116.438 82.8751 124.125 82.8751 131.813 76.6876 138.188 68.8125 138.188L68.8125 138.188ZM97.5001 108 100.5 99.1876 93.7501 92.4376 84.9376 95.4376C82.6876 94.1251 80.0626 93.1876 77.6251 92.4376L73.5001 84.1876 64.125 84.1876 60 92.4376C57.375 93.1876 54.9375 94.1251 52.6875 95.4376L43.875 92.4376 37.3125 99.0001 40.125 107.813C38.8125 110.063 37.875 112.688 37.125 115.125L28.875 119.25 28.875 128.625 37.125 132.75C37.875 135.375 38.8125 137.813 40.125 140.063L37.3125 148.875 43.875 155.438 52.6875 152.625C54.9375 153.938 57.375 154.875 60 155.625L64.125 163.875 73.5001 163.875 77.6251 155.625C80.2501 154.875 82.6876 153.938 84.9376 152.625L93.7501 155.625 100.313 148.875 97.5001 140.25C98.8126 138 99.7501 135.563 100.5 132.938L108.75 128.813 108.75 119.438 100.5 115.313C99.7501 112.688 98.8126 110.25 97.5001 108Z" fill="#FFFFFF" transform="matrix(1 0 0 1.03333 5957 2366)"/></g></g></g><rect x="4867" y="2232" width="507" height="469" fill="#0169E8"/><text fill="#FFFFFF" font-family="Arial,Arial_MSFontService,sans-serif" font-weight="400" font-size="83" transform="matrix(1 0 0 1 4962.18 2497)">Målinger</text><path d="M91.6661-18.3333 128.333-18.3333 128.333 18.3334 91.6661 18.3334ZM164.999-18.3333 201.666-18.3333 201.666 18.3334 164.999 18.3334ZM238.333-18.3332 274.999-18.3332 274.999 18.3334 238.333 18.3334ZM311.666-18.3332 348.333-18.3332 348.333 18.3335 311.666 18.3335ZM384.999-18.3332 421.666-18.3332 421.666 18.3335 384.999 18.3335ZM458.333-18.3332 494.999-18.3331 494.999 18.3335 458.333 18.3335ZM531.666-18.3331 568.333-18.3331 568.333 18.3336 531.666 18.3335ZM604.999-18.3331 641.666-18.3331 641.666 18.3336 604.999 18.3336ZM678.333-18.3331 714.999-18.333 714.999 18.3336 678.333 18.3336ZM751.666-18.333 788.333-18.333 788.333 18.3336 751.666 18.3336ZM824.999-18.333 861.666-18.333 861.666 18.3337 824.999 18.3337ZM898.333-18.333 905.091-18.333 905.091 18.3337 898.333 18.3337ZM110 55 0 0 110-55Z" fill="#281C2C" transform="matrix(-1 0 0 1 4671.59 1912.5)"/><path d="M91.6661-18.3333 128.333-18.3333 128.333 18.3334 91.6661 18.3334ZM164.999-18.3333 201.666-18.3333 201.666 18.3334 164.999 18.3334ZM238.333-18.3332 274.999-18.3332 274.999 18.3334 238.333 18.3334ZM311.666-18.3332 348.333-18.3332 348.333 18.3335 311.666 18.3335ZM384.999-18.3332 421.666-18.3332 421.666 18.3335 384.999 18.3335ZM458.333-18.3332 494.999-18.3331 494.999 18.3335 458.333 18.3335ZM531.666-18.3331 568.333-18.3331 568.333 18.3336 531.666 18.3335ZM604.999-18.3331 641.666-18.3331 641.666 18.3336 604.999 18.3336ZM678.333-18.3331 714.999-18.333 714.999 18.3336 678.333 18.3336ZM751.666-18.333 788.333-18.333 788.333 18.3336 751.666 18.3336ZM110 55 0 0 110-55ZM795.091-54.9997 905.091 0.000360892 795.091 55.0003Z" fill="#281C2C" transform="matrix(-1 0 0 1 4667.59 1912.5)"/><path d="M0.0902838-13.7497 110.088-13.0274 109.907 14.472-0.0902838 13.7497ZM134.872-40.3653 217.099 1.42552 134.33 42.1329Z" fill="#3C3C3C" transform="matrix(-1 0 0 1 2858.1 2673)"/><path d="M2578.17 1978 3349 1978C3263.86 1978 3194.83 2020.31 3194.83 2072.5 3194.83 2124.69 3263.86 2167 3349 2167L2578.17 2167C2493.02 2167 2424 2124.69 2424 2072.5 2424 2020.31 2493.02 1978 2578.17 1978Z" fill="#EEEEEE" fill-rule="evenodd"/><text fill="#281C2C" font-family="Arial,Arial_MSFontService,sans-serif" font-weight="400" font-size="83" transform="matrix(1 0 0 1 2579.14 2103)">Kopi av målinger</text></g></svg>