<svg width="7805" height="2450" xmlns="http://www.w3.org/2000/svg" xmlns:xlink="http://www.w3.org/1999/xlink" xml:space="preserve" overflow="hidden"><defs><clipPath id="clip0"><rect x="498" y="1277" width="7805" height="2450"/></clipPath></defs><g clip-path="url(#clip0)" transform="translate(-498 -1277)"><path d="M4776.5 1882.5 4776.5 2137.78 7696.7 2137.78 7696.7 2264.48" stroke="#0152B9" stroke-width="4.58333" stroke-miterlimit="8" fill="none" fill-rule="evenodd"/><path d="M4776.5 1882.5 4776.5 2137.78 6236.6 2137.78 6236.6 2264.48" stroke="#0152B9" stroke-width="4.58333" stroke-miterlimit="8" fill="none" fill-rule="evenodd"/><path d="M4776.5 2867.5 4776.5 2994.2 5506.55 2994.2 5506.55 3120.91" stroke="#015ED2" stroke-width="4.58333" stroke-miterlimit="8" fill="none" fill-rule="evenodd"/><path d="M4776.55 2867.5 4776.55 2994.2 4046.5 2994.2 4046.5 3120.91" stroke="#015ED2" stroke-width="4.58333" stroke-miterlimit="8" fill="none" fill-rule="evenodd"/><path d="M4777 1882.5 4777 2264.48" stroke="#0152B9" stroke-width="4.58333" stroke-miterlimit="8" fill="none" fill-rule="evenodd"/><path d="M2587.28 2863.5 2587.28 2994.6 2587 2994.6 2587 3121.3" stroke="#015ED2" stroke-width="4.58333" stroke-miterlimit="8" fill="none" fill-rule="evenodd"/><path d="M2586.88 2863.5 2586.88 2994.6 1126.5 2994.6 1126.5 3121.3" stroke="#015ED2" stroke-width="4.58333" stroke-miterlimit="8" fill="none" fill-rule="evenodd"/><path d="M4777.37 1882.5 4777.37 2133.38 2587.5 2133.38 2587.5 2260.08" stroke="#0152B9" stroke-width="4.58333" stroke-miterlimit="8" fill="none" fill-rule="evenodd"/><path d="M1984.5 1279.5 7569.5 1279.5 7569.5 1882.5 1984.5 1882.5 1984.5 1279.5Z" stroke="#FFFFFF" stroke-width="4.58333" stroke-miterlimit="8" fill="#0169E8" fill-rule="evenodd"/><text fill="#FFFFFF" font-family="Arial,Arial_MSFontService,sans-serif" font-weight="400" font-size="165" transform="matrix(1 0 0 1 3846.07 1632)">Digital <tspan font-size="165" x="504.167" y="0">hjemmeoppfølging</tspan></text><path d="M1983.5 2260.5 3190.5 2260.5 3190.5 2863.5 1983.5 2863.5 1983.5 2260.5Z" stroke="#FFFFFF" stroke-width="4.58333" stroke-miterlimit="8" fill="#0169E8" fill-rule="evenodd"/><text fill="#FFFFFF" font-family="Arial,Arial_MSFontService,sans-serif" font-weight="400" font-size="128" transform="matrix(1 0 0 1 2039.76 2393)">Kommunikasjon og <tspan font-size="128" x="149.806" y="139">dialog mellom </tspan><tspan font-size="128" x="250.067" y="278">pasient og </tspan><tspan font-size="128" x="224.583" y="416">behandlere</tspan></text><path d="M523.5 3121.5 1730.5 3121.5 1730.5 3724.5 523.5 3724.5 523.5 3121.5Z" stroke="#FFFFFF" stroke-width="4.58333" stroke-miterlimit="8" fill="#0169E8" fill-rule="evenodd"/><text fill="#FFFFFF" font-family="Arial,Arial_MSFontService,sans-serif" font-weight="400" font-size="128" transform="matrix(1 0 0 1 852.107 3324)">Video<tspan font-size="128" x="326.54" y="0">-</tspan><tspan font-size="128" x="405.029" y="0">og </tspan><tspan font-size="128" x="-276.444" y="139">telefonkonsultasjon </tspan><tspan font-size="128" x="23.7646" y="278">(sanntid)</tspan></text><path d="M1983.5 3121.5 3190.5 3121.5 3190.5 3724.5 1983.5 3724.5 1983.5 3121.5Z" stroke="#FFFFFF" stroke-width="4.58333" stroke-miterlimit="8" fill="#0169E8" fill-rule="evenodd"/><text fill="#FFFFFF" font-family="Arial,Arial_MSFontService,sans-serif" font-weight="400" font-size="128" transform="matrix(1 0 0 1 2303.6 3393)">Meldinger <tspan font-size="128" x="-21.198" y="139">(asynkron)</tspan></text><path d="M4173.5 2264.5 5380.5 2264.5 5380.5 2867.5 4173.5 2867.5 4173.5 2264.5Z" stroke="#FFFFFF" stroke-width="4.58333" stroke-miterlimit="8" fill="#281C2C" fill-rule="evenodd"/><text fill="#FFFFFF" font-family="Arial,Arial_MSFontService,sans-serif" font-weight="400" font-size="128" transform="matrix(1 0 0 1 4265.44 2467)">Oppfølging basert <tspan font-size="128" x="203.683" y="139">på data fra </tspan><tspan font-size="128" x="232.031" y="278">pasienten</tspan></text><path d="M3443.5 3121.5 4650.5 3121.5 4650.5 3724.5 3443.5 3724.5 3443.5 3121.5Z" stroke="#FFFFFF" stroke-width="4.58333" stroke-miterlimit="8" fill="#281C2C" fill-rule="evenodd"/><text fill="#FFFFFF" font-family="Arial,Arial_MSFontService,sans-serif" font-weight="400" font-size="128" transform="matrix(1 0 0 1 3549.71 3393)">Data fra sensorer <tspan font-size="128" x="268.125" y="139">og MTU</tspan></text><path d="M4903.5 3121.5 6110.5 3121.5 6110.5 3724.5 4903.5 3724.5 4903.5 3121.5Z" stroke="#FFFFFF" stroke-width="4.58333" stroke-miterlimit="8" fill="#281C2C" fill-rule="evenodd"/><text fill="#FFFFFF" font-family="Arial,Arial_MSFontService,sans-serif" font-weight="400" font-size="128" transform="matrix(1 0 0 1 5002.65 3324)">Pasientregistrerte <tspan font-size="128" x="7.26465" y="139">data (symptomer, </tspan><tspan font-size="128" x="-39.5313" y="278">funksjon, målinger)</tspan></text><path d="M5633.5 2264.5 6840.5 2264.5 6840.5 2867.5 5633.5 2867.5 5633.5 2264.5Z" stroke="#FFFFFF" stroke-width="4.58333" stroke-miterlimit="8" fill="#0169E8" fill-rule="evenodd"/><text fill="#FFFFFF" font-family="Arial,Arial_MSFontService,sans-serif" font-weight="400" font-size="128" transform="matrix(1 0 0 1 5940.1 2536)">Nettbasert <tspan font-size="128" x="-290.469" y="139">behandlingsprogram</tspan></text><path d="M7093.5 2264.5 8300.5 2264.5 8300.5 2867.5 7093.5 2867.5 7093.5 2264.5Z" stroke="#FFFFFF" stroke-width="4.58333" stroke-miterlimit="8" fill="#0169E8" fill-rule="evenodd"/><text fill="#FFFFFF" font-family="Arial,Arial_MSFontService,sans-serif" font-weight="400" font-size="128" transform="matrix(1 0 0 1 7196.24 2605)">Pasientopplæring</text></g></svg>