<svg width="7801" height="3743" xmlns="http://www.w3.org/2000/svg" xmlns:xlink="http://www.w3.org/1999/xlink" xml:space="preserve" overflow="hidden"><defs><clipPath id="clip0"><rect x="502" y="694" width="7801" height="3743"/></clipPath></defs><g clip-path="url(#clip0)" transform="translate(-502 -694)"><path d="M4776.5 1882.5 4776.5 2137.78 7696.7 2137.78 7696.7 2264.48" stroke="#0152B9" stroke-width="4.58333" stroke-miterlimit="8" fill="none" fill-rule="evenodd"/><path d="M4776.5 1882.5 4776.5 2137.78 6236.6 2137.78 6236.6 2264.48" stroke="#0152B9" stroke-width="4.58333" stroke-miterlimit="8" fill="none" fill-rule="evenodd"/><path d="M4776.5 2867.5 4776.5 2994.2 5506.55 2994.2 5506.55 3120.91" stroke="#015ED2" stroke-width="4.58333" stroke-miterlimit="8" fill="none" fill-rule="evenodd"/><path d="M4776.55 2867.5 4776.55 2994.2 4046.5 2994.2 4046.5 3120.91" stroke="#015ED2" stroke-width="4.58333" stroke-miterlimit="8" fill="none" fill-rule="evenodd"/><path d="M4777 1882.5 4777 2264.48" stroke="#0152B9" stroke-width="4.58333" stroke-miterlimit="8" fill="none" fill-rule="evenodd"/><path d="M2587.28 2863.5 2587.28 2994.6 2587 2994.6 2587 3121.3" stroke="#015ED2" stroke-width="4.58333" stroke-miterlimit="8" fill="none" fill-rule="evenodd"/><path d="M2586.88 2863.5 2586.88 2994.6 1126.5 2994.6 1126.5 3121.3" stroke="#015ED2" stroke-width="4.58333" stroke-miterlimit="8" fill="none" fill-rule="evenodd"/><path d="M4777.37 1882.5 4777.37 2133.38 2587.5 2133.38 2587.5 2260.08" stroke="#0152B9" stroke-width="4.58333" stroke-miterlimit="8" fill="none" fill-rule="evenodd"/><rect x="1984.5" y="1279.5" width="5585" height="603" stroke="#FFFFFF" stroke-width="4.58333" stroke-miterlimit="8" fill="#0169E8"/><text fill="#FFFFFF" font-family="Arial,Arial_MSFontService,sans-serif" font-weight="400" font-size="165" transform="matrix(1 0 0 1 3845.63 1631)">Digital <tspan font-size="165" x="504.35" y="0">hjemmeoppfølging</tspan></text><rect x="1983.5" y="2260.5" width="1207" height="603" stroke="#FFFFFF" stroke-width="4.58333" stroke-miterlimit="8" fill="#0169E8"/><text fill="#FFFFFF" font-family="Arial,Arial_MSFontService,sans-serif" font-weight="400" font-size="128" transform="matrix(1 0 0 1 2040.95 2402)">Kommunikasjon og <tspan font-size="128" x="149.829" y="132">dialog mellom </tspan><tspan font-size="128" x="249.585" y="265">pasient og </tspan><tspan font-size="128" x="224.583" y="398">behandlere</tspan></text><rect x="523.5" y="3121.5" width="1207" height="603" stroke="#FFFFFF" stroke-width="4.58333" stroke-miterlimit="8" fill="#0169E8"/><text fill="#FFFFFF" font-family="Arial,Arial_MSFontService,sans-serif" font-weight="400" font-size="128" transform="matrix(1 0 0 1 852.726 3303)">Video<tspan font-size="128" x="325.875" y="0">-</tspan><tspan font-size="128" x="404.273" y="0">og </tspan><tspan font-size="128" x="-275.802" y="132">telefonkonsultasjon </tspan><tspan font-size="128" x="23.8792" y="317">(sanntid)</tspan></text><rect x="1983.5" y="3121.5" width="1207" height="603" stroke="#FFFFFF" stroke-width="4.58333" stroke-miterlimit="8" fill="#0169E8"/><text fill="#FFFFFF" font-family="Arial,Arial_MSFontService,sans-serif" font-weight="400" font-size="128" transform="matrix(1 0 0 1 2304.61 3370)">Meldinger <tspan font-size="128" x="-21.3584" y="184">(asynkron)</tspan></text><rect x="4173.5" y="2264.5" width="1207" height="603" stroke="#FFFFFF" stroke-width="4.58333" stroke-miterlimit="8" fill="#003574"/><text fill="#FFFFFF" font-family="Arial,Arial_MSFontService,sans-serif" font-weight="400" font-size="128" transform="matrix(1 0 0 1 4266.47 2473)">Oppfølging basert <tspan font-size="128" x="203.225" y="132">på data fra </tspan><tspan font-size="128" x="231.756" y="265">pasienten</tspan></text><rect x="3443.5" y="3121.5" width="1207" height="603" stroke="#FFFFFF" stroke-width="4.58333" stroke-miterlimit="8" fill="#003574"/><text fill="#FFFFFF" font-family="Arial,Arial_MSFontService,sans-serif" font-weight="400" font-size="128" transform="matrix(1 0 0 1 3550.73 3370)">Data fra sensorer <tspan font-size="128" x="267.529" y="184">og MTU</tspan></text><rect x="4903.5" y="3121.5" width="1207" height="603" stroke="#FFFFFF" stroke-width="4.58333" stroke-miterlimit="8" fill="#003574"/><text fill="#FFFFFF" font-family="Arial,Arial_MSFontService,sans-serif" font-weight="400" font-size="128" transform="matrix(1 0 0 1 5003.71 3329)">Pasientregistrerte <tspan font-size="128" x="7.15039" y="132">data (symptomer, </tspan><tspan font-size="128" x="-39.2334" y="265">funksjon, målinger)</tspan></text><rect x="5633.5" y="2264.5" width="1207" height="603" stroke="#FFFFFF" stroke-width="4.58333" stroke-miterlimit="8" fill="#0169E8"/><text fill="#FFFFFF" font-family="Arial,Arial_MSFontService,sans-serif" font-weight="400" font-size="128" transform="matrix(1 0 0 1 5940.58 2539)">Nettbasert <tspan font-size="128" x="-288.956" y="132">behandlingsprogram</tspan></text><rect x="7093.5" y="2264.5" width="1207" height="603" stroke="#FFFFFF" stroke-width="4.58333" stroke-miterlimit="8" fill="#0169E8"/><text fill="#FFFFFF" font-family="Arial,Arial_MSFontService,sans-serif" font-weight="400" font-size="128" transform="matrix(1 0 0 1 7197.34 2605)">Pasientopplæring</text></g></svg>