<svg width="4875" height="4157" xmlns="http://www.w3.org/2000/svg" xmlns:xlink="http://www.w3.org/1999/xlink" xml:space="preserve" overflow="hidden"><defs><clipPath id="clip0"><rect x="2059" y="560" width="4875" height="4157"/></clipPath><clipPath id="clip1"><rect x="6365" y="4158" width="364" height="330"/></clipPath><clipPath id="clip2"><rect x="6365" y="4158" width="364" height="330"/></clipPath><clipPath id="clip3"><rect x="6365" y="4158" width="364" height="330"/></clipPath><clipPath id="clip4"><rect x="6387" y="3425" width="364" height="331"/></clipPath><clipPath id="clip5"><rect x="6387" y="3425" width="364" height="331"/></clipPath><clipPath id="clip6"><rect x="6387" y="3425" width="364" height="331"/></clipPath><clipPath id="clip7"><rect x="3115" y="3444" width="400" height="364"/></clipPath><clipPath id="clip8"><rect x="3115" y="3444" width="400" height="364"/></clipPath><clipPath id="clip9"><rect x="3115" y="3444" width="400" height="364"/></clipPath><clipPath id="clip10"><rect x="3174" y="1995" width="364" height="331"/></clipPath><clipPath id="clip11"><rect x="3174" y="1995" width="364" height="331"/></clipPath><clipPath id="clip12"><rect x="3174" y="1995" width="364" height="331"/></clipPath><clipPath id="clip13"><rect x="6407" y="1994" width="364" height="331"/></clipPath><clipPath id="clip14"><rect x="6407" y="1994" width="364" height="331"/></clipPath><clipPath id="clip15"><rect x="6407" y="1994" width="364" height="331"/></clipPath><clipPath id="clip16"><rect x="6405" y="1003" width="331" height="331"/></clipPath><clipPath id="clip17"><rect x="6405" y="1003" width="331" height="331"/></clipPath><clipPath id="clip18"><rect x="6405" y="1003" width="331" height="331"/></clipPath><clipPath id="clip19"><rect x="4775" y="1027" width="331" height="331"/></clipPath><clipPath id="clip20"><rect x="4775" y="1027" width="331" height="331"/></clipPath><clipPath id="clip21"><rect x="4775" y="1027" width="331" height="331"/></clipPath><clipPath id="clip22"><rect x="3188" y="1012" width="331" height="330"/></clipPath><clipPath id="clip23"><rect x="3188" y="1012" width="331" height="330"/></clipPath><clipPath id="clip24"><rect x="3188" y="1012" width="331" height="330"/></clipPath><clipPath id="clip25"><rect x="6365" y="2851" width="364" height="331"/></clipPath><clipPath id="clip26"><rect x="6365" y="2851" width="364" height="331"/></clipPath><clipPath id="clip27"><rect x="6365" y="2851" width="364" height="331"/></clipPath><clipPath id="clip28"><rect x="3115" y="2700" width="400" height="364"/></clipPath><clipPath id="clip29"><rect x="3115" y="2700" width="400" height="364"/></clipPath><clipPath id="clip30"><rect x="3115" y="2700" width="400" height="364"/></clipPath><clipPath id="clip31"><rect x="3132" y="4158" width="364" height="330"/></clipPath><clipPath id="clip32"><rect x="3132" y="4158" width="364" height="330"/></clipPath><clipPath id="clip33"><rect x="3132" y="4158" width="364" height="330"/></clipPath><clipPath id="clip34"><rect x="4650" y="3370" width="484" height="440"/></clipPath><clipPath id="clip35"><rect x="4650" y="3370" width="484" height="440"/></clipPath><clipPath id="clip36"><rect x="4650" y="3370" width="484" height="440"/></clipPath><clipPath id="clip37"><rect x="4736" y="3444" width="227" height="205"/></clipPath><clipPath id="clip38"><rect x="4736" y="3444" width="227" height="205"/></clipPath><clipPath id="clip39"><rect x="4736" y="3444" width="227" height="205"/></clipPath><clipPath id="clip40"><rect x="4713" y="1952" width="364" height="364"/></clipPath><clipPath id="clip41"><rect x="4713" y="1952" width="364" height="364"/></clipPath><clipPath id="clip42"><rect x="4713" y="1952" width="364" height="364"/></clipPath><clipPath id="clip43"><rect x="4720" y="4130" width="400" height="364"/></clipPath><clipPath id="clip44"><rect x="4720" y="4130" width="400" height="364"/></clipPath><clipPath id="clip45"><rect x="4720" y="4130" width="400" height="364"/></clipPath></defs><g clip-path="url(#clip0)" transform="translate(-2059 -560)"><rect x="3720" y="1604" width="1552" height="2349" fill="#3AFB9E"/><text fill="#FFFFFF" font-family="Arial,Arial_MSFontService,sans-serif" font-weight="400" font-size="165" transform="matrix(1 0 0 1 3959.53 1780)">Fellestjenester</text><rect x="5299" y="1604" width="1635" height="3113" fill="#EEEEEE"/><text fill="#281C2C" font-family="Arial,Arial_MSFontService,sans-serif" font-weight="400" font-size="165" transform="matrix(1 0 0 1 5676.97 1780)">Datatilbyder</text><rect x="2059" y="1604" width="1635" height="3113" fill="#EEEEEE"/><text fill="#281C2C" font-family="Arial,Arial_MSFontService,sans-serif" font-weight="400" font-size="165" transform="matrix(1 0 0 1 2299 1780)">Datakonsument</text><rect x="2059" y="593" width="4875" height="955" fill="#EEEEEE"/><text fill="#281C2C" font-family="Arial,Arial_MSFontService,sans-serif" font-weight="400" font-size="165" transform="matrix(1 0 0 1 4120.9 770)">Produsent</text><rect x="5388.5" y="4002.5" width="1457" height="604" stroke="#004BAA" stroke-width="4.58333" stroke-miterlimit="8" fill="#0169E8"/><text fill="#FFFFFF" font-family="Arial,Arial_MSFontService,sans-serif" font-weight="400" font-size="83" transform="matrix(1 0 0 1 5460.44 4285)">Avgi<tspan font-size="83" x="0" y="99">data</tspan></text><g clip-path="url(#clip1)"><g clip-path="url(#clip2)"><g clip-path="url(#clip3)"><path d="M103.125 67.0312 51.5625 98.3125 165 167.062 216.562 135.781Z" fill="#FFFFFF" transform="matrix(1.1 0 0 1 6366 4158)"/><path d="M278.438 98.3125 165 29.5625 116.188 59.125 229.625 127.875Z" fill="#FFFFFF" transform="matrix(1.1 0 0 1 6366 4158)"/><path d="M51.5625 125.812 51.5625 235.812 158.125 300.438 158.125 179.094 51.5625 114.469Z" fill="#FFFFFF" transform="matrix(1.1 0 0 1 6366 4158)"/><path d="M209.688 198 185.625 211.75 185.625 187.688 209.688 173.938 209.688 198ZM171.875 179.094 171.875 300.438 278.438 235.812 278.438 114.469 171.875 179.094Z" fill="#FFFFFF" transform="matrix(1.1 0 0 1 6366 4158)"/></g></g></g><rect x="5388.5" y="3288.5" width="1457" height="604" stroke="#004BAA" stroke-width="4.58333" stroke-miterlimit="8" fill="#0169E8"/><text fill="#FFFFFF" font-family="Arial,Arial_MSFontService,sans-serif" font-weight="400" font-size="83" transform="matrix(1 0 0 1 5460.44 3571)">Metadata<tspan font-size="83" x="0" y="99">publisering</tspan></text><g clip-path="url(#clip4)"><g clip-path="url(#clip5)"><g clip-path="url(#clip6)"><path d="M299.657 124.599 302.5 103.974 233.372 103.974 243.437 30.9375 222.619 30.9375 212.554 103.974 133.684 103.974 143.749 30.9375 122.932 30.9375 112.867 103.974 44.6875 103.974 41.8447 124.599 110.024 124.599 98.8934 205.38 30.7141 205.38 27.8713 226.005 96.0506 226.005 85.9822 299.062 106.803 299.062 116.875 226.005 195.738 226.005 185.67 299.062 206.491 299.062 216.562 226.005 285.691 226.005 288.533 205.38 219.398 205.38 230.533 124.599ZM198.595 205.38 119.711 205.38 130.845 124.599 209.712 124.599Z" fill="#FFFFFF" transform="matrix(1.1 0 0 1 6388 3425)"/></g></g></g><rect x="2148.5" y="3288.5" width="1457" height="604" stroke="#004BAA" stroke-width="4.58333" stroke-miterlimit="8" fill="#0169E8"/><text fill="#FFFFFF" font-family="Arial,Arial_MSFontService,sans-serif" font-weight="400" font-size="83" transform="matrix(1 0 0 1 2219.97 3571)">Lokalisere<tspan font-size="83" x="0" y="99">data</tspan></text><g clip-path="url(#clip7)"><g clip-path="url(#clip8)"><g clip-path="url(#clip9)"><path d="M181.5 204.188C169.022 204.188 158.812 193.978 158.812 181.5 158.812 169.022 169.022 158.812 181.5 158.812 193.978 158.812 204.188 169.022 204.188 181.5 204.188 193.978 193.978 204.188 181.5 204.188ZM310.062 176.584 286.619 169.4 229.144 151.25 247.672 115.328 212.128 133.856 193.6 76.0031 186.038 52.5594 181.5 37.8125 176.584 52.9375 169.4 76.3813 151.628 133.856 115.706 115.328 134.234 150.872 76.7594 169.022 52.9375 176.206 37.8125 181.122 52.9375 186.038 76.0031 193.6 133.856 211.75 115.328 247.294 150.872 228.766 169.022 286.241 176.206 309.684 181.122 324.809 186.038 309.684 193.6 286.241 212.128 228.388 247.672 246.916 228.766 211.372 286.241 193.222 309.684 185.659 324.809 180.744 310.062 176.584Z" fill="#FFFFFF" transform="matrix(1.09917 0 0 1 3115 3444)"/><path d="M283.216 210.237C279.434 223.472 273.006 235.95 264.309 246.916 259.394 253.344 253.344 259.016 247.294 264.309 236.328 273.006 223.85 279.434 210.237 283.216L207.969 291.156 202.675 308.172C227.631 304.013 250.697 292.669 269.225 275.275 271.494 273.006 273.763 270.737 276.031 268.469 293.047 249.941 304.391 226.875 308.55 202.297L291.156 207.969 283.216 210.237Z" fill="#FFFFFF" transform="matrix(1.09917 0 0 1 3115 3444)"/><path d="M210.616 79.7844C223.85 83.5656 236.328 89.9937 246.916 98.6906 253.344 103.606 259.016 109.656 264.309 116.084 273.006 127.05 279.434 139.15 283.216 152.763L291.156 155.031 308.172 160.325C304.013 135.747 292.669 112.681 275.653 94.1531 273.384 91.8844 271.116 89.6156 268.847 87.3469 250.319 70.3313 227.631 58.9875 202.675 54.8281L207.969 71.8438 210.616 79.7844Z" fill="#FFFFFF" transform="matrix(1.09917 0 0 1 3115 3444)"/><path d="M79.7844 152.006C83.5656 138.772 89.9937 126.294 98.6906 115.328 103.606 108.9 109.656 103.228 116.084 97.9344 127.05 89.2375 139.15 83.1875 152.384 79.4062L155.031 71.8438 160.325 54.8281C135.747 58.9875 112.681 69.9531 94.1531 86.9688 91.8844 89.2375 89.6156 91.5063 87.3469 93.775 70.3313 112.303 58.6094 135.369 54.45 159.947L71.4656 154.653 79.7844 152.006Z" fill="#FFFFFF" transform="matrix(1.09917 0 0 1 3115 3444)"/><path d="M152.384 283.216C139.15 279.434 126.672 273.006 115.706 264.309 109.278 259.394 103.606 253.344 98.6906 247.294 89.9937 236.328 83.5656 223.85 79.7844 210.616L71.8438 207.969 54.8281 202.675C58.9875 227.631 70.3313 250.697 87.3469 268.847 89.6156 271.116 91.8844 273.384 94.1531 275.653 112.681 292.669 135.747 304.013 160.325 308.172L154.653 291.156 152.384 283.216Z" fill="#FFFFFF" transform="matrix(1.09917 0 0 1 3115 3444)"/></g></g></g><rect x="3752.5" y="3287.5" width="1457" height="604" stroke="#004BAA" stroke-width="4.58333" stroke-miterlimit="8" fill="#0169E8"/><text fill="#FFFFFF" font-family="Arial,Arial_MSFontService,sans-serif" font-weight="400" font-size="165" transform="matrix(1 0 0 1 3824.44 3551)">Metadata <tspan font-size="165" x="0" y="198">formidling</tspan></text><rect x="2148.5" y="1858.5" width="1457" height="604" stroke="#004BAA" stroke-width="4.58333" stroke-miterlimit="8" fill="#0169E8"/><text fill="#FFFFFF" font-family="Arial,Arial_MSFontService,sans-serif" font-weight="400" font-size="83" transform="matrix(1 0 0 1 2219.97 2191)">Visning</text><g clip-path="url(#clip10)"><g clip-path="url(#clip11)"><g clip-path="url(#clip12)"><path d="M118.594 149.531C118.594 177.031 140.938 199.375 168.438 199.375 195.938 199.375 218.281 177.031 218.281 149.531 218.281 122.031 195.938 99.6875 168.438 99.6875 140.938 99.6875 118.594 122.031 118.594 149.531ZM196.281 164.312 196.281 174.969 140.25 174.969 140.25 164.312C140.25 162.25 141.281 160.188 143 158.812 147.125 155.719 151.594 153.656 156.75 152.281 160.531 151.25 164.312 150.562 168.438 150.562 172.219 150.562 176.344 151.25 180.125 152.281 184.938 153.656 189.75 155.719 193.875 158.812 195.25 160.188 196.281 162.25 196.281 164.312ZM168.438 118.937C176 118.937 182.531 125.125 182.531 133.031L182.531 133.031C182.531 140.594 176.344 147.125 168.438 147.125 160.875 147.125 154.344 140.938 154.344 133.031 154.344 125.125 160.531 118.937 168.438 118.937Z" fill="#FFFFFF" transform="matrix(1.1 0 0 1 3175 1995)"/><path d="M312.812 110 323.125 110 323.125 120.312 312.812 120.312Z" fill="#FFFFFF" transform="matrix(1.1 0 0 1 3175 1995)"/><path d="M254.031 110 264 110 264 120.312 254.031 120.312Z" fill="#FFFFFF" transform="matrix(1.1 0 0 1 3175 1995)"/><path d="M273.969 110 283.938 110 283.938 120.312 273.969 120.312Z" fill="#FFFFFF" transform="matrix(1.1 0 0 1 3175 1995)"/><path d="M293.562 110 303.531 110 303.531 120.312 293.562 120.312Z" fill="#FFFFFF" transform="matrix(1.1 0 0 1 3175 1995)"/><path d="M233.75 110 244.062 110 244.062 120.312 233.75 120.312Z" fill="#FFFFFF" transform="matrix(1.1 0 0 1 3175 1995)"/><path d="M233.75 68.75 244.062 68.75 244.062 79.0625 233.75 79.0625Z" fill="#FFFFFF" transform="matrix(1.1 0 0 1 3175 1995)"/><path d="M233.75 89.375 244.062 89.375 244.062 99.6875 233.75 99.6875Z" fill="#FFFFFF" transform="matrix(1.1 0 0 1 3175 1995)"/><path d="M233.75 48.125 244.062 48.125 244.062 58.4375 233.75 58.4375Z" fill="#FFFFFF" transform="matrix(1.1 0 0 1 3175 1995)"/><path d="M233.75 27.5 244.062 27.5 244.062 37.8125 233.75 37.8125Z" fill="#FFFFFF" transform="matrix(1.1 0 0 1 3175 1995)"/><path d="M273.969 27.5 283.938 27.5 283.938 37.8125 273.969 37.8125Z" fill="#FFFFFF" transform="matrix(1.1 0 0 1 3175 1995)"/><path d="M293.562 27.5 303.531 27.5 303.531 37.8125 293.562 37.8125Z" fill="#FFFFFF" transform="matrix(1.1 0 0 1 3175 1995)"/><path d="M254.031 27.5 264 27.5 264 37.8125 254.031 37.8125Z" fill="#FFFFFF" transform="matrix(1.1 0 0 1 3175 1995)"/><path d="M312.812 27.5 323.125 27.5 323.125 37.8125 312.812 37.8125Z" fill="#FFFFFF" transform="matrix(1.1 0 0 1 3175 1995)"/><path d="M312.812 48.125 323.125 48.125 323.125 58.4375 312.812 58.4375Z" fill="#FFFFFF" transform="matrix(1.1 0 0 1 3175 1995)"/><path d="M312.812 68.75 323.125 68.75 323.125 79.0625 312.812 79.0625Z" fill="#FFFFFF" transform="matrix(1.1 0 0 1 3175 1995)"/><path d="M312.812 89.375 323.125 89.375 323.125 99.6875 312.812 99.6875Z" fill="#FFFFFF" transform="matrix(1.1 0 0 1 3175 1995)"/><path d="M240.625 207.969C240.969 208.656 241.656 209 242.344 209 242.688 209 243.031 208.656 243.375 207.969L248.531 193.875 264.688 210.031 271.906 202.812 255.75 186.656 269.844 181.5C270.531 181.156 270.875 180.469 270.875 179.781 270.875 179.438 270.531 179.094 269.844 178.75L228.938 165C228.938 165 228.594 165 228.594 165L228.594 165C227.906 165 227.219 165.688 227.219 166.375 227.219 166.375 227.219 166.719 227.219 166.719L240.625 207.969Z" fill="#FFFFFF" transform="matrix(1.1 0 0 1 3175 1995)"/><path d="M99.6875 82.5 6.875 82.5 6.875 154.688 99.6875 154.688 99.6875 82.5ZM89.375 144.375 17.1875 144.375 17.1875 92.8125 89.375 92.8125 89.375 144.375Z" fill="#FFFFFF" transform="matrix(1.1 0 0 1 3175 1995)"/><path d="M30.9375 101.406 72.1875 101.406 72.1875 111.719 30.9375 111.719Z" fill="#FFFFFF" transform="matrix(1.1 0 0 1 3175 1995)"/><path d="M30.9375 122.031 58.4375 122.031 58.4375 132.344 30.9375 132.344Z" fill="#FFFFFF" transform="matrix(1.1 0 0 1 3175 1995)"/><path d="M292.188 51.5625 250.938 51.5625 250.938 72.1875 285.312 72.1875 285.312 103.125 305.938 103.125 305.938 65.3125C305.938 57.75 299.75 51.5625 292.188 51.5625Z" fill="#FFFFFF" transform="matrix(1.1 0 0 1 3175 1995)"/><path d="M285.312 223.438 51.5625 223.438 51.5625 168.438 30.9375 168.438 30.9375 230.312C30.9375 237.875 37.125 244.062 44.6875 244.062L140.938 244.062 140.938 264.688 106.562 264.688 106.562 285.312 230.312 285.312 230.312 264.688 195.938 264.688 195.938 244.062 292.188 244.062C299.75 244.062 305.938 237.875 305.938 230.312L305.938 127.188 285.312 127.188 285.312 223.438Z" fill="#FFFFFF" transform="matrix(1.1 0 0 1 3175 1995)"/><path d="M226.875 51.5625 44.6875 51.5625C37.125 51.5625 30.9375 57.75 30.9375 65.3125L30.9375 72.1875 226.875 72.1875 226.875 51.5625Z" fill="#FFFFFF" transform="matrix(1.1 0 0 1 3175 1995)"/></g></g></g><rect x="5388.5" y="1858.5" width="1457" height="604" stroke="#004BAA" stroke-width="4.58333" stroke-miterlimit="8" fill="#0169E8"/><text fill="#FFFFFF" font-family="Arial,Arial_MSFontService,sans-serif" font-weight="400" font-size="83" transform="matrix(1 0 0 1 5460.44 2141)">Metadata<tspan font-size="83" x="0" y="99">utvinning</tspan></text><g clip-path="url(#clip13)"><g clip-path="url(#clip14)"><g clip-path="url(#clip15)"><path d="M256.482 76.8522 226.782 76.8522 197.952 48.0219 165 64.4944 123.812 56.2581 107.336 76.8522 73.5178 76.8522 44.6875 109.986 285.312 110 256.482 76.8522Z" fill="#FFFFFF" transform="matrix(1.1 0 0 1 6408 1994)"/><path d="M319.688 254.375 229.34 254.375C235.985 246.321 234.842 234.404 226.788 227.759 218.734 221.114 206.818 222.257 200.173 230.311 194.409 237.297 194.409 247.389 200.173 254.375L126.304 254.375C132.948 246.32 131.804 234.404 123.749 227.76 115.693 221.116 103.777 222.26 97.1334 230.316 91.3722 237.301 91.3722 247.39 97.1334 254.375L6.875 254.375 6.875 268.125 24.0625 268.125 24.0625 278.438 55 278.438 55 268.125 85.9375 268.125 85.9375 278.438 116.875 278.438 116.875 268.125 147.812 268.125 147.812 278.438 178.75 278.438 178.75 268.125 209.688 268.125 209.688 278.438 240.625 278.438 240.625 268.125 271.562 268.125 271.562 278.438 302.5 278.438 302.5 268.125 319.688 268.125Z" fill="#FFFFFF" transform="matrix(1.1 0 0 1 6408 1994)"/><path d="M76.5291 240.625 82.5859 240.625C83.511 224.535 97.3043 212.242 113.394 213.167 128.192 214.018 140.001 225.827 140.852 240.625L185.625 240.625C186.567 224.536 200.372 212.257 216.461 213.199 231.235 214.063 243.023 225.851 243.887 240.625L249.947 240.625 289.025 147.812 299.062 147.812 299.062 123.75 27.5 123.75 27.5 147.812 37.4688 147.812Z" fill="#FFFFFF" transform="matrix(1.1 0 0 1 6408 1994)"/></g></g></g><rect x="5388.5" y="866.5" width="1457" height="604" stroke="#004BAA" stroke-width="4.58333" stroke-miterlimit="8" fill="#0169E8"/><text fill="#FFFFFF" font-family="Arial,Arial_MSFontService,sans-serif" font-weight="400" font-size="165" transform="matrix(1 0 0 1 5460.44 1130)">Data<tspan font-size="165" x="0" y="198">lagring</tspan></text><g clip-path="url(#clip16)"><g clip-path="url(#clip17)"><g clip-path="url(#clip18)"><path d="M6473.75 1140.5 6666.25 1140.5 6666.25 1154.25 6473.75 1154.25Z" fill="#FFFFFF"/><path d="M6473.75 1168 6666.25 1168 6666.25 1181.75 6473.75 1181.75Z" fill="#FFFFFF"/><path d="M6621.56 1257.38 6621.56 1298.62 6666.25 1298.62 6666.25 1257.38ZM6638.75 1271.12 6628.44 1271.12 6628.44 1264.25 6638.75 1264.25Z" fill="#FFFFFF"/><path d="M6570 1257.38 6570 1298.62 6614.69 1298.62 6614.69 1257.38ZM6587.19 1271.12 6576.88 1271.12 6576.88 1264.25 6587.19 1264.25Z" fill="#FFFFFF"/><path d="M6621.56 1209.25 6621.56 1250.5 6666.25 1250.5 6666.25 1209.25ZM6638.75 1223 6628.44 1223 6628.44 1216.12 6638.75 1216.12Z" fill="#FFFFFF"/><path d="M6570 1209.25 6570 1250.5 6614.69 1250.5 6614.69 1209.25ZM6587.19 1223 6576.88 1223 6576.88 1216.12 6587.19 1216.12Z" fill="#FFFFFF"/><path d="M6518.44 1257.38 6518.44 1298.62 6563.12 1298.62 6563.12 1257.38ZM6535.62 1271.12 6525.31 1271.12 6525.31 1264.25 6535.62 1264.25Z" fill="#FFFFFF"/><path d="M6700.62 1298.62 6700.62 1094.4 6570 1040.81 6439.38 1094.4 6439.38 1298.62 6460 1298.62 6460 1126.75 6680 1126.75 6680 1298.62 6700.62 1298.62Z" fill="#FFFFFF"/></g></g></g><rect x="3763.5" y="875.5" width="1445" height="604" stroke="#004BAA" stroke-width="4.58333" stroke-miterlimit="8" fill="#0169E8"/><text fill="#FFFFFF" font-family="Arial,Arial_MSFontService,sans-serif" font-weight="400" font-size="83" transform="matrix(1 0 0 1 3834.84 1158)">Data<tspan font-size="83" x="0" y="99">behandling</tspan></text><g clip-path="url(#clip19)"><g clip-path="url(#clip20)"><g clip-path="url(#clip21)"><path d="M4978.84 1155.22C4964.41 1155.22 4953.06 1143.53 4953.06 1129.44 4953.06 1115.34 4964.75 1103.66 4978.84 1103.66 4993.28 1103.66 5004.62 1115.34 5004.62 1129.44 5004.62 1143.53 4992.94 1155.22 4978.84 1155.22ZM5036.94 1113.28C5035.56 1108.47 5033.84 1104 5031.44 1099.88L5036.94 1083.72 5024.56 1071.34 5008.41 1076.84C5004.28 1074.44 4999.81 1072.72 4995 1071.34L4987.44 1056.22 4970.25 1056.22 4962.69 1071.34C4957.88 1072.72 4953.41 1074.44 4949.28 1076.84L4933.12 1071.34 4920.75 1083.72 4926.25 1099.88C4923.84 1104 4922.12 1108.47 4920.75 1113.28L4905.62 1120.84 4905.62 1138.03 4920.75 1145.59C4922.12 1150.41 4923.84 1154.88 4926.25 1159L4920.75 1175.16 4932.78 1187.19 4948.94 1181.69C4953.06 1184.09 4957.53 1185.81 4962.34 1187.19L4969.91 1202.31 4987.09 1202.31 4994.66 1187.19C4999.47 1185.81 5003.94 1184.09 5008.06 1181.69L5024.22 1187.19 5036.59 1175.16 5031.09 1159C5033.5 1154.88 5035.56 1150.06 5036.94 1145.59L5052.06 1138.03 5052.06 1120.84 5036.94 1113.28Z" fill="#FFFFFF"/><path d="M4901.16 1280.34C4886.72 1280.34 4875.38 1268.66 4875.38 1254.56 4875.38 1240.13 4887.06 1228.78 4901.16 1228.78 4915.59 1228.78 4926.94 1240.47 4926.94 1254.56 4926.94 1268.66 4915.59 1280.34 4901.16 1280.34L4901.16 1280.34ZM4953.75 1225 4959.25 1208.84 4946.88 1196.47 4930.72 1201.97C4926.59 1199.56 4921.78 1197.84 4917.31 1196.47L4909.75 1181.34 4892.56 1181.34 4885 1196.47C4880.19 1197.84 4875.72 1199.56 4871.59 1201.97L4855.44 1196.47 4843.41 1208.5 4848.56 1224.66C4846.16 1228.78 4844.44 1233.59 4843.06 1238.06L4827.94 1245.63 4827.94 1262.81 4843.06 1270.38C4844.44 1275.19 4846.16 1279.66 4848.56 1283.78L4843.41 1299.94 4855.44 1311.97 4871.59 1306.81C4875.72 1309.22 4880.19 1310.94 4885 1312.31L4892.56 1327.44 4909.75 1327.44 4917.31 1312.31C4922.12 1310.94 4926.59 1309.22 4930.72 1306.81L4946.88 1312.31 4958.91 1299.94 4953.75 1284.13C4956.16 1280 4957.88 1275.53 4959.25 1270.72L4974.38 1263.16 4974.38 1245.97 4959.25 1238.41C4957.88 1233.59 4956.16 1229.13 4953.75 1225Z" fill="#FFFFFF"/></g></g></g><rect x="2148.5" y="875.5" width="1457" height="604" stroke="#004BAA" stroke-width="4.58333" stroke-miterlimit="8" fill="#0169E8"/><text fill="#FFFFFF" font-family="Arial,Arial_MSFontService,sans-serif" font-weight="400" font-size="165" transform="matrix(1 0 0 1 2219.97 1139)">Data<tspan font-size="165" x="0" y="198">produksjon</tspan></text><g clip-path="url(#clip22)"><g clip-path="url(#clip23)"><g clip-path="url(#clip24)"><path d="M3426.19 1238.88 3426.19 1176.39 3344.29 1218.86 3344.29 1176.39 3262.4 1218.86 3253.28 1094.5 3229.03 1094.5 3219.94 1218.86 3219.94 1300.75 3488.06 1300.75 3488.06 1238.88ZM3280.6 1279.52 3244.2 1279.52 3244.2 1252.22 3280.6 1252.22ZM3341.26 1279.52 3304.86 1279.52 3304.86 1252.22 3341.26 1252.22ZM3401.92 1279.52 3365.52 1279.52 3365.52 1252.22 3401.92 1252.22Z" fill="#FFFFFF"/><path d="M3296.25 1061.8C3293.75 1064.11 3289.89 1064.11 3287.38 1061.8 3282.09 1056.85 3275.09 1054.14 3267.85 1054.24L3265.29 1054.29C3248.56 1053.85 3234.62 1067.03 3234.11 1083.76L3234.11 1087.62 3248.07 1087.62 3248.07 1085.4C3247.93 1077.86 3253.82 1071.59 3261.36 1071.27L3263.25 1071.12C3268.98 1070.41 3274.74 1072.26 3278.97 1076.18L3288.86 1085.55C3293.93 1090.25 3300.79 1092.52 3307.65 1091.75 3308.07 1096.02 3310.02 1100 3313.15 1102.94 3321.36 1110.22 3333.8 1109.97 3341.71 1102.36 3342.89 1101.24 3343.94 1099.98 3344.82 1098.6 3353.73 1101.19 3363.34 1098.88 3370.1 1092.52 3379.35 1084.35 3380.23 1070.23 3372.06 1060.98 3371.67 1060.54 3371.26 1060.11 3370.84 1059.7 3360.86 1050.84 3345.74 1051.13 3336.12 1060.38 3333.59 1062.66 3329.75 1062.66 3327.23 1060.38 3318.89 1052.68 3306.03 1052.68 3297.69 1060.38Z" fill="#FFFFFF"/></g></g></g><rect x="5388.5" y="2573.5" width="1457" height="604" stroke="#004BAA" stroke-width="4.58333" stroke-miterlimit="8" fill="#0169E8"/><text fill="#FFFFFF" font-family="Arial,Arial_MSFontService,sans-serif" font-weight="400" font-size="83" transform="matrix(1 0 0 1 5460.44 2856)">Tilgjengeliggjøre<tspan font-size="83" x="0" y="99">data</tspan></text><g clip-path="url(#clip25)"><g clip-path="url(#clip26)"><g clip-path="url(#clip27)"><path d="M51.5625 96.0781C58.3883 96.0692 64.5621 92.0215 67.2925 85.7656L82.5 85.7656C86.2971 85.7656 89.375 88.8436 89.375 92.6406L89.375 137.796C92.8816 136.504 96.5387 135.666 100.258 135.303 100.926 132.24 101.886 129.247 103.125 126.366L103.125 92.6406C103.112 81.2553 93.8853 72.029 82.5 72.0156L67.2925 72.0156C63.4954 63.3157 53.3648 59.3412 44.6648 63.1379 35.9648 66.935 31.9903 77.0657 35.7875 85.7656 38.5244 92.0367 44.7202 96.0871 51.5625 96.0781Z" fill="#FFFFFF" transform="matrix(1.1 0 0 1 6366 2851)"/><path d="M64.9344 196.725C64.7797 196.405 64.6559 196.082 64.5116 195.766L37.8125 195.766C34.0155 195.766 30.9375 192.688 30.9375 188.891L30.9375 170.246C39.6375 166.449 43.6119 156.318 39.8152 147.618 36.0181 138.918 25.8874 134.944 17.1875 138.74 8.48757 142.537 4.51292 152.668 8.30988 161.368 10.0438 165.341 13.2147 168.512 17.1875 170.246L17.1875 188.891C17.2008 200.276 26.4271 209.502 37.8125 209.516L74.3394 209.516C70.4361 205.874 67.2468 201.536 64.9344 196.725Z" fill="#FFFFFF" transform="matrix(1.1 0 0 1 6366 2851)"/><path d="M151.25 53.3706 151.25 96.1881C155.923 96.3586 160.551 97.1754 165 98.615L165 53.3706C173.7 49.5736 177.674 39.4429 173.878 30.743 170.081 22.0431 159.95 18.0685 151.25 21.8654 142.55 25.6624 138.576 35.793 142.372 44.4929 144.106 48.4657 147.277 51.6367 151.25 53.3706Z" fill="#FFFFFF" transform="matrix(1.1 0 0 1 6366 2851)"/><path d="M220.894 123.406C221.774 124.025 222.613 124.692 223.438 125.366L223.438 113.266C223.438 109.469 226.515 106.391 230.312 106.391L250.938 106.391C262.323 106.377 271.549 97.151 271.562 85.7656L271.562 80.8706C280.262 77.0736 284.237 66.9429 280.44 58.2429 276.643 49.543 266.512 45.5685 257.812 49.3652 249.113 53.1623 245.138 63.293 248.935 71.9929 250.669 75.9657 253.84 79.1367 257.812 80.8706L257.812 85.7656C257.812 89.5627 254.735 92.6406 250.938 92.6406L230.312 92.6406C218.926 92.652 209.699 101.88 209.688 113.266L209.688 117.789C213.674 119.112 217.448 121.004 220.894 123.406Z" fill="#FFFFFF" transform="matrix(1.1 0 0 1 6366 2851)"/><path d="M116.875 221.402 116.875 230.141C116.875 233.938 113.797 237.016 110 237.016L89.375 237.016C77.989 237.027 68.7613 246.255 68.75 257.641L68.75 262.536C60.05 266.333 56.0756 276.463 59.8723 285.163 63.6694 293.863 73.8 297.838 82.5 294.041 91.2 290.244 95.1744 280.113 91.3777 271.413 89.6438 267.44 86.4727 264.27 82.5 262.536L82.5 257.641C82.5 253.844 85.5779 250.766 89.375 250.766L110 250.766C121.385 250.752 130.612 241.526 130.625 230.141L130.625 221.402Z" fill="#FFFFFF" transform="matrix(1.1 0 0 1 6366 2851)"/><path d="M305.938 147.641C299.112 147.65 292.938 151.697 290.208 157.953L256.132 157.953C260.316 161.744 263.569 166.449 265.636 171.703L290.208 171.703C294.005 180.403 304.135 184.378 312.835 180.581 321.535 176.784 325.51 166.653 321.713 157.953 318.976 151.682 312.78 147.632 305.938 147.641Z" fill="#FFFFFF" transform="matrix(1.1 0 0 1 6366 2851)"/><path d="M275 240.453C268.174 240.462 262 244.51 259.27 250.766L244.062 250.766C240.265 250.766 237.188 247.688 237.188 243.891L237.188 220.883C235.224 221.217 233.236 221.39 231.244 221.402L223.438 221.402 223.438 243.891C223.451 255.276 232.677 264.502 244.062 264.516L259.27 264.516C263.067 273.216 273.198 277.19 281.898 273.393 290.598 269.596 294.572 259.466 290.775 250.766 288.038 244.495 281.842 240.444 275 240.453Z" fill="#FFFFFF" transform="matrix(1.1 0 0 1 6366 2851)"/><path d="M182.188 272.848 182.188 221.402 168.438 221.402 168.438 272.848C159.738 276.645 155.763 286.776 159.56 295.476 163.357 304.176 173.488 308.15 182.188 304.353 190.887 300.556 194.862 290.426 191.065 281.726 189.331 277.753 186.16 274.582 182.188 272.848Z" fill="#FFFFFF" transform="matrix(1.1 0 0 1 6366 2851)"/><path d="M231.244 158.627C230.504 158.608 229.765 158.645 229.03 158.737L229.03 158.627C229.011 147.944 223.768 137.946 214.992 131.856 206.152 125.711 194.903 124.178 184.742 127.731 176.208 111.567 157.81 103.237 140.033 107.487 122.29 111.587 109.658 127.299 109.464 145.509L109.464 145.853C97.3328 143.927 85.1232 148.811 77.6669 158.572 70.2876 168.265 68.96 181.275 74.2294 192.259 79.5743 203.298 90.5644 210.496 102.819 210.983L113.438 211.093 231.244 211.093C245.732 211.259 257.612 199.649 257.778 185.161 257.943 170.672 246.333 158.793 231.845 158.627 231.645 158.624 231.444 158.624 231.244 158.627Z" fill="#FFFFFF" transform="matrix(1.1 0 0 1 6366 2851)"/></g></g></g><rect x="2148.5" y="2573.5" width="1457" height="604" stroke="#004BAA" stroke-width="4.58333" stroke-miterlimit="8" fill="#0169E8"/><text fill="#FFFFFF" font-family="Arial,Arial_MSFontService,sans-serif" font-weight="400" font-size="83" transform="matrix(1 0 0 1 2219.97 2856)">Få tilgang <tspan font-size="83" x="0" y="99">til data</tspan></text><g clip-path="url(#clip28)"><g clip-path="url(#clip29)"><g clip-path="url(#clip30)"><path d="M170.996 192.386 149.605 170.996 170.996 149.605 192.386 170.996C196.853 175.389 204.035 175.33 208.428 170.863 212.771 166.448 212.77 159.366 208.426 154.952L187.036 133.565 200.406 120.195 173.669 93.4574C154.641 74.4226 124.856 71.3817 102.374 86.1785L93.6048 77.1035C74.3322 57.2712 47.8725 46.0537 20.2183 45.9913L7.5625 45.9913 7.5625 68.6788 20.2183 68.6788C41.734 68.7216 62.3218 77.4472 77.3152 92.8788L86.3222 102.196C71.3991 124.686 74.3912 154.576 93.4763 173.661L120.195 200.406 133.565 187.036 154.952 208.426C159.417 212.82 166.6 212.763 170.994 208.298 175.338 203.883 175.338 196.801 170.996 192.386Z" fill="#FFFFFF" transform="matrix(1.10193 0 0 1 3115 2701)"/><path d="M342.986 294.938C322.376 294.981 302.565 286.968 287.78 272.609L277.438 262.604C292.224 240.119 289.183 210.34 270.155 191.309L243.418 164.571 163.21 244.787 189.947 271.524C209.034 290.608 238.924 293.598 261.413 278.674L272 288.918C291.012 307.38 316.485 317.681 342.986 317.625L355.438 317.625 355.438 294.938Z" fill="#FFFFFF" transform="matrix(1.10193 0 0 1 3115 2701)"/></g></g></g><rect x="2148.5" y="4002.5" width="1457" height="604" stroke="#004BAA" stroke-width="4.58333" stroke-miterlimit="8" fill="#0169E8"/><text fill="#FFFFFF" font-family="Arial,Arial_MSFontService,sans-serif" font-weight="400" font-size="83" transform="matrix(1 0 0 1 2219.97 4285)">Innhente<tspan font-size="83" x="0" y="99">data</tspan></text><g clip-path="url(#clip31)"><g clip-path="url(#clip32)"><g clip-path="url(#clip33)"><path d="M164.969 74.3394 76.2884 127.586 164.986 181.026 253.667 127.779 164.969 74.3394Z" fill="#FFFFFF" transform="matrix(1.1 0 0 1 3133 4158)"/><path d="M119.171 240.611 68.0522 209.629 68.0522 247.72 159.772 303.315 159.772 203.737 119.171 240.611Z" fill="#FFFFFF" transform="matrix(1.1 0 0 1 3133 4158)"/><path d="M210.719 240.625 170.156 203.761 170.156 303.315 261.876 247.72 261.876 209.608ZM202.699 268.445 181.988 280.28 181.988 259.555 202.699 247.72Z" fill="#FFFFFF" transform="matrix(1.1 0 0 1 3133 4158)"/><path d="M159.751 65.4466 117.937 27.4656 25.6403 83.4075 67.0553 121.103 159.751 65.4466Z" fill="#FFFFFF" transform="matrix(1.1 0 0 1 3133 4158)"/><path d="M262.735 121.203 304.26 83.4075 211.96 27.4656 170.163 65.4294 262.735 121.203Z" fill="#FFFFFF" transform="matrix(1.1 0 0 1 3133 4158)"/><path d="M67.1241 134.104 25.6403 171.865 117.937 227.803 159.693 189.877 67.1241 134.104Z" fill="#FFFFFF" transform="matrix(1.1 0 0 1 3133 4158)"/><path d="M170.235 189.905 211.96 227.803 304.26 171.865 262.931 134.245 170.235 189.905Z" fill="#FFFFFF" transform="matrix(1.1 0 0 1 3133 4158)"/></g></g></g><rect x="3751.5" y="2572.5" width="1457" height="604" stroke="#004BAA" stroke-width="4.58333" stroke-miterlimit="8" fill="#0169E8"/><text fill="#FFFFFF" font-family="Arial,Arial_MSFontService,sans-serif" font-weight="400" font-size="83" transform="matrix(1 0 0 1 3823.14 2905)">Tjeneste formidling</text><path d="M5068.73 3008.17 5005.7 2951.04C4997.13 2943.28 4985.53 2940.53 4974.44 2942.36L4952.26 2922.26C4971.92 2899.41 4983.52 2870.16 4983.52 2839.09 4983.52 2763.69 4915.45 2702 4832.26 2702 4749.07 2702 4681 2763.69 4681 2839.09 4681 2914.49 4749.07 2976.18 4832.26 2976.18 4866.54 2976.18 4898.31 2965.67 4924.02 2947.85L4946.21 2967.95C4944.19 2978.01 4947.22 2988.52 4955.79 2996.28L5018.81 3053.4C5025.87 3059.8 5034.95 3063 5044.02 3063 5053.1 3063 5062.17 3059.8 5069.23 3053.4 5082.34 3040.61 5082.34 3020.5 5068.73 3008.17ZM4831.75 2948.3C4765.2 2948.3 4710.75 2898.95 4710.75 2838.63 4710.75 2778.31 4765.2 2728.96 4831.75 2728.96 4898.31 2728.96 4952.76 2778.31 4952.76 2838.63 4952.76 2898.95 4898.31 2948.3 4831.75 2948.3Z" fill="#FFFFFF" fill-rule="evenodd"/><path d="M4925.43 2804.06C4921.05 2794.42 4908.93 2789.95 4898.35 2793.95 4889.59 2797.24 4884.43 2805.7 4885.72 2813.93L4852.45 2826.62C4848.84 2820.98 4842.4 2816.75 4835.18 2815.57L4835.18 2782.9C4843.94 2780.79 4850.65 2773.5 4850.65 2764.8 4850.65 2754.46 4841.36 2746 4830.02 2746L4830.02 2746C4818.67 2746 4809.39 2754.46 4809.39 2764.8 4809.39 2773.5 4816.09 2780.79 4824.86 2782.9L4824.86 2815.34C4817.38 2816.51 4811.19 2820.74 4807.58 2826.39L4774.32 2813.69C4775.61 2805.47 4770.71 2797 4761.68 2793.71 4751.11 2789.72 4738.99 2794.18 4734.6 2803.82 4730.22 2813.46 4735.12 2824.5 4745.69 2828.5 4754.46 2831.79 4764.52 2829.21 4769.93 2822.39L4803.97 2835.08C4803.71 2836.02 4803.71 2837.2 4803.71 2838.14 4803.71 2843.31 4805.52 2848.24 4808.87 2852.24L4782.05 2876.92C4774.06 2872.69 4763.74 2873.63 4757.04 2879.74 4749.04 2887.03 4749.04 2899.01 4757.04 2906.3 4765.03 2913.59 4778.18 2913.59 4786.18 2906.3 4792.88 2900.19 4793.92 2890.79 4789.27 2883.5L4816.61 2858.59C4820.48 2860.7 4824.86 2861.88 4829.5 2861.88 4829.76 2861.88 4829.76 2861.88 4830.02 2861.88 4830.28 2861.88 4830.28 2861.88 4830.53 2861.88 4835.18 2861.88 4839.56 2860.7 4843.43 2858.59L4870.76 2883.5C4866.12 2890.79 4867.15 2900.19 4873.86 2906.54 4881.85 2913.82 4895 2913.82 4903 2906.54 4910.99 2899.25 4910.99 2887.26 4903 2879.98 4896.29 2873.86 4885.98 2872.92 4877.98 2877.15L4851.16 2852.48C4854.52 2848.48 4856.32 2843.78 4856.32 2838.37 4856.32 2837.43 4856.32 2836.26 4856.06 2835.32L4890.1 2822.62C4895.52 2829.21 4905.58 2832.03 4914.34 2828.74 4924.66 2824.5 4929.82 2813.69 4925.43 2804.06Z" fill="#FFFFFF" fill-rule="evenodd"/><g clip-path="url(#clip34)"><g clip-path="url(#clip35)"><g clip-path="url(#clip36)"><path d="M390.984 345.712 333.823 288.551C326.049 280.777 315.531 278.033 305.471 279.862L285.35 259.742C303.184 236.877 313.702 207.61 313.702 176.515 313.702 101.061 251.968 39.3271 176.515 39.3271 101.061 39.3271 39.3271 101.061 39.3271 176.515 39.3271 251.968 101.061 313.702 176.515 313.702 207.61 313.702 236.42 303.184 259.742 285.35L279.862 305.471C278.033 315.531 280.777 326.049 288.551 333.823L345.712 390.984C352.115 397.386 360.346 400.587 368.577 400.587 376.808 400.587 385.04 397.386 391.442 390.984 403.331 378.18 403.331 358.059 390.984 345.712ZM176.057 285.807C115.695 285.807 66.3073 236.42 66.3073 176.057 66.3073 115.695 115.695 66.3073 176.057 66.3073 236.42 66.3073 285.807 115.695 285.807 176.057 285.807 236.42 236.42 285.807 176.057 285.807Z" fill="#FFFFFF" transform="matrix(1.10023 0 0 1 4651 3370)"/></g></g></g><g clip-path="url(#clip37)"><g clip-path="url(#clip38)"><g clip-path="url(#clip39)"><path d="M186.151 77.4024 187.917 64.5899 144.973 64.5899 151.226 19.2187 138.294 19.2187 132.041 64.5899 83.0463 64.5899 89.2988 19.2187 76.3667 19.2187 70.1142 64.5899 27.7604 64.5899 25.9944 77.4024 68.3482 77.4024 61.4338 127.585 19.0799 127.585 17.3139 140.397 59.6678 140.397 53.4131 185.781 66.3474 185.781 72.6041 140.397 121.595 140.397 115.34 185.781 128.274 185.781 134.531 140.397 177.474 140.397 179.24 127.585 136.293 127.585 143.21 77.4024ZM123.369 127.585 74.3658 127.585 81.2824 77.4024 130.275 77.4024Z" fill="#FFFFFF" transform="matrix(1.09756 0 0 1 4737 3444)"/></g></g></g><rect x="3763.5" y="1858.5" width="1457" height="604" stroke="#004BAA" stroke-width="4.58333" stroke-miterlimit="8" fill="#0169E8"/><text fill="#FFFFFF" font-family="Arial,Arial_MSFontService,sans-serif" font-weight="400" font-size="83" transform="matrix(1 0 0 1 3834.84 2191)">Tillitsanker</text><g clip-path="url(#clip40)"><g clip-path="url(#clip41)"><g clip-path="url(#clip42)"><path d="M4894.5 2005.94C4902.82 2005.94 4909.62 2012.74 4909.62 2021.06 4909.62 2029.38 4902.82 2036.19 4894.5 2036.19 4886.18 2036.19 4879.38 2029.38 4879.38 2021.06 4879.38 2012.74 4886.18 2005.94 4894.5 2005.94ZM5021.17 2129.21C5020.79 2126.56 5018.9 2124.29 5016.63 2123.16 5014.37 2122.02 5011.34 2122.4 5009.07 2124.29L4966.34 2157.19C4964.08 2158.7 4962.94 2161.35 4963.32 2164.37 4963.7 2167.02 4965.59 2169.29 4967.86 2170.42L4984.12 2177.23C4975.42 2214.66 4944.03 2242.64 4905.84 2247.18L4905.84 2092.91 5000.38 2092.91 5000.38 2070.22 4905.84 2070.22 4905.84 2056.98C4923.62 2051.31 4934.58 2033.54 4931.93 2015.01 4928.91 1996.86 4913.03 1983.25 4894.5 1983.25 4875.97 1983.25 4860.09 1996.86 4857.07 2015.39 4854.42 2033.92 4865.38 2051.69 4883.16 2057.36L4883.16 2070.22 4788.62 2070.22 4788.62 2092.91 4883.16 2092.91 4883.16 2247.18C4844.97 2242.27 4813.58 2214.28 4804.88 2176.85L4821.14 2170.04C4823.41 2168.91 4825.3 2166.64 4825.68 2163.99 4826.06 2161.35 4824.92 2158.7 4822.66 2157.19L4779.93 2124.29C4777.66 2122.78 4775.01 2122.4 4772.37 2123.16 4769.72 2124.29 4768.21 2126.56 4767.83 2129.21L4761.02 2182.9C4760.64 2185.55 4761.78 2188.19 4764.05 2189.71 4766.32 2191.22 4768.96 2191.6 4771.61 2190.84L4783.71 2185.92C4793.92 2223.74 4823.03 2253.99 4860.47 2265.71L4890.72 2281.97C4892.99 2283.1 4895.63 2283.1 4897.9 2281.97L4928.53 2265.33C4965.97 2253.61 4994.7 2223.36 5004.91 2185.55L5017.01 2190.84C5019.66 2191.97 5022.31 2191.6 5024.58 2189.71 5026.84 2188.19 5027.98 2185.55 5027.6 2182.9L5021.17 2129.21Z" fill="#FFFFFF"/></g></g></g><rect x="3752.5" y="4001.5" width="1457" height="604" stroke="#004BAA" stroke-width="4.58333" stroke-miterlimit="8" fill="#0169E8"/><text fill="#FFFFFF" font-family="Arial,Arial_MSFontService,sans-serif" font-weight="400" font-size="83" transform="matrix(1 0 0 1 3824.44 4334)">Dialog</text><g clip-path="url(#clip43)"><g clip-path="url(#clip44)"><g clip-path="url(#clip45)"><path d="M158.812 102.094 219.312 102.094 219.312 90.75C219.312 82.4312 212.506 75.625 204.188 75.625L45.375 75.625C37.0563 75.625 30.25 82.4312 30.25 90.75L30.25 192.844C30.25 201.163 37.0563 207.969 45.375 207.969L68.0625 207.969 68.0625 245.781 105.875 207.969 128.562 207.969 128.562 132.344C128.562 115.706 142.175 102.094 158.812 102.094Z" fill="#FFFFFF" transform="matrix(1.09917 0 0 1 4720 4131)"/><path d="M317.625 117.219 158.812 117.219C150.494 117.219 143.688 124.025 143.688 132.344L143.688 234.438C143.688 242.756 150.494 249.562 158.812 249.562L257.125 249.562 294.938 287.375 294.938 249.562 317.625 249.562C325.944 249.562 332.75 242.756 332.75 234.438L332.75 132.344C332.75 124.025 325.944 117.219 317.625 117.219Z" fill="#FFFFFF" transform="matrix(1.09917 0 0 1 4720 4131)"/></g></g></g></g></svg>