<svg width="5235" height="2412" xmlns="http://www.w3.org/2000/svg" xmlns:xlink="http://www.w3.org/1999/xlink" xml:space="preserve" overflow="hidden"><defs><clipPath id="clip0"><rect x="1178" y="1234" width="5235" height="2412"/></clipPath><clipPath id="clip1"><rect x="2272" y="2048" width="260" height="235"/></clipPath><clipPath id="clip2"><rect x="2272" y="2048" width="260" height="235"/></clipPath><clipPath id="clip3"><rect x="2272" y="2048" width="260" height="235"/></clipPath><clipPath id="clip4"><rect x="5879" y="2051" width="259" height="235"/></clipPath><clipPath id="clip5"><rect x="5879" y="2051" width="259" height="235"/></clipPath><clipPath id="clip6"><rect x="5879" y="2051" width="259" height="235"/></clipPath><clipPath id="clip7"><rect x="5814" y="2972" width="364" height="331"/></clipPath><clipPath id="clip8"><rect x="5814" y="2972" width="364" height="331"/></clipPath><clipPath id="clip9"><rect x="5814" y="2972" width="364" height="331"/></clipPath><clipPath id="clip10"><rect x="5879" y="3028" width="170" height="155"/></clipPath><clipPath id="clip11"><rect x="5879" y="3028" width="170" height="155"/></clipPath><clipPath id="clip12"><rect x="5879" y="3028" width="170" height="155"/></clipPath><clipPath id="clip13"><rect x="4505" y="2989" width="275" height="273"/></clipPath><clipPath id="clip14"><rect x="4505" y="2989" width="275" height="273"/></clipPath><clipPath id="clip15"><rect x="4505" y="2989" width="275" height="273"/></clipPath></defs><g clip-path="url(#clip0)" transform="translate(-1178 -1234)"><path d="M1216.5 1828.19C1216.5 1814.55 1227.55 1803.5 1241.19 1803.5L3557.81 1803.5C3571.45 1803.5 3582.5 1814.55 3582.5 1828.19L3582.5 2536.81C3582.5 2550.45 3571.45 2561.5 3557.81 2561.5L1241.19 2561.5C1227.55 2561.5 1216.5 2550.45 1216.5 2536.81Z" stroke="#EEEEEE" stroke-width="4.58333" stroke-miterlimit="8" fill="#777777" fill-rule="evenodd"/><text fill="#FFFFFF" font-family="Arial,Arial_MSFontService,sans-serif" font-weight="700" font-size="128" transform="matrix(1 0 0 1 1255.81 1951)">Leverandør</text><path d="M3721 1712.17C3721 1694.95 3734.96 1681 3752.17 1681L4646.83 1681C4664.04 1681 4678 1694.95 4678 1712.17L4678 2740.83C4678 2758.04 4664.04 2772 4646.83 2772L3752.17 2772C3734.96 2772 3721 2758.04 3721 2740.83Z" fill="#EEEEEE" fill-rule="evenodd"/><text fill="#281C2C" font-family="Arial,Arial_MSFontService,sans-serif" font-weight="700" font-size="128" transform="matrix(1 0 0 1 4017.76 1832)">Felles <tspan font-size="128" x="-132.344" y="154">semantikk</tspan></text><path d="M2014 2857.72C2014 2844.07 2025.07 2833 2038.72 2833L6360.28 2833C6373.93 2833 6385 2844.07 6385 2857.72L6385 3567.28C6385 3580.93 6373.93 3592 6360.28 3592L2038.72 3592C2025.07 3592 2014 3580.93 2014 3567.28Z" fill="#7BF5BC" fill-rule="evenodd"/><text fill="#281C2C" font-family="Arial,Arial_MSFontService,sans-serif" font-weight="700" font-size="128" transform="matrix(1 0 0 1 3749.21 3539)">Fellestjenester</text><path d="M4745.5 1716.94C4745.5 1697.37 4761.37 1681.5 4780.94 1681.5L6337.06 1681.5C6356.63 1681.5 6372.5 1697.37 6372.5 1716.94L6372.5 2734.06C6372.5 2753.63 6356.63 2769.5 6337.06 2769.5L4780.94 2769.5C4761.37 2769.5 4745.5 2753.63 4745.5 2734.06Z" stroke="#0169E8" stroke-width="4.58333" stroke-miterlimit="8" fill="#00BBD4" fill-rule="evenodd" fill-opacity="0.501961"/><text fill="#281C2C" font-family="Arial,Arial_MSFontService,sans-serif" font-weight="700" font-size="128" transform="matrix(1 0 0 1 5106.36 2713)">Virksomhet(er)<tspan font-size="110" x="-291.805" y="-1309">Virksomheter med lite behov </tspan><tspan font-size="110" x="220.543" y="-1177">for støtte</tspan></text><path d="M2014.5 1716.94C2014.5 1697.37 2030.37 1681.5 2049.94 1681.5L3620.06 1681.5C3639.63 1681.5 3655.5 1697.37 3655.5 1716.94L3655.5 2734.06C3655.5 2753.63 3639.63 2769.5 3620.06 2769.5L2049.94 2769.5C2030.37 2769.5 2014.5 2753.63 2014.5 2734.06Z" stroke="#0169E8" stroke-width="4.58333" stroke-miterlimit="8" fill="#00BBD4" fill-rule="evenodd" fill-opacity="0.501961"/><text fill="#281C2C" font-family="Arial,Arial_MSFontService,sans-serif" font-weight="700" font-size="128" transform="matrix(1 0 0 1 2382.11 2713)">Virksomhet(er)<tspan font-size="83" x="1423.24" y="-292">Datadeling mellom </tspan><tspan font-size="83" x="1478.24" y="-193">helsepersonell i </tspan><tspan font-size="83" x="1498.86" y="-94">ulike løsninger</tspan></text><rect x="2214.5" y="1938.5" width="1268" height="477" stroke="#1A111D" stroke-width="4.58333" stroke-miterlimit="8" fill="#281C2C"/><text fill="#FFFFFF" font-family="Arial,Arial_MSFontService,sans-serif" font-weight="400" font-size="110" transform="matrix(1 0 0 1 2538.57 2152)">Datadelings<tspan font-size="110" x="582.084" y="0">-</tspan><tspan font-size="110" x="116.6" y="132">tjeneste</tspan></text><rect x="4925.5" y="1938.5" width="1267" height="477" stroke="#004BAA" stroke-width="4.58333" stroke-miterlimit="8" fill="#0169E8"/><text fill="#FFFFFF" font-family="Arial,Arial_MSFontService,sans-serif" font-weight="400" font-size="110" transform="matrix(1 0 0 1 5249.03 2152)">Datadelings<tspan font-size="110" x="582.083" y="0">-</tspan><tspan font-size="110" x="116.577" y="132">tjeneste</tspan><tspan fill="#281C2C" font-weight="700" font-size="110" x="-3194.73" y="-778">Virksomheter med stort behov </tspan><tspan fill="#281C2C" font-weight="700" font-size="110" x="-2639.41" y="-646">for støtte</tspan></text><path d="M91.6665-18.3333 128.333-18.3333 128.333 18.3334 91.6665 18.3334ZM165-18.3333 201.667-18.3333 201.667 18.3334 165 18.3334ZM238.333-18.3332 275-18.3332 275 18.3334 238.333 18.3334ZM311.667-18.3332 348.333-18.3332 348.333 18.3335 311.667 18.3335ZM385-18.3332 421.666-18.3332 421.666 18.3335 385 18.3335ZM458.333-18.3332 495-18.3331 495 18.3335 458.333 18.3335ZM531.667-18.3331 568.333-18.3331 568.333 18.3335 531.667 18.3335ZM605-18.3331 641.667-18.3331 641.667 18.3336 605 18.3336ZM678.333-18.3331 715-18.3331 715 18.3336 678.333 18.3336ZM751.667-18.333 788.333-18.333 788.333 18.3336 751.667 18.3336ZM825-18.333 861.667-18.333 861.667 18.3337 825 18.3336ZM110 55 0 0 110-55ZM846.964-54.9997 956.964 0.000360892 846.964 55.0003Z" fill="#281C2C" transform="matrix(-1 0 0 1 4678.46 2177.5)"/><g clip-path="url(#clip1)"><g clip-path="url(#clip2)"><g clip-path="url(#clip3)"><path d="M73.4374 47.7343 36.7187 70.0104 117.5 118.969 154.219 96.6926Z" fill="#FFFFFF" transform="matrix(1.09787 0 0 1 2273 2048)"/><path d="M198.281 70.0104 117.5 21.0521 82.7395 42.1041 163.521 91.0624Z" fill="#FFFFFF" transform="matrix(1.09787 0 0 1 2273 2048)"/><path d="M36.7187 89.5937 36.7187 167.927 112.604 213.948 112.604 127.536 36.7187 81.5155Z" fill="#FFFFFF" transform="matrix(1.09787 0 0 1 2273 2048)"/><path d="M149.323 141 132.187 150.792 132.187 133.656 149.323 123.864 149.323 141ZM122.396 127.536 122.396 213.948 198.281 167.927 198.281 81.5155 122.396 127.536Z" fill="#FFFFFF" transform="matrix(1.09787 0 0 1 2273 2048)"/></g></g></g><g clip-path="url(#clip4)"><g clip-path="url(#clip5)"><g clip-path="url(#clip6)"><path d="M73.125 47.5313 36.5625 69.7125 117 118.463 153.563 96.2813Z" fill="#FFFFFF" transform="matrix(1.10256 0 0 1 5880 2052)"/><path d="M197.438 69.7125 117 20.9625 82.3875 41.925 162.825 90.675Z" fill="#FFFFFF" transform="matrix(1.10256 0 0 1 5880 2052)"/><path d="M36.5625 89.2125 36.5625 167.213 112.125 213.038 112.125 126.994 36.5625 81.1688Z" fill="#FFFFFF" transform="matrix(1.10256 0 0 1 5880 2052)"/><path d="M148.688 140.4 131.625 150.15 131.625 133.088 148.688 123.338 148.688 140.4ZM121.875 126.994 121.875 213.038 197.438 167.213 197.438 81.1688 121.875 126.994Z" fill="#FFFFFF" transform="matrix(1.10256 0 0 1 5880 2052)"/></g></g></g><rect x="4931.5" y="2919.5" width="1268" height="454" stroke="#004BAA" stroke-width="4.58333" stroke-miterlimit="8" stroke-dasharray="18.3333 13.75" fill="#00BBD4"/><text fill="#FFFFFF" font-family="Arial,Arial_MSFontService,sans-serif" font-weight="400" font-size="147" transform="matrix(1 0 0 1 5003.31 3113)">Pasient info. <tspan font-size="147" x="0" y="176">lokalisator</tspan></text><g clip-path="url(#clip7)"><g clip-path="url(#clip8)"><g clip-path="url(#clip9)"><path d="M293.906 259.875 250.938 216.906C245.094 211.062 237.188 209 229.625 210.375L214.5 195.25C227.906 178.062 235.812 156.062 235.812 132.688 235.812 75.9688 189.406 29.5625 132.688 29.5625 75.9688 29.5625 29.5625 75.9688 29.5625 132.688 29.5625 189.406 75.9688 235.812 132.688 235.812 156.062 235.812 177.719 227.906 195.25 214.5L210.375 229.625C209 237.188 211.062 245.094 216.906 250.938L259.875 293.906C264.688 298.719 270.875 301.125 277.062 301.125 283.25 301.125 289.438 298.719 294.25 293.906 303.188 284.281 303.188 269.156 293.906 259.875ZM132.344 214.844C86.9688 214.844 49.8438 177.719 49.8438 132.344 49.8438 86.9688 86.9688 49.8438 132.344 49.8438 177.719 49.8438 214.844 86.9688 214.844 132.344 214.844 177.719 177.719 214.844 132.344 214.844Z" fill="#FFFFFF" transform="matrix(1.1 0 0 1 5815 2972)"/></g></g></g><g clip-path="url(#clip10)"><g clip-path="url(#clip11)"><g clip-path="url(#clip12)"><path d="M139.84 58.1462 141.167 48.5212 108.907 48.5212 113.604 14.4375 103.889 14.4375 99.192 48.5212 62.386 48.5212 67.083 14.4375 57.3682 14.4375 52.6712 48.5212 20.8542 48.5212 19.5275 58.1462 51.3446 58.1462 46.1503 95.8441 14.3332 95.8441 13.0066 105.469 44.8236 105.469 40.125 139.562 49.8415 139.562 54.5417 105.469 91.3445 105.469 86.6459 139.562 96.3623 139.562 101.062 105.469 133.322 105.469 134.649 95.8441 102.386 95.8441 107.582 58.1462ZM92.6775 95.8441 55.8651 95.8441 61.061 58.1462 97.8654 58.1462Z" fill="#FFFFFF" transform="matrix(1.0974 0 0 1 5880 3028)"/></g></g></g><rect x="3566.5" y="2919.5" width="1267" height="454" stroke="#004BAA" stroke-width="4.58333" stroke-miterlimit="8" fill="#0169E8"/><text fill="#FFFFFF" font-family="Arial,Arial_MSFontService,sans-serif" font-weight="400" font-size="165" transform="matrix(1 0 0 1 3637.63 3207)">Tillitsanker</text><g clip-path="url(#clip13)"><g clip-path="url(#clip14)"><g clip-path="url(#clip15)"><path d="M136 39.6667C142.233 39.6667 147.333 44.7667 147.333 51 147.333 57.2333 142.233 62.3333 136 62.3333 129.767 62.3333 124.667 57.2333 124.667 51 124.667 44.7667 129.767 39.6667 136 39.6667ZM230.917 132.033C230.633 130.05 229.217 128.35 227.517 127.5 225.817 126.65 223.55 126.933 221.85 128.35L189.833 153C188.133 154.133 187.283 156.117 187.567 158.383 187.85 160.367 189.267 162.067 190.967 162.917L203.15 168.017C196.633 196.067 173.117 217.033 144.5 220.433L144.5 104.833 215.333 104.833 215.333 87.8333 144.5 87.8333 144.5 77.9166C157.817 73.6666 166.033 60.35 164.05 46.4666 161.783 32.8667 149.883 22.6667 136 22.6667 122.117 22.6667 110.217 32.8667 107.95 46.75 105.967 60.6333 114.183 73.95 127.5 78.2L127.5 87.8333 56.6666 87.8333 56.6666 104.833 127.5 104.833 127.5 220.433C98.8833 216.75 75.3666 195.783 68.85 167.733L81.0333 162.633C82.7333 161.783 84.15 160.083 84.4333 158.1 84.7166 156.117 83.8666 154.133 82.1666 153L50.15 128.35C48.45 127.217 46.4666 126.933 44.4833 127.5 42.5 128.35 41.3667 130.05 41.0833 132.033L35.9833 172.267C35.7 174.25 36.55 176.233 38.25 177.367 39.95 178.5 41.9333 178.783 43.9166 178.217L52.9833 174.533C60.6333 202.867 82.45 225.533 110.5 234.317L133.167 246.5C134.867 247.35 136.85 247.35 138.55 246.5L161.5 234.033C189.55 225.25 211.083 202.583 218.733 174.25L227.8 178.217C229.783 179.067 231.767 178.783 233.467 177.367 235.167 176.233 236.017 174.25 235.733 172.267L230.917 132.033Z" fill="#FFFFFF" transform="matrix(1.00368 0 0 1 4506 2990)"/></g></g></g><rect x="2214.5" y="2919.5" width="1268" height="454" stroke="#004BAA" stroke-width="4.58333" stroke-miterlimit="8" fill="#0169E8"/><text fill="#FFFFFF" font-family="Arial,Arial_MSFontService,sans-serif" font-weight="400" font-size="165" transform="matrix(1 0 0 1 2286.03 3108)">API<tspan font-size="165" x="0" y="198">katalog</tspan></text><path d="M3406.31 3253.84 3359.12 3210.96C3352.7 3205.12 3344.02 3203.07 3335.71 3204.44L3319.1 3189.34C3333.83 3172.19 3342.51 3150.24 3342.51 3126.91 3342.51 3070.31 3291.54 3024 3229.25 3024 3166.96 3024 3116 3070.31 3116 3126.91 3116 3183.51 3166.96 3229.82 3229.25 3229.82 3254.92 3229.82 3278.71 3221.93 3297.96 3208.55L3314.57 3223.65C3313.06 3231.19 3315.33 3239.08 3321.74 3244.92L3368.93 3287.8C3374.22 3292.6 3381.01 3295 3387.81 3295 3394.6 3295 3401.4 3292.6 3406.69 3287.8 3416.5 3278.19 3416.5 3263.1 3406.31 3253.84ZM3228.88 3208.9C3179.04 3208.9 3138.27 3171.85 3138.27 3126.57 3138.27 3081.29 3179.04 3044.24 3228.88 3044.24 3278.71 3044.24 3319.48 3081.29 3319.48 3126.57 3319.48 3171.85 3278.71 3208.9 3228.88 3208.9Z" fill="#FFFFFF" fill-rule="evenodd"/><path d="M3298.82 3100.72C3295.52 3093.46 3286.4 3090.1 3278.44 3093.11 3271.84 3095.58 3267.96 3101.96 3268.93 3108.15L3243.9 3117.71C3241.18 3113.46 3236.33 3110.27 3230.9 3109.39L3230.9 3084.79C3237.49 3083.19 3242.54 3077.71 3242.54 3071.16 3242.54 3063.37 3235.55 3057 3227.01 3057L3227.01 3057C3218.47 3057 3211.49 3063.37 3211.49 3071.16 3211.49 3077.71 3216.53 3083.19 3223.13 3084.79L3223.13 3109.21C3217.5 3110.1 3212.85 3113.28 3210.13 3117.53L3185.09 3107.97C3186.06 3101.78 3182.38 3095.41 3175.58 3092.93 3167.63 3089.92 3158.51 3093.28 3155.21 3100.54 3151.91 3107.8 3155.59 3116.12 3163.55 3119.12 3170.15 3121.6 3177.72 3119.66 3181.79 3114.52L3207.41 3124.08C3207.22 3124.79 3207.22 3125.67 3207.22 3126.38 3207.22 3130.27 3208.58 3133.99 3211.1 3137L3190.92 3155.58C3184.9 3152.4 3177.14 3153.11 3172.09 3157.71 3166.07 3163.19 3166.07 3172.22 3172.09 3177.71 3178.11 3183.2 3188 3183.2 3194.02 3177.71 3199.07 3173.11 3199.84 3166.03 3196.35 3160.54L3216.92 3141.78C3219.83 3143.37 3223.13 3144.26 3226.63 3144.26 3226.82 3144.26 3226.82 3144.26 3227.01 3144.26 3227.21 3144.26 3227.21 3144.26 3227.4 3144.26 3230.9 3144.26 3234.19 3143.37 3237.11 3141.78L3257.68 3160.54C3254.18 3166.03 3254.96 3173.11 3260.01 3177.89 3266.02 3183.37 3275.92 3183.37 3281.94 3177.89 3287.95 3172.4 3287.95 3163.37 3281.94 3157.89 3276.89 3153.28 3269.13 3152.58 3263.11 3155.76L3242.93 3137.18C3245.45 3134.17 3246.81 3130.63 3246.81 3126.56 3246.81 3125.85 3246.81 3124.96 3246.61 3124.26L3272.23 3114.7C3276.31 3119.66 3283.88 3121.78 3290.47 3119.3 3298.24 3116.12 3302.12 3107.97 3298.82 3100.72Z" fill="#FFFFFF" fill-rule="evenodd"/><path d="M2463.67 2348.5 3414.5 2348.5C3309.47 2348.5 3224.33 2390.81 3224.33 2443 3224.33 2495.19 3309.47 2537.5 3414.5 2537.5L2463.67 2537.5C2358.64 2537.5 2273.5 2495.19 2273.5 2443 2273.5 2390.81 2358.64 2348.5 2463.67 2348.5Z" stroke="#777777" stroke-width="4.58333" stroke-miterlimit="8" fill="#EEEEEE" fill-rule="evenodd"/><text fill="#281C2C" font-family="Arial,Arial_MSFontService,sans-serif" font-weight="400" font-size="83" transform="matrix(1 0 0 1 2536.6 2473)">Kopi av målinger</text></g></svg>