<svg width="5036" height="3652" xmlns="http://www.w3.org/2000/svg" xmlns:xlink="http://www.w3.org/1999/xlink" xml:space="preserve" overflow="hidden"><defs><filter id="fx0" x="-10%" y="-10%" width="120%" height="120%" filterUnits="userSpaceOnUse" primitiveUnits="userSpaceOnUse"><feComponentTransfer color-interpolation-filters="sRGB"><feFuncR type="discrete" tableValues="0 0"/><feFuncG type="discrete" tableValues="0 0"/><feFuncB type="discrete" tableValues="0 0"/><feFuncA type="linear" slope="0.4" intercept="0"/></feComponentTransfer><feGaussianBlur stdDeviation="6.11111 6.11111"/></filter><filter id="fx1" x="-10%" y="-10%" width="120%" height="120%" filterUnits="userSpaceOnUse" primitiveUnits="userSpaceOnUse"><feComponentTransfer color-interpolation-filters="sRGB"><feFuncR type="discrete" tableValues="0 0"/><feFuncG type="discrete" tableValues="0 0"/><feFuncB type="discrete" tableValues="0 0"/><feFuncA type="linear" slope="0.4" intercept="0"/></feComponentTransfer><feGaussianBlur stdDeviation="6.11111 6.11111"/></filter><filter id="fx2" x="-10%" y="-10%" width="120%" height="120%" filterUnits="userSpaceOnUse" primitiveUnits="userSpaceOnUse"><feComponentTransfer color-interpolation-filters="sRGB"><feFuncR type="discrete" tableValues="0 0"/><feFuncG type="discrete" tableValues="0 0"/><feFuncB type="discrete" tableValues="0 0"/><feFuncA type="linear" slope="0.4" intercept="0"/></feComponentTransfer><feGaussianBlur stdDeviation="6.11111 6.11111"/></filter><filter id="fx3" x="-10%" y="-10%" width="120%" height="120%" filterUnits="userSpaceOnUse" primitiveUnits="userSpaceOnUse"><feComponentTransfer color-interpolation-filters="sRGB"><feFuncR type="discrete" tableValues="0 0"/><feFuncG type="discrete" tableValues="0 0"/><feFuncB type="discrete" tableValues="0 0"/><feFuncA type="linear" slope="0.4" intercept="0"/></feComponentTransfer><feGaussianBlur stdDeviation="6.11111 6.11111"/></filter><filter id="fx4" x="-10%" y="-10%" width="120%" height="120%" filterUnits="userSpaceOnUse" primitiveUnits="userSpaceOnUse"><feComponentTransfer color-interpolation-filters="sRGB"><feFuncR type="discrete" tableValues="0 0"/><feFuncG type="discrete" tableValues="0 0"/><feFuncB type="discrete" tableValues="0 0"/><feFuncA type="linear" slope="0.4" intercept="0"/></feComponentTransfer><feGaussianBlur stdDeviation="6.11111 6.11111"/></filter><filter id="fx5" x="-10%" y="-10%" width="120%" height="120%" filterUnits="userSpaceOnUse" primitiveUnits="userSpaceOnUse"><feComponentTransfer color-interpolation-filters="sRGB"><feFuncR type="discrete" tableValues="0 0"/><feFuncG type="discrete" tableValues="0 0"/><feFuncB type="discrete" tableValues="0 0"/><feFuncA type="linear" slope="0.4" intercept="0"/></feComponentTransfer><feGaussianBlur stdDeviation="6.11111 6.11111"/></filter><filter id="fx6" x="-10%" y="-10%" width="120%" height="120%" filterUnits="userSpaceOnUse" primitiveUnits="userSpaceOnUse"><feComponentTransfer color-interpolation-filters="sRGB"><feFuncR type="discrete" tableValues="0 0"/><feFuncG type="discrete" tableValues="0 0"/><feFuncB type="discrete" tableValues="0 0"/><feFuncA type="linear" slope="0.4" intercept="0"/></feComponentTransfer><feGaussianBlur stdDeviation="6.11111 6.11111"/></filter><filter id="fx7" x="-10%" y="-10%" width="120%" height="120%" filterUnits="userSpaceOnUse" primitiveUnits="userSpaceOnUse"><feComponentTransfer color-interpolation-filters="sRGB"><feFuncR type="discrete" tableValues="0 0"/><feFuncG type="discrete" tableValues="0 0"/><feFuncB type="discrete" tableValues="0 0"/><feFuncA type="linear" slope="0.4" intercept="0"/></feComponentTransfer><feGaussianBlur stdDeviation="6.11111 6.11111"/></filter><clipPath id="clip8"><rect x="3697" y="904" width="5036" height="3652"/></clipPath><clipPath id="clip9"><path d="M4667.5 2292.5 4667.5 2540.5 5542.5 2540.5 5542.5 2292.5ZM3697 904 8733 904 8733 4556 3697 4556Z" fill-rule="evenodd" clip-rule="evenodd"/></clipPath><clipPath id="clip10"><rect x="-3" y="-3" width="926" height="300"/></clipPath><clipPath id="clip11"><rect x="0" y="0" width="920" height="293"/></clipPath><clipPath id="clip12"><rect x="70" y="59" width="230" height="124"/></clipPath><clipPath id="clip13"><rect x="0" y="0" width="373" height="271"/></clipPath><clipPath id="clip14"><rect x="5296" y="2323" width="181" height="187"/></clipPath><clipPath id="clip15"><rect x="5296" y="2323" width="181" height="187"/></clipPath><clipPath id="clip16"><rect x="5296" y="2323" width="181" height="187"/></clipPath><clipPath id="clip17"><path d="M4667.5 2571.5 4667.5 2819.5 5536.5 2819.5 5536.5 2571.5ZM3697 904 8733 904 8733 4556 3697 4556Z" fill-rule="evenodd" clip-rule="evenodd"/></clipPath><clipPath id="clip18"><rect x="-3" y="-3" width="919" height="300"/></clipPath><clipPath id="clip19"><rect x="0" y="0" width="914" height="293"/></clipPath><clipPath id="clip20"><rect x="66" y="56" width="386" height="282"/></clipPath><clipPath id="clip21"><rect x="0" y="0" width="520" height="403"/></clipPath><clipPath id="clip22"><rect x="5296" y="2601" width="188" height="188"/></clipPath><clipPath id="clip23"><rect x="5296" y="2601" width="188" height="188"/></clipPath><clipPath id="clip24"><rect x="5296" y="2601" width="188" height="188"/></clipPath><clipPath id="clip25"><path d="M7461.5 2381.5 7461.5 2630.5 8336.5 2630.5 8336.5 2381.5ZM3697 904 8733 904 8733 4556 3697 4556Z" fill-rule="evenodd" clip-rule="evenodd"/></clipPath><clipPath id="clip26"><rect x="-3" y="-3" width="926" height="300"/></clipPath><clipPath id="clip27"><rect x="0" y="0" width="920" height="294"/></clipPath><clipPath id="clip28"><rect x="70" y="59" width="230" height="124"/></clipPath><clipPath id="clip29"><rect x="0" y="0" width="373" height="271"/></clipPath><clipPath id="clip30"><rect x="8090" y="2412" width="181" height="188"/></clipPath><clipPath id="clip31"><rect x="8090" y="2412" width="181" height="188"/></clipPath><clipPath id="clip32"><rect x="8090" y="2412" width="181" height="188"/></clipPath><clipPath id="clip33"><path d="M7461.5 2661.5 7461.5 2909.5 8330.5 2909.5 8330.5 2661.5ZM3697 904 8733 904 8733 4556 3697 4556Z" fill-rule="evenodd" clip-rule="evenodd"/></clipPath><clipPath id="clip34"><rect x="-3" y="-3" width="919" height="300"/></clipPath><clipPath id="clip35"><rect x="0" y="0" width="914" height="293"/></clipPath><clipPath id="clip36"><rect x="66" y="56" width="386" height="282"/></clipPath><clipPath id="clip37"><rect x="0" y="0" width="520" height="403"/></clipPath><clipPath id="clip38"><rect x="8090" y="2690" width="188" height="188"/></clipPath><clipPath id="clip39"><rect x="8090" y="2690" width="188" height="188"/></clipPath><clipPath id="clip40"><rect x="8090" y="2690" width="188" height="188"/></clipPath><clipPath id="clip41"><rect x="8189" y="3421" width="259" height="235"/></clipPath><clipPath id="clip42"><rect x="8189" y="3421" width="259" height="235"/></clipPath><clipPath id="clip43"><rect x="8189" y="3421" width="259" height="235"/></clipPath><clipPath id="clip44"><rect x="4552" y="3309" width="281" height="236"/></clipPath><clipPath id="clip45"><rect x="4552" y="3309" width="281" height="236"/></clipPath><clipPath id="clip46"><rect x="4552" y="3309" width="281" height="236"/></clipPath></defs><g clip-path="url(#clip8)" transform="translate(-3697 -904)"><path d="M3732.34 3939C3718.34 3939 3707 3927.66 3707 3913.66L3707 3186.34C3707 3172.34 3718.34 3161 3732.34 3161L5771.66 3161C5785.66 3161 5797 3172.34 5797 3186.34L5797 3913.66C5797 3927.66 5785.66 3939 5771.66 3939Z" fill="#777777" fill-rule="evenodd"/><text fill="#FFFFFF" font-family="Arial,Arial_MSFontService,sans-serif" font-weight="700" font-size="110" transform="matrix(-1.83697e-16 -1 1 -1.83697e-16 3837.6 3899)">Datadelings<tspan font-size="110" x="623" y="1.14443e-13">-</tspan><tspan font-size="110" x="-2.4248e-14" y="132">tjenester</tspan><tspan font-size="110" x="-4.84961e-14" y="264">fra </tspan><tspan font-size="110" x="-7.27441e-14" y="396">leverandør</tspan></text><path d="M5115.75 3071.91 5116.31 3154.4 5088.81 3154.59 5088.25 3072.09ZM5143.74 3143.44 5103.05 3226.22 5061.24 3144Z" fill="#3C3C3C"/><path d="M4811.83 2849 5536 2849C5456.01 2849 5391.17 2898.92 5391.17 2960.5 5391.17 3022.08 5456.01 3072 5536 3072L4811.83 3072C4731.84 3072 4667 3022.08 4667 2960.5 4667 2898.92 4731.84 2849 4811.83 2849Z" fill="#A6A6A6" fill-rule="evenodd"/><text fill="#FFFFFF" font-family="Arial,Arial_MSFontService,sans-serif" font-weight="400" font-size="92" transform="matrix(1 0 0 1 4985.39 2939)">Helse<tspan font-size="92" x="234.896" y="0">-</tspan><tspan font-size="92" x="-127.485" y="110">opplysninger</tspan></text><g clip-path="url(#clip9)"><g clip-path="url(#clip10)" filter="url(#fx0)" transform="translate(4655 2280)"><g clip-path="url(#clip11)"><rect x="22.2227" y="22.2227" width="875" height="248" stroke="#004BAA" stroke-width="5" stroke-miterlimit="8" fill="#014FAE"/></g></g><g clip-path="url(#clip12)" filter="url(#fx1)" transform="translate(4928 2307)"><g clip-path="url(#clip13)"><path d="M8.70117 0 8.70117-78.7402 65.6348-78.7402 65.6348-69.4482 19.1211-69.4482 19.1211-45.332 62.6807-45.332 62.6807-36.0937 19.1211-36.0937 19.1211-9.29199 67.4609-9.29199 67.4609 0ZM81.8197 0 81.8197-78.7402 111.522-78.7402C116.75-78.7402 120.742-78.4896 123.499-77.9883 127.367-77.3437 130.607-76.1173 133.221-74.3091 135.835-72.5008 137.939-69.9674 139.532-66.709 141.125-63.4505 141.922-59.8698 141.922-55.9668 141.922-49.2708 139.792-43.6043 135.531-38.9673 131.27-34.3302 123.571-32.0117 112.435-32.0117L92.2396-32.0117 92.2396 0ZM92.2396-41.3037 112.596-41.3037C119.328-41.3037 124.108-42.557 126.937-45.0635 129.766-47.57 131.18-51.097 131.18-55.6445 131.18-58.9388 130.347-61.7586 128.682-64.104 127.017-66.4494 124.824-67.998 122.103-68.75 120.348-69.2155 117.108-69.4482 112.381-69.4482L92.2396-69.4482ZM149.836-22.3437 159.235-23.6328C159.486-17.6172 160.614-13.4993 162.619-11.2793 164.624-9.05924 167.399-7.94922 170.944-7.94922 173.558-7.94922 175.814-8.54899 177.712-9.74853 179.609-10.9481 180.916-12.5773 181.632-14.6362 182.349-16.6951 182.707-19.9805 182.707-24.4922L182.707-78.7402 193.127-78.7402 193.127-25.083C193.127-18.4945 192.33-13.3919 190.736-9.77539 189.143-6.15885 186.619-3.40169 183.163-1.50391 179.708 0.39388 175.653 1.34277 170.998 1.34277 164.087 1.34277 158.796-0.644531 155.126-4.61914 151.456-8.59375 149.692-14.502 149.836-22.3437Z" fill="#FFFFFF" transform="matrix(1 0 0 1 85.6543 160)"/></g></g></g><rect x="4667.5" y="2292.5" width="875" height="248" stroke="#004BAA" stroke-width="4.58333" stroke-miterlimit="8" fill="#014FAE"/><text fill="#FFFFFF" font-family="Arial,Arial_MSFontService,sans-serif" font-weight="400" font-size="110" transform="matrix(1 0 0 1 5003.93 2457)">EPJ</text><g clip-path="url(#clip14)"><g clip-path="url(#clip15)"><g clip-path="url(#clip16)"><path d="M111.805 70.326C103.886 70.326 97.6645 63.9156 97.6645 56.1854 97.6645 48.4552 104.075 42.0447 111.805 42.0447 119.724 42.0447 125.946 48.4552 125.946 56.1854 125.946 63.9156 119.535 70.326 111.805 70.326ZM143.669 47.3239C142.914 44.6843 141.972 42.2333 140.652 39.9708L143.669 31.1093 136.881 24.3218 128.02 27.3385C125.757 26.0187 123.306 25.076 120.667 24.3218L116.519 16.026 107.092 16.026 102.944 24.3218C100.304 25.076 97.853 26.0187 95.5905 27.3385L86.7291 24.3218 79.9416 31.1093 82.9582 39.9708C81.6385 42.2333 80.6957 44.6843 79.9416 47.3239L71.6458 51.4718 71.6458 60.8989 79.9416 65.0468C80.6957 67.6864 81.6385 70.1374 82.9582 72.3999L79.9416 81.2614 86.5405 87.8603 95.402 84.8437C97.6645 86.1635 100.116 87.1062 102.755 87.8603L106.903 96.1561 116.33 96.1561 120.478 87.8603C123.118 87.1062 125.569 86.1635 127.831 84.8437L136.693 87.8603 143.48 81.2614 140.463 72.3999C141.783 70.1374 142.914 67.4978 143.669 65.0468L151.964 60.8989 151.964 51.4718 143.669 47.3239Z" fill="#FFFFFF" transform="matrix(1 0 0 1.02763 5296 2323)"/><path d="M69.1947 138.955C61.276 138.955 55.0541 132.545 55.0541 124.814 55.0541 116.896 61.4645 110.674 69.1947 110.674 77.1135 110.674 83.3353 117.084 83.3353 124.814 83.3353 132.545 77.1135 138.955 69.1947 138.955L69.1947 138.955ZM98.0416 108.6 101.058 99.7384 94.2707 92.9509 85.4093 95.9676C83.1468 94.6478 80.5072 93.7051 78.0562 92.9509L73.9083 84.6551 64.4812 84.6551 60.3333 92.9509C57.6937 93.7051 55.2426 94.6478 52.9802 95.9676L44.1187 92.9509 37.5197 99.5499 40.3479 108.411C39.0281 110.674 38.0854 113.313 37.3312 115.764L29.0354 119.912 29.0354 129.339 37.3312 133.487C38.0854 136.127 39.0281 138.578 40.3479 140.84L37.5197 149.702 44.1187 156.301 52.9802 153.473C55.2426 154.793 57.6937 155.735 60.3333 156.489L64.4812 164.785 73.9083 164.785 78.0562 156.489C80.6957 155.735 83.1468 154.793 85.4093 153.473L94.2707 156.489 100.87 149.702 98.0416 141.029C99.3614 138.767 100.304 136.315 101.058 133.676L109.354 129.528 109.354 120.101 101.058 115.953C100.304 113.313 99.3614 110.862 98.0416 108.6Z" fill="#FFFFFF" transform="matrix(1 0 0 1.02763 5296 2323)"/></g></g></g><g clip-path="url(#clip17)"><g clip-path="url(#clip18)" filter="url(#fx2)" transform="translate(4655 2559)"><g clip-path="url(#clip19)"><rect x="22.2227" y="22.2229" width="869" height="248" stroke="#004BAA" stroke-width="5" stroke-miterlimit="8" fill="#014FAE"/></g></g><g clip-path="url(#clip20)" filter="url(#fx3)" transform="translate(4851 2520)"><g clip-path="url(#clip21)"><path d="M8.48633 0 8.48633-78.7402 35.6103-78.7402C41.7334-78.7402 46.4062-78.3642 49.6289-77.6123 54.1406-76.5739 57.9899-74.694 61.1768-71.9726 65.3304-68.4635 68.4367-63.9787 70.4956-58.5181 72.5545-53.0574 73.584-46.818 73.584-39.7998 73.584-33.82 72.8857-28.5205 71.4893-23.9014 70.0928-19.2822 68.3024-15.4598 66.1182-12.4341 63.9339-9.40837 61.5438-7.02718 58.9478-5.29053 56.3517-3.55387 53.2186-2.23796 49.5483-1.34277 45.8781-0.447591 41.6618 0 36.8994 0ZM18.9062-9.29199 35.7178-9.29199C40.9098-9.29199 44.9829-9.77539 47.937-10.7422 50.8911-11.709 53.2454-13.0697 55-14.8242 57.4707-17.2949 59.3953-20.616 60.7739-24.7876 62.1525-28.9591 62.8418-34.0169 62.8418-39.9609 62.8418-48.1966 61.4901-54.5255 58.7866-58.9478 56.0832-63.3699 52.7978-66.333 48.9307-67.8369 46.1377-68.9111 41.6439-69.4482 35.4492-69.4482L18.9062-69.4482ZM88.444 0 88.444-78.7402 98.8639-78.7402 98.8639-46.4062 139.792-46.4062 139.792-78.7402 150.212-78.7402 150.212 0 139.792 0 139.792-37.1143 98.8639-37.1143 98.8639 0ZM164.588-38.3496C164.588-51.4193 168.097-61.6512 175.116-69.0454 182.134-76.4396 191.193-80.1367 202.293-80.1367 209.562-80.1367 216.115-78.4001 221.951-74.9268 227.788-71.4534 232.237-66.6105 235.299-60.3979 238.36-54.1854 239.891-47.1403 239.891-39.2627 239.891-31.2777 238.28-24.1341 235.057-17.832 231.834-11.5299 227.269-6.75863 221.361-3.51807 215.452-0.277507 209.079 1.34277 202.24 1.34277 194.827 1.34277 188.203-0.447591 182.367-4.02832 176.53-7.60905 172.108-12.4967 169.1-18.6914 166.092-24.8861 164.588-31.4388 164.588-38.3496ZM175.33-38.1885C175.33-28.6995 177.882-21.2248 182.984-15.7642 188.087-10.3035 194.487-7.57324 202.186-7.57324 210.028-7.57324 216.482-10.3304 221.549-15.8447 226.615-21.359 229.149-29.1829 229.149-39.3164 229.149-45.7259 228.066-51.3208 225.899-56.1011 223.733-60.8813 220.564-64.5874 216.392-67.2192 212.221-69.8511 207.539-71.167 202.347-71.167 194.971-71.167 188.624-68.6336 183.306-63.5669 177.989-58.5002 175.33-50.0407 175.33-38.1885Z" fill="#FFFFFF" transform="matrix(1 0 0 1 137.898 160)"/><path d="M3.38379-17.0264 12.9443-18.5303C13.4814-14.6989 14.9764-11.7627 17.4292-9.72168 19.882-7.68066 23.3105-6.66016 27.7148-6.66016 32.1549-6.66016 35.4492-7.56429 37.5977-9.37256 39.7461-11.1808 40.8203-13.3024 40.8203-15.7373 40.8203-17.9215 39.8714-19.6403 37.9736-20.8936 36.6488-21.7529 33.3545-22.8451 28.0908-24.1699 21.001-25.9603 16.0864-27.5089 13.3472-28.8159 10.6079-30.1229 8.53109-31.9311 7.1167-34.2407 5.70231-36.5503 4.99512-39.1016 4.99512-41.8945 4.99512-44.4368 5.57699-46.7912 6.74072-48.9575 7.90446-51.1239 9.48893-52.9232 11.4941-54.3555 12.998-55.4655 15.048-56.4054 17.644-57.1753 20.2401-57.9451 23.0241-58.3301 25.9961-58.3301 30.472-58.3301 34.4019-57.6855 37.7856-56.3965 41.1694-55.1074 43.667-53.3618 45.2783-51.1597 46.8896-48.9575 47.9997-46.0124 48.6084-42.3242L39.1553-41.0352C38.7256-43.9714 37.4813-46.263 35.4224-47.9102 33.3634-49.5573 30.4541-50.3809 26.6943-50.3809 22.2542-50.3809 19.0853-49.6468 17.1875-48.1787 15.2897-46.7106 14.3408-44.9919 14.3408-43.0225 14.3408-41.7692 14.7347-40.6413 15.5225-39.6387 16.3102-38.6003 17.5456-37.7409 19.2285-37.0605 20.1953-36.7025 23.042-35.8789 27.7686-34.5898 34.6077-32.7637 39.3791-31.2687 42.0825-30.105 44.786-28.9412 46.9075-27.2493 48.4473-25.0293 49.987-22.8092 50.7568-20.0521 50.7568-16.7578 50.7568-13.5352 49.8169-10.5005 47.937-7.65381 46.0571-4.80713 43.3447-2.60498 39.7998-1.04736 36.2549 0.510254 32.2445 1.28906 27.7686 1.28906 20.3564 1.28906 14.7078-0.250651 10.8228-3.33008 6.93766-6.4095 4.45801-10.9749 3.38379-17.0264ZM61.8213 21.9678 60.7471 12.8906C62.8597 13.4635 64.7038 13.75 66.2793 13.75 68.4277 13.75 70.1465 13.3919 71.4355 12.6758 72.7246 11.9596 73.7809 10.957 74.6045 9.66797 75.2132 8.70117 76.1979 6.30208 77.5586 2.4707 77.7376 1.93359 78.0241 1.14583 78.418 0.107422L56.7725-57.041 67.1924-57.041 79.0625-24.0088C80.6022-19.8193 81.9808-15.415 83.1982-10.7959 84.3083-15.236 85.6331-19.5687 87.1728-23.7939L99.3652-57.041 109.033-57.041 87.334 0.966797C85.0065 7.23307 83.1982 11.5478 81.9092 13.9111 80.1904 17.098 78.221 19.4344 76.001 20.9204 73.7809 22.4064 71.1312 23.1494 68.0518 23.1494 66.1898 23.1494 64.1129 22.7555 61.8213 21.9678ZM113.384-17.0264 122.944-18.5303C123.481-14.6989 124.976-11.7627 127.429-9.72168 129.882-7.68066 133.311-6.66016 137.715-6.66016 142.155-6.66016 145.449-7.56429 147.598-9.37256 149.746-11.1808 150.82-13.3024 150.82-15.7373 150.82-17.9215 149.871-19.6403 147.974-20.8936 146.649-21.7529 143.354-22.8451 138.091-24.1699 131.001-25.9603 126.086-27.5089 123.347-28.8159 120.608-30.1229 118.531-31.9311 117.117-34.2407 115.702-36.5503 114.995-39.1016 114.995-41.8945 114.995-44.4368 115.577-46.7912 116.741-48.9575 117.904-51.1239 119.489-52.9232 121.494-54.3555 122.998-55.4655 125.048-56.4054 127.644-57.1753 130.24-57.9451 133.024-58.3301 135.996-58.3301 140.472-58.3301 144.402-57.6855 147.786-56.3965 151.169-55.1074 153.667-53.3618 155.278-51.1597 156.89-48.9575 158-46.0124 158.608-42.3242L149.155-41.0352C148.726-43.9714 147.481-46.263 145.422-47.9102 143.363-49.5573 140.454-50.3809 136.694-50.3809 132.254-50.3809 129.085-49.6468 127.187-48.1787 125.29-46.7106 124.341-44.9919 124.341-43.0225 124.341-41.7692 124.735-40.6413 125.522-39.6387 126.31-38.6003 127.546-37.7409 129.229-37.0605 130.195-36.7025 133.042-35.8789 137.769-34.5898 144.608-32.7637 149.379-31.2687 152.083-30.105 154.786-28.9412 156.908-27.2493 158.447-25.0293 159.987-22.8092 160.757-20.0521 160.757-16.7578 160.757-13.5352 159.817-10.5005 157.937-7.65381 156.057-4.80713 153.345-2.60498 149.8-1.04736 146.255 0.510254 142.244 1.28906 137.769 1.28906 130.356 1.28906 124.708-0.250651 120.823-3.33008 116.938-6.4095 114.458-10.9749 113.384-17.0264ZM193.359-8.64746 194.756-0.107422C192.034 0.465495 189.6 0.751953 187.451 0.751953 183.942 0.751953 181.221 0.19694 179.287-0.913086 177.353-2.02311 175.993-3.48226 175.205-5.29053 174.417-7.09879 174.023-10.9033 174.023-16.7041L174.023-49.5215 166.934-49.5215 166.934-57.041 174.023-57.041 174.023-71.167 183.638-76.9678 183.638-57.041 193.359-57.041 193.359-49.5215 183.638-49.5215 183.638-16.167C183.638-13.4098 183.808-11.6374 184.148-10.8496 184.488-10.0618 185.043-9.43522 185.813-8.96973 186.583-8.50423 187.684-8.27148 189.116-8.27148 190.19-8.27148 191.605-8.39681 193.359-8.64746ZM241.663-18.3691 251.654-17.1338C250.078-11.2972 247.16-6.76758 242.899-3.54492 238.638-0.322266 233.195 1.28906 226.571 1.28906 218.228 1.28906 211.612-1.28011 206.724-6.41846 201.837-11.5568 199.393-18.763 199.393-28.0371 199.393-37.6335 201.864-45.0814 206.805-50.3809 211.746-55.6803 218.156-58.3301 226.034-58.3301 233.66-58.3301 239.891-55.734 244.725-50.542 249.559-45.3499 251.976-38.0452 251.976-28.6279 251.976-28.055 251.958-27.1956 251.922-26.0498L209.383-26.0498C209.741-19.7835 211.514-14.9853 214.701-11.6553 217.887-8.32519 221.862-6.66016 226.624-6.66016 230.169-6.66016 233.195-7.59115 235.701-9.45312 238.208-11.3151 240.195-14.2871 241.663-18.3691ZM209.92-33.999 241.771-33.999C241.341-38.7972 240.124-42.3958 238.118-44.7949 235.039-48.5189 231.047-50.3809 226.141-50.3809 221.701-50.3809 217.968-48.8949 214.942-45.9228 211.916-42.9508 210.242-38.9762 209.92-33.999ZM263.918 0 263.918-57.041 272.565-57.041 272.565-49.0381C274.355-51.831 276.737-54.078 279.709-55.7788 282.681-57.4797 286.064-58.3301 289.86-58.3301 294.085-58.3301 297.55-57.4528 300.253-55.6982 302.957-53.9437 304.863-51.4909 305.973-48.3398 310.485-55 316.357-58.3301 323.59-58.3301 329.248-58.3301 333.599-56.7635 336.642-53.6304 339.686-50.4972 341.208-45.6722 341.208-39.1553L341.208 0 331.593 0 331.593-35.9326C331.593-39.7998 331.28-42.5838 330.653-44.2847 330.027-45.9855 328.89-47.3551 327.243-48.3936 325.596-49.432 323.662-49.9512 321.442-49.9512 317.432-49.9512 314.102-48.6173 311.452-45.9497 308.802-43.2821 307.477-39.012 307.477-33.1396L307.477 0 297.809 0 297.809-37.0605C297.809-41.3574 297.021-44.5801 295.446-46.7285 293.87-48.8769 291.292-49.9512 287.712-49.9512 284.99-49.9512 282.475-49.235 280.165-47.8027 277.856-46.3704 276.182-44.2757 275.143-41.5186 274.105-38.7614 273.586-34.7868 273.586-29.5947L273.586 0Z" fill="#FFFFFF" transform="matrix(1 0 0 1 86.0605 292)"/></g></g></g><rect x="4667.5" y="2571.5" width="869" height="248" stroke="#004BAA" stroke-width="4.58333" stroke-miterlimit="8" fill="#014FAE"/><text fill="#FFFFFF" font-family="Arial,Arial_MSFontService,sans-serif" font-weight="400" font-size="110" transform="matrix(1 0 0 1 4979.18 2670)">DHO <tspan font-size="110" x="-51.8374" y="132">system</tspan></text><g clip-path="url(#clip22)"><g clip-path="url(#clip23)"><g clip-path="url(#clip24)"><path d="M5411.89 2674.27C5403.76 2674.27 5397.36 2667.68 5397.36 2659.74 5397.36 2651.79 5403.95 2645.21 5411.89 2645.21 5420.03 2645.21 5426.43 2651.79 5426.43 2659.74 5426.43 2667.68 5419.84 2674.27 5411.89 2674.27ZM5444.64 2650.63C5443.86 2647.92 5442.89 2645.4 5441.54 2643.07L5444.64 2633.97 5437.66 2626.99 5428.56 2630.09C5426.23 2628.74 5423.71 2627.77 5421 2626.99L5416.74 2618.47 5407.05 2618.47 5402.79 2626.99C5400.08 2627.77 5397.56 2628.74 5395.23 2630.09L5386.12 2626.99 5379.15 2633.97 5382.25 2643.07C5380.89 2645.4 5379.93 2647.92 5379.15 2650.63L5370.62 2654.89 5370.62 2664.58 5379.15 2668.84C5379.93 2671.56 5380.89 2674.07 5382.25 2676.4L5379.15 2685.51 5385.93 2692.29 5395.04 2689.19C5397.36 2690.54 5399.88 2691.51 5402.59 2692.29L5406.86 2700.81 5416.54 2700.81 5420.81 2692.29C5423.52 2691.51 5426.04 2690.54 5428.36 2689.19L5437.47 2692.29 5444.44 2685.51 5441.34 2676.4C5442.7 2674.07 5443.86 2671.36 5444.64 2668.84L5453.16 2664.58 5453.16 2654.89 5444.64 2650.63Z" fill="#FFFFFF"/><path d="M5368.11 2744.79C5359.97 2744.79 5353.58 2738.21 5353.58 2730.26 5353.58 2722.12 5360.16 2715.73 5368.11 2715.73 5376.24 2715.73 5382.64 2722.32 5382.64 2730.26 5382.64 2738.21 5376.24 2744.79 5368.11 2744.79L5368.11 2744.79ZM5397.75 2713.6 5400.85 2704.49 5393.88 2697.52 5384.77 2700.62C5382.44 2699.26 5379.73 2698.29 5377.21 2697.52L5372.95 2688.99 5363.26 2688.99 5359 2697.52C5356.29 2698.29 5353.77 2699.26 5351.44 2700.62L5342.34 2697.52 5335.56 2704.3 5338.46 2713.41C5337.11 2715.73 5336.14 2718.44 5335.36 2720.96L5326.84 2725.23 5326.84 2734.91 5335.36 2739.18C5336.14 2741.89 5337.11 2744.41 5338.46 2746.73L5335.56 2755.84 5342.34 2762.62 5351.44 2759.71C5353.77 2761.07 5356.29 2762.04 5359 2762.81L5363.26 2771.34 5372.95 2771.34 5377.21 2762.81C5379.93 2762.04 5382.44 2761.07 5384.77 2759.71L5393.88 2762.81 5400.66 2755.84 5397.75 2746.93C5399.11 2744.6 5400.08 2742.08 5400.85 2739.37L5409.38 2735.11 5409.38 2725.42 5400.85 2721.16C5400.08 2718.44 5399.11 2715.93 5397.75 2713.6Z" fill="#FFFFFF"/></g></g></g><path d="M4336.5 1792.47C4336.5 1764.32 4359.32 1741.5 4387.47 1741.5L5850.53 1741.5C5878.68 1741.5 5901.5 1764.32 5901.5 1792.47L5901.5 4084.53C5901.5 4112.68 5878.68 4135.5 5850.53 4135.5L4387.47 4135.5C4359.32 4135.5 4336.5 4112.68 4336.5 4084.53Z" stroke="#0169E8" stroke-width="4.58333" stroke-miterlimit="8" fill="#027993" fill-rule="evenodd" fill-opacity="0.501961"/><text fill="#281C2C" font-family="Arial,Arial_MSFontService,sans-serif" font-weight="700" font-size="128" transform="matrix(1 0 0 1 4708.24 4075)">Fellesløsning</text><path d="M4336 4285.12C4336 4280.08 4340.08 4276 4345.12 4276L8666.88 4276C8671.92 4276 8676 4280.08 8676 4285.12L8676 4546.88C8676 4551.92 8671.92 4556 8666.88 4556L4345.12 4556C4340.08 4556 4336 4551.92 4336 4546.88Z" fill="#7BF5BC" fill-rule="evenodd"/><text fill="#281C2C" font-family="Arial,Arial_MSFontService,sans-serif" font-weight="700" font-size="110" transform="matrix(1 0 0 1 6121.32 4457)">Fellestjenester</text><path d="M6031 2721.94C6031 2704.85 6044.85 2691 6061.94 2691L6950.06 2691C6967.15 2691 6981 2704.85 6981 2721.94L6981 4114.06C6981 4131.15 6967.15 4145 6950.06 4145L6061.94 4145C6044.85 4145 6031 4131.15 6031 4114.06Z" fill="#EEEEEE" fill-rule="evenodd"/><text fill="#281C2C" font-family="Arial,Arial_MSFontService,sans-serif" font-weight="700" font-size="110" transform="matrix(1 0 0 1 6199.96 2824)">Semantiske <tspan font-size="110" x="-94.5313" y="132">spesifikasjoner</tspan><tspan font-size="83" x="-64.2061" y="301">Datadeling mellom </tspan><tspan font-size="83" x="-9.20606" y="400">helsepersonell i </tspan><tspan font-size="83" x="11.4189" y="499">ulike løsninger</tspan></text><path d="M7605.83 2938 8330 2938C8250.01 2938 8185.17 2987.92 8185.17 3049.5 8185.17 3111.08 8250.01 3161 8330 3161L7605.83 3161C7525.84 3161 7461 3111.08 7461 3049.5 7461 2987.92 7525.84 2938 7605.83 2938Z" fill="#A6A6A6" fill-rule="evenodd"/><text fill="#FFFFFF" font-family="Arial,Arial_MSFontService,sans-serif" font-weight="400" font-size="92" transform="matrix(1 0 0 1 7779.36 3029)">Helse<tspan font-size="92" x="234.896" y="0">-</tspan><tspan font-size="92" x="-127.485" y="110">opplysninger</tspan></text><g clip-path="url(#clip25)"><g clip-path="url(#clip26)" filter="url(#fx4)" transform="translate(7449 2369)"><g clip-path="url(#clip27)"><rect x="22.2227" y="22.2227" width="875" height="249" stroke="#004BAA" stroke-width="5" stroke-miterlimit="8" fill="#014FAE"/></g></g><g clip-path="url(#clip28)" filter="url(#fx5)" transform="translate(7722 2396)"><g clip-path="url(#clip29)"><path d="M8.70117 0 8.70117-78.7402 65.6348-78.7402 65.6348-69.4482 19.1211-69.4482 19.1211-45.332 62.6807-45.332 62.6807-36.0937 19.1211-36.0937 19.1211-9.29199 67.4609-9.29199 67.4609 0ZM81.8197 0 81.8197-78.7402 111.522-78.7402C116.75-78.7402 120.742-78.4896 123.499-77.9883 127.367-77.3437 130.607-76.1173 133.221-74.3091 135.835-72.5008 137.939-69.9674 139.532-66.709 141.125-63.4505 141.922-59.8698 141.922-55.9668 141.922-49.2708 139.792-43.6043 135.531-38.9673 131.27-34.3302 123.571-32.0117 112.435-32.0117L92.2396-32.0117 92.2396 0ZM92.2396-41.3037 112.596-41.3037C119.328-41.3037 124.108-42.557 126.937-45.0635 129.766-47.57 131.18-51.097 131.18-55.6445 131.18-58.9388 130.347-61.7586 128.682-64.104 127.017-66.4494 124.824-67.998 122.103-68.75 120.348-69.2155 117.108-69.4482 112.381-69.4482L92.2396-69.4482ZM149.836-22.3437 159.235-23.6328C159.486-17.6172 160.614-13.4993 162.619-11.2793 164.624-9.05924 167.399-7.94922 170.944-7.94922 173.558-7.94922 175.814-8.54899 177.712-9.74853 179.609-10.9481 180.916-12.5773 181.632-14.6362 182.349-16.6951 182.707-19.9805 182.707-24.4922L182.707-78.7402 193.127-78.7402 193.127-25.083C193.127-18.4945 192.33-13.3919 190.736-9.77539 189.143-6.15885 186.619-3.40169 183.163-1.50391 179.708 0.39388 175.653 1.34277 170.998 1.34277 164.087 1.34277 158.796-0.644531 155.126-4.61914 151.456-8.59375 149.692-14.502 149.836-22.3437Z" fill="#FFFFFF" transform="matrix(1 0 0 1 85.6328 160)"/></g></g></g><rect x="7461.5" y="2381.5" width="875" height="249" stroke="#004BAA" stroke-width="4.58333" stroke-miterlimit="8" fill="#014FAE"/><text fill="#FFFFFF" font-family="Arial,Arial_MSFontService,sans-serif" font-weight="400" font-size="110" transform="matrix(1 0 0 1 7797.91 2547)">EPJ</text><g clip-path="url(#clip30)"><g clip-path="url(#clip31)"><g clip-path="url(#clip32)"><path d="M111.805 70.326C103.886 70.326 97.6645 63.9156 97.6645 56.1854 97.6645 48.4552 104.075 42.0447 111.805 42.0447 119.724 42.0447 125.946 48.4552 125.946 56.1854 125.946 63.9156 119.535 70.326 111.805 70.326ZM143.669 47.3239C142.914 44.6843 141.972 42.2333 140.652 39.9708L143.669 31.1093 136.881 24.3218 128.02 27.3385C125.757 26.0187 123.306 25.076 120.667 24.3218L116.519 16.026 107.092 16.026 102.944 24.3218C100.304 25.076 97.853 26.0187 95.5905 27.3385L86.7291 24.3218 79.9416 31.1093 82.9582 39.9708C81.6385 42.2333 80.6957 44.6843 79.9416 47.3239L71.6458 51.4718 71.6458 60.8989 79.9416 65.0468C80.6957 67.6864 81.6385 70.1374 82.9582 72.3999L79.9416 81.2614 86.5405 87.8603 95.402 84.8437C97.6645 86.1635 100.116 87.1062 102.755 87.8603L106.903 96.1561 116.33 96.1561 120.478 87.8603C123.118 87.1062 125.569 86.1635 127.831 84.8437L136.693 87.8603 143.48 81.2614 140.463 72.3999C141.783 70.1374 142.914 67.4978 143.669 65.0468L151.964 60.8989 151.964 51.4718 143.669 47.3239Z" fill="#FFFFFF" transform="matrix(1 0 0 1.03315 8090 2412)"/><path d="M69.1947 138.955C61.276 138.955 55.0541 132.545 55.0541 124.814 55.0541 116.896 61.4645 110.674 69.1947 110.674 77.1135 110.674 83.3353 117.084 83.3353 124.814 83.3353 132.545 77.1135 138.955 69.1947 138.955L69.1947 138.955ZM98.0416 108.6 101.058 99.7384 94.2707 92.9509 85.4093 95.9676C83.1468 94.6478 80.5072 93.7051 78.0562 92.9509L73.9083 84.6551 64.4812 84.6551 60.3333 92.9509C57.6937 93.7051 55.2426 94.6478 52.9802 95.9676L44.1187 92.9509 37.5197 99.5499 40.3479 108.411C39.0281 110.674 38.0854 113.313 37.3312 115.764L29.0354 119.912 29.0354 129.339 37.3312 133.487C38.0854 136.127 39.0281 138.578 40.3479 140.84L37.5197 149.702 44.1187 156.301 52.9802 153.473C55.2426 154.793 57.6937 155.735 60.3333 156.489L64.4812 164.785 73.9083 164.785 78.0562 156.489C80.6957 155.735 83.1468 154.793 85.4093 153.473L94.2707 156.489 100.87 149.702 98.0416 141.029C99.3614 138.767 100.304 136.315 101.058 133.676L109.354 129.528 109.354 120.101 101.058 115.953C100.304 113.313 99.3614 110.862 98.0416 108.6Z" fill="#FFFFFF" transform="matrix(1 0 0 1.03315 8090 2412)"/></g></g></g><g clip-path="url(#clip33)"><g clip-path="url(#clip34)" filter="url(#fx6)" transform="translate(7449 2649)"><g clip-path="url(#clip35)"><rect x="22.2227" y="22.2229" width="869" height="248" stroke="#004BAA" stroke-width="5" stroke-miterlimit="8" fill="#014FAE"/></g></g><g clip-path="url(#clip36)" filter="url(#fx7)" transform="translate(7645 2610)"><g clip-path="url(#clip37)"><path d="M8.48633 0 8.48633-78.7402 35.6103-78.7402C41.7334-78.7402 46.4062-78.3642 49.6289-77.6123 54.1406-76.5739 57.9899-74.694 61.1768-71.9726 65.3304-68.4635 68.4367-63.9787 70.4956-58.5181 72.5545-53.0574 73.584-46.818 73.584-39.7998 73.584-33.82 72.8857-28.5205 71.4893-23.9014 70.0928-19.2822 68.3024-15.4598 66.1182-12.4341 63.9339-9.40837 61.5438-7.02718 58.9478-5.29053 56.3517-3.55387 53.2186-2.23796 49.5483-1.34277 45.8781-0.447591 41.6618 0 36.8994 0ZM18.9062-9.29199 35.7178-9.29199C40.9098-9.29199 44.9829-9.77539 47.937-10.7422 50.8911-11.709 53.2454-13.0697 55-14.8242 57.4707-17.2949 59.3953-20.616 60.7739-24.7876 62.1525-28.9591 62.8418-34.0169 62.8418-39.9609 62.8418-48.1966 61.4901-54.5255 58.7866-58.9478 56.0832-63.3699 52.7978-66.333 48.9307-67.8369 46.1377-68.9111 41.6439-69.4482 35.4492-69.4482L18.9062-69.4482ZM88.444 0 88.444-78.7402 98.8639-78.7402 98.8639-46.4062 139.792-46.4062 139.792-78.7402 150.212-78.7402 150.212 0 139.792 0 139.792-37.1143 98.8639-37.1143 98.8639 0ZM164.588-38.3496C164.588-51.4193 168.097-61.6512 175.116-69.0454 182.134-76.4396 191.193-80.1367 202.293-80.1367 209.562-80.1367 216.115-78.4001 221.951-74.9268 227.788-71.4534 232.237-66.6105 235.299-60.3979 238.36-54.1854 239.891-47.1403 239.891-39.2627 239.891-31.2777 238.28-24.1341 235.057-17.832 231.834-11.5299 227.269-6.75863 221.361-3.51807 215.452-0.277507 209.079 1.34277 202.24 1.34277 194.827 1.34277 188.203-0.447591 182.367-4.02832 176.53-7.60905 172.108-12.4967 169.1-18.6914 166.092-24.8861 164.588-31.4388 164.588-38.3496ZM175.33-38.1885C175.33-28.6995 177.882-21.2248 182.984-15.7642 188.087-10.3035 194.487-7.57324 202.186-7.57324 210.028-7.57324 216.482-10.3304 221.549-15.8447 226.615-21.359 229.149-29.1829 229.149-39.3164 229.149-45.7259 228.066-51.3208 225.899-56.1011 223.733-60.8813 220.564-64.5874 216.392-67.2192 212.221-69.8511 207.539-71.167 202.347-71.167 194.971-71.167 188.624-68.6336 183.306-63.5669 177.989-58.5002 175.33-50.0407 175.33-38.1885Z" fill="#FFFFFF" transform="matrix(1 0 0 1 137.876 160)"/><path d="M3.38379-17.0264 12.9443-18.5303C13.4814-14.6989 14.9764-11.7627 17.4292-9.72168 19.882-7.68066 23.3105-6.66016 27.7148-6.66016 32.1549-6.66016 35.4492-7.56429 37.5977-9.37256 39.7461-11.1808 40.8203-13.3024 40.8203-15.7373 40.8203-17.9215 39.8714-19.6403 37.9736-20.8936 36.6488-21.7529 33.3545-22.8451 28.0908-24.1699 21.001-25.9603 16.0864-27.5089 13.3472-28.8159 10.6079-30.1229 8.53109-31.9311 7.1167-34.2407 5.70231-36.5503 4.99512-39.1016 4.99512-41.8945 4.99512-44.4368 5.57699-46.7912 6.74072-48.9575 7.90446-51.1239 9.48893-52.9232 11.4941-54.3555 12.998-55.4655 15.048-56.4054 17.644-57.1753 20.2401-57.9451 23.0241-58.3301 25.9961-58.3301 30.472-58.3301 34.4019-57.6855 37.7856-56.3965 41.1694-55.1074 43.667-53.3618 45.2783-51.1597 46.8896-48.9575 47.9997-46.0124 48.6084-42.3242L39.1553-41.0352C38.7256-43.9714 37.4813-46.263 35.4224-47.9102 33.3634-49.5573 30.4541-50.3809 26.6943-50.3809 22.2542-50.3809 19.0853-49.6468 17.1875-48.1787 15.2897-46.7106 14.3408-44.9919 14.3408-43.0225 14.3408-41.7692 14.7347-40.6413 15.5225-39.6387 16.3102-38.6003 17.5456-37.7409 19.2285-37.0605 20.1953-36.7025 23.042-35.8789 27.7686-34.5898 34.6077-32.7637 39.3791-31.2687 42.0825-30.105 44.786-28.9412 46.9075-27.2493 48.4473-25.0293 49.987-22.8092 50.7568-20.0521 50.7568-16.7578 50.7568-13.5352 49.8169-10.5005 47.937-7.65381 46.0571-4.80713 43.3447-2.60498 39.7998-1.04736 36.2549 0.510254 32.2445 1.28906 27.7686 1.28906 20.3564 1.28906 14.7078-0.250651 10.8228-3.33008 6.93766-6.4095 4.45801-10.9749 3.38379-17.0264ZM61.8213 21.9678 60.7471 12.8906C62.8597 13.4635 64.7038 13.75 66.2793 13.75 68.4277 13.75 70.1465 13.3919 71.4355 12.6758 72.7246 11.9596 73.7809 10.957 74.6045 9.66797 75.2132 8.70117 76.1979 6.30208 77.5586 2.4707 77.7376 1.93359 78.0241 1.14583 78.418 0.107422L56.7725-57.041 67.1924-57.041 79.0625-24.0088C80.6022-19.8193 81.9808-15.415 83.1982-10.7959 84.3083-15.236 85.6331-19.5687 87.1728-23.7939L99.3652-57.041 109.033-57.041 87.334 0.966797C85.0065 7.23307 83.1982 11.5478 81.9092 13.9111 80.1904 17.098 78.221 19.4344 76.001 20.9204 73.7809 22.4064 71.1312 23.1494 68.0518 23.1494 66.1898 23.1494 64.1129 22.7555 61.8213 21.9678ZM113.384-17.0264 122.944-18.5303C123.481-14.6989 124.976-11.7627 127.429-9.72168 129.882-7.68066 133.311-6.66016 137.715-6.66016 142.155-6.66016 145.449-7.56429 147.598-9.37256 149.746-11.1808 150.82-13.3024 150.82-15.7373 150.82-17.9215 149.871-19.6403 147.974-20.8936 146.649-21.7529 143.354-22.8451 138.091-24.1699 131.001-25.9603 126.086-27.5089 123.347-28.8159 120.608-30.1229 118.531-31.9311 117.117-34.2407 115.702-36.5503 114.995-39.1016 114.995-41.8945 114.995-44.4368 115.577-46.7912 116.741-48.9575 117.904-51.1239 119.489-52.9232 121.494-54.3555 122.998-55.4655 125.048-56.4054 127.644-57.1753 130.24-57.9451 133.024-58.3301 135.996-58.3301 140.472-58.3301 144.402-57.6855 147.786-56.3965 151.169-55.1074 153.667-53.3618 155.278-51.1597 156.89-48.9575 158-46.0124 158.608-42.3242L149.155-41.0352C148.726-43.9714 147.481-46.263 145.422-47.9102 143.363-49.5573 140.454-50.3809 136.694-50.3809 132.254-50.3809 129.085-49.6468 127.187-48.1787 125.29-46.7106 124.341-44.9919 124.341-43.0225 124.341-41.7692 124.735-40.6413 125.522-39.6387 126.31-38.6003 127.546-37.7409 129.229-37.0605 130.195-36.7025 133.042-35.8789 137.769-34.5898 144.608-32.7637 149.379-31.2687 152.083-30.105 154.786-28.9412 156.908-27.2493 158.447-25.0293 159.987-22.8092 160.757-20.0521 160.757-16.7578 160.757-13.5352 159.817-10.5005 157.937-7.65381 156.057-4.80713 153.345-2.60498 149.8-1.04736 146.255 0.510254 142.244 1.28906 137.769 1.28906 130.356 1.28906 124.708-0.250651 120.823-3.33008 116.938-6.4095 114.458-10.9749 113.384-17.0264ZM193.359-8.64746 194.756-0.107422C192.034 0.465495 189.6 0.751953 187.451 0.751953 183.942 0.751953 181.221 0.19694 179.287-0.913086 177.353-2.02311 175.993-3.48226 175.205-5.29053 174.417-7.09879 174.023-10.9033 174.023-16.7041L174.023-49.5215 166.934-49.5215 166.934-57.041 174.023-57.041 174.023-71.167 183.638-76.9678 183.638-57.041 193.359-57.041 193.359-49.5215 183.638-49.5215 183.638-16.167C183.638-13.4098 183.808-11.6374 184.148-10.8496 184.488-10.0618 185.043-9.43522 185.813-8.96973 186.583-8.50423 187.684-8.27148 189.116-8.27148 190.19-8.27148 191.605-8.39681 193.359-8.64746ZM241.663-18.3691 251.654-17.1338C250.078-11.2972 247.16-6.76758 242.899-3.54492 238.638-0.322266 233.195 1.28906 226.571 1.28906 218.228 1.28906 211.612-1.28011 206.724-6.41846 201.837-11.5568 199.393-18.763 199.393-28.0371 199.393-37.6335 201.864-45.0814 206.805-50.3809 211.746-55.6803 218.156-58.3301 226.034-58.3301 233.66-58.3301 239.891-55.734 244.725-50.542 249.559-45.3499 251.976-38.0452 251.976-28.6279 251.976-28.055 251.958-27.1956 251.922-26.0498L209.383-26.0498C209.741-19.7835 211.514-14.9853 214.701-11.6553 217.887-8.32519 221.862-6.66016 226.624-6.66016 230.169-6.66016 233.195-7.59115 235.701-9.45312 238.208-11.3151 240.195-14.2871 241.663-18.3691ZM209.92-33.999 241.771-33.999C241.341-38.7972 240.124-42.3958 238.118-44.7949 235.039-48.5189 231.047-50.3809 226.141-50.3809 221.701-50.3809 217.968-48.8949 214.942-45.9228 211.916-42.9508 210.242-38.9762 209.92-33.999ZM263.918 0 263.918-57.041 272.565-57.041 272.565-49.0381C274.355-51.831 276.737-54.078 279.709-55.7788 282.681-57.4797 286.064-58.3301 289.86-58.3301 294.085-58.3301 297.55-57.4528 300.253-55.6982 302.957-53.9437 304.863-51.4909 305.973-48.3398 310.485-55 316.357-58.3301 323.59-58.3301 329.248-58.3301 333.599-56.7635 336.642-53.6304 339.686-50.4972 341.208-45.6722 341.208-39.1553L341.208 0 331.593 0 331.593-35.9326C331.593-39.7998 331.28-42.5838 330.653-44.2847 330.027-45.9855 328.89-47.3551 327.243-48.3936 325.596-49.432 323.662-49.9512 321.442-49.9512 317.432-49.9512 314.102-48.6173 311.452-45.9497 308.802-43.2821 307.477-39.012 307.477-33.1396L307.477 0 297.809 0 297.809-37.0605C297.809-41.3574 297.021-44.5801 295.446-46.7285 293.87-48.8769 291.292-49.9512 287.712-49.9512 284.99-49.9512 282.475-49.235 280.165-47.8027 277.856-46.3704 276.182-44.2757 275.143-41.5186 274.105-38.7614 273.586-34.7868 273.586-29.5947L273.586 0Z" fill="#FFFFFF" transform="matrix(1 0 0 1 86.0391 292)"/></g></g></g><rect x="7461.5" y="2661.5" width="869" height="248" stroke="#004BAA" stroke-width="4.58333" stroke-miterlimit="8" fill="#014FAE"/><text fill="#FFFFFF" font-family="Arial,Arial_MSFontService,sans-serif" font-weight="400" font-size="110" transform="matrix(1 0 0 1 7773.15 2760)">DHO <tspan font-size="110" x="-51.8374" y="132">system</tspan></text><g clip-path="url(#clip38)"><g clip-path="url(#clip39)"><g clip-path="url(#clip40)"><path d="M114.894 72.2689C106.756 72.2689 100.363 65.6814 100.363 57.7376 100.363 49.7938 106.95 43.2063 114.894 43.2063 123.031 43.2063 129.425 49.7938 129.425 57.7376 129.425 65.6814 122.838 72.2689 114.894 72.2689ZM147.638 48.6313C146.863 45.9188 145.894 43.4001 144.538 41.0751L147.638 31.9688 140.663 24.9938 131.556 28.0938C129.231 26.7375 126.713 25.7688 124 24.9938L119.738 16.4688 110.05 16.4688 105.788 24.9938C103.075 25.7688 100.556 26.7375 98.2314 28.0938L89.1252 24.9938 82.1501 31.9688 85.2502 41.0751C83.8939 43.4001 82.9251 45.9188 82.1501 48.6313L73.6251 52.8938 73.6251 62.5814 82.1501 66.8439C82.9251 69.5564 83.8939 72.0751 85.2502 74.4001L82.1501 83.5064 88.9314 90.2877 98.0377 87.1877C100.363 88.5439 102.881 89.5127 105.594 90.2877L109.856 98.8127 119.544 98.8127 123.806 90.2877C126.519 89.5127 129.038 88.5439 131.363 87.1877L140.469 90.2877 147.444 83.5064 144.344 74.4001C145.7 72.0751 146.863 69.3626 147.638 66.8439L156.163 62.5814 156.163 52.8938 147.638 48.6313Z" fill="#FFFFFF" transform="matrix(1 0 0 1.00537 8091 2691)"/><path d="M71.1064 142.794C62.9689 142.794 56.5751 136.206 56.5751 128.263 56.5751 120.125 63.1626 113.731 71.1064 113.731 79.2439 113.731 85.6377 120.319 85.6377 128.263 85.6377 136.206 79.2439 142.794 71.1064 142.794L71.1064 142.794ZM100.75 111.6 103.85 102.494 96.8752 95.5189 87.7689 98.6189C85.4439 97.2627 82.7314 96.2939 80.2126 95.5189L75.9501 86.9939 66.2626 86.9939 62.0001 95.5189C59.2876 96.2939 56.7688 97.2627 54.4438 98.6189L45.3376 95.5189 38.5563 102.3 41.4626 111.406C40.1063 113.731 39.1376 116.444 38.3626 118.963L29.8376 123.225 29.8376 132.913 38.3626 137.175C39.1376 139.888 40.1063 142.407 41.4626 144.732L38.5563 153.838 45.3376 160.619 54.4438 157.713C56.7688 159.069 59.2876 160.038 62.0001 160.813L66.2626 169.338 75.9501 169.338 80.2126 160.813C82.9251 160.038 85.4439 159.069 87.7689 157.713L96.8752 160.813 103.656 153.838 100.75 144.925C102.106 142.6 103.075 140.082 103.85 137.369L112.375 133.106 112.375 123.419 103.85 119.156C103.075 116.444 102.106 113.925 100.75 111.6Z" fill="#FFFFFF" transform="matrix(1 0 0 1.00537 8091 2691)"/></g></g></g><path d="M7908.75 3160.91 7909.31 3243.4 7881.81 3243.59 7881.25 3161.09ZM7936.74 3232.44 7896.05 3315.22 7854.24 3233Z" fill="#777777"/><path d="M6031.5 1770.71C6031.5 1754.58 6044.58 1741.5 6060.71 1741.5L6952.29 1741.5C6968.42 1741.5 6981.5 1754.58 6981.5 1770.71L6981.5 2609.29C6981.5 2625.42 6968.42 2638.5 6952.29 2638.5L6060.71 2638.5C6044.58 2638.5 6031.5 2625.42 6031.5 2609.29Z" stroke="#0169E8" stroke-width="4.58333" stroke-miterlimit="8" stroke-dasharray="18.3333 13.75" fill="#00BBD4" fill-rule="evenodd"/><text fill="#281C2C" font-family="Arial,Arial_MSFontService,sans-serif" font-weight="700" font-size="110" transform="matrix(1 0 0 1 6306.23 1873)">Avtaler/ <tspan font-size="110" x="-203.408" y="132">tillitssamarbeid</tspan></text><path d="M91.6665-18.3333 128.333-18.3333 128.333 18.3334 91.6665 18.3334ZM165-18.3333 201.667-18.3333 201.667 18.3334 165 18.3334ZM238.333-18.3332 275-18.3332 275 18.3334 238.333 18.3334ZM311.667-18.3332 348.333-18.3332 348.333 18.3335 311.667 18.3335ZM385-18.3332 421.666-18.3332 421.666 18.3335 385 18.3335ZM458.333-18.3332 495-18.3331 495 18.3335 458.333 18.3335ZM531.667-18.3331 568.333-18.3331 568.333 18.3335 531.667 18.3335ZM605-18.3331 641.667-18.3331 641.667 18.3336 605 18.3336ZM678.333-18.3331 715-18.3331 715 18.3336 678.333 18.3336ZM751.667-18.333 788.333-18.333 788.333 18.3336 751.667 18.3336ZM825-18.333 861.667-18.333 861.667 18.3337 825 18.3336ZM110 55 0 0 110-55ZM846.964-54.9997 956.964 0.000360892 846.964 55.0003Z" fill="#281C2C" transform="matrix(-1 0 0 1 6981.46 3544.5)"/><path d="M7112.5 1792.44C7112.5 1764.31 7135.31 1741.5 7163.44 1741.5L8625.56 1741.5C8653.69 1741.5 8676.5 1764.31 8676.5 1792.44L8676.5 4084.56C8676.5 4112.69 8653.69 4135.5 8625.56 4135.5L7163.44 4135.5C7135.31 4135.5 7112.5 4112.69 7112.5 4084.56Z" stroke="#0169E8" stroke-width="4.58333" stroke-miterlimit="8" fill="#027993" fill-rule="evenodd" fill-opacity="0.501961"/><text fill="#281C2C" font-family="Arial,Arial_MSFontService,sans-serif" font-weight="700" font-size="128" transform="matrix(1 0 0 1 7483.98 4075)">Fellesløsning</text><rect x="7303.5" y="3300.5" width="1191" height="477" stroke="#1A111D" stroke-width="4.58333" stroke-miterlimit="8" fill="#0169E8"/><text fill="#FFFFFF" font-family="Arial,Arial_MSFontService,sans-serif" font-weight="400" font-size="110" transform="matrix(1 0 0 1 7589.37 3513)">Datadelings<tspan font-size="110" x="582.084" y="0">-</tspan><tspan font-size="110" x="116.577" y="132">tjeneste</tspan></text><g clip-path="url(#clip41)"><g clip-path="url(#clip42)"><g clip-path="url(#clip43)"><path d="M73.125 47.5313 36.5625 69.7125 117 118.463 153.563 96.2813Z" fill="#FFFFFF" transform="matrix(1.10256 0 0 1 8190 3421)"/><path d="M197.438 69.7125 117 20.9625 82.3875 41.925 162.825 90.675Z" fill="#FFFFFF" transform="matrix(1.10256 0 0 1 8190 3421)"/><path d="M36.5625 89.2125 36.5625 167.213 112.125 213.038 112.125 126.994 36.5625 81.1688Z" fill="#FFFFFF" transform="matrix(1.10256 0 0 1 8190 3421)"/><path d="M148.688 140.4 131.625 150.15 131.625 133.088 148.688 123.338 148.688 140.4ZM121.875 126.994 121.875 213.038 197.438 167.213 197.438 81.1688 121.875 126.994Z" fill="#FFFFFF" transform="matrix(1.10256 0 0 1 8190 3421)"/></g></g></g><path d="M5416.33 2097.5C5409.25 2097.5 5403.5 2091.75 5403.5 2084.67L5403.5 1211.33C5403.5 1204.25 5409.25 1198.5 5416.33 1198.5L5784.67 1198.5C5791.75 1198.5 5797.5 1204.25 5797.5 1211.33L5797.5 2084.67C5797.5 2091.75 5791.75 2097.5 5784.67 2097.5Z" stroke="#0169E8" stroke-width="4.58333" stroke-miterlimit="8" fill="#00BBD4" fill-rule="evenodd" fill-opacity="0.501961"/><text fill="#281C2C" font-family="Arial,Arial_MSFontService,sans-serif" font-weight="700" font-size="128" transform="matrix(-1.83697e-16 -1 1 -1.83697e-16 5647.88 1996)">Virksomhet</text><path d="M4939.37 2097.5C4932.26 2097.5 4926.5 2091.74 4926.5 2084.63L4926.5 1211.37C4926.5 1204.26 4932.26 1198.5 4939.37 1198.5L5308.63 1198.5C5315.74 1198.5 5321.5 1204.26 5321.5 1211.37L5321.5 2084.63C5321.5 2091.74 5315.74 2097.5 5308.63 2097.5Z" stroke="#0169E8" stroke-width="4.58333" stroke-miterlimit="8" fill="#00BBD4" fill-rule="evenodd" fill-opacity="0.501961"/><text fill="#281C2C" font-family="Arial,Arial_MSFontService,sans-serif" font-weight="700" font-size="128" transform="matrix(-1.83697e-16 -1 1 -1.83697e-16 5171.75 1996)">Virksomhet</text><path d="M4462.37 2097.5C4455.26 2097.5 4449.5 2091.74 4449.5 2084.63L4449.5 1211.37C4449.5 1204.26 4455.26 1198.5 4462.37 1198.5L4831.63 1198.5C4838.74 1198.5 4844.5 1204.26 4844.5 1211.37L4844.5 2084.63C4844.5 2091.74 4838.74 2097.5 4831.63 2097.5Z" stroke="#0169E8" stroke-width="4.58333" stroke-miterlimit="8" fill="#00BBD4" fill-rule="evenodd" fill-opacity="0.501961"/><text fill="#281C2C" font-family="Arial,Arial_MSFontService,sans-serif" font-weight="700" font-size="128" transform="matrix(-1.83697e-16 -1 1 -1.83697e-16 4694.32 1996)">Virksomhet</text><path d="M8184.33 2097.5C8177.25 2097.5 8171.5 2091.75 8171.5 2084.67L8171.5 1211.33C8171.5 1204.25 8177.25 1198.5 8184.33 1198.5L8552.67 1198.5C8559.75 1198.5 8565.5 1204.25 8565.5 1211.33L8565.5 2084.67C8565.5 2091.75 8559.75 2097.5 8552.67 2097.5Z" stroke="#0169E8" stroke-width="4.58333" stroke-miterlimit="8" fill="#00BBD4" fill-rule="evenodd" fill-opacity="0.501961"/><text fill="#281C2C" font-family="Arial,Arial_MSFontService,sans-serif" font-weight="700" font-size="128" transform="matrix(-1.83697e-16 -1 1 -1.83697e-16 8416.19 1996)">Virksomhet</text><path d="M7708.33 2097.5C7701.25 2097.5 7695.5 2091.75 7695.5 2084.67L7695.5 1211.33C7695.5 1204.25 7701.25 1198.5 7708.33 1198.5L8076.67 1198.5C8083.75 1198.5 8089.5 1204.25 8089.5 1211.33L8089.5 2084.67C8089.5 2091.75 8083.75 2097.5 8076.67 2097.5Z" stroke="#0169E8" stroke-width="4.58333" stroke-miterlimit="8" fill="#00BBD4" fill-rule="evenodd" fill-opacity="0.501961"/><text fill="#281C2C" font-family="Arial,Arial_MSFontService,sans-serif" font-weight="700" font-size="128" transform="matrix(-1.83697e-16 -1 1 -1.83697e-16 7940.06 1996)">Virksomhet</text><path d="M7230.37 2097.5C7223.26 2097.5 7217.5 2091.74 7217.5 2084.63L7217.5 1211.37C7217.5 1204.26 7223.26 1198.5 7230.37 1198.5L7599.63 1198.5C7606.74 1198.5 7612.5 1204.26 7612.5 1211.37L7612.5 2084.63C7612.5 2091.74 7606.74 2097.5 7599.63 2097.5Z" stroke="#0169E8" stroke-width="4.58333" stroke-miterlimit="8" fill="#00BBD4" fill-rule="evenodd" fill-opacity="0.501961"/><text fill="#281C2C" font-family="Arial,Arial_MSFontService,sans-serif" font-weight="700" font-size="128" transform="matrix(-1.83697e-16 -1 1 -1.83697e-16 7462.64 1996)">Virksomhet</text><rect x="4511.5" y="3232.5" width="1232" height="627" stroke="#1A111D" stroke-width="4.58333" stroke-miterlimit="8" fill="#281C2C"/><text fill="#FFFFFF" font-family="Arial,Arial_MSFontService,sans-serif" font-weight="400" font-size="110" transform="matrix(1 0 0 1 4818 3404)">Datadelings<tspan font-size="110" x="582.084" y="0">-</tspan><tspan font-size="110" x="116.577" y="132">tjeneste</tspan></text><g clip-path="url(#clip44)"><g clip-path="url(#clip45)"><g clip-path="url(#clip46)"><path d="M73.125 47.5313 36.5625 69.7125 117 118.463 153.563 96.2813Z" fill="#FFFFFF" transform="matrix(1.19231 0 0 1 4553 3310)"/><path d="M197.438 69.7125 117 20.9625 82.3875 41.925 162.825 90.675Z" fill="#FFFFFF" transform="matrix(1.19231 0 0 1 4553 3310)"/><path d="M36.5625 89.2125 36.5625 167.213 112.125 213.038 112.125 126.994 36.5625 81.1688Z" fill="#FFFFFF" transform="matrix(1.19231 0 0 1 4553 3310)"/><path d="M148.688 140.4 131.625 150.15 131.625 133.088 148.688 123.338 148.688 140.4ZM121.875 126.994 121.875 213.038 197.438 167.213 197.438 81.1688 121.875 126.994Z" fill="#FFFFFF" transform="matrix(1.19231 0 0 1 4553 3310)"/></g></g></g><path d="M4794 3584 5634 3584C5541.22 3584 5466 3633.7 5466 3695 5466 3756.3 5541.22 3806 5634 3806L4794 3806C4701.22 3806 4626 3756.3 4626 3695 4626 3633.7 4701.22 3584 4794 3584Z" fill="#EEEEEE" fill-rule="evenodd"/><text fill="#281C2C" font-family="Arial,Arial_MSFontService,sans-serif" font-weight="400" font-size="83" transform="matrix(1 0 0 1 4992.08 3676)">Kopi av <tspan font-size="83" x="-194.792" y="99">helseopplysninger</tspan></text><path d="M7072 1192.5C7072 1040.9 7194.9 918 7346.5 918L8444.5 918C8596.1 918 8719 1040.9 8719 1192.5L8719 3969.5C8719 4121.1 8596.1 4244 8444.5 4244L7346.5 4244C7194.9 4244 7072 4121.1 7072 3969.5Z" stroke="#FF6B6B" stroke-width="27.5" stroke-miterlimit="8" stroke-dasharray="82.5 27.5" stroke-opacity="0.960784" fill="none" fill-rule="evenodd"/><text fill="#FF0000" font-family="Arial,Arial_MSFontService,sans-serif" font-weight="400" font-size="110" transform="matrix(1 0 0 1 7561.41 1122)">§<tspan font-size="110" x="61.3023" y="0">9 samarbeid</tspan></text><path d="M4295 1192.5C4295 1040.9 4417.9 918 4569.5 918L5667.5 918C5819.1 918 5942 1040.9 5942 1192.5L5942 3969.5C5942 4121.1 5819.1 4244 5667.5 4244L4569.5 4244C4417.9 4244 4295 4121.1 4295 3969.5Z" stroke="#FF6B6B" stroke-width="27.5" stroke-miterlimit="8" stroke-dasharray="82.5 27.5" stroke-opacity="0.960784" fill="none" fill-rule="evenodd"/><text fill="#FF0000" font-family="Arial,Arial_MSFontService,sans-serif" font-weight="400" font-size="110" transform="matrix(1 0 0 1 4784.55 1122)">§<tspan font-size="110" x="61.3023" y="0">9 samarbeid</tspan></text></g></svg>