<svg width="3818" height="2818" xmlns="http://www.w3.org/2000/svg" xmlns:xlink="http://www.w3.org/1999/xlink" xml:space="preserve" overflow="hidden"><defs><filter id="fx0" x="-10%" y="-10%" width="120%" height="120%" filterUnits="userSpaceOnUse" primitiveUnits="userSpaceOnUse"><feComponentTransfer color-interpolation-filters="sRGB"><feFuncR type="discrete" tableValues="0 0"/><feFuncG type="discrete" tableValues="0 0"/><feFuncB type="discrete" tableValues="0 0"/><feFuncA type="linear" slope="0.4" intercept="0"/></feComponentTransfer><feGaussianBlur stdDeviation="6.11111 6.11111"/></filter><filter id="fx1" x="-10%" y="-10%" width="120%" height="120%" filterUnits="userSpaceOnUse" primitiveUnits="userSpaceOnUse"><feComponentTransfer color-interpolation-filters="sRGB"><feFuncR type="discrete" tableValues="0 0"/><feFuncG type="discrete" tableValues="0 0"/><feFuncB type="discrete" tableValues="0 0"/><feFuncA type="linear" slope="0.4" intercept="0"/></feComponentTransfer><feGaussianBlur stdDeviation="6.11111 6.11111"/></filter><filter id="fx2" x="-10%" y="-10%" width="120%" height="120%" filterUnits="userSpaceOnUse" primitiveUnits="userSpaceOnUse"><feComponentTransfer color-interpolation-filters="sRGB"><feFuncR type="discrete" tableValues="0 0"/><feFuncG type="discrete" tableValues="0 0"/><feFuncB type="discrete" tableValues="0 0"/><feFuncA type="linear" slope="0.4" intercept="0"/></feComponentTransfer><feGaussianBlur stdDeviation="6.11111 6.11111"/></filter><filter id="fx3" x="-10%" y="-10%" width="120%" height="120%" filterUnits="userSpaceOnUse" primitiveUnits="userSpaceOnUse"><feComponentTransfer color-interpolation-filters="sRGB"><feFuncR type="discrete" tableValues="0 0"/><feFuncG type="discrete" tableValues="0 0"/><feFuncB type="discrete" tableValues="0 0"/><feFuncA type="linear" slope="0.4" intercept="0"/></feComponentTransfer><feGaussianBlur stdDeviation="6.11111 6.11111"/></filter><filter id="fx4" x="-10%" y="-10%" width="120%" height="120%" filterUnits="userSpaceOnUse" primitiveUnits="userSpaceOnUse"><feComponentTransfer color-interpolation-filters="sRGB"><feFuncR type="discrete" tableValues="0 0"/><feFuncG type="discrete" tableValues="0 0"/><feFuncB type="discrete" tableValues="0 0"/><feFuncA type="linear" slope="0.4" intercept="0"/></feComponentTransfer><feGaussianBlur stdDeviation="6.11111 6.11111"/></filter><filter id="fx5" x="-10%" y="-10%" width="120%" height="120%" filterUnits="userSpaceOnUse" primitiveUnits="userSpaceOnUse"><feComponentTransfer color-interpolation-filters="sRGB"><feFuncR type="discrete" tableValues="0 0"/><feFuncG type="discrete" tableValues="0 0"/><feFuncB type="discrete" tableValues="0 0"/><feFuncA type="linear" slope="0.4" intercept="0"/></feComponentTransfer><feGaussianBlur stdDeviation="6.11111 6.11111"/></filter><filter id="fx6" x="-10%" y="-10%" width="120%" height="120%" filterUnits="userSpaceOnUse" primitiveUnits="userSpaceOnUse"><feComponentTransfer color-interpolation-filters="sRGB"><feFuncR type="discrete" tableValues="0 0"/><feFuncG type="discrete" tableValues="0 0"/><feFuncB type="discrete" tableValues="0 0"/><feFuncA type="linear" slope="0.4" intercept="0"/></feComponentTransfer><feGaussianBlur stdDeviation="6.11111 6.11111"/></filter><filter id="fx7" x="-10%" y="-10%" width="120%" height="120%" filterUnits="userSpaceOnUse" primitiveUnits="userSpaceOnUse"><feComponentTransfer color-interpolation-filters="sRGB"><feFuncR type="discrete" tableValues="0 0"/><feFuncG type="discrete" tableValues="0 0"/><feFuncB type="discrete" tableValues="0 0"/><feFuncA type="linear" slope="0.4" intercept="0"/></feComponentTransfer><feGaussianBlur stdDeviation="6.11111 6.11111"/></filter><filter id="fx8" x="-10%" y="-10%" width="120%" height="120%" filterUnits="userSpaceOnUse" primitiveUnits="userSpaceOnUse"><feComponentTransfer color-interpolation-filters="sRGB"><feFuncR type="discrete" tableValues="0 0"/><feFuncG type="discrete" tableValues="0 0"/><feFuncB type="discrete" tableValues="0 0"/><feFuncA type="linear" slope="0.4" intercept="0"/></feComponentTransfer><feGaussianBlur stdDeviation="6.11111 6.11111"/></filter><filter id="fx9" x="-10%" y="-10%" width="120%" height="120%" filterUnits="userSpaceOnUse" primitiveUnits="userSpaceOnUse"><feComponentTransfer color-interpolation-filters="sRGB"><feFuncR type="discrete" tableValues="0 0"/><feFuncG type="discrete" tableValues="0 0"/><feFuncB type="discrete" tableValues="0 0"/><feFuncA type="linear" slope="0.4" intercept="0"/></feComponentTransfer><feGaussianBlur stdDeviation="6.11111 6.11111"/></filter><filter id="fx10" x="-10%" y="-10%" width="120%" height="120%" filterUnits="userSpaceOnUse" primitiveUnits="userSpaceOnUse"><feComponentTransfer color-interpolation-filters="sRGB"><feFuncR type="discrete" tableValues="0 0"/><feFuncG type="discrete" tableValues="0 0"/><feFuncB type="discrete" tableValues="0 0"/><feFuncA type="linear" slope="0.4" intercept="0"/></feComponentTransfer><feGaussianBlur stdDeviation="6.11111 6.11111"/></filter><filter id="fx11" x="-10%" y="-10%" width="120%" height="120%" filterUnits="userSpaceOnUse" primitiveUnits="userSpaceOnUse"><feComponentTransfer color-interpolation-filters="sRGB"><feFuncR type="discrete" tableValues="0 0"/><feFuncG type="discrete" tableValues="0 0"/><feFuncB type="discrete" tableValues="0 0"/><feFuncA type="linear" slope="0.4" intercept="0"/></feComponentTransfer><feGaussianBlur stdDeviation="6.11111 6.11111"/></filter><clipPath id="clip12"><rect x="4873" y="1298" width="3818" height="2818"/></clipPath><clipPath id="clip13"><rect x="7049" y="2011" width="220" height="186"/></clipPath><clipPath id="clip14"><rect x="7049" y="2011" width="220" height="186"/></clipPath><clipPath id="clip15"><rect x="7049" y="2011" width="220" height="186"/></clipPath><clipPath id="clip16"><path d="M7769.5 1745.5 7769.5 1994.5 8644.5 1994.5 8644.5 1745.5ZM4873 1298 8691 1298 8691 4116 4873 4116Z" fill-rule="evenodd" clip-rule="evenodd"/></clipPath><clipPath id="clip17"><rect x="-3" y="-3" width="926" height="300"/></clipPath><clipPath id="clip18"><rect x="0" y="0" width="920" height="294"/></clipPath><clipPath id="clip19"><rect x="70" y="59" width="230" height="124"/></clipPath><clipPath id="clip20"><rect x="0" y="0" width="373" height="271"/></clipPath><clipPath id="clip21"><rect x="8398" y="1776" width="181" height="188"/></clipPath><clipPath id="clip22"><rect x="8398" y="1776" width="181" height="188"/></clipPath><clipPath id="clip23"><rect x="8398" y="1776" width="181" height="188"/></clipPath><clipPath id="clip24"><path d="M7769.5 2025.5 7769.5 2273.5 8638.5 2273.5 8638.5 2025.5ZM4873 1298 8691 1298 8691 4116 4873 4116Z" fill-rule="evenodd" clip-rule="evenodd"/></clipPath><clipPath id="clip25"><rect x="-3" y="-3" width="919" height="300"/></clipPath><clipPath id="clip26"><rect x="0" y="0" width="914" height="293"/></clipPath><clipPath id="clip27"><rect x="66" y="56" width="386" height="282"/></clipPath><clipPath id="clip28"><rect x="0" y="0" width="520" height="403"/></clipPath><clipPath id="clip29"><rect x="8398" y="2054" width="188" height="188"/></clipPath><clipPath id="clip30"><rect x="8398" y="2054" width="188" height="188"/></clipPath><clipPath id="clip31"><rect x="8398" y="2054" width="188" height="188"/></clipPath><clipPath id="clip32"><path d="M4929.5 1748.5 4929.5 1997.5 5804.5 1997.5 5804.5 1748.5ZM4873 1298 8691 1298 8691 4116 4873 4116Z" fill-rule="evenodd" clip-rule="evenodd"/></clipPath><clipPath id="clip33"><rect x="-3" y="-3" width="926" height="300"/></clipPath><clipPath id="clip34"><rect x="0" y="0" width="920" height="294"/></clipPath><clipPath id="clip35"><rect x="70" y="59" width="234" height="124"/></clipPath><clipPath id="clip36"><rect x="0" y="0" width="374" height="271"/></clipPath><clipPath id="clip37"><rect x="5558" y="1778" width="181" height="188"/></clipPath><clipPath id="clip38"><rect x="5558" y="1778" width="181" height="188"/></clipPath><clipPath id="clip39"><rect x="5558" y="1778" width="181" height="188"/></clipPath><clipPath id="clip40"><path d="M4929.5 2028.5 4929.5 2276.5 5797.5 2276.5 5797.5 2028.5ZM4873 1298 8691 1298 8691 4116 4873 4116Z" fill-rule="evenodd" clip-rule="evenodd"/></clipPath><clipPath id="clip41"><rect x="-3" y="-3" width="919" height="300"/></clipPath><clipPath id="clip42"><rect x="0" y="0" width="913" height="293"/></clipPath><clipPath id="clip43"><rect x="66" y="56" width="382" height="282"/></clipPath><clipPath id="clip44"><rect x="0" y="0" width="520" height="403"/></clipPath><clipPath id="clip45"><rect x="5558" y="2058" width="187" height="188"/></clipPath><clipPath id="clip46"><rect x="5558" y="2058" width="187" height="188"/></clipPath><clipPath id="clip47"><rect x="5558" y="2058" width="187" height="188"/></clipPath><clipPath id="clip48"><path d="M6360.5 3179.5 6360.5 3427.5 7235.5 3427.5 7235.5 3179.5ZM4873 1298 8691 1298 8691 4116 4873 4116Z" fill-rule="evenodd" clip-rule="evenodd"/></clipPath><clipPath id="clip49"><rect x="-3" y="-3" width="926" height="300"/></clipPath><clipPath id="clip50"><rect x="0" y="0" width="920" height="293"/></clipPath><clipPath id="clip51"><rect x="73" y="59" width="231" height="124"/></clipPath><clipPath id="clip52"><rect x="0" y="0" width="374" height="271"/></clipPath><clipPath id="clip53"><rect x="6989" y="3209" width="181" height="187"/></clipPath><clipPath id="clip54"><rect x="6989" y="3209" width="181" height="187"/></clipPath><clipPath id="clip55"><rect x="6989" y="3209" width="181" height="187"/></clipPath><clipPath id="clip56"><path d="M6360.5 3459.5 6360.5 3707.5 7229.5 3707.5 7229.5 3459.5ZM4873 1298 8691 1298 8691 4116 4873 4116Z" fill-rule="evenodd" clip-rule="evenodd"/></clipPath><clipPath id="clip57"><rect x="-3" y="-3" width="919" height="300"/></clipPath><clipPath id="clip58"><rect x="0" y="0" width="914" height="293"/></clipPath><clipPath id="clip59"><rect x="66" y="56" width="386" height="282"/></clipPath><clipPath id="clip60"><rect x="0" y="0" width="520" height="403"/></clipPath><clipPath id="clip61"><rect x="6990" y="3489" width="187" height="187"/></clipPath><clipPath id="clip62"><rect x="6990" y="3489" width="187" height="187"/></clipPath><clipPath id="clip63"><rect x="6990" y="3489" width="187" height="187"/></clipPath></defs><g clip-path="url(#clip12)" transform="translate(-4873 -1298)"><path d="M6112 1633.45C6112 1614.98 6126.98 1600 6145.45 1600L7409.55 1600C7428.02 1600 7443 1614.98 7443 1633.45L7443 2593.55C7443 2612.02 7428.02 2627 7409.55 2627L6145.45 2627C6126.98 2627 6112 2612.02 6112 2593.55Z" fill="#777777" fill-rule="evenodd"/><text fill="#FFFFFF" font-family="Arial,Arial_MSFontService,sans-serif" font-weight="700" font-size="110" transform="matrix(1 0 0 1 6478.19 1733)">Leverandør</text><rect x="6280.5" y="1897.5" width="989" height="410" stroke="#1A111D" stroke-width="4.58333" stroke-miterlimit="8" fill="#281C2C"/><text fill="#FFFFFF" font-family="Arial,Arial_MSFontService,sans-serif" font-weight="400" font-size="110" transform="matrix(1 0 0 1 6465.18 2069)">Datadelings<tspan font-size="110" x="582.084" y="0">-</tspan><tspan font-size="110" x="116.577" y="132">tjeneste</tspan></text><g clip-path="url(#clip13)"><g clip-path="url(#clip14)"><g clip-path="url(#clip15)"><path d="M57.8125 37.5781 28.9062 55.1146 92.5 93.6562 121.406 76.1198Z" fill="#FFFFFF" transform="matrix(1.18378 0 0 1 7050 2012)"/><path d="M156.094 55.1146 92.5 16.5729 65.1354 33.1458 128.729 71.6875Z" fill="#FFFFFF" transform="matrix(1.18378 0 0 1 7050 2012)"/><path d="M28.9062 70.5312 28.9062 132.198 88.6458 168.427 88.6458 100.401 28.9062 64.1719Z" fill="#FFFFFF" transform="matrix(1.18378 0 0 1 7050 2012)"/><path d="M117.552 111 104.062 118.708 104.062 105.219 117.552 97.5104 117.552 111ZM96.3541 100.401 96.3541 168.427 156.094 132.198 156.094 64.1719 96.3541 100.401Z" fill="#FFFFFF" transform="matrix(1.18378 0 0 1 7050 2012)"/></g></g></g><path d="M6450.17 2251 7301 2251C7207.02 2251 7130.83 2300.7 7130.83 2362 7130.83 2423.3 7207.02 2473 7301 2473L6450.17 2473C6356.19 2473 6280 2423.3 6280 2362 6280 2300.7 6356.19 2251 6450.17 2251Z" fill="#EEEEEE" fill-rule="evenodd"/><text fill="#281C2C" font-family="Arial,Arial_MSFontService,sans-serif" font-weight="400" font-size="83" transform="matrix(1 0 0 1 6653.01 2343)">Kopi av <tspan font-size="83" x="-194.792" y="99">helseopplysninger</tspan></text><path d="M7913.83 2302 8638 2302C8558.01 2302 8493.17 2351.92 8493.17 2413.5 8493.17 2475.08 8558.01 2525 8638 2525L7913.83 2525C7833.84 2525 7769 2475.08 7769 2413.5 7769 2351.92 7833.84 2302 7913.83 2302Z" fill="#281C2C" fill-rule="evenodd"/><text fill="#FFFFFF" font-family="Arial,Arial_MSFontService,sans-serif" font-weight="400" font-size="92" transform="matrix(1 0 0 1 8087.28 2393)">Helse<tspan font-size="92" x="234.896" y="0">-</tspan><tspan font-size="92" x="-127.485" y="110">opplysninger</tspan></text><g clip-path="url(#clip16)"><g clip-path="url(#clip17)" filter="url(#fx0)" transform="translate(7757 1733)"><g clip-path="url(#clip18)"><rect x="22.2227" y="22.2228" width="875" height="249" stroke="#004BAA" stroke-width="5" stroke-miterlimit="8" fill="#0169E8"/></g></g><g clip-path="url(#clip19)" filter="url(#fx1)" transform="translate(8030 1760)"><g clip-path="url(#clip20)"><path d="M8.70117 0 8.70117-78.7402 65.6348-78.7402 65.6348-69.4482 19.1211-69.4482 19.1211-45.332 62.6807-45.332 62.6807-36.0937 19.1211-36.0937 19.1211-9.29199 67.4609-9.29199 67.4609 0ZM81.8197 0 81.8197-78.7402 111.522-78.7402C116.75-78.7402 120.742-78.4896 123.499-77.9883 127.367-77.3437 130.607-76.1173 133.221-74.3091 135.835-72.5008 137.939-69.9674 139.532-66.709 141.125-63.4505 141.922-59.8698 141.922-55.9668 141.922-49.2708 139.792-43.6043 135.531-38.9673 131.27-34.3302 123.571-32.0117 112.435-32.0117L92.2396-32.0117 92.2396 0ZM92.2396-41.3037 112.596-41.3037C119.328-41.3037 124.108-42.557 126.937-45.0635 129.766-47.57 131.18-51.097 131.18-55.6445 131.18-58.9388 130.347-61.7586 128.682-64.104 127.017-66.4494 124.824-67.998 122.103-68.75 120.348-69.2155 117.108-69.4482 112.381-69.4482L92.2396-69.4482ZM149.836-22.3437 159.235-23.6328C159.486-17.6172 160.614-13.4993 162.619-11.2793 164.624-9.05924 167.399-7.94922 170.944-7.94922 173.558-7.94922 175.814-8.54899 177.712-9.74853 179.609-10.9481 180.916-12.5773 181.632-14.6362 182.349-16.6951 182.707-19.9805 182.707-24.4922L182.707-78.7402 193.127-78.7402 193.127-25.083C193.127-18.4945 192.33-13.3919 190.736-9.77539 189.143-6.15885 186.619-3.40169 183.163-1.50391 179.708 0.39388 175.653 1.34277 170.998 1.34277 164.087 1.34277 158.796-0.644531 155.126-4.61914 151.456-8.59375 149.692-14.502 149.836-22.3437Z" fill="#FFFFFF" transform="matrix(1 0 0 1 85.5469 160)"/></g></g></g><rect x="7769.5" y="1745.5" width="875" height="249" stroke="#004BAA" stroke-width="4.58333" stroke-miterlimit="8" fill="#0169E8"/><text fill="#FFFFFF" font-family="Arial,Arial_MSFontService,sans-serif" font-weight="400" font-size="110" transform="matrix(1 0 0 1 8105.82 1910)">EPJ</text><g clip-path="url(#clip21)"><g clip-path="url(#clip22)"><g clip-path="url(#clip23)"><path d="M111.805 70.326C103.886 70.326 97.6645 63.9156 97.6645 56.1854 97.6645 48.4552 104.075 42.0447 111.805 42.0447 119.724 42.0447 125.946 48.4552 125.946 56.1854 125.946 63.9156 119.535 70.326 111.805 70.326ZM143.669 47.3239C142.914 44.6843 141.972 42.2333 140.652 39.9708L143.669 31.1093 136.881 24.3218 128.02 27.3385C125.757 26.0187 123.306 25.076 120.667 24.3218L116.519 16.026 107.092 16.026 102.944 24.3218C100.304 25.076 97.853 26.0187 95.5905 27.3385L86.7291 24.3218 79.9416 31.1093 82.9582 39.9708C81.6385 42.2333 80.6957 44.6843 79.9416 47.3239L71.6458 51.4718 71.6458 60.8989 79.9416 65.0468C80.6957 67.6864 81.6385 70.1374 82.9582 72.3999L79.9416 81.2614 86.5405 87.8603 95.402 84.8437C97.6645 86.1635 100.116 87.1062 102.755 87.8603L106.903 96.1561 116.33 96.1561 120.478 87.8603C123.118 87.1062 125.569 86.1635 127.831 84.8437L136.693 87.8603 143.48 81.2614 140.463 72.3999C141.783 70.1374 142.914 67.4978 143.669 65.0468L151.964 60.8989 151.964 51.4718 143.669 47.3239Z" fill="#FFFFFF" transform="matrix(1 0 0 1.03315 8398 1776)"/><path d="M69.1947 138.955C61.276 138.955 55.0541 132.545 55.0541 124.814 55.0541 116.896 61.4645 110.674 69.1947 110.674 77.1135 110.674 83.3353 117.084 83.3353 124.814 83.3353 132.545 77.1135 138.955 69.1947 138.955L69.1947 138.955ZM98.0416 108.6 101.058 99.7384 94.2707 92.9509 85.4093 95.9676C83.1468 94.6478 80.5072 93.7051 78.0562 92.9509L73.9083 84.6551 64.4812 84.6551 60.3333 92.9509C57.6937 93.7051 55.2426 94.6478 52.9802 95.9676L44.1187 92.9509 37.5197 99.5499 40.3479 108.411C39.0281 110.674 38.0854 113.313 37.3312 115.764L29.0354 119.912 29.0354 129.339 37.3312 133.487C38.0854 136.127 39.0281 138.578 40.3479 140.84L37.5197 149.702 44.1187 156.301 52.9802 153.473C55.2426 154.793 57.6937 155.735 60.3333 156.489L64.4812 164.785 73.9083 164.785 78.0562 156.489C80.6957 155.735 83.1468 154.793 85.4093 153.473L94.2707 156.489 100.87 149.702 98.0416 141.029C99.3614 138.767 100.304 136.315 101.058 133.676L109.354 129.528 109.354 120.101 101.058 115.953C100.304 113.313 99.3614 110.862 98.0416 108.6Z" fill="#FFFFFF" transform="matrix(1 0 0 1.03315 8398 1776)"/></g></g></g><g clip-path="url(#clip24)"><g clip-path="url(#clip25)" filter="url(#fx2)" transform="translate(7757 2013)"><g clip-path="url(#clip26)"><rect x="22.2227" y="22.2225" width="869" height="248" stroke="#004BAA" stroke-width="5" stroke-miterlimit="8" fill="#0169E8"/></g></g><g clip-path="url(#clip27)" filter="url(#fx3)" transform="translate(7953 1974)"><g clip-path="url(#clip28)"><path d="M8.48633 0 8.48633-78.7402 35.6103-78.7402C41.7334-78.7402 46.4062-78.3642 49.6289-77.6123 54.1406-76.5739 57.9899-74.694 61.1768-71.9726 65.3304-68.4635 68.4367-63.9787 70.4956-58.5181 72.5545-53.0574 73.584-46.818 73.584-39.7998 73.584-33.82 72.8857-28.5205 71.4893-23.9014 70.0928-19.2822 68.3024-15.4598 66.1182-12.4341 63.9339-9.40837 61.5438-7.02718 58.9478-5.29053 56.3517-3.55387 53.2186-2.23796 49.5483-1.34277 45.8781-0.447591 41.6618 0 36.8994 0ZM18.9062-9.29199 35.7178-9.29199C40.9098-9.29199 44.9829-9.77539 47.937-10.7422 50.8911-11.709 53.2454-13.0697 55-14.8242 57.4707-17.2949 59.3953-20.616 60.7739-24.7876 62.1525-28.9591 62.8418-34.0169 62.8418-39.9609 62.8418-48.1966 61.4901-54.5255 58.7866-58.9478 56.0832-63.3699 52.7978-66.333 48.9307-67.8369 46.1377-68.9111 41.6439-69.4482 35.4492-69.4482L18.9062-69.4482ZM88.444 0 88.444-78.7402 98.8639-78.7402 98.8639-46.4062 139.792-46.4062 139.792-78.7402 150.212-78.7402 150.212 0 139.792 0 139.792-37.1143 98.8639-37.1143 98.8639 0ZM164.588-38.3496C164.588-51.4193 168.097-61.6512 175.116-69.0454 182.134-76.4396 191.193-80.1367 202.293-80.1367 209.562-80.1367 216.115-78.4001 221.951-74.9268 227.788-71.4534 232.237-66.6105 235.299-60.3979 238.36-54.1854 239.891-47.1403 239.891-39.2627 239.891-31.2777 238.28-24.1341 235.057-17.832 231.834-11.5299 227.269-6.75863 221.361-3.51807 215.452-0.277507 209.079 1.34277 202.24 1.34277 194.827 1.34277 188.203-0.447591 182.367-4.02832 176.53-7.60905 172.108-12.4967 169.1-18.6914 166.092-24.8861 164.588-31.4388 164.588-38.3496ZM175.33-38.1885C175.33-28.6995 177.882-21.2248 182.984-15.7642 188.087-10.3035 194.487-7.57324 202.186-7.57324 210.028-7.57324 216.482-10.3304 221.549-15.8447 226.615-21.359 229.149-29.1829 229.149-39.3164 229.149-45.7259 228.066-51.3208 225.899-56.1011 223.733-60.8813 220.564-64.5874 216.392-67.2192 212.221-69.8511 207.539-71.167 202.347-71.167 194.971-71.167 188.624-68.6336 183.306-63.5669 177.989-58.5002 175.33-50.0407 175.33-38.1885Z" fill="#FFFFFF" transform="matrix(1 0 0 1 137.791 160)"/><path d="M3.38379-17.0264 12.9443-18.5303C13.4814-14.6989 14.9764-11.7627 17.4292-9.72168 19.882-7.68066 23.3105-6.66016 27.7148-6.66016 32.1549-6.66016 35.4492-7.56429 37.5977-9.37256 39.7461-11.1808 40.8203-13.3024 40.8203-15.7373 40.8203-17.9215 39.8714-19.6403 37.9736-20.8936 36.6488-21.7529 33.3545-22.8451 28.0908-24.1699 21.001-25.9603 16.0864-27.5089 13.3472-28.8159 10.6079-30.1229 8.53109-31.9311 7.1167-34.2407 5.70231-36.5503 4.99512-39.1016 4.99512-41.8945 4.99512-44.4368 5.57699-46.7912 6.74072-48.9575 7.90446-51.1239 9.48893-52.9232 11.4941-54.3555 12.998-55.4655 15.048-56.4054 17.644-57.1753 20.2401-57.9451 23.0241-58.3301 25.9961-58.3301 30.472-58.3301 34.4019-57.6855 37.7856-56.3965 41.1694-55.1074 43.667-53.3618 45.2783-51.1597 46.8896-48.9575 47.9997-46.0124 48.6084-42.3242L39.1553-41.0352C38.7256-43.9714 37.4813-46.263 35.4224-47.9102 33.3634-49.5573 30.4541-50.3809 26.6943-50.3809 22.2542-50.3809 19.0853-49.6468 17.1875-48.1787 15.2897-46.7106 14.3408-44.9919 14.3408-43.0225 14.3408-41.7692 14.7347-40.6413 15.5225-39.6387 16.3102-38.6003 17.5456-37.7409 19.2285-37.0605 20.1953-36.7025 23.042-35.8789 27.7686-34.5898 34.6077-32.7637 39.3791-31.2687 42.0825-30.105 44.786-28.9412 46.9075-27.2493 48.4473-25.0293 49.987-22.8092 50.7568-20.0521 50.7568-16.7578 50.7568-13.5352 49.8169-10.5005 47.937-7.65381 46.0571-4.80713 43.3447-2.60498 39.7998-1.04736 36.2549 0.510254 32.2445 1.28906 27.7686 1.28906 20.3564 1.28906 14.7078-0.250651 10.8228-3.33008 6.93766-6.4095 4.45801-10.9749 3.38379-17.0264ZM61.8213 21.9678 60.7471 12.8906C62.8597 13.4635 64.7038 13.75 66.2793 13.75 68.4277 13.75 70.1465 13.3919 71.4355 12.6758 72.7246 11.9596 73.7809 10.957 74.6045 9.66797 75.2132 8.70117 76.1979 6.30208 77.5586 2.4707 77.7376 1.93359 78.0241 1.14583 78.418 0.107422L56.7725-57.041 67.1924-57.041 79.0625-24.0088C80.6022-19.8193 81.9808-15.415 83.1982-10.7959 84.3083-15.236 85.6331-19.5687 87.1728-23.7939L99.3652-57.041 109.033-57.041 87.334 0.966797C85.0065 7.23307 83.1982 11.5478 81.9092 13.9111 80.1904 17.098 78.221 19.4344 76.001 20.9204 73.7809 22.4064 71.1312 23.1494 68.0518 23.1494 66.1898 23.1494 64.1129 22.7555 61.8213 21.9678ZM113.384-17.0264 122.944-18.5303C123.481-14.6989 124.976-11.7627 127.429-9.72168 129.882-7.68066 133.311-6.66016 137.715-6.66016 142.155-6.66016 145.449-7.56429 147.598-9.37256 149.746-11.1808 150.82-13.3024 150.82-15.7373 150.82-17.9215 149.871-19.6403 147.974-20.8936 146.649-21.7529 143.354-22.8451 138.091-24.1699 131.001-25.9603 126.086-27.5089 123.347-28.8159 120.608-30.1229 118.531-31.9311 117.117-34.2407 115.702-36.5503 114.995-39.1016 114.995-41.8945 114.995-44.4368 115.577-46.7912 116.741-48.9575 117.904-51.1239 119.489-52.9232 121.494-54.3555 122.998-55.4655 125.048-56.4054 127.644-57.1753 130.24-57.9451 133.024-58.3301 135.996-58.3301 140.472-58.3301 144.402-57.6855 147.786-56.3965 151.169-55.1074 153.667-53.3618 155.278-51.1597 156.89-48.9575 158-46.0124 158.608-42.3242L149.155-41.0352C148.726-43.9714 147.481-46.263 145.422-47.9102 143.363-49.5573 140.454-50.3809 136.694-50.3809 132.254-50.3809 129.085-49.6468 127.187-48.1787 125.29-46.7106 124.341-44.9919 124.341-43.0225 124.341-41.7692 124.735-40.6413 125.522-39.6387 126.31-38.6003 127.546-37.7409 129.229-37.0605 130.195-36.7025 133.042-35.8789 137.769-34.5898 144.608-32.7637 149.379-31.2687 152.083-30.105 154.786-28.9412 156.908-27.2493 158.447-25.0293 159.987-22.8092 160.757-20.0521 160.757-16.7578 160.757-13.5352 159.817-10.5005 157.937-7.65381 156.057-4.80713 153.345-2.60498 149.8-1.04736 146.255 0.510254 142.244 1.28906 137.769 1.28906 130.356 1.28906 124.708-0.250651 120.823-3.33008 116.938-6.4095 114.458-10.9749 113.384-17.0264ZM193.359-8.64746 194.756-0.107422C192.034 0.465495 189.6 0.751953 187.451 0.751953 183.942 0.751953 181.221 0.19694 179.287-0.913086 177.353-2.02311 175.993-3.48226 175.205-5.29053 174.417-7.09879 174.023-10.9033 174.023-16.7041L174.023-49.5215 166.934-49.5215 166.934-57.041 174.023-57.041 174.023-71.167 183.638-76.9678 183.638-57.041 193.359-57.041 193.359-49.5215 183.638-49.5215 183.638-16.167C183.638-13.4098 183.808-11.6374 184.148-10.8496 184.488-10.0618 185.043-9.43522 185.813-8.96973 186.583-8.50423 187.684-8.27148 189.116-8.27148 190.19-8.27148 191.605-8.39681 193.359-8.64746ZM241.663-18.3691 251.654-17.1338C250.078-11.2972 247.16-6.76758 242.899-3.54492 238.638-0.322266 233.195 1.28906 226.571 1.28906 218.228 1.28906 211.612-1.28011 206.724-6.41846 201.837-11.5568 199.393-18.763 199.393-28.0371 199.393-37.6335 201.864-45.0814 206.805-50.3809 211.746-55.6803 218.156-58.3301 226.034-58.3301 233.66-58.3301 239.891-55.734 244.725-50.542 249.559-45.3499 251.976-38.0452 251.976-28.6279 251.976-28.055 251.958-27.1956 251.922-26.0498L209.383-26.0498C209.741-19.7835 211.514-14.9853 214.701-11.6553 217.887-8.32519 221.862-6.66016 226.624-6.66016 230.169-6.66016 233.195-7.59115 235.701-9.45312 238.208-11.3151 240.195-14.2871 241.663-18.3691ZM209.92-33.999 241.771-33.999C241.341-38.7972 240.124-42.3958 238.118-44.7949 235.039-48.5189 231.047-50.3809 226.141-50.3809 221.701-50.3809 217.968-48.8949 214.942-45.9228 211.916-42.9508 210.242-38.9762 209.92-33.999ZM263.918 0 263.918-57.041 272.565-57.041 272.565-49.0381C274.355-51.831 276.737-54.078 279.709-55.7788 282.681-57.4797 286.064-58.3301 289.86-58.3301 294.085-58.3301 297.55-57.4528 300.253-55.6982 302.957-53.9437 304.863-51.4909 305.973-48.3398 310.485-55 316.357-58.3301 323.59-58.3301 329.248-58.3301 333.599-56.7635 336.642-53.6304 339.686-50.4972 341.208-45.6722 341.208-39.1553L341.208 0 331.593 0 331.593-35.9326C331.593-39.7998 331.28-42.5838 330.653-44.2847 330.027-45.9855 328.89-47.3551 327.243-48.3936 325.596-49.432 323.662-49.9512 321.442-49.9512 317.432-49.9512 314.102-48.6173 311.452-45.9497 308.802-43.2821 307.477-39.012 307.477-33.1396L307.477 0 297.809 0 297.809-37.0605C297.809-41.3574 297.021-44.5801 295.446-46.7285 293.87-48.8769 291.292-49.9512 287.712-49.9512 284.99-49.9512 282.475-49.235 280.165-47.8027 277.856-46.3704 276.182-44.2757 275.143-41.5186 274.105-38.7614 273.586-34.7868 273.586-29.5947L273.586 0Z" fill="#FFFFFF" transform="matrix(1 0 0 1 85.9531 292)"/></g></g></g><rect x="7769.5" y="2025.5" width="869" height="248" stroke="#004BAA" stroke-width="4.58333" stroke-miterlimit="8" fill="#0169E8"/><text fill="#FFFFFF" font-family="Arial,Arial_MSFontService,sans-serif" font-weight="400" font-size="110" transform="matrix(1 0 0 1 8081.07 2124)">DHO <tspan font-size="110" x="-51.8374" y="132">system</tspan></text><g clip-path="url(#clip29)"><g clip-path="url(#clip30)"><g clip-path="url(#clip31)"><path d="M114.894 72.2689C106.756 72.2689 100.363 65.6814 100.363 57.7376 100.363 49.7938 106.95 43.2063 114.894 43.2063 123.031 43.2063 129.425 49.7938 129.425 57.7376 129.425 65.6814 122.838 72.2689 114.894 72.2689ZM147.638 48.6313C146.863 45.9188 145.894 43.4001 144.538 41.0751L147.638 31.9688 140.663 24.9938 131.556 28.0938C129.231 26.7375 126.713 25.7688 124 24.9938L119.738 16.4688 110.05 16.4688 105.788 24.9938C103.075 25.7688 100.556 26.7375 98.2314 28.0938L89.1252 24.9938 82.1501 31.9688 85.2502 41.0751C83.8939 43.4001 82.9251 45.9188 82.1501 48.6313L73.6251 52.8938 73.6251 62.5814 82.1501 66.8439C82.9251 69.5564 83.8939 72.0751 85.2502 74.4001L82.1501 83.5064 88.9314 90.2877 98.0377 87.1877C100.363 88.5439 102.881 89.5127 105.594 90.2877L109.856 98.8127 119.544 98.8127 123.806 90.2877C126.519 89.5127 129.038 88.5439 131.363 87.1877L140.469 90.2877 147.444 83.5064 144.344 74.4001C145.7 72.0751 146.863 69.3626 147.638 66.8439L156.163 62.5814 156.163 52.8938 147.638 48.6313Z" fill="#FFFFFF" transform="matrix(1 0 0 1.00537 8399 2055)"/><path d="M71.1064 142.794C62.9689 142.794 56.5751 136.206 56.5751 128.263 56.5751 120.125 63.1626 113.731 71.1064 113.731 79.2439 113.731 85.6377 120.319 85.6377 128.263 85.6377 136.206 79.2439 142.794 71.1064 142.794L71.1064 142.794ZM100.75 111.6 103.85 102.494 96.8752 95.5189 87.7689 98.6189C85.4439 97.2627 82.7314 96.2939 80.2126 95.5189L75.9501 86.9939 66.2626 86.9939 62.0001 95.5189C59.2876 96.2939 56.7688 97.2627 54.4438 98.6189L45.3376 95.5189 38.5563 102.3 41.4626 111.406C40.1063 113.731 39.1376 116.444 38.3626 118.963L29.8376 123.225 29.8376 132.913 38.3626 137.175C39.1376 139.888 40.1063 142.407 41.4626 144.732L38.5563 153.838 45.3376 160.619 54.4438 157.713C56.7688 159.069 59.2876 160.038 62.0001 160.813L66.2626 169.338 75.9501 169.338 80.2126 160.813C82.9251 160.038 85.4439 159.069 87.7689 157.713L96.8752 160.813 103.656 153.838 100.75 144.925C102.106 142.6 103.075 140.082 103.85 137.369L112.375 133.106 112.375 123.419 103.85 119.156C103.075 116.444 102.106 113.925 100.75 111.6Z" fill="#FFFFFF" transform="matrix(1 0 0 1.00537 8399 2055)"/></g></g></g><path d="M5073.67 2305 5797 2305C5717.1 2305 5652.33 2354.92 5652.33 2416.5 5652.33 2478.08 5717.1 2528 5797 2528L5073.67 2528C4993.77 2528 4929 2478.08 4929 2416.5 4929 2354.92 4993.77 2305 5073.67 2305Z" fill="#281C2C" fill-rule="evenodd"/><text fill="#FFFFFF" font-family="Arial,Arial_MSFontService,sans-serif" font-weight="400" font-size="92" transform="matrix(1 0 0 1 5246.9 2396)">Helse<tspan font-size="92" x="234.896" y="0">-</tspan><tspan font-size="92" x="-127.486" y="110">opplysninger</tspan></text><g clip-path="url(#clip32)"><g clip-path="url(#clip33)" filter="url(#fx4)" transform="translate(4917 1736)"><g clip-path="url(#clip34)"><rect x="22.2227" y="22.2229" width="875" height="249" stroke="#004BAA" stroke-width="5" stroke-miterlimit="8" fill="#0169E8"/></g></g><g clip-path="url(#clip35)" filter="url(#fx5)" transform="translate(5189 1763)"><g clip-path="url(#clip36)"><path d="M8.70117 0 8.70117-78.7402 65.6348-78.7402 65.6348-69.4482 19.1211-69.4482 19.1211-45.332 62.6807-45.332 62.6807-36.0937 19.1211-36.0937 19.1211-9.29199 67.4609-9.29199 67.4609 0ZM81.8197 0 81.8197-78.7402 111.522-78.7402C116.75-78.7402 120.742-78.4896 123.499-77.9883 127.367-77.3437 130.607-76.1173 133.221-74.3091 135.835-72.5008 137.939-69.9674 139.532-66.709 141.125-63.4505 141.922-59.8698 141.922-55.9668 141.922-49.2708 139.792-43.6043 135.531-38.9673 131.27-34.3302 123.571-32.0117 112.435-32.0117L92.2396-32.0117 92.2396 0ZM92.2396-41.3037 112.596-41.3037C119.328-41.3037 124.108-42.557 126.937-45.0635 129.766-47.57 131.18-51.097 131.18-55.6445 131.18-58.9388 130.347-61.7586 128.682-64.104 127.017-66.4494 124.824-67.998 122.103-68.75 120.348-69.2155 117.108-69.4482 112.381-69.4482L92.2396-69.4482ZM149.836-22.3437 159.235-23.6328C159.486-17.6172 160.614-13.4993 162.619-11.2793 164.624-9.05924 167.399-7.94922 170.944-7.94922 173.558-7.94922 175.814-8.54899 177.712-9.74853 179.609-10.9481 180.916-12.5773 181.632-14.6362 182.349-16.6951 182.707-19.9805 182.707-24.4922L182.707-78.7402 193.127-78.7402 193.127-25.083C193.127-18.4945 192.33-13.3919 190.736-9.77539 189.143-6.15885 186.619-3.40169 183.163-1.50391 179.708 0.39388 175.653 1.34277 170.998 1.34277 164.087 1.34277 158.796-0.644531 155.126-4.61914 151.456-8.59375 149.692-14.502 149.836-22.3437Z" fill="#FFFFFF" transform="matrix(1 0 0 1 86.166 160)"/></g></g></g><rect x="4929.5" y="1748.5" width="875" height="249" stroke="#004BAA" stroke-width="4.58333" stroke-miterlimit="8" fill="#0169E8"/><text fill="#FFFFFF" font-family="Arial,Arial_MSFontService,sans-serif" font-weight="400" font-size="110" transform="matrix(1 0 0 1 5265.44 1913)">EPJ</text><g clip-path="url(#clip37)"><g clip-path="url(#clip38)"><g clip-path="url(#clip39)"><path d="M111.805 70.326C103.886 70.326 97.6645 63.9156 97.6645 56.1854 97.6645 48.4552 104.075 42.0447 111.805 42.0447 119.724 42.0447 125.946 48.4552 125.946 56.1854 125.946 63.9156 119.535 70.326 111.805 70.326ZM143.669 47.3239C142.914 44.6843 141.972 42.2333 140.652 39.9708L143.669 31.1093 136.881 24.3218 128.02 27.3385C125.757 26.0187 123.306 25.076 120.667 24.3218L116.519 16.026 107.092 16.026 102.944 24.3218C100.304 25.076 97.853 26.0187 95.5905 27.3385L86.7291 24.3218 79.9416 31.1093 82.9582 39.9708C81.6385 42.2333 80.6957 44.6843 79.9416 47.3239L71.6458 51.4718 71.6458 60.8989 79.9416 65.0468C80.6957 67.6864 81.6385 70.1374 82.9582 72.3999L79.9416 81.2614 86.5405 87.8603 95.402 84.8437C97.6645 86.1635 100.116 87.1062 102.755 87.8603L106.903 96.1561 116.33 96.1561 120.478 87.8603C123.118 87.1062 125.569 86.1635 127.831 84.8437L136.693 87.8603 143.48 81.2614 140.463 72.3999C141.783 70.1374 142.914 67.4978 143.669 65.0468L151.964 60.8989 151.964 51.4718 143.669 47.3239Z" fill="#FFFFFF" transform="matrix(1 0 0 1.03315 5558 1779)"/><path d="M69.1947 138.955C61.276 138.955 55.0541 132.545 55.0541 124.814 55.0541 116.896 61.4645 110.674 69.1947 110.674 77.1135 110.674 83.3353 117.084 83.3353 124.814 83.3353 132.545 77.1135 138.955 69.1947 138.955L69.1947 138.955ZM98.0416 108.6 101.058 99.7384 94.2707 92.9509 85.4093 95.9676C83.1468 94.6478 80.5072 93.7051 78.0562 92.9509L73.9083 84.6551 64.4812 84.6551 60.3333 92.9509C57.6937 93.7051 55.2426 94.6478 52.9802 95.9676L44.1187 92.9509 37.5197 99.5499 40.3479 108.411C39.0281 110.674 38.0854 113.313 37.3312 115.764L29.0354 119.912 29.0354 129.339 37.3312 133.487C38.0854 136.127 39.0281 138.578 40.3479 140.84L37.5197 149.702 44.1187 156.301 52.9802 153.473C55.2426 154.793 57.6937 155.735 60.3333 156.489L64.4812 164.785 73.9083 164.785 78.0562 156.489C80.6957 155.735 83.1468 154.793 85.4093 153.473L94.2707 156.489 100.87 149.702 98.0416 141.029C99.3614 138.767 100.304 136.315 101.058 133.676L109.354 129.528 109.354 120.101 101.058 115.953C100.304 113.313 99.3614 110.862 98.0416 108.6Z" fill="#FFFFFF" transform="matrix(1 0 0 1.03315 5558 1779)"/></g></g></g><g clip-path="url(#clip40)"><g clip-path="url(#clip41)" filter="url(#fx6)" transform="translate(4917 2016)"><g clip-path="url(#clip42)"><rect x="22.2227" y="22.2227" width="868" height="248" stroke="#004BAA" stroke-width="5" stroke-miterlimit="8" fill="#0169E8"/></g></g><g clip-path="url(#clip43)" filter="url(#fx7)" transform="translate(5113 1977)"><g clip-path="url(#clip44)"><path d="M8.48633 0 8.48633-78.7402 35.6103-78.7402C41.7334-78.7402 46.4062-78.3642 49.6289-77.6123 54.1406-76.5739 57.9899-74.694 61.1768-71.9726 65.3304-68.4635 68.4367-63.9787 70.4956-58.5181 72.5545-53.0574 73.584-46.818 73.584-39.7998 73.584-33.82 72.8857-28.5205 71.4893-23.9014 70.0928-19.2822 68.3024-15.4598 66.1182-12.4341 63.9339-9.40837 61.5438-7.02718 58.9478-5.29053 56.3517-3.55387 53.2186-2.23796 49.5483-1.34277 45.8781-0.447591 41.6618 0 36.8994 0ZM18.9062-9.29199 35.7178-9.29199C40.9098-9.29199 44.9829-9.77539 47.937-10.7422 50.8911-11.709 53.2454-13.0697 55-14.8242 57.4707-17.2949 59.3953-20.616 60.7739-24.7876 62.1525-28.9591 62.8418-34.0169 62.8418-39.9609 62.8418-48.1966 61.4901-54.5255 58.7866-58.9478 56.0832-63.3699 52.7978-66.333 48.9307-67.8369 46.1377-68.9111 41.6439-69.4482 35.4492-69.4482L18.9062-69.4482ZM88.444 0 88.444-78.7402 98.8639-78.7402 98.8639-46.4062 139.792-46.4062 139.792-78.7402 150.212-78.7402 150.212 0 139.792 0 139.792-37.1143 98.8639-37.1143 98.8639 0ZM164.588-38.3496C164.588-51.4193 168.097-61.6512 175.116-69.0454 182.134-76.4396 191.193-80.1367 202.293-80.1367 209.562-80.1367 216.115-78.4001 221.951-74.9268 227.788-71.4534 232.237-66.6105 235.299-60.3979 238.36-54.1854 239.891-47.1403 239.891-39.2627 239.891-31.2777 238.28-24.1341 235.057-17.832 231.834-11.5299 227.269-6.75863 221.361-3.51807 215.452-0.277507 209.079 1.34277 202.24 1.34277 194.827 1.34277 188.203-0.447591 182.367-4.02832 176.53-7.60905 172.108-12.4967 169.1-18.6914 166.092-24.8861 164.588-31.4388 164.588-38.3496ZM175.33-38.1885C175.33-28.6995 177.882-21.2248 182.984-15.7642 188.087-10.3035 194.487-7.57324 202.186-7.57324 210.028-7.57324 216.482-10.3304 221.549-15.8447 226.615-21.359 229.149-29.1829 229.149-39.3164 229.149-45.7259 228.066-51.3208 225.899-56.1011 223.733-60.8813 220.564-64.5874 216.392-67.2192 212.221-69.8511 207.539-71.167 202.347-71.167 194.971-71.167 188.624-68.6336 183.306-63.5669 177.989-58.5002 175.33-50.0407 175.33-38.1885Z" fill="#FFFFFF" transform="matrix(1 0 0 1 137.41 160)"/><path d="M3.38379-17.0264 12.9443-18.5303C13.4814-14.6989 14.9764-11.7627 17.4292-9.72168 19.882-7.68066 23.3105-6.66016 27.7148-6.66016 32.1549-6.66016 35.4492-7.56429 37.5977-9.37256 39.7461-11.1808 40.8203-13.3024 40.8203-15.7373 40.8203-17.9215 39.8714-19.6403 37.9736-20.8936 36.6488-21.7529 33.3545-22.8451 28.0908-24.1699 21.001-25.9603 16.0864-27.5089 13.3472-28.8159 10.6079-30.1229 8.53109-31.9311 7.1167-34.2407 5.70231-36.5503 4.99512-39.1016 4.99512-41.8945 4.99512-44.4368 5.57699-46.7912 6.74072-48.9575 7.90446-51.1239 9.48893-52.9232 11.4941-54.3555 12.998-55.4655 15.048-56.4054 17.644-57.1753 20.2401-57.9451 23.0241-58.3301 25.9961-58.3301 30.472-58.3301 34.4019-57.6855 37.7856-56.3965 41.1694-55.1074 43.667-53.3618 45.2783-51.1597 46.8896-48.9575 47.9997-46.0124 48.6084-42.3242L39.1553-41.0352C38.7256-43.9714 37.4813-46.263 35.4224-47.9102 33.3634-49.5573 30.4541-50.3809 26.6943-50.3809 22.2542-50.3809 19.0853-49.6468 17.1875-48.1787 15.2897-46.7106 14.3408-44.9919 14.3408-43.0225 14.3408-41.7692 14.7347-40.6413 15.5225-39.6387 16.3102-38.6003 17.5456-37.7409 19.2285-37.0605 20.1953-36.7025 23.042-35.8789 27.7686-34.5898 34.6077-32.7637 39.3791-31.2687 42.0825-30.105 44.786-28.9412 46.9075-27.2493 48.4473-25.0293 49.987-22.8092 50.7568-20.0521 50.7568-16.7578 50.7568-13.5352 49.8169-10.5005 47.937-7.65381 46.0571-4.80713 43.3447-2.60498 39.7998-1.04736 36.2549 0.510254 32.2445 1.28906 27.7686 1.28906 20.3564 1.28906 14.7078-0.250651 10.8228-3.33008 6.93766-6.4095 4.45801-10.9749 3.38379-17.0264ZM61.8213 21.9678 60.7471 12.8906C62.8597 13.4635 64.7038 13.75 66.2793 13.75 68.4277 13.75 70.1465 13.3919 71.4355 12.6758 72.7246 11.9596 73.7809 10.957 74.6045 9.66797 75.2132 8.70117 76.1979 6.30208 77.5586 2.4707 77.7376 1.93359 78.0241 1.14583 78.418 0.107422L56.7725-57.041 67.1924-57.041 79.0625-24.0088C80.6022-19.8193 81.9808-15.415 83.1982-10.7959 84.3083-15.236 85.6331-19.5687 87.1728-23.7939L99.3652-57.041 109.033-57.041 87.334 0.966797C85.0065 7.23307 83.1982 11.5478 81.9092 13.9111 80.1904 17.098 78.221 19.4344 76.001 20.9204 73.7809 22.4064 71.1312 23.1494 68.0518 23.1494 66.1898 23.1494 64.1129 22.7555 61.8213 21.9678ZM113.384-17.0264 122.944-18.5303C123.481-14.6989 124.976-11.7627 127.429-9.72168 129.882-7.68066 133.311-6.66016 137.715-6.66016 142.155-6.66016 145.449-7.56429 147.598-9.37256 149.746-11.1808 150.82-13.3024 150.82-15.7373 150.82-17.9215 149.871-19.6403 147.974-20.8936 146.649-21.7529 143.354-22.8451 138.091-24.1699 131.001-25.9603 126.086-27.5089 123.347-28.8159 120.608-30.1229 118.531-31.9311 117.117-34.2407 115.702-36.5503 114.995-39.1016 114.995-41.8945 114.995-44.4368 115.577-46.7912 116.741-48.9575 117.904-51.1239 119.489-52.9232 121.494-54.3555 122.998-55.4655 125.048-56.4054 127.644-57.1753 130.24-57.9451 133.024-58.3301 135.996-58.3301 140.472-58.3301 144.402-57.6855 147.786-56.3965 151.169-55.1074 153.667-53.3618 155.278-51.1597 156.89-48.9575 158-46.0124 158.608-42.3242L149.155-41.0352C148.726-43.9714 147.481-46.263 145.422-47.9102 143.363-49.5573 140.454-50.3809 136.694-50.3809 132.254-50.3809 129.085-49.6468 127.187-48.1787 125.29-46.7106 124.341-44.9919 124.341-43.0225 124.341-41.7692 124.735-40.6413 125.522-39.6387 126.31-38.6003 127.546-37.7409 129.229-37.0605 130.195-36.7025 133.042-35.8789 137.769-34.5898 144.608-32.7637 149.379-31.2687 152.083-30.105 154.786-28.9412 156.908-27.2493 158.447-25.0293 159.987-22.8092 160.757-20.0521 160.757-16.7578 160.757-13.5352 159.817-10.5005 157.937-7.65381 156.057-4.80713 153.345-2.60498 149.8-1.04736 146.255 0.510254 142.244 1.28906 137.769 1.28906 130.356 1.28906 124.708-0.250651 120.823-3.33008 116.938-6.4095 114.458-10.9749 113.384-17.0264ZM193.359-8.64746 194.756-0.107422C192.034 0.465495 189.6 0.751953 187.451 0.751953 183.942 0.751953 181.221 0.19694 179.287-0.913086 177.353-2.02311 175.993-3.48226 175.205-5.29053 174.417-7.09879 174.023-10.9033 174.023-16.7041L174.023-49.5215 166.934-49.5215 166.934-57.041 174.023-57.041 174.023-71.167 183.638-76.9678 183.638-57.041 193.359-57.041 193.359-49.5215 183.638-49.5215 183.638-16.167C183.638-13.4098 183.808-11.6374 184.148-10.8496 184.488-10.0618 185.043-9.43522 185.813-8.96973 186.583-8.50423 187.684-8.27148 189.116-8.27148 190.19-8.27148 191.605-8.39681 193.359-8.64746ZM241.663-18.3691 251.654-17.1338C250.078-11.2972 247.16-6.76758 242.899-3.54492 238.638-0.322266 233.195 1.28906 226.571 1.28906 218.228 1.28906 211.612-1.28011 206.724-6.41846 201.837-11.5568 199.393-18.763 199.393-28.0371 199.393-37.6335 201.864-45.0814 206.805-50.3809 211.746-55.6803 218.156-58.3301 226.034-58.3301 233.66-58.3301 239.891-55.734 244.725-50.542 249.559-45.3499 251.976-38.0452 251.976-28.6279 251.976-28.055 251.958-27.1956 251.922-26.0498L209.383-26.0498C209.741-19.7835 211.514-14.9853 214.701-11.6553 217.887-8.32519 221.862-6.66016 226.624-6.66016 230.169-6.66016 233.195-7.59115 235.701-9.45312 238.208-11.3151 240.195-14.2871 241.663-18.3691ZM209.92-33.999 241.771-33.999C241.341-38.7972 240.124-42.3958 238.118-44.7949 235.039-48.5189 231.047-50.3809 226.141-50.3809 221.701-50.3809 217.968-48.8949 214.942-45.9228 211.916-42.9508 210.242-38.9762 209.92-33.999ZM263.918 0 263.918-57.041 272.565-57.041 272.565-49.0381C274.355-51.831 276.737-54.078 279.709-55.7788 282.681-57.4797 286.064-58.3301 289.86-58.3301 294.085-58.3301 297.55-57.4528 300.253-55.6982 302.957-53.9437 304.863-51.4909 305.973-48.3398 310.485-55 316.357-58.3301 323.59-58.3301 329.248-58.3301 333.599-56.7635 336.642-53.6304 339.686-50.4972 341.208-45.6722 341.208-39.1553L341.208 0 331.593 0 331.593-35.9326C331.593-39.7998 331.28-42.5838 330.653-44.2847 330.027-45.9855 328.89-47.3551 327.243-48.3936 325.596-49.432 323.662-49.9512 321.442-49.9512 317.432-49.9512 314.102-48.6173 311.452-45.9497 308.802-43.2821 307.477-39.012 307.477-33.1396L307.477 0 297.809 0 297.809-37.0605C297.809-41.3574 297.021-44.5801 295.446-46.7285 293.87-48.8769 291.292-49.9512 287.712-49.9512 284.99-49.9512 282.475-49.235 280.165-47.8027 277.856-46.3704 276.182-44.2757 275.143-41.5186 274.105-38.7614 273.586-34.7868 273.586-29.5947L273.586 0Z" fill="#FFFFFF" transform="matrix(1 0 0 1 85.5728 292)"/></g></g></g><rect x="4929.5" y="2028.5" width="868" height="248" stroke="#004BAA" stroke-width="4.58333" stroke-miterlimit="8" fill="#0169E8"/><text fill="#FFFFFF" font-family="Arial,Arial_MSFontService,sans-serif" font-weight="400" font-size="110" transform="matrix(1 0 0 1 5240.69 2127)">DHO <tspan font-size="110" x="-51.8379" y="132">system</tspan></text><g clip-path="url(#clip45)"><g clip-path="url(#clip46)"><g clip-path="url(#clip47)"><path d="M114.894 72.2687C106.756 72.2687 100.362 65.6812 100.362 57.7375 100.362 49.7937 106.95 43.2062 114.894 43.2062 123.031 43.2062 129.425 49.7937 129.425 57.7375 129.425 65.6812 122.837 72.2687 114.894 72.2687ZM147.637 48.6312C146.862 45.9187 145.894 43.4 144.537 41.075L147.637 31.9687 140.662 24.9937 131.556 28.0937C129.231 26.7375 126.712 25.7687 124 24.9937L119.737 16.4687 110.05 16.4687 105.787 24.9937C103.075 25.7687 100.556 26.7375 98.2312 28.0937L89.125 24.9937 82.15 31.9687 85.25 41.075C83.8937 43.4 82.925 45.9187 82.15 48.6312L73.625 52.8937 73.625 62.5812 82.15 66.8437C82.925 69.5562 83.8937 72.075 85.25 74.4L82.15 83.5062 88.9312 90.2875 98.0375 87.1875C100.362 88.5437 102.881 89.5125 105.594 90.2875L109.856 98.8125 119.544 98.8125 123.806 90.2875C126.519 89.5125 129.037 88.5437 131.362 87.1875L140.469 90.2875 147.444 83.5062 144.344 74.4C145.7 72.075 146.862 69.3625 147.637 66.8437L156.162 62.5812 156.162 52.8937 147.637 48.6312Z" fill="#FFFFFF" transform="matrix(1 0 0 1.00538 5558 2058)"/><path d="M71.1062 142.794C62.9687 142.794 56.575 136.206 56.575 128.262 56.575 120.125 63.1625 113.731 71.1062 113.731 79.2437 113.731 85.6375 120.319 85.6375 128.262 85.6375 136.206 79.2437 142.794 71.1062 142.794L71.1062 142.794ZM100.75 111.6 103.85 102.494 96.875 95.5187 87.7687 98.6187C85.4437 97.2625 82.7312 96.2937 80.2125 95.5187L75.95 86.9937 66.2625 86.9937 62 95.5187C59.2875 96.2937 56.7687 97.2625 54.4437 98.6187L45.3375 95.5187 38.5562 102.3 41.4625 111.406C40.1062 113.731 39.1375 116.444 38.3625 118.962L29.8375 123.225 29.8375 132.912 38.3625 137.175C39.1375 139.887 40.1062 142.406 41.4625 144.731L38.5562 153.837 45.3375 160.619 54.4437 157.712C56.7687 159.069 59.2875 160.037 62 160.812L66.2625 169.337 75.95 169.337 80.2125 160.812C82.925 160.037 85.4437 159.069 87.7687 157.712L96.875 160.812 103.656 153.837 100.75 144.925C102.106 142.6 103.075 140.081 103.85 137.369L112.375 133.106 112.375 123.419 103.85 119.156C103.075 116.444 102.106 113.925 100.75 111.6Z" fill="#FFFFFF" transform="matrix(1 0 0 1.00538 5558 2058)"/></g></g></g><path d="M5989 1562C5989 1423.93 6100.93 1312 6239 1312L7342 1312C7480.07 1312 7592 1423.93 7592 1562L7592 2562C7592 2700.07 7480.07 2812 7342 2812L6239 2812C6100.93 2812 5989 2700.07 5989 2562Z" stroke="#FF6B6B" stroke-width="27.5" stroke-miterlimit="8" stroke-dasharray="82.5 27.5" stroke-opacity="0.956863" fill="none" fill-rule="evenodd"/><text fill="#FF0000" font-family="Arial,Arial_MSFontService,sans-serif" font-weight="400" font-size="110" transform="matrix(1 0 0 1 6456.67 1509)">§<tspan font-size="110" x="61.3018" y="0">9 samarbeid</tspan></text><path d="M91.6667-18.3333 128.333-18.3333 128.333 18.3333 91.6667 18.3333ZM165-18.3333 201.667-18.3333 201.667 18.3333 165 18.3333ZM235.876-15.8764 272.543-15.8764 272.543 20.7903 235.876 20.7903ZM309.21-15.8764 340.516-15.8764 340.516 20.7903 309.21 20.7903ZM110 55 0 0 110-55ZM322.183-52.543 432.183 2.45696 322.183 57.457Z" fill="#3C3C3C" transform="matrix(-1 1.22465e-16 1.22465e-16 1 6279.68 2102.5)"/><path d="M91.6667-18.3333 128.333-18.3333 128.333 18.3333 91.6667 18.3333ZM165-18.3333 201.667-18.3333 201.667 18.3333 165 18.3333ZM237.823-17.8234 274.49-17.8234 274.49 18.8433 237.823 18.8433ZM311.157-17.8234 347.823-17.8234 347.823 18.8433 311.157 18.8433ZM110 55 0 0 110-55ZM336.21-54.4901 446.21 0.509941 336.21 55.5099Z" fill="#3C3C3C" transform="matrix(1 0 0 -1 7269.5 2102.01)"/><path d="M6504.83 3736 7229 3736C7149.01 3736 7084.17 3785.92 7084.17 3847.5 7084.17 3909.08 7149.01 3959 7229 3959L6504.83 3959C6424.84 3959 6360 3909.08 6360 3847.5 6360 3785.92 6424.84 3736 6504.83 3736Z" fill="#281C2C" fill-rule="evenodd"/><text fill="#FFFFFF" font-family="Arial,Arial_MSFontService,sans-serif" font-weight="400" font-size="92" transform="matrix(1 0 0 1 6678.23 3826)">Helse<tspan font-size="92" x="234.896" y="0">-</tspan><tspan font-size="92" x="-127.485" y="110">opplysninger</tspan></text><g clip-path="url(#clip48)"><g clip-path="url(#clip49)" filter="url(#fx8)" transform="translate(6348 3167)"><g clip-path="url(#clip50)"><rect x="22.2227" y="22.2227" width="875" height="248" stroke="#004BAA" stroke-width="5" stroke-miterlimit="8" fill="#0169E8"/></g></g><g clip-path="url(#clip51)" filter="url(#fx9)" transform="translate(6620 3194)"><g clip-path="url(#clip52)"><path d="M8.70117 0 8.70117-78.7402 65.6348-78.7402 65.6348-69.4482 19.1211-69.4482 19.1211-45.332 62.6807-45.332 62.6807-36.0937 19.1211-36.0937 19.1211-9.29199 67.4609-9.29199 67.4609 0ZM81.8197 0 81.8197-78.7402 111.522-78.7402C116.75-78.7402 120.742-78.4896 123.499-77.9883 127.367-77.3437 130.607-76.1173 133.221-74.3091 135.835-72.5008 137.939-69.9674 139.532-66.709 141.125-63.4505 141.922-59.8698 141.922-55.9668 141.922-49.2708 139.792-43.6043 135.531-38.9673 131.27-34.3302 123.571-32.0117 112.435-32.0117L92.2396-32.0117 92.2396 0ZM92.2396-41.3037 112.596-41.3037C119.328-41.3037 124.108-42.557 126.937-45.0635 129.766-47.57 131.18-51.097 131.18-55.6445 131.18-58.9388 130.347-61.7586 128.682-64.104 127.017-66.4494 124.824-67.998 122.103-68.75 120.348-69.2155 117.108-69.4482 112.381-69.4482L92.2396-69.4482ZM149.836-22.3437 159.235-23.6328C159.486-17.6172 160.614-13.4993 162.619-11.2793 164.624-9.05924 167.399-7.94922 170.944-7.94922 173.558-7.94922 175.814-8.54899 177.712-9.74853 179.609-10.9481 180.916-12.5773 181.632-14.6362 182.349-16.6951 182.707-19.9805 182.707-24.4922L182.707-78.7402 193.127-78.7402 193.127-25.083C193.127-18.4945 192.33-13.3919 190.736-9.77539 189.143-6.15885 186.619-3.40169 183.163-1.50391 179.708 0.39388 175.653 1.34277 170.998 1.34277 164.087 1.34277 158.796-0.644531 155.126-4.61914 151.456-8.59375 149.692-14.502 149.836-22.3437Z" fill="#FFFFFF" transform="matrix(1 0 0 1 86.4966 160)"/></g></g></g><rect x="6360.5" y="3179.5" width="875" height="248" stroke="#004BAA" stroke-width="4.58333" stroke-miterlimit="8" fill="#0169E8"/><text fill="#FFFFFF" font-family="Arial,Arial_MSFontService,sans-serif" font-weight="400" font-size="110" transform="matrix(1 0 0 1 6696.77 3344)">EPJ</text><g clip-path="url(#clip53)"><g clip-path="url(#clip54)"><g clip-path="url(#clip55)"><path d="M111.805 70.326C103.886 70.326 97.6645 63.9156 97.6645 56.1854 97.6645 48.4552 104.075 42.0447 111.805 42.0447 119.724 42.0447 125.946 48.4552 125.946 56.1854 125.946 63.9156 119.535 70.326 111.805 70.326ZM143.669 47.3239C142.914 44.6843 141.972 42.2333 140.652 39.9708L143.669 31.1093 136.881 24.3218 128.02 27.3385C125.757 26.0187 123.306 25.076 120.667 24.3218L116.519 16.026 107.092 16.026 102.944 24.3218C100.304 25.076 97.853 26.0187 95.5905 27.3385L86.7291 24.3218 79.9416 31.1093 82.9582 39.9708C81.6385 42.2333 80.6957 44.6843 79.9416 47.3239L71.6458 51.4718 71.6458 60.8989 79.9416 65.0468C80.6957 67.6864 81.6385 70.1374 82.9582 72.3999L79.9416 81.2614 86.5405 87.8603 95.402 84.8437C97.6645 86.1635 100.116 87.1062 102.755 87.8603L106.903 96.1561 116.33 96.1561 120.478 87.8603C123.118 87.1062 125.569 86.1635 127.831 84.8437L136.693 87.8603 143.48 81.2614 140.463 72.3999C141.783 70.1374 142.914 67.4978 143.669 65.0468L151.964 60.8989 151.964 51.4718 143.669 47.3239Z" fill="#FFFFFF" transform="matrix(1 0 0 1.02763 6989 3210)"/><path d="M69.1947 138.955C61.276 138.955 55.0541 132.545 55.0541 124.814 55.0541 116.896 61.4645 110.674 69.1947 110.674 77.1135 110.674 83.3353 117.084 83.3353 124.814 83.3353 132.545 77.1135 138.955 69.1947 138.955L69.1947 138.955ZM98.0416 108.6 101.058 99.7384 94.2707 92.9509 85.4093 95.9676C83.1468 94.6478 80.5072 93.7051 78.0562 92.9509L73.9083 84.6551 64.4812 84.6551 60.3333 92.9509C57.6937 93.7051 55.2426 94.6478 52.9802 95.9676L44.1187 92.9509 37.5197 99.5499 40.3479 108.411C39.0281 110.674 38.0854 113.313 37.3312 115.764L29.0354 119.912 29.0354 129.339 37.3312 133.487C38.0854 136.127 39.0281 138.578 40.3479 140.84L37.5197 149.702 44.1187 156.301 52.9802 153.473C55.2426 154.793 57.6937 155.735 60.3333 156.489L64.4812 164.785 73.9083 164.785 78.0562 156.489C80.6957 155.735 83.1468 154.793 85.4093 153.473L94.2707 156.489 100.87 149.702 98.0416 141.029C99.3614 138.767 100.304 136.315 101.058 133.676L109.354 129.528 109.354 120.101 101.058 115.953C100.304 113.313 99.3614 110.862 98.0416 108.6Z" fill="#FFFFFF" transform="matrix(1 0 0 1.02763 6989 3210)"/></g></g></g><g clip-path="url(#clip56)"><g clip-path="url(#clip57)" filter="url(#fx10)" transform="translate(6348 3447)"><g clip-path="url(#clip58)"><rect x="22.2227" y="22.2227" width="869" height="248" stroke="#004BAA" stroke-width="5" stroke-miterlimit="8" fill="#0169E8"/></g></g><g clip-path="url(#clip59)" filter="url(#fx11)" transform="translate(6544 3407)"><g clip-path="url(#clip60)"><path d="M8.48633 0 8.48633-78.7402 35.6103-78.7402C41.7334-78.7402 46.4062-78.3642 49.6289-77.6123 54.1406-76.5739 57.9899-74.694 61.1768-71.9726 65.3304-68.4635 68.4367-63.9787 70.4956-58.5181 72.5545-53.0574 73.584-46.818 73.584-39.7998 73.584-33.82 72.8857-28.5205 71.4893-23.9014 70.0928-19.2822 68.3024-15.4598 66.1182-12.4341 63.9339-9.40837 61.5438-7.02718 58.9478-5.29053 56.3517-3.55387 53.2186-2.23796 49.5483-1.34277 45.8781-0.447591 41.6618 0 36.8994 0ZM18.9062-9.29199 35.7178-9.29199C40.9098-9.29199 44.9829-9.77539 47.937-10.7422 50.8911-11.709 53.2454-13.0697 55-14.8242 57.4707-17.2949 59.3953-20.616 60.7739-24.7876 62.1525-28.9591 62.8418-34.0169 62.8418-39.9609 62.8418-48.1966 61.4901-54.5255 58.7866-58.9478 56.0832-63.3699 52.7978-66.333 48.9307-67.8369 46.1377-68.9111 41.6439-69.4482 35.4492-69.4482L18.9062-69.4482ZM88.444 0 88.444-78.7402 98.8639-78.7402 98.8639-46.4062 139.792-46.4062 139.792-78.7402 150.212-78.7402 150.212 0 139.792 0 139.792-37.1143 98.8639-37.1143 98.8639 0ZM164.588-38.3496C164.588-51.4193 168.097-61.6512 175.116-69.0454 182.134-76.4396 191.193-80.1367 202.293-80.1367 209.562-80.1367 216.115-78.4001 221.951-74.9268 227.788-71.4534 232.237-66.6105 235.299-60.3979 238.36-54.1854 239.891-47.1403 239.891-39.2627 239.891-31.2777 238.28-24.1341 235.057-17.832 231.834-11.5299 227.269-6.75863 221.361-3.51807 215.452-0.277507 209.079 1.34277 202.24 1.34277 194.827 1.34277 188.203-0.447591 182.367-4.02832 176.53-7.60905 172.108-12.4967 169.1-18.6914 166.092-24.8861 164.588-31.4388 164.588-38.3496ZM175.33-38.1885C175.33-28.6995 177.882-21.2248 182.984-15.7642 188.087-10.3035 194.487-7.57324 202.186-7.57324 210.028-7.57324 216.482-10.3304 221.549-15.8447 226.615-21.359 229.149-29.1829 229.149-39.3164 229.149-45.7259 228.066-51.3208 225.899-56.1011 223.733-60.8813 220.564-64.5874 216.392-67.2192 212.221-69.8511 207.539-71.167 202.347-71.167 194.971-71.167 188.624-68.6336 183.306-63.5669 177.989-58.5002 175.33-50.0407 175.33-38.1885Z" fill="#FFFFFF" transform="matrix(1 0 0 1 137.74 160)"/><path d="M3.38379-17.0264 12.9443-18.5303C13.4814-14.6989 14.9764-11.7627 17.4292-9.72168 19.882-7.68066 23.3105-6.66016 27.7148-6.66016 32.1549-6.66016 35.4492-7.56429 37.5977-9.37256 39.7461-11.1808 40.8203-13.3024 40.8203-15.7373 40.8203-17.9215 39.8714-19.6403 37.9736-20.8936 36.6488-21.7529 33.3545-22.8451 28.0908-24.1699 21.001-25.9603 16.0864-27.5089 13.3472-28.8159 10.6079-30.1229 8.53109-31.9311 7.1167-34.2407 5.70231-36.5503 4.99512-39.1016 4.99512-41.8945 4.99512-44.4368 5.57699-46.7912 6.74072-48.9575 7.90446-51.1239 9.48893-52.9232 11.4941-54.3555 12.998-55.4655 15.048-56.4054 17.644-57.1753 20.2401-57.9451 23.0241-58.3301 25.9961-58.3301 30.472-58.3301 34.4019-57.6855 37.7856-56.3965 41.1694-55.1074 43.667-53.3618 45.2783-51.1597 46.8896-48.9575 47.9997-46.0124 48.6084-42.3242L39.1553-41.0352C38.7256-43.9714 37.4813-46.263 35.4224-47.9102 33.3634-49.5573 30.4541-50.3809 26.6943-50.3809 22.2542-50.3809 19.0853-49.6468 17.1875-48.1787 15.2897-46.7106 14.3408-44.9919 14.3408-43.0225 14.3408-41.7692 14.7347-40.6413 15.5225-39.6387 16.3102-38.6003 17.5456-37.7409 19.2285-37.0605 20.1953-36.7025 23.042-35.8789 27.7686-34.5898 34.6077-32.7637 39.3791-31.2687 42.0825-30.105 44.786-28.9412 46.9075-27.2493 48.4473-25.0293 49.987-22.8092 50.7568-20.0521 50.7568-16.7578 50.7568-13.5352 49.8169-10.5005 47.937-7.65381 46.0571-4.80713 43.3447-2.60498 39.7998-1.04736 36.2549 0.510254 32.2445 1.28906 27.7686 1.28906 20.3564 1.28906 14.7078-0.250651 10.8228-3.33008 6.93766-6.4095 4.45801-10.9749 3.38379-17.0264ZM61.8213 21.9678 60.7471 12.8906C62.8597 13.4635 64.7038 13.75 66.2793 13.75 68.4277 13.75 70.1465 13.3919 71.4355 12.6758 72.7246 11.9596 73.7809 10.957 74.6045 9.66797 75.2132 8.70117 76.1979 6.30208 77.5586 2.4707 77.7376 1.93359 78.0241 1.14583 78.418 0.107422L56.7725-57.041 67.1924-57.041 79.0625-24.0088C80.6022-19.8193 81.9808-15.415 83.1982-10.7959 84.3083-15.236 85.6331-19.5687 87.1728-23.7939L99.3652-57.041 109.033-57.041 87.334 0.966797C85.0065 7.23307 83.1982 11.5478 81.9092 13.9111 80.1904 17.098 78.221 19.4344 76.001 20.9204 73.7809 22.4064 71.1312 23.1494 68.0518 23.1494 66.1898 23.1494 64.1129 22.7555 61.8213 21.9678ZM113.384-17.0264 122.944-18.5303C123.481-14.6989 124.976-11.7627 127.429-9.72168 129.882-7.68066 133.311-6.66016 137.715-6.66016 142.155-6.66016 145.449-7.56429 147.598-9.37256 149.746-11.1808 150.82-13.3024 150.82-15.7373 150.82-17.9215 149.871-19.6403 147.974-20.8936 146.649-21.7529 143.354-22.8451 138.091-24.1699 131.001-25.9603 126.086-27.5089 123.347-28.8159 120.608-30.1229 118.531-31.9311 117.117-34.2407 115.702-36.5503 114.995-39.1016 114.995-41.8945 114.995-44.4368 115.577-46.7912 116.741-48.9575 117.904-51.1239 119.489-52.9232 121.494-54.3555 122.998-55.4655 125.048-56.4054 127.644-57.1753 130.24-57.9451 133.024-58.3301 135.996-58.3301 140.472-58.3301 144.402-57.6855 147.786-56.3965 151.169-55.1074 153.667-53.3618 155.278-51.1597 156.89-48.9575 158-46.0124 158.608-42.3242L149.155-41.0352C148.726-43.9714 147.481-46.263 145.422-47.9102 143.363-49.5573 140.454-50.3809 136.694-50.3809 132.254-50.3809 129.085-49.6468 127.187-48.1787 125.29-46.7106 124.341-44.9919 124.341-43.0225 124.341-41.7692 124.735-40.6413 125.522-39.6387 126.31-38.6003 127.546-37.7409 129.229-37.0605 130.195-36.7025 133.042-35.8789 137.769-34.5898 144.608-32.7637 149.379-31.2687 152.083-30.105 154.786-28.9412 156.908-27.2493 158.447-25.0293 159.987-22.8092 160.757-20.0521 160.757-16.7578 160.757-13.5352 159.817-10.5005 157.937-7.65381 156.057-4.80713 153.345-2.60498 149.8-1.04736 146.255 0.510254 142.244 1.28906 137.769 1.28906 130.356 1.28906 124.708-0.250651 120.823-3.33008 116.938-6.4095 114.458-10.9749 113.384-17.0264ZM193.359-8.64746 194.756-0.107422C192.034 0.465495 189.6 0.751953 187.451 0.751953 183.942 0.751953 181.221 0.19694 179.287-0.913086 177.353-2.02311 175.993-3.48226 175.205-5.29053 174.417-7.09879 174.023-10.9033 174.023-16.7041L174.023-49.5215 166.934-49.5215 166.934-57.041 174.023-57.041 174.023-71.167 183.638-76.9678 183.638-57.041 193.359-57.041 193.359-49.5215 183.638-49.5215 183.638-16.167C183.638-13.4098 183.808-11.6374 184.148-10.8496 184.488-10.0618 185.043-9.43522 185.813-8.96973 186.583-8.50423 187.684-8.27148 189.116-8.27148 190.19-8.27148 191.605-8.39681 193.359-8.64746ZM241.663-18.3691 251.654-17.1338C250.078-11.2972 247.16-6.76758 242.899-3.54492 238.638-0.322266 233.195 1.28906 226.571 1.28906 218.228 1.28906 211.612-1.28011 206.724-6.41846 201.837-11.5568 199.393-18.763 199.393-28.0371 199.393-37.6335 201.864-45.0814 206.805-50.3809 211.746-55.6803 218.156-58.3301 226.034-58.3301 233.66-58.3301 239.891-55.734 244.725-50.542 249.559-45.3499 251.976-38.0452 251.976-28.6279 251.976-28.055 251.958-27.1956 251.922-26.0498L209.383-26.0498C209.741-19.7835 211.514-14.9853 214.701-11.6553 217.887-8.32519 221.862-6.66016 226.624-6.66016 230.169-6.66016 233.195-7.59115 235.701-9.45312 238.208-11.3151 240.195-14.2871 241.663-18.3691ZM209.92-33.999 241.771-33.999C241.341-38.7972 240.124-42.3958 238.118-44.7949 235.039-48.5189 231.047-50.3809 226.141-50.3809 221.701-50.3809 217.968-48.8949 214.942-45.9228 211.916-42.9508 210.242-38.9762 209.92-33.999ZM263.918 0 263.918-57.041 272.565-57.041 272.565-49.0381C274.355-51.831 276.737-54.078 279.709-55.7788 282.681-57.4797 286.064-58.3301 289.86-58.3301 294.085-58.3301 297.55-57.4528 300.253-55.6982 302.957-53.9437 304.863-51.4909 305.973-48.3398 310.485-55 316.357-58.3301 323.59-58.3301 329.248-58.3301 333.599-56.7635 336.642-53.6304 339.686-50.4972 341.208-45.6722 341.208-39.1553L341.208 0 331.593 0 331.593-35.9326C331.593-39.7998 331.28-42.5838 330.653-44.2847 330.027-45.9855 328.89-47.3551 327.243-48.3936 325.596-49.432 323.662-49.9512 321.442-49.9512 317.432-49.9512 314.102-48.6173 311.452-45.9497 308.802-43.2821 307.477-39.012 307.477-33.1396L307.477 0 297.809 0 297.809-37.0605C297.809-41.3574 297.021-44.5801 295.446-46.7285 293.87-48.8769 291.292-49.9512 287.712-49.9512 284.99-49.9512 282.475-49.235 280.165-47.8027 277.856-46.3704 276.182-44.2757 275.143-41.5186 274.105-38.7614 273.586-34.7868 273.586-29.5947L273.586 0Z" fill="#FFFFFF" transform="matrix(1 0 0 1 85.9028 292)"/></g></g></g><rect x="6360.5" y="3459.5" width="869" height="248" stroke="#004BAA" stroke-width="4.58333" stroke-miterlimit="8" fill="#0169E8"/><text fill="#FFFFFF" font-family="Arial,Arial_MSFontService,sans-serif" font-weight="400" font-size="110" transform="matrix(1 0 0 1 6672.02 3558)">DHO <tspan font-size="110" x="-51.8374" y="132">system</tspan></text><g clip-path="url(#clip61)"><g clip-path="url(#clip62)"><g clip-path="url(#clip63)"><path d="M7104.89 3561.27C7096.76 3561.27 7090.36 3554.68 7090.36 3546.74 7090.36 3538.79 7096.95 3532.21 7104.89 3532.21 7113.03 3532.21 7119.42 3538.79 7119.42 3546.74 7119.42 3554.68 7112.84 3561.27 7104.89 3561.27ZM7137.64 3537.63C7136.86 3534.92 7135.89 3532.4 7134.54 3530.07L7137.64 3520.97 7130.66 3513.99 7121.56 3517.09C7119.23 3515.74 7116.71 3514.77 7114 3513.99L7109.74 3505.47 7100.05 3505.47 7095.79 3513.99C7093.08 3514.77 7090.56 3515.74 7088.23 3517.09L7079.12 3513.99 7072.15 3520.97 7075.25 3530.07C7073.89 3532.4 7072.92 3534.92 7072.15 3537.63L7063.62 3541.89 7063.62 3551.58 7072.15 3555.84C7072.92 3558.56 7073.89 3561.07 7075.25 3563.4L7072.15 3572.51 7078.93 3579.29 7088.04 3576.19C7090.36 3577.54 7092.88 3578.51 7095.59 3579.29L7099.86 3587.81 7109.54 3587.81 7113.81 3579.29C7116.52 3578.51 7119.04 3577.54 7121.36 3576.19L7130.47 3579.29 7137.44 3572.51 7134.34 3563.4C7135.7 3561.07 7136.86 3558.36 7137.64 3555.84L7146.16 3551.58 7146.16 3541.89 7137.64 3537.63Z" fill="#FFFFFF"/><path d="M7061.11 3631.79C7052.97 3631.79 7046.58 3625.21 7046.58 3617.26 7046.58 3609.12 7053.16 3602.73 7061.11 3602.73 7069.24 3602.73 7075.64 3609.32 7075.64 3617.26 7075.64 3625.21 7069.24 3631.79 7061.11 3631.79L7061.11 3631.79ZM7090.75 3600.6 7093.85 3591.49 7086.88 3584.52 7077.77 3587.62C7075.44 3586.26 7072.73 3585.29 7070.21 3584.52L7065.95 3575.99 7056.26 3575.99 7052 3584.52C7049.29 3585.29 7046.77 3586.26 7044.44 3587.62L7035.34 3584.52 7028.56 3591.3 7031.46 3600.41C7030.11 3602.73 7029.14 3605.44 7028.36 3607.96L7019.84 3612.23 7019.84 3621.91 7028.36 3626.18C7029.14 3628.89 7030.11 3631.41 7031.46 3633.73L7028.56 3642.84 7035.34 3649.62 7044.44 3646.71C7046.77 3648.07 7049.29 3649.04 7052 3649.81L7056.26 3658.34 7065.95 3658.34 7070.21 3649.81C7072.92 3649.04 7075.44 3648.07 7077.77 3646.71L7086.88 3649.81 7093.66 3642.84 7090.75 3633.93C7092.11 3631.6 7093.08 3629.08 7093.85 3626.37L7102.38 3622.11 7102.38 3612.42 7093.85 3608.16C7093.08 3605.44 7092.11 3602.93 7090.75 3600.6Z" fill="#FFFFFF"/></g></g></g><path d="M91.6667-18.3333 128.333-18.3333 128.333 18.3333 91.6667 18.3333ZM165-18.3333 201.667-18.3333 201.667 18.3333 165 18.3333ZM238.333-18.3333 260.312-18.3333 260.312 2.2 241.979-16.1333 272.8-16.1333 272.8 20.5333 223.645 20.5333 223.645 0 241.979 18.3333 238.333 18.3333ZM309.467-16.1333 346.133-16.1333 346.133 20.5333 309.467 20.5333ZM382.8-16.1333 392.291-16.1333 392.291 20.5333 382.8 20.5333ZM110 55 0 0 110-55ZM373.957-52.8 483.957 2.2 373.957 57.2Z" fill="#3C3C3C" transform="matrix(-1.83697e-16 -1 -1 1.83697e-16 6793.7 2957.46)"/><path d="M4875.5 1559.16C4875.5 1541.67 4889.67 1527.5 4907.16 1527.5L5815.84 1527.5C5833.33 1527.5 5847.5 1541.67 5847.5 1559.16L5847.5 2650.84C5847.5 2668.33 5833.33 2682.5 5815.84 2682.5L4907.16 2682.5C4889.67 2682.5 4875.5 2668.33 4875.5 2650.84Z" stroke="#0169E8" stroke-width="4.58333" stroke-miterlimit="8" fill="#00BBD4" fill-rule="evenodd" fill-opacity="0.6"/><text fill="#281C2C" font-family="Arial,Arial_MSFontService,sans-serif" font-weight="700" font-size="110" transform="matrix(1 0 0 1 4974.2 1659)">Virksomhet(er)</text><path d="M6307.5 2989.16C6307.5 2971.67 6321.67 2957.5 6339.16 2957.5L7247.87 2957.5C7265.35 2957.5 7279.53 2971.67 7279.53 2989.16L7279.53 4081.84C7279.53 4099.33 7265.35 4113.5 7247.87 4113.5L6339.16 4113.5C6321.67 4113.5 6307.5 4099.33 6307.5 4081.84Z" stroke="#0169E8" stroke-width="4.58333" stroke-miterlimit="8" fill="#00BBD4" fill-rule="evenodd" fill-opacity="0.6"/><text fill="#281C2C" font-family="Arial,Arial_MSFontService,sans-serif" font-weight="700" font-size="110" transform="matrix(1 0 0 1 6405.53 3090)">Virksomhet(er)</text><path d="M7716.5 1556.16C7716.5 1538.67 7730.67 1524.5 7748.16 1524.5L8656.84 1524.5C8674.33 1524.5 8688.5 1538.67 8688.5 1556.16L8688.5 2647.84C8688.5 2665.33 8674.33 2679.5 8656.84 2679.5L7748.16 2679.5C7730.67 2679.5 7716.5 2665.33 7716.5 2647.84Z" stroke="#0169E8" stroke-width="4.58333" stroke-miterlimit="8" fill="#00BBD4" fill-rule="evenodd" fill-opacity="0.6"/><text fill="#281C2C" font-family="Arial,Arial_MSFontService,sans-serif" font-weight="700" font-size="110" transform="matrix(1 0 0 1 7814.58 1656)">Virksomhet(er)</text></g></svg>